<?xml version="1.0" encoding="UTF-8" standalone="no"?>
<svg width="267px" height="67px" viewBox="0 0 267 67" version="1.1" xmlns="http://www.w3.org/2000/svg" xmlns:xlink="http://www.w3.org/1999/xlink">
    <!-- Generator: Sketch 42 (36781) - http://www.bohemiancoding.com/sketch -->
    <title>Group 2</title>
    <desc>Created with Sketch.</desc>
    <defs>
        <linearGradient x1="117.294166%" y1="50%" x2="0%" y2="0%" id="linearGradient-1">
            <stop stop-color="#FBDA61" offset="0%"></stop>
            <stop stop-color="#F9A03D" offset="54.636234%"></stop>
            <stop stop-color="#F76B1C" offset="100%"></stop>
        </linearGradient>
    </defs>
    <g id="Page-1" stroke="none" stroke-width="1" fill="none" fill-rule="evenodd">
        <g id="Group-2">
            <g id="litsco_logo_wide">
                <g id="Page-1">
                    <g id="Group-2">
                        <g id="litsco_logo_bar" transform="translate(0.000000, 0.075758)" fill-rule="nonzero" fill="#2B3668">
                            <polygon id="Rectangle-218" points="33.2684825 31.660827 29.766537 35.530303 29.766537 -3.55271368e-15 33.2684825 4.00885345"></polygon>
                            <rect id="Rectangle-217" x="35.0194553" y="3.76836547" width="21.5953307" height="27.9935721"></rect>
                            <polygon id="Rectangle-218" transform="translate(60.116732, 17.765152) scale(-1, 1) translate(-60.116732, -17.765152) " points="61.8677052 31.660827 58.3657597 35.530303 58.3657597 -3.55271368e-15 61.8677052 4.00885345"></polygon>
                            <polygon id="Rectangle-218" points="91.6342412 31.660827 88.1322957 35.530303 88.1322957 -3.55271368e-15 91.6342412 4.00885345"></polygon>
                            <rect id="Rectangle-217" x="5.25291829" y="-3.55271368e-15" width="22.7626459" height="35.530303"></rect>
                            <rect id="Rectangle-217" x="63.618677" y="-3.55271368e-15" width="22.7626459" height="35.530303"></rect>
                            <rect id="Rectangle-217" x="93.385214" y="3.76836547" width="21.5953307" height="27.9935721"></rect>
                            <polygon id="Rectangle-218" transform="translate(118.482489, 17.765152) scale(-1, 1) translate(-118.482489, -17.765152) " points="120.233462 31.660827 116.731517 35.530303 116.731517 -3.55271368e-15 120.233462 4.00885345"></polygon>
                            <polygon id="Rectangle-218" points="150 31.660827 146.498054 35.530303 146.498054 -3.55271368e-15 150 4.00885345"></polygon>
                            <rect id="Rectangle-217" x="121.984436" y="-3.55271368e-15" width="22.7626459" height="35.530303"></rect>
                            <polygon id="Rectangle-218" transform="translate(1.750973, 17.765152) scale(-1, 1) translate(-1.750973, -17.765152) " points="3.501946 31.660827 4.7e-07 35.530303 4.7e-07 -3.55271368e-15 3.501946 4.00885345"></polygon>
                        </g>
                        <g id="Group-3" transform="translate(160.000000, 3.000000)">
                            <g id="LITSCO" transform="translate(4.000000, 0.000000)" font-size="28" font-family="AvenirNext-Regular, Avenir Next" fill="#4E4E4E" font-weight="normal">
                                <text>
                                    <tspan x="0" y="28">LITSCO</tspan>
                                </text>
                            </g>
                            <path d="M2,34.5151515 L105,34.5151515" id="Line" stroke="#9B9B9B" stroke-width="2" stroke-linecap="square"></path>
                            <g id="SINCE-1918" transform="translate(0.000000, 38.575758)" font-size="10" font-family="AvenirNext-Regular, Avenir Next" fill="#4E4E4E" font-weight="normal">
                                <text id="SERVING-EXCELLENCE-F">
                                    <tspan x="0.29" y="10">SERVING EXCELLENCE</tspan>
                                    <tspan x="17.08" y="24">FOR 100 YEARS</tspan>
                                </text>
                            </g>
                        </g>
                    </g>
                </g>
            </g>
            <g id="Group" transform="translate(13.000000, 40.000000)">
                <path d="M0.208753521,0.0892857143 C3.66401408,0.366964286 7.25873239,0.05 10.2332535,2.50178571 C10.8023451,2.97053571 11.1514225,3.72589286 11.5983803,4.35178571 C11.7932746,4.625 11.922338,5.00446429 12.181331,5.16339286 C15.6565141,7.31071429 19.1481549,9.42946429 22.6441268,11.5419643 C22.767993,11.6160714 22.9706831,11.5517857 23.2210141,11.4660714 C19.4582535,9.73482143 18.7592324,5.80625 16.8934437,2.57857143 C21.7562746,3.10803571 23.9746056,3.34642857 25.6680211,9.33392857 C25.8854366,10.0991071 26.1158451,10.8848214 26.4917746,11.5741071 C27.1015775,12.6901786 27.7832746,13.66875 29.2679366,13.83125 C31.1744366,14.0375 33.0506197,14.5294643 35.0939789,14.9285714 C33.1285775,12.0098214 31.3095634,9.3125 29.5078732,6.60357143 C29.4377113,6.49821429 29.528662,6.27767857 29.5451197,6.11071429 C34.0216268,6.65535714 39.8008944,9.83660714 39.6493099,14.975 C41.8026761,14.6428571 43.9170634,14.3803571 46.0054648,13.9758929 C48.0618169,13.5794643 50.0921831,13.0401786 52.1918451,12.6758929 C51.4062042,13.7392857 50.1727394,14.1330357 49.0354225,14.4151786 C47.4840634,14.8 46.4974648,15.4151786 45.9942042,17.1294643 C45.1687183,19.9401786 42.7866761,21.31875 40.401169,22.4428571 C38.740669,23.2267857 36.9008662,23.6125 35.1338239,24.1473214 C34.8644366,24.2294643 34.550007,24.1589286 33.7834225,24.1589286 C36.2356268,21.3089286 38.4409648,18.7482143 40.7155986,16.1053571 C39.5921408,16.1053571 38.5249859,16.1133929 37.457831,16.1026786 C36.4192606,16.0910714 35.3131268,16.2901786 34.3551127,15.9928571 C32.3134859,15.35625 30.9951338,16.2473214 29.7902535,17.74375 C27.9591127,20.01875 25.3276056,20.4776786 22.7229507,20.8473214 C21.3690845,21.0401786 19.9693099,20.8803571 18.1589577,20.8803571 C20.6293521,17.7928571 22.9455634,15.1473214 26.945662,14.70625 C24.5272394,13.6267857 22.2907183,12.5053571 19.9589155,11.6651786 C19.2711549,11.4178571 18.2464437,11.825 17.4885211,12.1830357 C15.4200423,13.1607143 13.4303873,12.6875 11.434669,12.0446429 C9.84866197,11.5348214 8.28257746,10.95625 6.5813662,10.0660714 C7.84601408,9.50803571 9.0699507,8.79196429 10.3857042,8.43660714 C11.7257113,8.07410714 13.1558028,8.06696429 14.7253521,7.88303571 C13.165331,6.95178571 12.0687254,5.59910714 9.9933169,5.91696429 C7.3185,6.32678571 5.30026056,4.51785714 3.27249296,3.03125 C2.15509859,2.21160714 1.10180282,1.30267857 0.0181901408,0.434821429 C0.0822887324,0.31875 0.14465493,0.203571429 0.208753521,0.0892857143" id="Fill-21" fill="url(#linearGradient-1)" style="mix-blend-mode: darken;"></path>
                <path d="M81.2150634,2.4125 C81.7841549,2.88125 82.1332324,3.63660714 82.5801901,4.2625 C82.7750845,4.53571429 82.9041479,4.91517857 83.1631408,5.07410714 C86.6383239,7.22142857 90.1299648,9.34017857 93.6259366,11.4526786 C93.7498028,11.5267857 93.952493,11.4625 94.2028239,11.3767857 C90.4400634,9.64553571 89.7410423,5.71696429 87.8752535,2.48928571 C92.7380845,3.01875 94.9564155,3.25714286 96.649831,9.24464286 C96.8672465,10.0098214 97.0976549,10.7955357 97.4735845,11.4848214 C98.0833873,12.6008929 98.7650845,13.5794643 100.249746,13.7419643 C102.156246,13.9482143 104.03243,14.4401786 106.075789,14.8392857 C104.110387,11.9205357 102.291373,9.22321429 100.489683,6.51428571 C100.419521,6.40892857 100.510472,6.18839286 100.52693,6.02142857 C105.003437,6.56607143 110.782704,9.74732143 110.63112,14.8857143 C112.784486,14.5535714 114.898873,14.2910714 116.987275,13.8866071 C119.043627,13.4901786 121.073993,12.9508929 123.173655,12.5866071 C122.388014,13.65 121.154549,14.04375 120.017232,14.3258929 C118.465873,14.7107143 117.479275,15.3258929 116.976014,17.0401786 C116.150528,19.8508929 113.768486,21.2294643 111.382979,22.3535714 C109.722479,23.1375 107.882676,23.5232143 106.115634,24.0580357 C105.846246,24.1401786 105.531817,24.0696429 104.765232,24.0696429 C107.217437,21.2196429 109.422775,18.6589286 111.697408,16.0160714 C110.573951,16.0160714 109.506796,16.0241071 108.439641,16.0133929 C107.40107,16.0017857 106.294937,16.2008929 105.336923,15.9035714 C103.295296,15.2669643 101.976944,16.1580357 100.772063,17.6544643 C98.9409225,19.9294643 96.3094155,20.3883929 93.7047606,20.7580357 C92.3508944,20.9508929 90.9511197,20.7910714 89.1407676,20.7910714 C91.611162,17.7035714 93.9273732,15.0580357 97.9274718,14.6169643 C95.5090493,13.5375 93.2725282,12.4160714 90.9407254,11.5758929 C90.2529648,11.3285714 89.2282535,11.7357143 88.470331,12.09375 C86.4018521,13.0714286 84.4121972,12.5982143 82.4164789,11.9553571 C80.8304718,11.4455357 79.2643873,10.8669643 77.5631761,9.97678571 C78.8278239,9.41875 80.0517606,8.70267857 81.3675141,8.34732143 C82.7075211,7.98482143 84.1376127,7.97767857 85.707162,7.79375 C84.1471408,6.8625 83.0505352,5.50982143 80.9751268,5.82767857 C78.3003099,6.2375 76.2820704,4.42857143 74.2543028,2.94196429 C73.1369085,2.12232143 72.0836127,1.21339286 71,0.345535714 C71.0640986,0.229464286 71.1264648,0.114285714 71.1905634,0 C74.6458239,0.277678571 78.2405423,-0.0392857143 81.2150634,2.4125 Z" id="Fill-21-Copy" fill="url(#linearGradient-1)" style="mix-blend-mode: darken;" transform="translate(97.086827, 12.048908) scale(-1, 1) translate(-97.086827, -12.048908) "></path>
                <polyline id="Fill-23" fill="#F6A623" style="mix-blend-mode: darken;" points="61.5 5.17142857 63.762507 9.89642857 68.8219648 10.6544643 65.1614155 14.3330357 66.0258803 19.5267857 61.5 17.0741071 56.9749859 19.5267857 57.8385845 14.3330357 54.1780352 10.6544643 59.237493 9.89642857 61.5 5.17142857"></polyline>
            </g>
        </g>
    </g>
</svg>