<?xml version="1.0" encoding="UTF-8" standalone="no"?>
<svg width="332px" height="125px" viewBox="0 0 332 125" version="1.1" xmlns="http://www.w3.org/2000/svg" xmlns:xlink="http://www.w3.org/1999/xlink">
    <!-- Generator: Sketch 42 (36781) - http://www.bohemiancoding.com/sketch -->
    <title>Century_Litsco</title>
    <desc>Created with Sketch.</desc>
    <defs>
        <radialGradient cx="50%" cy="0%" fx="50%" fy="0%" r="50%" id="radialGradient-1">
            <stop stop-color="#000000" stop-opacity="0" offset="0%"></stop>
            <stop stop-color="#2B3668" offset="100%"></stop>
        </radialGradient>
        <linearGradient x1="117.294166%" y1="50%" x2="0%" y2="0%" id="linearGradient-2">
            <stop stop-color="#FBDA61" offset="0%"></stop>
            <stop stop-color="#F9A03D" offset="54.636234%"></stop>
            <stop stop-color="#F76B1C" offset="100%"></stop>
        </linearGradient>
        <radialGradient cx="50%" cy="0%" fx="50%" fy="0%" r="50%" id="radialGradient-3">
            <stop stop-color="#FFFFFF" offset="0%"></stop>
            <stop stop-color="#2B3668" offset="100%"></stop>
        </radialGradient>
    </defs>
    <g id="Page-1" stroke="none" stroke-width="1" fill="none" fill-rule="evenodd">
        <g id="Century_Litsco" transform="translate(-1.000000, 0.000000)">
            <path d="M1,77 L332,77" id="Stroke-18" stroke="#636462" stroke-width="2"></path>
            <text id="100-YEARS-OF-EXCELLE" font-family="Copperplate" font-size="23" font-weight="normal" fill="#4A4A4A">
                <tspan x="0" y="94">100 YEARS OF EXCELLENCE</tspan>
            </text>
            <g id="Group-3" transform="translate(1.000000, 0.000000)">
                <polygon id="Fill-23" fill="#2B3668" points="0.834 72.7330729 137.429688 72.7330729 167.854 72.7330729 167.854 62.2197396 0.834 62.2197396"></polygon>
                <path d="M124.274,45.4909167 L148.961,55.0359167" id="Path" stroke="#8A8B8A"></path>
                <polygon id="Path" fill="url(#radialGradient-1)" points="163.858 60.8087396 151.302 56.1166458 150.451 54.645125 150.451 52.0686667 149.812 44.2485104 149.812 43.7894167 150.504 43.7894167 150.451 42.1786979 148.429 41.1671354 147.152 41.1671354 146.62 41.6729167 145.609 41.9028958 145.29 42.9602813 143.481 42.9602813 142.896 42.6853438 141.406 42.7769896 140.661 43.8352396 138.427 43.9268854 138.16 43.2827708 136.618 43.3285938 136.618 52.3678125 123.743 47.9748646 123.743 53.4485417 135.979 56.1166458 136.298 63.5684896 151.089 63.5684896 151.089 60.7170938 150.451 59.0605521 163.858 62.7402187"></polygon>
                <path d="M125.583,45.9966979 L125.583,49.03225" id="Fill-26" fill="url(#radialGradient-1)"></path>
                <path d="M125.583,45.9966979 L125.583,49.03225" id="Stroke-27" stroke="#8A8B8A" stroke-width="0.5"></path>
                <path d="M124.461,45.6750729 L124.461,48.710625" id="Fill-28" fill="url(#radialGradient-1)"></path>
                <path d="M124.461,45.6750729 L124.461,48.710625" id="Stroke-29" stroke="#8A8B8A" stroke-width="0.5"></path>
                <path d="M126.668,46.4108333 L126.668,49.4463854" id="Fill-30" fill="url(#radialGradient-1)"></path>
                <path d="M126.668,46.4108333 L126.668,49.4463854" id="Stroke-31" stroke="#8A8B8A" stroke-width="0.5"></path>
                <path d="M127.786,46.7558021 L127.786,49.7913542" id="Fill-32" fill="url(#radialGradient-1)"></path>
                <path d="M127.786,46.7558021 L127.786,49.7913542" id="Stroke-33" stroke="#8A8B8A" stroke-width="0.5"></path>
                <path d="M128.961,47.3195104 L128.961,50.3550625" id="Fill-34" fill="url(#radialGradient-1)"></path>
                <path d="M128.961,47.3195104 L128.961,50.3550625" id="Stroke-35" stroke="#8A8B8A" stroke-width="0.5"></path>
                <path d="M130.047,47.7336458 L130.047,50.7691979" id="Fill-36" fill="url(#radialGradient-1)"></path>
                <path d="M130.047,47.7336458 L130.047,50.7691979" id="Stroke-37" stroke="#8A8B8A" stroke-width="0.5"></path>
                <path d="M131.164,51.1141667 L131.164,48.07775" id="Fill-38" fill="url(#radialGradient-1)"></path>
                <path d="M131.164,51.1141667 L131.164,48.07775" id="Stroke-39" stroke="#8A8B8A" stroke-width="0.5"></path>
                <path d="M132.367,48.710625 L132.367,51.7470417" id="Fill-40" fill="url(#radialGradient-1)"></path>
                <path d="M132.367,48.710625 L132.367,51.7470417" id="Stroke-41" stroke="#8A8B8A" stroke-width="0.5"></path>
                <path d="M133.452,49.1247604 L133.452,52.1611771" id="Fill-42" fill="url(#radialGradient-1)"></path>
                <path d="M133.452,49.1247604 L133.452,52.1611771" id="Stroke-43" stroke="#8A8B8A" stroke-width="0.5"></path>
                <path d="M134.569,49.4697292 L134.569,52.5061458" id="Fill-44" fill="url(#radialGradient-1)"></path>
                <path d="M134.569,49.4697292 L134.569,52.5061458" id="Stroke-45" stroke="#8A8B8A" stroke-width="0.5"></path>
                <path d="M135.686,50.0567812 L135.686,53.0923333" id="Fill-46" fill="url(#radialGradient-1)"></path>
                <path d="M135.686,50.0567812 L135.686,53.0923333" id="Stroke-47" stroke="#8A8B8A" stroke-width="0.5"></path>
                <path d="M126.259,46.4108333 L135.287,44.6168229" id="Path" stroke="#8A8B8A" stroke-width="0.25"></path>
                <path d="M137.15,44.9851354 L121.933,49.1247604" id="Fill-49" fill="url(#radialGradient-1)"></path>
                <path d="M137.15,44.9851354 L121.933,49.1247604" id="Stroke-50" stroke="#8A8B8A" stroke-width="0.25"></path>
                <path d="M138.403,45.2635313 L123.926,51.0562396" id="Fill-51" fill="url(#radialGradient-1)"></path>
                <path d="M138.403,45.2635313 L123.926,51.0562396" id="Stroke-52" stroke="#8A8B8A" stroke-width="0.25"></path>
                <path d="M139.605,45.9405 L125.128,51.7332083" id="Fill-53" fill="url(#radialGradient-1)"></path>
                <path d="M139.605,45.9405 L125.128,51.7332083" id="Stroke-54" stroke="#8A8B8A" stroke-width="0.25"></path>
                <path d="M140.69,46.5500313 L126.214,52.3436042" id="Fill-55" fill="url(#radialGradient-1)"></path>
                <path d="M149.333,46.9529271 L153.43,59.3363542" id="Path" stroke="#8A8B8A" stroke-width="0.25"></path>
                <path d="M78.076,12.2805417 C78.076,12.2805417 77.492,10.9940417 77.492,9.98334375 L77.492,7.73196875 C77.492,7.73196875 76.827,7.5945 77.332,7.24953125 C77.332,7.20370833 77.306,6.95125 77.306,6.95125 L76.854,6.60714583 L76.854,5.61892708 L76.641,4.97567708 L76.934,4.97567708 L76.881,4.60822917 L76.455,4.07996875 C76.455,4.07996875 75.552,3.80416667 75.977,3.36755208 C75.977,3.29838542 76.031,2.51766667 76.031,2.51766667 L76.97,2.51766667 L77.12,1.87441667 L76.801,1.66778125 L76.97,1.18534375 L77.306,0.840375 L77.492,0.403760417 L77.651,0.633739583 L78.076,0.05965625 L78.076,0.51875 L78.555,0.05965625 L78.957,0.427104167 L78.767,1.25451042 C78.767,1.25451042 78.927,1.41532292 78.687,1.62109375 C78.449,1.82859375 78.342,1.98940625 78.342,1.98940625 L78.342,2.4485 L79.352,2.49432292 L79.352,3.20673958 C79.352,3.20673958 80.043,3.75834375 79.352,3.8958125 C79.272,3.91915625 78.501,3.96497917 78.501,3.96497917 L78.475,4.46989583 L78.156,4.49323958 L78.156,4.99815625 L78.501,4.99815625 C78.501,4.99815625 78.935,5.52728125 78.957,5.80221875 C78.98,6.07802083 79.086,8.49020833 79.086,8.49020833 C79.086,8.49020833 79.352,9.70840625 79.485,10.0525104 C79.618,10.3966146 79.883,11.4764792 79.83,12.2805417 C79.83,12.2347188 79.837,12.7629792 79.837,12.7629792 C79.837,12.7629792 80.282,12.5796875 80.335,13.0163021 C80.388,13.4520521 80.919,13.8195 80.813,14.1878125 C80.707,14.5552604 80.999,14.9227083 80.999,14.9227083 L81.451,15.0601771 L81.876,14.6469063 C81.876,14.6469063 81.451,14.2561146 81.69,14.1878125 C81.929,14.1186458 81.876,13.2921042 81.876,13.2921042 L79.963,13.3145833 L79.936,13.0163021 L81.77,12.9929583 C81.77,12.9929583 81.717,12.6713333 81.717,12.5338646 C81.717,12.3955312 79.272,12.3263646 79.272,12.3263646 L82.141,12.2805417 C82.141,12.2805417 82.062,11.9364375 82.301,11.8214479 C82.275,11.7989687 80.521,10.1216771 80.521,10.1216771 L82.753,11.6148125 C82.753,11.6148125 83.151,11.4073125 83.497,11.4306563 C83.842,11.454 83.683,9.31761458 83.683,9.31761458 L84.241,11.568125 C84.241,11.568125 84.586,11.4073125 84.852,11.568125 C84.905,11.568125 87.004,10.0525104 87.004,10.0525104 L85.463,11.7989687 C85.463,11.7989687 85.808,12.0047396 85.835,12.1888958 C85.808,12.2122396 88.678,11.4764792 88.678,11.4764792 L86.207,12.5338646 C86.207,12.5338646 86.313,12.7863229 86.26,12.8779688 C86.233,12.8321458 89.076,12.9929583 89.076,12.9929583 L86.26,13.4062292 L86.127,14.027 L86.419,14.1186458 C86.419,14.1186458 86.1,14.3711042 86.1,14.5319167 C86.1,14.6927292 86.367,15.1985104 86.367,15.1985104 L86.526,15.7267708 C86.526,15.7267708 86.287,15.9792292 86.207,16.0025729 C86.127,16.0250521 86.419,16.3466771 86.419,16.6224792 C86.419,16.8982812 86.526,17.1507396 86.765,17.3348958 C87.004,17.5181875 87.589,18.0239688 87.589,18.0239688 C87.589,18.0239688 88.014,18.1389583 88.094,18.2997708 C88.173,18.4605833 88.572,18.8046875 88.598,19.1263125 C88.625,19.4479375 88.811,19.8620729 88.811,19.8620729 C88.811,19.8620729 89.103,19.9070313 89.076,20.1145312 C89.05,20.3211667 88.997,21.1710521 89.422,21.3318646 C89.847,21.4926771 90.033,21.3318646 90.059,21.5618437 C90.086,21.7909583 90.618,21.9059479 90.618,21.9059479 L91.069,20.9868958 L91.468,21.0794063 L91.468,20.4586354 L94.125,21.9059479 L93.859,22.3192188 L94.125,22.4575521 L93.487,23.0774583 C93.487,23.0774583 93.966,23.3999479 93.992,23.5598958 C94.018,23.7207083 93.009,25.1913646 93.009,25.1913646 L92.584,25.6504583 L91.84,25.6504583 L91.654,25.9029167 C91.654,25.9029167 91.76,27.6718542 91.335,28.2692813 C90.91,28.8667083 90.352,28.8208854 90.352,28.8208854 C90.352,28.8208854 90.219,29.2575 89.927,29.2116771 C89.635,29.1649896 89.847,29.8774063 89.847,29.8774063 L90.485,32.9328438 L90.033,33.0936563 L90.538,34.9542396 L89.927,34.9542396 L90.166,36.1715729 L89.554,36.1715729 L90.033,39.4111667 C90.033,39.4111667 89.661,39.8469167 89.316,39.9169479 C88.97,39.98525 89.581,43.6839375 89.581,43.6839375 L89.688,44.0055625 L90.485,44.2813646 L90.485,45.7745 L91.494,45.7745 L91.441,49.0365729 L92.876,49.0365729 L92.956,51.9303333 L92.291,52.9877187 L94.125,67.6441354 L72.656,67.6441354 L74.782,52.7119167 L73.878,51.7928646 L73.878,49.0823958 L75.845,49.0823958 L75.738,45.6819896 L76.323,45.7286771 L76.482,44.2580208 L77.439,44.3963542 L77.678,43.7064167 C77.678,43.7064167 77.957,43.6554063 78.196,43.6381146 C78.435,43.6208229 79.539,42.3455625 78.957,41.4498542 C78.933,41.3633958 78.495,40.7953646 78.774,40.7607813 C79.053,40.7261979 79.212,40.6743229 79.212,40.6743229 C79.212,40.6743229 79.041,39.0376667 78.957,38.8137396 C78.873,38.5898125 78.575,36.6600625 79.212,35.8499479 C79.232,35.7816458 79.232,35.5231354 79.232,35.5231354 C79.232,35.5231354 78.834,35.4712604 78.834,35.2992083 C78.834,35.1262917 79.033,34.4545104 79.133,34.3170417 C79.232,34.1787083 79.372,33.8518958 79.372,33.8518958 L79.172,30.9918542 C79.172,30.9918542 78.435,30.1134375 78.555,29.3897813 C78.674,28.6652604 79.113,28.1318125 79.153,27.8041354 C79.192,27.4764583 79.352,26.8392604 79.352,26.7355104 C79.352,26.632625 79.272,26.3914062 78.853,26.3395313 C78.435,26.2876563 78.037,26.0983125 78.196,25.5467083 C78.355,24.9959688 78.415,23.789875 79.053,23.1691042 C79.691,22.5491979 79.571,22.3771458 79.571,22.3771458 L79.312,22.1013437 L79.312,21.6880729 C79.312,21.6880729 78.913,21.5151562 78.834,21.3949792 C78.754,21.2739375 78.09,20.8779583 78.342,20.7059062 C78.595,20.5338542 78.794,20.3436458 78.794,20.2407604 C78.794,20.137875 78.189,20.1032917 78.342,19.8447813 C78.495,19.5862708 78.973,19.2585938 78.853,19.06925 C78.734,18.8790417 78.342,18.4830625 78.342,18.4830625 C78.342,18.4830625 77.658,18.3974688 77.778,18.1389583 C77.897,17.8804479 78.136,17.5700625 78.136,17.5700625 C78.136,17.5700625 78.296,17.2250938 77.538,17.191375 C76.781,17.1567917 76.921,15.8305208 77.06,15.4682604 C77.2,15.106 77.758,13.8661875 77.857,13.8488958 C77.957,13.8316042 78.176,13.5670417 78.176,13.5670417 L78.076,12.2805417" id="Fill-57" fill="url(#radialGradient-1)"></path>
                <polygon id="Path" fill="url(#radialGradient-1)" points="33.077 41.4844375 33.077 34.9101458 32.101 34.9101458 32.101 32.4659688 31.352 32.4659688 31.352 29.8635729 30.896 29.8635729 30.896 28.0237396 30.44 28.0237396 30.44 25.657375 29.757 25.657375 29.757 22.3978958 29.268 22.3978958 29.268 19.5594688 28.791 19.5594688 28.493 12.8312813 28.171 19.5594688 27.641 19.5594688 27.641 22.3978958 27.152 22.3978958 27.152 25.657375 26.469 25.657375 26.469 28.0237396 26.013 28.0237396 26.013 29.8635729 25.557 29.8635729 25.557 32.4659688 24.808 32.4659688 24.808 34.9101458 23.832 34.9101458 23.832 41.4844375 23.488 41.4844375 23.488 67.6441354 33.499 67.6441354 33.499 41.4844375"></polygon>
                <polyline id="Fill-59" fill="url(#radialGradient-1)" points="105.61 52.6479375 105.61 50.0256562 104.033 50.0256562 104.033 48.14 99.674 49.1498333 99.674 50.0256562 96.817 50.0256562 96.817 52.6479375 95.003 52.6479375 95.003 67.6441354 107.362 67.6441354 107.362 52.6479375 105.61 52.6479375"></polyline>
                <polyline id="Fill-60" fill="url(#radialGradient-1)" points="167.246 45.2479688 167.246 41.8380521 166.731 41.8380521 166.731 39.8365417 165.872 39.8365417 165.872 38.8094167 165.037 38.8094167 165.037 37.7278229 164.527 37.7278229 164.527 29.7235104 163.675 29.7235104 163.675 37.7278229 163.164 37.7278229 163.164 38.8094167 162.329 38.8094167 162.329 39.8365417 161.471 39.8365417 161.471 41.8380521 160.955 41.8380521 160.955 45.2479688 160.347 45.2479688 160.347 65.8691458 167.854 67.6441354 167.854 45.2479688 167.246 45.2479688"></polyline>
                <path d="M111.764,36.6055937 L111.764,33.2717604" id="Fill-61" fill="url(#radialGradient-1)"></path>
                <path d="M111.764,36.6055937 L111.764,33.2717604" id="Stroke-62" stroke="#8A8B8A" stroke-width="0.5"></path>
                <path d="M122.132,36.6055937 L122.132,33.2717604" id="Fill-63" fill="url(#radialGradient-1)"></path>
                <path d="M122.132,36.6055937 L122.132,33.2717604" id="Stroke-64" stroke="#8A8B8A" stroke-width="0.5"></path>
                <path d="M123.175,36.0885729 L122.074,35.2265833 L121.263,36.0885729 L121.263,37.4105208 L120.221,38.5604167 L120.221,41.6634062 L120.127,41.6634062 C120.004,41.4118125 119.856,41.261375 119.696,41.261375 C119.557,41.261375 119.43,41.3798229 119.318,41.572625 C119.206,41.3798229 119.078,41.261375 118.94,41.261375 C118.802,41.261375 118.673,41.3798229 118.562,41.572625 C118.45,41.3798229 118.322,41.261375 118.183,41.261375 C118.045,41.261375 117.917,41.3798229 117.806,41.572625 C117.694,41.3798229 117.566,41.261375 117.428,41.261375 C117.289,41.261375 117.161,41.3798229 117.049,41.572625 C116.938,41.3798229 116.81,41.261375 116.671,41.261375 C116.533,41.261375 116.405,41.3798229 116.293,41.572625 C116.181,41.3798229 116.054,41.261375 115.915,41.261375 C115.777,41.261375 115.649,41.3798229 115.537,41.572625 C115.426,41.3798229 115.297,41.261375 115.159,41.261375 C115.02,41.261375 114.892,41.3798229 114.781,41.572625 C114.669,41.3798229 114.541,41.261375 114.403,41.261375 C114.243,41.261375 114.094,41.4118125 113.972,41.6634062 L113.849,41.6634062 L113.849,38.2154479 L112.806,37.4105208 L112.806,36.0306458 L111.706,35.2265833 L110.895,36.0885729 L110.895,37.5255104 L109.795,38.5024896 L109.795,55.0558021 L107.362,55.0558021 L107.362,67.6441354 L123.985,65.9772187 L123.985,38.0425312 L123.175,37.5255104 L123.175,36.0885729 Z" id="Fill-65" fill="url(#radialGradient-1)"></path>
                <polyline id="Fill-66" fill="url(#radialGradient-1)" points="0.834 67.6441354 3.44 36.8321146 4.389 36.8321146 4.389 35.4833646 9.451 35.4833646 9.451 36.8960938 10.487 36.8960938 12.839 66.2832813 0.834 67.6441354"></polyline>
                <path d="M5.505,33.4187396 L5.505,35.9459167" id="Fill-67" fill="url(#radialGradient-1)"></path>
                <path d="M5.505,33.4187396 L5.505,35.9459167" id="Stroke-68" stroke="#8A8B8A" stroke-width="2" stroke-linecap="round" stroke-linejoin="round"></path>
                <path d="M8.694,33.4187396 L8.694,35.9459167" id="Fill-70" fill="url(#radialGradient-1)"></path>
                <path d="M8.694,33.4187396 L8.694,35.9459167" id="Stroke-71" stroke="#8A8B8A" stroke-width="2" stroke-linecap="round" stroke-linejoin="round"></path>
                <polygon id="Fill-73" fill="url(#radialGradient-1)" points="11.923 67.6441354 23.478 67.6441354 23.478 50.2755208 11.923 50.2755208"></polygon>
                <polygon id="Fill-74" fill="url(#radialGradient-1)" points="20.536 25.7576667 19.101 25.7576667 19.101 24.7997083 16.591 24.7997083 16.591 25.7576667 15.156 25.7576667 15.156 32.9311146 13.651 32.9311146 13.651 60.0214844 22.041 60.0214844 22.041 32.9311146 20.536 32.9311146"></polygon>
                <path d="M18.483,23.3394271 L18.483,25.8674688" id="Fill-75" fill="url(#radialGradient-1)"></path>
                <path d="M18.483,23.3394271 L18.483,25.8674688" id="Stroke-76" stroke="#8A8B8A" stroke-width="2" stroke-linecap="round" stroke-linejoin="round"></path>
                <polyline id="Fill-77" fill="url(#radialGradient-1)" points="32.285 66.908375 32.285 53.4926354 34.482 53.4926354 34.482 33.7369063 37.656 36.4015521 37.656 38.0555 39.121 38.0555 39.121 37.2289583 42.661 39.98525 42.661 67.6441354 32.285 66.908375"></polyline>
                <polygon id="Path" fill="url(#radialGradient-1)" points="31.163 31.0169271 30.86 31.6523958 30.403 31.2192396"></polygon>
                <polygon id="Path" fill="url(#radialGradient-1)" points="31.246 32.9535937 30.943 33.5899271 30.485 33.1567708"></polygon>
                <polygon id="Path" fill="url(#radialGradient-1)" points="30.297 32.9345729 29.452 32.7011354 30.161 32.0423229"></polygon>
                <polygon id="Path" fill="url(#radialGradient-1)" points="30.119 31.0169271 29.274 30.7834896 29.982 30.1246771"></polygon>
                <polygon id="Path" fill="url(#radialGradient-1)" points="29.738 28.1638021 29.874 29.0551875 29.03 28.8226146"></polygon>
                <polygon id="Path" fill="url(#radialGradient-1)" points="28.22 24.1296562 28.602 24.1296562 28.602 23.4907292 28.22 23.4907292"></polygon>
                <polygon id="Path" fill="url(#radialGradient-1)" points="28.397 25.0227708 28.829 26.3447188 27.966 26.3447188"></polygon>
                <polygon id="Path" fill="url(#radialGradient-1)" points="28.397 27.1375417 28.829 28.458625 27.966 28.458625"></polygon>
                <polygon id="Path" fill="url(#radialGradient-1)" points="28.397 29.2514479 28.829 30.5725313 27.966 30.5725313"></polygon>
                <polygon id="Path" fill="url(#radialGradient-1)" points="28.397 31.1241354 28.829 32.4452188 27.966 32.4452188"></polygon>
                <polygon id="Path" fill="url(#radialGradient-1)" points="27.052 28.1663958 27.73 28.8485521 26.876 29.0534583"></polygon>
                <polygon id="Path" fill="url(#radialGradient-1)" points="26.95 30.1298646 27.628 30.8120208 26.774 31.0169271"></polygon>
                <polygon id="Path" fill="url(#radialGradient-1)" points="26.746 32.0933333 27.425 32.774625 26.57 32.9795313"></polygon>
                <polygon id="Path" fill="url(#radialGradient-1)" points="25.972 30.7843542 26.491 31.3065625 25.837 31.4630521"></polygon>
                <polygon id="Path" fill="url(#radialGradient-1)" points="25.644 32.7979687 26.163 33.3201771 25.51 33.4766667"></polygon>
                <polygon id="Path" fill="url(#radialGradient-1)" points="26.108 36.5839792 25.191 36.2113437 26.108 35.8378437"></polygon>
                <polygon id="Path" fill="url(#radialGradient-1)" points="26.137 35.7617604 25.191 34.9646146 26.504 35.0865208"></polygon>
                <polygon id="Path" fill="url(#radialGradient-1)" points="26.56 34.9646146 26.044 33.9141458 27.201 34.4640208"></polygon>
                <polygon id="Path" fill="url(#radialGradient-1)" points="27.201 34.4086875 27.216 33.2674375 28.02 34.1717917"></polygon>
                <polygon id="Path" fill="url(#radialGradient-1)" points="28.062 34.1847604 28.493 32.8636771 28.925 34.1847604"></polygon>
                <polygon id="Path" fill="url(#radialGradient-1)" points="28.988 34.1717917 29.792 33.2674375 29.807 34.4086875"></polygon>
                <polygon id="Path" fill="url(#radialGradient-1)" points="29.824 34.4640208 30.981 33.9141458 30.465 34.9646146"></polygon>
                <polygon id="Path" fill="url(#radialGradient-1)" points="30.866 36.5839792 30.866 35.8378437 31.783 36.2113437"></polygon>
                <polygon id="Path" fill="url(#radialGradient-1)" points="30.837 35.7245833 30.47 35.0484792 31.783 34.9274375"></polygon>
                <path d="M149.333,46.9529271 L154.654,59.3363542" id="Path" stroke="#8A8B8A" stroke-width="0.25"></path>
                <path d="M148.961,46.635625 L157.048,59.8421354" id="Path" stroke="#8A8B8A" stroke-width="0.25"></path>
                <path d="M149.333,46.9529271 L158.171,59.8421354" id="Path" stroke="#8A8B8A" stroke-width="0.25"></path>
                <path d="M149.011,45.7736354 L158.963,59.8421354" id="Path" stroke="#8A8B8A" stroke-width="0.25"></path>
                <path d="M149.493,45.9966979 L160.772,61.1761875" id="Path" stroke="#8A8B8A" stroke-width="0.25"></path>
                <path d="M137.15,48.8368542 L129.579,52.5061458" id="Path" stroke="#8A8B8A" stroke-width="0.25"></path>
                <path d="M143.109,49.03225 L138.535,52.1611771" id="Path" stroke="#8A8B8A" stroke-width="0.25"></path>
                <path d="M142.789,48.1598854 L138.283,50.9075312" id="Path" stroke="#8A8B8A" stroke-width="0.25"></path>
                <path d="M142.204,47.3195104 C142.044,47.5149062 138.403,49.4463854 138.403,49.4463854" id="Path" stroke="#8A8B8A" stroke-width="0.25"></path>
                <path d="M140.69,46.5500312 L126.214,52.3436042" id="Path" stroke="#8A8B8A" stroke-width="0.25"></path>
                <path d="M122.2,46.5949896 L133.239,44.1179583" id="Path" stroke="#8A8B8A" stroke-width="0.25"></path>
                <path d="M121.082,45.4909167 L131.436,43.8525313" id="Path" stroke="#8A8B8A" stroke-width="0.25"></path>
                <path d="M138.535,42.7769896 L125.128,43.1444375" id="Path" stroke="#8A8B8A" stroke-width="0.25"></path>
                <path d="M135.341,41.8077917 L121.933,42.1761042" id="Path" stroke="#8A8B8A" stroke-width="0.25"></path>
                <path d="M129.579,40.5774896 L120.39,40.8446458" id="Path" stroke="#8A8B8A" stroke-width="0.25"></path>
                <path d="M146.833,42.9602813 L121.082,37.6249375" id="Path" stroke="#8A8B8A" stroke-width="0.25"></path>
                <path d="M146.833,42.6386563 C146.634,42.7311667 121.479,36.6591979 121.479,36.6591979" id="Path" stroke="#8A8B8A" stroke-width="0.25"></path>
                <polygon id="Path" fill="url(#radialGradient-1)" points="141.672 53.3110729 139.544 52.7127812 139.544 48.4348229 140.608 47.1932812 141.672 48.3431771"></polygon>
                <polygon id="Path" fill="url(#radialGradient-1)" points="146.833 55.0359167 144.066 54.0926563 144.066 47.5607292 145.237 45.9966979 146.833 47.6074167"></polygon>
                <path d="M143.374,49.4463854 L147.737,52.3678125" id="Path" stroke="#8A8B8A"></path>
                <path d="M148.589,50.2288333 L158.963,59.8421354" id="Path" stroke="#8A8B8A"></path>
                <path d="M161.889,60.6704062 L149.227,45.4909167" id="Path" stroke="#8A8B8A"></path>
                <path d="M123.21,42.6386562 L136.618,44.6168229" id="Path" stroke="#8A8B8A"></path>
                <path d="M122.518,39.0515 L143.374,43.5585729" id="Path" stroke="#8A8B8A"></path>
                <path d="M147.737,42.3170312 L122.2,35.7851042" id="Path" stroke="#8A8B8A"></path>
            </g>
            <g id="Group" transform="translate(107.000000, 100.000000)">
                <path d="M0.208753521,0.0892857143 C3.66401408,0.366964286 7.25873239,0.05 10.2332535,2.50178571 C10.8023451,2.97053571 11.1514225,3.72589286 11.5983803,4.35178571 C11.7932746,4.625 11.922338,5.00446429 12.181331,5.16339286 C15.6565141,7.31071429 19.1481549,9.42946429 22.6441268,11.5419643 C22.767993,11.6160714 22.9706831,11.5517857 23.2210141,11.4660714 C19.4582535,9.73482143 18.7592324,5.80625 16.8934437,2.57857143 C21.7562746,3.10803571 23.9746056,3.34642857 25.6680211,9.33392857 C25.8854366,10.0991071 26.1158451,10.8848214 26.4917746,11.5741071 C27.1015775,12.6901786 27.7832746,13.66875 29.2679366,13.83125 C31.1744366,14.0375 33.0506197,14.5294643 35.0939789,14.9285714 C33.1285775,12.0098214 31.3095634,9.3125 29.5078732,6.60357143 C29.4377113,6.49821429 29.528662,6.27767857 29.5451197,6.11071429 C34.0216268,6.65535714 39.8008944,9.83660714 39.6493099,14.975 C41.8026761,14.6428571 43.9170634,14.3803571 46.0054648,13.9758929 C48.0618169,13.5794643 50.0921831,13.0401786 52.1918451,12.6758929 C51.4062042,13.7392857 50.1727394,14.1330357 49.0354225,14.4151786 C47.4840634,14.8 46.4974648,15.4151786 45.9942042,17.1294643 C45.1687183,19.9401786 42.7866761,21.31875 40.401169,22.4428571 C38.740669,23.2267857 36.9008662,23.6125 35.1338239,24.1473214 C34.8644366,24.2294643 34.550007,24.1589286 33.7834225,24.1589286 C36.2356268,21.3089286 38.4409648,18.7482143 40.7155986,16.1053571 C39.5921408,16.1053571 38.5249859,16.1133929 37.457831,16.1026786 C36.4192606,16.0910714 35.3131268,16.2901786 34.3551127,15.9928571 C32.3134859,15.35625 30.9951338,16.2473214 29.7902535,17.74375 C27.9591127,20.01875 25.3276056,20.4776786 22.7229507,20.8473214 C21.3690845,21.0401786 19.9693099,20.8803571 18.1589577,20.8803571 C20.6293521,17.7928571 22.9455634,15.1473214 26.945662,14.70625 C24.5272394,13.6267857 22.2907183,12.5053571 19.9589155,11.6651786 C19.2711549,11.4178571 18.2464437,11.825 17.4885211,12.1830357 C15.4200423,13.1607143 13.4303873,12.6875 11.434669,12.0446429 C9.84866197,11.5348214 8.28257746,10.95625 6.5813662,10.0660714 C7.84601408,9.50803571 9.0699507,8.79196429 10.3857042,8.43660714 C11.7257113,8.07410714 13.1558028,8.06696429 14.7253521,7.88303571 C13.165331,6.95178571 12.0687254,5.59910714 9.9933169,5.91696429 C7.3185,6.32678571 5.30026056,4.51785714 3.27249296,3.03125 C2.15509859,2.21160714 1.10180282,1.30267857 0.0181901408,0.434821429 C0.0822887324,0.31875 0.14465493,0.203571429 0.208753521,0.0892857143" id="Fill-21" fill="url(#linearGradient-2)" style="mix-blend-mode: darken;"></path>
                <path d="M81.2150634,2.4125 C81.7841549,2.88125 82.1332324,3.63660714 82.5801901,4.2625 C82.7750845,4.53571429 82.9041479,4.91517857 83.1631408,5.07410714 C86.6383239,7.22142857 90.1299648,9.34017857 93.6259366,11.4526786 C93.7498028,11.5267857 93.952493,11.4625 94.2028239,11.3767857 C90.4400634,9.64553571 89.7410423,5.71696429 87.8752535,2.48928571 C92.7380845,3.01875 94.9564155,3.25714286 96.649831,9.24464286 C96.8672465,10.0098214 97.0976549,10.7955357 97.4735845,11.4848214 C98.0833873,12.6008929 98.7650845,13.5794643 100.249746,13.7419643 C102.156246,13.9482143 104.03243,14.4401786 106.075789,14.8392857 C104.110387,11.9205357 102.291373,9.22321429 100.489683,6.51428571 C100.419521,6.40892857 100.510472,6.18839286 100.52693,6.02142857 C105.003437,6.56607143 110.782704,9.74732143 110.63112,14.8857143 C112.784486,14.5535714 114.898873,14.2910714 116.987275,13.8866071 C119.043627,13.4901786 121.073993,12.9508929 123.173655,12.5866071 C122.388014,13.65 121.154549,14.04375 120.017232,14.3258929 C118.465873,14.7107143 117.479275,15.3258929 116.976014,17.0401786 C116.150528,19.8508929 113.768486,21.2294643 111.382979,22.3535714 C109.722479,23.1375 107.882676,23.5232143 106.115634,24.0580357 C105.846246,24.1401786 105.531817,24.0696429 104.765232,24.0696429 C107.217437,21.2196429 109.422775,18.6589286 111.697408,16.0160714 C110.573951,16.0160714 109.506796,16.0241071 108.439641,16.0133929 C107.40107,16.0017857 106.294937,16.2008929 105.336923,15.9035714 C103.295296,15.2669643 101.976944,16.1580357 100.772063,17.6544643 C98.9409225,19.9294643 96.3094155,20.3883929 93.7047606,20.7580357 C92.3508944,20.9508929 90.9511197,20.7910714 89.1407676,20.7910714 C91.611162,17.7035714 93.9273732,15.0580357 97.9274718,14.6169643 C95.5090493,13.5375 93.2725282,12.4160714 90.9407254,11.5758929 C90.2529648,11.3285714 89.2282535,11.7357143 88.470331,12.09375 C86.4018521,13.0714286 84.4121972,12.5982143 82.4164789,11.9553571 C80.8304718,11.4455357 79.2643873,10.8669643 77.5631761,9.97678571 C78.8278239,9.41875 80.0517606,8.70267857 81.3675141,8.34732143 C82.7075211,7.98482143 84.1376127,7.97767857 85.707162,7.79375 C84.1471408,6.8625 83.0505352,5.50982143 80.9751268,5.82767857 C78.3003099,6.2375 76.2820704,4.42857143 74.2543028,2.94196429 C73.1369085,2.12232143 72.0836127,1.21339286 71,0.345535714 C71.0640986,0.229464286 71.1264648,0.114285714 71.1905634,0 C74.6458239,0.277678571 78.2405423,-0.0392857143 81.2150634,2.4125 Z" id="Fill-21-Copy" fill="url(#linearGradient-2)" style="mix-blend-mode: darken;" transform="translate(97.086827, 12.048908) scale(-1, 1) translate(-97.086827, -12.048908) "></path>
                <polyline id="Fill-23" fill="#F6A623" style="mix-blend-mode: darken;" points="61.5 5.17142857 63.762507 9.89642857 68.8219648 10.6544643 65.1614155 14.3330357 66.0258803 19.5267857 61.5 17.0741071 56.9749859 19.5267857 57.8385845 14.3330357 54.1780352 10.6544643 59.237493 9.89642857 61.5 5.17142857"></polyline>
            </g>
            <path d="M72.433,60.2873958 L72.893,60.2873958 L72.893,59.2179063 L72.433,59.2179063 L72.433,60.2873958 Z M71.033,60.2873958 L71.494,60.2873958 L71.494,59.2179063 L71.033,59.2179063 L71.033,60.2873958 Z M69.591,60.2873958 L70.051,60.2873958 L70.051,59.2179063 L69.591,59.2179063 L69.591,60.2873958 Z M67.214,60.69375 L66.831,60.69375 L66.831,58.1951042 L66.731,58.1951042 L66.731,58.0818438 L66.871,58.0818438 C66.871,58.0818438 66.831,56.5791979 65.284,56.5791979 C63.736,56.5791979 63.671,58.0515833 63.671,58.0515833 L63.781,58.0559063 L63.781,58.1812708 L63.68,58.1812708 L63.68,60.69375 L63.255,60.69375 L63.255,57.7377396 C63.255,57.7377396 63.495,56.1849479 65.073,56.1849479 L65.073,56.4131979 L65.441,56.4131979 L65.441,56.1849479 C65.441,56.1849479 66.816,56.1788958 67.214,57.5881667 L67.214,60.69375 Z M65.775,58.0585 L65.775,57.1429063 C66.395,57.363375 66.407,58.0585 66.407,58.0585 L65.775,58.0585 Z M64.942,58.0593646 L65.58,58.0593646 L65.58,57.0927604 L64.942,57.0927604 L64.942,58.0593646 Z M64.1,58.0585 C64.1,58.0585 64.111,57.363375 64.731,57.1429063 L64.731,58.0585 L64.1,58.0585 Z M64.031,58.7095313 L66.475,58.7095313 L66.475,58.3118229 L64.031,58.3118229 L64.031,58.7095313 Z M65.926,60.1274479 L66.208,60.1274479 L66.208,59.6017812 L65.926,59.6017812 L65.926,60.1274479 Z M65.094,60.1274479 L65.376,60.1274479 L65.376,59.6017812 L65.094,59.6017812 L65.094,60.1274479 Z M64.292,60.1274479 L64.574,60.1274479 L64.574,59.6017812 L64.292,59.6017812 L64.292,60.1274479 Z M61.166,60.69375 L60.783,60.69375 L60.783,58.1951042 L60.682,58.1951042 L60.682,58.0818438 L60.823,58.0818438 C60.823,58.0818438 60.783,56.5791979 59.235,56.5791979 C57.687,56.5791979 57.622,58.0515833 57.622,58.0515833 L57.733,58.0559063 L57.733,58.1812708 L57.632,58.1812708 L57.632,60.69375 L57.206,60.69375 L57.206,57.7377396 C57.206,57.7377396 57.447,56.1849479 59.025,56.1849479 L59.025,56.4131979 L59.393,56.4131979 L59.393,56.1849479 C59.393,56.1849479 60.768,56.1788958 61.166,57.5881667 L61.166,60.69375 Z M59.727,58.0585 L59.727,57.1429063 C60.347,57.363375 60.358,58.0585 60.358,58.0585 L59.727,58.0585 Z M58.893,58.0593646 L59.532,58.0593646 L59.532,57.0927604 L58.893,57.0927604 L58.893,58.0593646 Z M58.052,58.0585 C58.052,58.0585 58.063,57.363375 58.683,57.1429063 L58.683,58.0585 L58.052,58.0585 Z M57.983,58.7095313 L60.427,58.7095313 L60.427,58.3118229 L57.983,58.3118229 L57.983,58.7095313 Z M59.779,60.7110417 L60.061,60.7110417 L60.061,59.5447188 L59.779,59.5447188 L59.779,60.7110417 Z M58.947,60.7110417 L59.229,60.7110417 L59.229,59.5447188 L58.947,59.5447188 L58.947,60.7110417 Z M58.144,60.7110417 L58.426,60.7110417 L58.426,59.5447188 L58.144,59.5447188 L58.144,60.7110417 Z M55.097,60.69375 L54.714,60.69375 L54.714,58.1951042 L54.614,58.1951042 L54.614,58.0818438 L54.754,58.0818438 C54.754,58.0818438 54.714,56.5791979 53.166,56.5791979 C51.618,56.5791979 51.553,58.0515833 51.553,58.0515833 L51.663,58.0559063 L51.663,58.1812708 L51.563,58.1812708 L51.563,60.69375 L51.138,60.69375 L51.138,57.7377396 C51.138,57.7377396 51.378,56.1849479 52.955,56.1849479 L52.955,56.4131979 L53.324,56.4131979 L53.324,56.1849479 C53.324,56.1849479 54.699,56.1788958 55.097,57.5881667 L55.097,60.69375 Z M53.658,58.0585 L53.658,57.1429063 C54.278,57.363375 54.289,58.0585 54.289,58.0585 L53.658,58.0585 Z M52.824,58.0593646 L53.463,58.0593646 L53.463,57.0927604 L52.824,57.0927604 L52.824,58.0593646 Z M51.983,58.0585 C51.983,58.0585 51.994,57.363375 52.614,57.1429063 L52.614,58.0585 L51.983,58.0585 Z M51.914,58.7095313 L54.358,58.7095313 L54.358,58.3118229 L51.914,58.3118229 L51.914,58.7095313 Z M53.808,60.1274479 L54.09,60.1274479 L54.09,59.6017812 L53.808,59.6017812 L53.808,60.1274479 Z M52.976,60.1274479 L53.258,60.1274479 L53.258,59.6017812 L52.976,59.6017812 L52.976,60.1274479 Z M52.174,60.1274479 L52.456,60.1274479 L52.456,59.6017812 L52.174,59.6017812 L52.174,60.1274479 Z M48.31,60.2873958 L48.77,60.2873958 L48.77,59.2179063 L48.31,59.2179063 L48.31,60.2873958 Z M46.91,60.2873958 L47.371,60.2873958 L47.371,59.2179063 L46.91,59.2179063 L46.91,60.2873958 Z M45.469,60.2873958 L45.929,60.2873958 L45.929,59.2179063 L45.469,59.2179063 L45.469,60.2873958 Z M73.541,62.0883229 L73.541,60.7369792 L73.702,60.7369792 L73.702,58.2513021 L73.932,58.0610938 L73.566,58.0610938 L73.566,56.948375 L73.721,56.8135 L73.932,56.8135 L73.932,56.6924583 L73.591,56.6924583 L73.591,56.50225 L73.421,56.50225 L73.421,55.9558333 L73.591,55.9558333 L73.591,55.8434375 L69.33,55.8434375 L69.33,55.6272917 L69.484,55.6272917 L69.484,55.4621563 L69.594,55.4621563 L69.594,55.3411146 L69.715,55.3411146 L69.715,55.2027813 L69.154,55.2027813 L69.154,54.9944167 L69.274,54.9944167 L69.274,54.7955625 L69.034,54.7955625 L69.034,54.4575104 L68.813,54.4575104 L68.813,54.2586563 L68.522,54.2586563 L68.522,54.0511563 L67.921,54.0511563 L67.921,54.1721979 L67.31,54.1721979 C67.311,54.1618229 67.313,54.1514479 67.313,54.1410729 C67.313,54.0087917 67.19,53.9024479 67.037,53.9024479 C66.885,53.9024479 66.761,54.0087917 66.761,54.1410729 C66.761,54.1514479 66.763,54.1618229 66.765,54.1721979 L66.117,54.1721979 C66.118,54.1618229 66.12,54.1514479 66.12,54.1410729 C66.12,54.0087917 65.996,53.9024479 65.844,53.9024479 C65.692,53.9024479 65.568,54.0087917 65.568,54.1410729 C65.568,54.1514479 65.57,54.1618229 65.572,54.1721979 L64.876,54.1721979 C64.878,54.1618229 64.88,54.1514479 64.88,54.1410729 C64.88,54.0087917 64.757,53.9024479 64.604,53.9024479 C64.451,53.9024479 64.328,54.0087917 64.328,54.1410729 C64.328,54.1514479 64.33,54.1618229 64.331,54.1721979 L63.683,54.1721979 C63.685,54.1618229 63.687,54.1514479 63.687,54.1410729 C63.687,54.0087917 63.563,53.9024479 63.411,53.9024479 C63.258,53.9024479 63.135,54.0087917 63.135,54.1410729 C63.135,54.1514479 63.137,54.1618229 63.138,54.1721979 L62.455,54.1721979 L62.455,53.9793958 L61.899,53.9793958 L61.899,54.1721979 L61.217,54.1721979 C61.218,54.1618229 61.22,54.1514479 61.22,54.1410729 C61.22,54.0087917 61.097,53.9024479 60.944,53.9024479 C60.791,53.9024479 60.668,54.0087917 60.668,54.1410729 C60.668,54.1514479 60.67,54.1618229 60.672,54.1721979 L60.018,54.1721979 C60.02,54.1618229 60.022,54.1514479 60.022,54.1410729 C60.022,54.0087917 59.898,53.9024479 59.746,53.9024479 C59.594,53.9024479 59.47,54.0087917 59.47,54.1410729 C59.47,54.1514479 59.472,54.1618229 59.474,54.1721979 L58.825,54.1721979 C58.826,54.1618229 58.829,54.1514479 58.829,54.1410729 C58.829,54.0087917 58.705,53.9024479 58.553,53.9024479 C58.4,53.9024479 58.277,54.0087917 58.277,54.1410729 C58.277,54.1514479 58.279,54.1618229 58.28,54.1721979 L57.552,54.1721979 C57.553,54.1618229 57.555,54.1514479 57.555,54.1410729 C57.555,54.0087917 57.432,53.9024479 57.279,53.9024479 C57.127,53.9024479 57.003,54.0087917 57.003,54.1410729 C57.003,54.1514479 57.005,54.1618229 57.007,54.1721979 L56.427,54.1721979 L56.427,53.9793958 L55.87,53.9793958 L55.87,54.1721979 L55.143,54.1721979 C55.145,54.1618229 55.147,54.1514479 55.147,54.1410729 C55.147,54.0087917 55.023,53.9024479 54.87,53.9024479 C54.718,53.9024479 54.595,54.0087917 54.595,54.1410729 C54.595,54.1514479 54.596,54.1618229 54.598,54.1721979 L53.95,54.1721979 C53.951,54.1618229 53.954,54.1514479 53.954,54.1410729 C53.954,54.0087917 53.83,53.9024479 53.678,53.9024479 C53.525,53.9024479 53.401,54.0087917 53.401,54.1410729 C53.401,54.1514479 53.403,54.1618229 53.405,54.1721979 L52.677,54.1721979 C52.678,54.1618229 52.68,54.1514479 52.68,54.1410729 C52.68,54.0087917 52.557,53.9024479 52.404,53.9024479 C52.251,53.9024479 52.128,54.0087917 52.128,54.1410729 C52.128,54.1514479 52.13,54.1618229 52.132,54.1721979 L51.483,54.1721979 C51.485,54.1618229 51.487,54.1514479 51.487,54.1410729 C51.487,54.0087917 51.363,53.9024479 51.211,53.9024479 C51.058,53.9024479 50.934,54.0087917 50.934,54.1410729 C50.934,54.1514479 50.936,54.1618229 50.938,54.1721979 L50.331,54.1721979 L50.331,54.0511563 L49.79,54.0511563 L49.79,54.2759479 L49.49,54.2759479 L49.49,54.4670208 L49.299,54.4670208 L49.299,54.7955625 L48.959,54.7955625 L48.959,55.0039271 L49.129,55.0039271 L49.129,55.2287188 L48.658,55.2287188 L48.658,55.4716667 L48.838,55.4716667 L48.838,55.6532292 L49.029,55.6532292 L49.029,55.8434375 L44.782,55.8434375 L44.734,55.8417083 L44.734,55.9342188 L44.816,55.9342188 L44.816,56.6898646 L44.448,56.6794896 L44.463,56.7555729 L44.819,56.9354063 L44.819,58.0870313 L44.446,58.0870313 L44.456,58.1415 L44.631,58.3118229 L44.631,62.1056146 L41.208,62.1056146 L41.772,67.6441354 L74.142,64.8498021 L74.142,62.0883229 L73.541,62.0883229 L73.541,62.0883229 Z" id="Fill-78" fill="url(#radialGradient-3)"></path>
            <g id="LITSCO" transform="translate(169.000000, 21.000000)" font-size="48" font-family="AvenirNext-Regular, Avenir Next" fill="#4E4E4E" font-weight="normal">
                <text>
                    <tspan x="0" y="48">LITSCO</tspan>
                </text>
            </g>
            <path d="M48.924,62.2197396 L48.924,61.9326979 L49.256,61.9326979 L49.256,61.6629479 L49.649,61.6629479 L49.649,61.3750417 L49.961,61.3750417 L49.961,61.1225833 L50.264,61.1225833 L50.264,60.8467812 L68.625,60.8467812 L68.625,61.0966458 L68.917,61.0966458 L68.917,61.3663958 L69.199,61.3663958 L69.199,61.6447917 L69.602,61.6447917 L69.602,61.9326979 L69.918,61.9326979 L69.918,62.2197396 L48.924,62.2197396 Z M49.256,61.9240521 L69.602,61.9240521 L49.256,61.9240521 Z M49.68,61.6577604 L69.602,61.6577604 L49.68,61.6577604 Z M50.29,61.1182604 L68.917,61.1182604 L50.29,61.1182604 Z M49.992,61.3793646 L69.199,61.3793646 L49.992,61.3793646 Z" id="Stroke-79" stroke="#FFFFFF" stroke-width="0.15"></path>
        </g>
    </g>
</svg>