<svg id="Layer_1" data-name="Layer 1" xmlns="http://www.w3.org/2000/svg" viewBox="0 0 384.48 546.32">
    <defs>
        <style>
        .cls-1,
        .cls-3,
        .cls-7,
        .cls-8,
        .cls-9 {
            fill: none;
            stroke-miterlimit: 10;
        }

        .cls-1,
        .cls-7,
        .cls-9 {
            stroke: #231f20;
        }

        .cls-3,
        .cls-8 {
            stroke: #000;
        }

        .cls-3 {
            stroke-width: 0.18px;
        }

        .cls-2,
        .cls-4,
        .cls-5,
        .cls-6 {
            fill: none;
            stroke-width: 0.5px;
            stroke: #000000;
        }

        .cls-7 {
            stroke-width: 0.5px;
        }

        .cls-8,
        .cls-9 {
            stroke-width: 0.06px;
        }

        .cls-10 {
            fill: #606153;
        }
        </style>
    </defs>
    <title>Lit-Lok Flashing_1</title>
    <polygon class="hover_color_change" fill="none" stroke="#000000" stroke-width="0.5644" points="135.51 208.31 133.09 214.29 125.84 212.1 118.47 211.07 110.99 211.18 103.63 212.34 101.31 213.1 101.29 213.1 99 213.87 96.38 214.75 89.47 218.09 88.49 218.76 85.79 214.87 77.73 211.53 61.62 205.09 53.56 201.86 45.51 198.53 37.57 195.3 29.51 192.08 29.47 192.06 36.99 168.49 135.51 208.31" />
    <polygon class="hover_color_change" fill="none" stroke="#000000" stroke-width="0.5644" points="88.49 218.76 83.03 222.58 79.69 225.69 76.93 229.48 74.86 233.86 73.59 238.57 73.01 243.41 73.24 248.36 73.59 250.31 73.94 252.27 74.39 254.23 74.86 256.18 75.43 258.14 75.81 259.43 76.01 260.1 15.59 235.7 29.47 192.06 29.51 192.08 37.57 195.3 45.51 198.53 53.56 201.86 61.62 205.09 77.73 211.53 85.79 214.87 88.49 218.76" />
    <polygon class="cls-2" points="289.38 271.49 289.38 356.08 119.97 287.49 123.17 277.51 167.9 295.64 167.63 296.66 167.5 297.15 263.02 335.71 264.52 335.82 264.85 334.79 264.86 334.79 267.74 335.94 269.24 336.05 284.89 287.37 279.15 285.07 284.14 269.4 284.2 269.42 289.38 271.49" />
    <polygon class="hover_color_change" fill="none" stroke="#000000" stroke-width="0.5644" points="141.26 438.14 22.84 390.26 0.63 242.49 119.05 290.36 119.51 293.36 120.22 298.19 120.22 298.21 133.78 388.3 134.72 394.63 135.47 399.58 141.26 438.14" />
    <line class="cls-3" x1="120.22" y1="298.19" x2="120.2" y2="298.19" />
    <line class="cls-3" x1="134.72" y1="394.63" x2="134.7" y2="394.63" />
    <polygon class="cls-2" points="289.38 461.73 289.38 546.32 34.92 443.43 34.92 422.83 34.94 422.79 132.97 462.42 134.47 462.65 140.8 444.35 139.32 443.79 141.26 438.14 135.47 399.58 135.51 399.58 289.38 461.73" />
    <polygon class="cls-4" points="374.77 380.84 374.77 391.43 293.18 458.6 293.18 448.15 293.16 448.13 374.77 380.84" />
    <polygon class="cls-5" points="378.57 388.3 378.57 472.89 289.38 546.32 289.38 461.73 293.06 458.7 293.18 458.74 293.18 458.6 374.77 391.43 378.57 388.3" />
    <polygon class="cls-5" points="378.57 293.13 378.57 377.71 374.77 380.84 293.16 448.13 289.38 451.26 289.38 366.67 293.16 363.56 293.18 363.54 374.79 296.25 378.57 293.13" />
    <polygon class="cls-4" points="293.18 352.97 293.18 363.54 293.16 363.56 119.51 293.36 119.05 290.36 119.97 287.49 289.38 356.08 293.16 352.95 293.18 352.97" />
    <polygon class="cls-6" points="240.7 47.19 151.5 120.61 34.92 73.42 124 0 240.7 47.19" />
    <polygon class="cls-2" points="151.5 120.61 151.5 205.2 38.6 159.51 34.92 158.01 34.92 73.42 151.5 120.61" />
    <polygon class="cls-4" points="236.9 134.9 236.9 145.35 155.3 212.8 155.3 202.07 236.9 134.9" />
    <polygon class="cls-5" points="240.7 47.19 240.7 131.78 236.9 134.9 155.3 202.07 151.5 205.2 151.5 120.61 240.7 47.19" />
    <line class="cls-3" x1="236.9" y1="145.58" x2="236.9" y2="145.35" />
    <line class="cls-3" x1="236.9" y1="134.9" x2="236.9" y2="134.77" />
    <polygon class="cls-5" points="378.57 198.06 378.57 282.54 374.77 285.67 293.16 352.95 289.38 356.08 289.38 271.49 378.57 198.06" />
    <polygon class="cls-4" points="293.18 363.54 293.18 352.97 293.16 352.95 374.77 285.67 374.77 296.23 374.79 296.25 293.18 363.54" />
    <polygon class="hover_color_change" fill="none" stroke="#000000" stroke-width="0.5644" points="113.64 219.82 107.42 220.05 102.11 221.45 101.33 221.66 95.57 224.53 90.28 228.56 85.79 233.63 82.11 239.5 79.46 246.06 77.96 253.08 77.5 260.21 76.01 260.1 75.81 259.43 75.43 258.14 74.86 256.18 74.39 254.23 73.94 252.27 73.59 250.31 73.24 248.36 73.01 243.41 73.59 238.57 74.86 233.86 76.93 229.48 79.69 225.69 83.03 222.58 88.49 218.76 89.47 218.09 96.38 214.75 99 213.87 113.64 219.82" />
    <line class="cls-3" x1="102.11" y1="221.45" x2="101.79" y2="221.31" />
    <polygon class="hover_color_change" fill="none" stroke="#000000" stroke-width="0.5644" points="383.52 186.9 372.8 195.74 284.43 268.5 135.51 208.31 36.99 168.49 39.83 166.11 155.3 212.8 236.9 145.35 236.9 134.9 240.7 131.78 240.7 129.13 383.52 186.9" />
    <polygon class="hover_color_change" fill="none" stroke="#000000" stroke-width="0.5644" points="383.52 144.66 383.52 186.9 240.7 129.13 240.7 86.89 383.52 144.66" />
    <polygon class="hover_color_change" fill="none" stroke="#000000" stroke-width="0.5644" points="141.26 438.14 139.32 443.79 133.09 462.07 132.97 462.42 34.94 422.79 14.55 414.54 22.84 390.26 141.26 438.14" />
    <polygon class="hover_color_change" fill="none" stroke="#000000" stroke-width="0.5644" points="136.66 235.35 130.98 253.12 123.17 277.51 119.97 287.49 119.05 290.36 0.63 242.49 18.23 187.48 29.47 192.06 15.59 235.7 76.01 260.1 77.5 260.21 77.96 253.08 79.46 246.06 82.11 239.5 85.79 233.63 90.28 228.56 95.57 224.53 101.33 221.66 102.11 221.45 136.66 235.35" />
    <line class="cls-8" x1="39.87" y1="166.07" x2="39.83" y2="166.11" />
    <polygon class="hover_color_change" fill="none" stroke="#000000" stroke-width="0.5644" points="280.17 287.03 272.67 310.39 264.85 334.79 264.52 335.82 263.16 335.27 263.16 335.25 278.71 286.47 280.17 287.03" />
    <line class="cls-3" x1="279.15" y1="285.07" x2="279.14" y2="285.07" />
    <line class="cls-3" x1="278.71" y1="286.47" x2="278.67" y2="286.45" />
    <line class="cls-3" x1="263.16" y1="335.25" x2="263.14" y2="335.25" />
    <line class="cls-3" x1="267.88" y1="335.5" x2="267.86" y2="335.48" />
    <line class="cls-8" x1="167.16" y1="296.46" x2="175.9" y2="299.92" />
    <line class="cls-8" x1="184.65" y1="303.48" x2="193.4" y2="307.05" />
    <line class="cls-8" x1="202.03" y1="310.5" x2="210.77" y2="314.07" />
    <line class="cls-8" x1="219.52" y1="317.52" x2="228.27" y2="321.09" />
    <line class="cls-8" x1="237.01" y1="324.66" x2="245.64" y2="328.11" />
    <line class="cls-8" x1="254.39" y1="331.68" x2="263.14" y2="335.25" />
    <line class="cls-8" x1="161.63" y1="239.15" x2="169.46" y2="242.37" />
    <line class="cls-8" x1="177.28" y1="245.48" x2="185.11" y2="248.59" />
    <line class="cls-8" x1="192.82" y1="251.81" x2="200.65" y2="254.92" />
    <line class="cls-8" x1="208.47" y1="258.14" x2="216.3" y2="261.25" />
    <line class="cls-8" x1="224.12" y1="264.35" x2="231.83" y2="267.58" />
    <line class="cls-8" x1="239.66" y1="270.68" x2="247.49" y2="273.91" />
    <line class="cls-9" x1="255.31" y1="277.01" x2="263.14" y2="280.24" />
    <line class="cls-9" x1="270.96" y1="283.34" x2="278.67" y2="286.45" />
    <line class="cls-8" x1="160.25" y1="236.96" x2="168.19" y2="240.19" />
    <line class="cls-8" x1="176.13" y1="243.41" x2="184.07" y2="246.63" />
    <line class="cls-8" x1="192.01" y1="249.74" x2="199.96" y2="252.96" />
    <line class="cls-8" x1="207.9" y1="256.18" x2="215.84" y2="259.41" />
    <line class="cls-8" x1="223.66" y1="262.63" x2="231.6" y2="265.85" />
    <line class="cls-8" x1="239.55" y1="268.96" x2="247.49" y2="272.18" />
    <line class="cls-9" x1="255.43" y1="275.4" x2="263.37" y2="278.63" />
    <line class="cls-9" x1="271.31" y1="281.85" x2="279.14" y2="285.07" />
    <polygon class="hover_color_change" fill="none" stroke="#000000" stroke-width="0.5644" points="160.12 236.91 118.36 220.05 101.31 213.1 103.63 212.34 110.99 211.18 118.47 211.07 125.84 212.1 133.09 214.29 140 217.51 146.44 221.66 152.31 226.84 157.49 232.94 160.12 236.91" />
    <line class="cls-3" x1="160.25" y1="236.96" x2="160.12" y2="236.91" />
    <line class="cls-3" x1="93.73" y1="218.09" x2="101.79" y2="221.31" />
    <line class="cls-8" x1="99" y1="213.87" x2="98.91" y2="213.83" />
    <line class="cls-8" x1="101.29" y1="213.1" x2="101.1" y2="213.03" />
    <line class="cls-8" x1="75.78" y1="259.41" x2="77.5" y2="260.21" />
    <polygon class="hover_color_change" fill="none" stroke="#000000" stroke-width="0.5644" points="118.36 220.05 113.64 219.82 99 213.87 101.29 213.1 101.31 213.1 118.36 220.05" />
    <polygon class="hover_color_change" fill="none" stroke="#000000" stroke-width="0.5644" points="130.98 253.12 136.66 235.35 102.11 221.45 107.42 220.05 113.64 219.82 118.36 220.05 160.12 236.91 161.98 239.73 165.54 247.09 168.31 255.03 170.15 263.32 170.7 269.13 130.98 253.12" />
    <line class="cls-8" x1="170.84" y1="269.19" x2="170.7" y2="269.13" />
    <line class="cls-8" x1="130.98" y1="253.11" x2="130.9" y2="253.08" />
    <polygon class="hover_color_change" fill="none" stroke="#000000" stroke-width="0.5644" points="170.95 271.83 170.84 280.35 169.69 288.87 167.9 295.64 123.17 277.51 130.98 253.12 170.7 269.13 170.95 271.83" />
    <polygon class="hover_color_change" fill="none" stroke="#000000" stroke-width="0.5644" points="275.57 311.54 267.88 335.5 267.74 335.94 264.86 334.79 264.85 334.79 272.67 310.39 272.69 310.39 275.57 311.54" />
    <polygon class="cls-10" points="269.24 336.05 267.74 335.94 267.88 335.5 269.24 336.05" />
    <polygon class="hover_color_change" fill="none" stroke="#000000" stroke-width="0.5644" points="284.89 287.37 269.24 336.05 267.88 335.5 275.57 311.54 272.69 310.39 272.67 310.39 280.17 287.03 284.89 287.37" />
    <polygon class="cls-10" points="284.89 287.37 280.17 287.03 278.71 286.47 279.15 285.07 284.89 287.37" />
    <polygon class="cls-10" points="264.52 335.82 263.02 335.71 263.16 335.27 264.52 335.82" />
    <polygon class="hover_color_change" fill="none" stroke="#000000" stroke-width="0.5644" points="284.43 268.5 284.14 269.4 279.15 285.07 278.71 286.47 263.16 335.25 263.16 335.27 263.02 335.71 167.5 297.15 167.63 296.66 167.9 295.64 169.69 288.87 170.84 280.35 170.95 271.83 170.7 269.13 170.15 263.32 168.31 255.03 165.54 247.09 161.98 239.73 160.12 236.91 157.49 232.94 152.31 226.84 146.44 221.66 140 217.51 133.09 214.29 135.51 208.31 284.43 268.5" />
    <polygon class="cls-6" points="378.57 198.06 289.38 271.49 284.2 269.42 284.14 269.4 284.43 268.5 372.8 195.74 372.82 195.76 378.57 198.06" />
    <line class="cls-8" x1="167.96" y1="295.66" x2="167.9" y2="295.64" />
    <line class="cls-8" x1="123.17" y1="277.51" x2="123.08" y2="277.47" />
    <line class="cls-3" x1="139.32" y1="443.79" x2="139.3" y2="443.78" />
    <polygon class="cls-7" points="140.8 444.35 134.47 462.65 133.09 462.07 139.32 443.79 140.8 444.35" />
    <polygon class="cls-6" points="293.06 458.7 289.38 461.73 135.51 399.58 135.47 399.58 134.72 394.63 293.06 458.7" />
    <polygon class="cls-4" points="293.18 448.15 293.18 458.6 293.06 458.7 134.72 394.63 133.78 388.3 289.38 451.26 293.16 448.13 293.18 448.15" />
    <polygon class="cls-2" points="289.38 366.67 289.38 451.26 133.78 388.3 120.22 298.21 289.38 366.67" />
    <polygon class="cls-6" points="293.16 363.56 289.38 366.67 120.22 298.21 120.22 298.19 119.51 293.36 293.16 363.56" />
    <polygon class="cls-4" points="155.3 202.07 155.3 212.8 39.83 166.11 38.6 165.61 38.6 159.51 151.5 205.2 155.3 202.07" />
    <line class="cls-3" x1="29.51" y1="192.08" x2="37.57" y2="195.3" />
    <line class="cls-3" x1="45.51" y1="198.52" x2="53.56" y2="201.86" />
    <line class="cls-7" x1="61.62" y1="205.08" x2="69.68" y2="208.31" />
    <line class="cls-3" x1="77.73" y1="211.53" x2="85.79" y2="214.87" />
    <line class="cls-3" x1="93.73" y1="218.09" x2="101.79" y2="221.31" />
    <line class="cls-7" x1="119.05" y1="290.36" x2="0.62" y2="242.49" />
</svg>