<?xml version="1.0" encoding="utf-8"?>
<!-- Generator: Adobe Illustrator 21.0.2, SVG Export Plug-In . SVG Version: 6.00 Build 0)  -->
<!DOCTYPE svg PUBLIC "-//W3C//DTD SVG 1.1//EN" "http://www.w3.org/Graphics/SVG/1.1/DTD/svg11.dtd">
<svg version="1.1" id="Layer_1" xmlns="http://www.w3.org/2000/svg" xmlns:xlink="http://www.w3.org/1999/xlink" x="0px" y="0px"
	 viewBox="0 0 792 612" enable-background="new 0 0 792 612" xml:space="preserve">
<polygon fill="#404041" points="260.1,202.8 260.1,203.6 207.8,173.7 207.9,173.6 208.4,173.2 "/>
<polygon fill="#404041" points="574,382.3 573.2,383.2 499.8,341.1 499.8,339.9 "/>
<polygon fill="#6D6E70" points="260.1,203.6 260.1,209.7 207.8,179.6 207.8,173.6 207.9,173.6 "/>
<polygon fill="#6D6E70" points="573.2,383.2 573.2,390.1 499.8,347.9 499.8,341.1 "/>
<polygon fill="#404041" points="573.4,419 573.4,419.1 568.3,416.3 480.8,365.7 387.3,312 387.3,311.7 "/>
<polygon fill="#929497" points="260.1,219 203,186.3 203,183.8 260.1,216.6 "/>
<polygon fill="#929497" points="260.1,228.4 260.1,228.4 203,195.4 203,195.3 205.1,196.6 206,197.1 "/>
<polygon fill="#929497" points="389,308 389,308.3 388.7,308.2 "/>
<polygon fill="#929497" points="486.3,357.6 568.5,405.1 568.5,405.2 486.3,357.6 "/>
<polygon fill="#929497" points="568.7,394 568.7,395.5 499.8,356 499.8,354.4 "/>
<polygon fill="#A6A8AB" points="260.1,209.7 260.1,216.6 203,183.8 207.8,179.6 "/>
<polygon fill="#A6A8AB" points="573.2,390.1 568.7,394 499.8,354.4 499.8,347.9 "/>
<path class="hover_color_change" fill="none" stroke="#231F20" stroke-width="0.5644" stroke-miterlimit="10" d="M207.4,188.8l-4.5-2.6l-29.7-17v8.9l29.7,17.1
	l2.2,1.3l55,31.8V219L207.4,188.8z M207.5,194.5l-1.1-0.2l-1-1.4l-0.1-1.4l0.9-0.5l1.2,0.9l0.6,1.5L207.5,194.5z"/>
<polygon fill="none" stroke="#231F20" stroke-width="0.5644" stroke-miterlimit="10" points="260.1,228.4 260.1,228.4 203,195.4 
	173.3,178.2 203,195.3 205.1,196.6 206,197.1 "/>
<polygon class="hover_color_change" fill="none" stroke="#231F20" stroke-width="0.5644" stroke-miterlimit="10" points="388.7,308.2 386.5,309.4 386.5,309.4 
	384.7,310.5 384.7,310.5 383.9,310.9 207.6,209.3 201.7,205.9 198.1,203.8 163.6,183.9 165.2,183 173.3,178.2 203,195.4 
	260.1,228.4 260.1,234 "/>
<polygon class="hover_color_change" fill="none" stroke="#231F20" stroke-width="0.5644" stroke-miterlimit="10" points="173.3,178.2 165.2,183 165.2,173.5 "/>
<polygon class="hover_color_change" fill="none" stroke="#231F20" stroke-width="0.5644" stroke-miterlimit="10" points="383.9,310.9 383.9,455.2 163.6,328.2 
	163.6,183.9 198.1,203.8 201.7,205.9 207.6,209.3 "/>
<polygon fill="none" stroke="#231F20" stroke-width="0.5644" stroke-miterlimit="10" points="207.9,193.5 207.5,194.5 206.4,194.3 
	205.4,192.9 205.3,191.6 206.2,191.1 207.3,192 "/>
<polygon fill="#404041" points="208.4,22.1 207.9,22.5 573.2,232 574,231.1 "/>
<polygon fill="#6D6E70" points="207.9,28.4 573.2,239 573.2,232 207.9,22.5 "/>
<polygon fill="#404041" points="261.7,86.3 261.7,88.6 208.6,58.1 207.9,57.7 207.9,55.3 260.7,85.8 "/>
<polygon fill="#404041" points="483.7,214.8 482.5,215.6 482.4,215.5 "/>
<polygon fill="#404041" points="573.4,261.6 573.4,268 568.3,265.1 499.8,225.6 499.8,223.5 568.3,263 "/>
<polygon fill="#929497" points="568.7,242.8 568.3,263 499.8,223.5 499.8,216.7 481.4,206.3 481.4,196.4 269.8,75.1 269.8,84 
	261.7,79.4 261.7,86.4 260.7,85.8 207.9,55.4 207.9,55.3 203,52.5 203,32.6 "/>
<polygon fill="#929497" points="481.4,206.3 481.4,206.5 480.9,206.2 269.8,84 481.1,206.2 "/>
<polygon fill="#929497" points="488.6,212 484.2,214.6 484.2,214.6 484.2,214.5 "/>
<polygon fill="#A6A8AB" points="207.9,28.4 203,32.6 568.7,242.8 573.2,239 "/>
<polygon fill="#404041" points="260.1,124.7 260.1,125.5 207.8,95.5 207.9,95.5 208.4,95.1 "/>
<polygon fill="#404041" points="574,304.1 573.2,305 499.8,263 499.8,261.7 "/>
<polygon fill="#6D6E70" points="260.1,125.4 260.1,131.5 207.8,101.4 207.8,95.5 207.9,95.5 "/>
<polygon fill="#6D6E70" points="573.2,305 573.2,312 499.8,269.7 499.8,263 "/>
<polygon fill="#404041" points="260.1,158.4 260.1,160.7 208.6,131.1 207.9,130.7 207.9,128.4 "/>
<polygon fill="#404041" points="573.4,334.6 573.4,341 568.3,338.1 499.8,298.6 499.8,296.6 568.3,336 "/>
<polygon fill="#929497" points="260.1,138.5 260.1,158.4 207.9,128.4 207.9,128.4 203,125.5 203,105.7 "/>
<polygon fill="#929497" points="568.7,315.8 568.3,336 499.8,296.6 499.8,276.3 "/>
<polygon fill="#A6A8AB" points="260.1,131.5 260.1,138.5 203,105.7 207.8,101.4 "/>
<polygon fill="#A6A8AB" points="573.2,312 568.7,315.8 499.8,276.3 499.8,269.7 "/>
<path class="hover_color_change" fill="none" stroke="#000000" stroke-width="0.5644" stroke-miterlimit="10" d="M568.7,395.5L499.8,356v5l-11.2-6.3v1.5
	l-2.3,1.3l82.1,47.5l39.9,23.1l-0.2,0.1l0.5,0.3v-10.1L568.7,395.5z M547,387.9l-1.1-0.2l-1-1.4l-0.1-1.4l0.9-0.5l1.1,0.9l0.6,1.5
	L547,387.9z M605.6,421.7l-1.1-0.2l-1-1.4l-0.1-1.4l0.9-0.5l1.2,0.9l0.6,1.5L605.6,421.7z"/>
<polygon fill="none" stroke="#000000" stroke-width="0.5644" stroke-miterlimit="10" points="608.3,428.1 608.2,428.2 568.5,405.2 
	486.3,357.6 486.3,357.6 568.5,405.1 "/>
<polygon fill="none" stroke="#000000" stroke-width="0.5644" stroke-miterlimit="10" points="603.5,420.1 603.4,418.7 604.3,418.3 
	605.4,419.2 606,420.6 605.6,421.7 604.6,421.5 "/>
<polygon class="hover_color_change" fill="none" stroke="#000000" stroke-width="0.5644" stroke-miterlimit="10" points="615.9,434 607.7,438.7 573.4,419 
	387.3,311.7 388.9,310.8 389,310.8 391.1,309.6 480.4,361 486.3,357.6 568.5,405.2 608.2,428.2 607,428.9 "/>
<polygon fill="none" stroke="#000000" stroke-width="0.5644" stroke-miterlimit="10" points="608.3,428.1 608.2,428.2 568.5,405.2 
	486.3,357.6 486.3,357.6 568.5,405.1 "/>
<polygon class="hover_color_change" fill="none" stroke="#000000" stroke-width="0.5644" stroke-miterlimit="10" points="607.7,438.7 607.7,583 615.9,578.2 
	615.9,434 "/>
<polygon class="hover_color_change" fill="none" stroke="#000000" stroke-width="0.5644" stroke-miterlimit="10" points="607.7,438.7 607.7,583 387.3,456 
	387.3,311.7 573.4,419 "/>
<polygon class="hover_color_change" fill="none" stroke="#000000" stroke-width="0.5644" stroke-miterlimit="10" points="627.1,438.7 627.1,583 615.9,576.7 
	615.9,434 607,428.9 608.2,428.2 608.3,428.1 608.7,428.3 "/>
<polygon fill="white" stroke="#000000" stroke-width="0.5644" stroke-miterlimit="10" points="621.8,439 622.7,438.5 623.8,439.4 
	624.4,440.9 624,441.9 623,441.8 621.9,440.4 "/>
<polygon fill="none" stroke="#000000" stroke-width="0.5644" stroke-miterlimit="10" points="606,420.6 605.6,421.7 604.6,421.5 
	603.5,420.1 603.4,418.7 604.3,418.3 605.4,419.2 "/>
<polygon fill="none" stroke="#000000" stroke-width="0.5644" stroke-miterlimit="10" points="547.4,386.8 547,387.9 545.9,387.7 
	544.9,386.3 544.7,385 545.6,384.5 546.8,385.4 "/>
<polygon fill="white" stroke="#000000" stroke-width="0.2258" stroke-miterlimit="10" points="621.9,505.5 622.8,505.1 624,506 
	624.6,507.4 624.2,508.5 623.1,508.3 622.1,506.9 "/>
<polygon fill="white" stroke="#000000" stroke-width="0.5644" stroke-miterlimit="10" points="621.9,576.8 622.8,576.4 623.9,577.3 
	624.5,578.7 624.1,579.8 623,579.6 622,578.2 "/>
<path class="hover_color_change" fill="none" stroke="#231F20" stroke-width="0.5644" stroke-miterlimit="10" d="M269.8,75.1V84l211.3,122.1l0.3,0.2v-9.9
	L269.8,75.1z M298.4,95.8l-1.1-0.2l-1-1.4l-0.1-1.4l0.9-0.5l1.2,0.9l0.6,1.5L298.4,95.8z M359,130.7l-1.1-0.2l-1-1.4l-0.1-1.4
	l0.9-0.5l1.1,0.9l0.6,1.5L359,130.7z M419.7,165.9l-1.1-0.2l-1-1.4l-0.1-1.4l0.9-0.5l1.2,0.9l0.6,1.5L419.7,165.9z M478.4,199.7
	l-1.1-0.2l-1-1.4l-0.1-1.4l0.9-0.5l1.1,0.9l0.6,1.5L478.4,199.7z"/>
<polygon fill="none" stroke="#231F20" stroke-width="0.5644" stroke-miterlimit="10" points="481.4,206.3 481.4,206.5 480.9,206.2 
	269.8,84 481.1,206.2 "/>
<polygon class="hover_color_change" fill="none" stroke="#231F20" stroke-width="0.2258" stroke-miterlimit="10" points="488.6,212 484.2,214.5 484.2,214.6 
	483.7,214.8 482.4,215.5 480.4,216.7 260.1,89.8 261.7,88.8 261.8,88.7 261.8,88.7 263.8,87.6 263.8,87.6 269.8,84 480.9,206.2 
	479.7,206.9 "/>
<polygon fill="none" stroke="#231F20" stroke-width="0.2258" stroke-miterlimit="10" points="481.1,206.2 480.9,206.2 269.8,84 "/>
<polygon class="hover_color_change" fill="none" stroke="#231F20" stroke-width="0.5644" stroke-miterlimit="10" points="269.8,84 263.8,87.6 263.8,87.6 
	261.8,88.7 261.8,88.7 261.7,88.6 261.7,79.4 "/>
<polygon fill="none" stroke="#231F20" stroke-width="0.5644" stroke-miterlimit="10" points="261.8,88.7 261.7,88.8 261.7,88.6 "/>
<polygon class="hover_color_change" fill="none" stroke="#231F20" stroke-width="0.5644" stroke-miterlimit="10" points="488.6,212 488.6,356.2 486.3,357.6 
	486.3,357.6 480.4,361 480.4,216.8 482.5,215.6 483.7,214.8 484.2,214.6 484.2,214.6 "/>
<polygon fill="none" stroke="#231F20" stroke-width="0.5644" stroke-miterlimit="10" points="481.4,206.3 481.4,206.5 480.9,206.2 
	481.1,206.2 "/>
<path class="hover_color_change" fill="none" stroke="#231F20" stroke-width="0.5644" stroke-miterlimit="10" d="M481.4,206.3v0.2l-0.5-0.3l-1.2,0.7l9,5v142.7
	l11.2,6.3V216.7L481.4,206.3z M495.4,216.5l1.2,0.9l0.6,1.5l-0.4,1l-1.1-0.2l-1-1.4l-0.1-1.4L495.4,216.5z M496.8,357.8l-1.1-0.2
	l-1-1.4l-0.1-1.4l0.9-0.5l1.2,0.9l0.6,1.5L496.8,357.8z M496.9,286.5l-1.1-0.2l-1-1.4l-0.1-1.4l0.9-0.5l1.2,0.9l0.6,1.5L496.9,286.5
	z"/>
<polygon fill="none" stroke="#231F20" stroke-width="0.2258" stroke-miterlimit="10" points="497.1,218.9 496.8,219.9 495.7,219.8 
	494.6,218.4 494.5,217 495.4,216.5 496.6,217.5 "/>
<polygon fill="none" stroke="#231F20" stroke-width="0.5644" stroke-miterlimit="10" points="478.7,198.7 478.4,199.7 477.3,199.5 
	476.2,198.1 476.1,196.8 477,196.3 478.1,197.2 "/>
<polygon fill="none" stroke="#231F20" stroke-width="0.5644" stroke-miterlimit="10" points="420.1,164.9 419.7,165.9 418.6,165.7 
	417.6,164.4 417.4,163 418.3,162.5 419.5,163.4 "/>
<polygon fill="none" stroke="#231F20" stroke-width="0.5644" stroke-miterlimit="10" points="359.4,129.7 359,130.7 357.9,130.5 
	356.9,129.1 356.7,127.8 357.6,127.3 358.8,128.2 "/>
<polygon fill="none" stroke="#231F20" stroke-width="0.5644" stroke-miterlimit="10" points="298.8,94.8 298.4,95.8 297.3,95.6 
	296.3,94.2 296.1,92.9 297,92.4 298.2,93.3 "/>
<polygon fill="none" stroke="#231F20" stroke-width="0.2258" stroke-miterlimit="10" points="497.3,285.5 496.9,286.5 495.8,286.3 
	494.8,284.9 494.7,283.6 495.6,283.1 496.7,284 "/>
<polygon fill="none" stroke="#000000" stroke-width="0.5644" stroke-miterlimit="10" points="497.2,356.7 496.8,357.8 495.7,357.6 
	494.7,356.2 494.6,354.8 495.5,354.4 496.6,355.3 "/>
<polygon class="hover_color_change" fill="none" stroke="#231F20" stroke-width="0.5644" stroke-miterlimit="10" points="480.4,216.7 480.4,361 391.1,309.6 
	389,308.3 389,308 388.7,308.2 260.1,234 260.1,89.8 "/>
<polygon class="hover_color_change" fill="none" stroke="#231F20" stroke-width="0.5644" stroke-miterlimit="10" points="391.1,309.6 389,310.8 388.9,310.8 
	387.3,311.7 387.3,453.2 383.9,455.2 383.9,310.9 384.7,310.5 384.7,310.5 386.5,309.4 386.5,309.4 388.7,308.2 389,308.3 "/>
<polygon class="hover_color_change" fill="none" stroke="#231F20" stroke-width="0.5644" stroke-miterlimit="10" points="389,308 389,308.3 388.7,308.2 "/>
</svg>
