<?xml version="1.0" encoding="UTF-8" standalone="no"?>
<svg width="257px" height="66px" viewBox="0 0 257 66" version="1.1" xmlns="http://www.w3.org/2000/svg" xmlns:xlink="http://www.w3.org/1999/xlink">
    <!-- Generator: Sketch 42 (36781) - http://www.bohemiancoding.com/sketch -->
    <title>litsco_logo_bartest</title>
    <desc>Created with Sketch.</desc>
    <defs></defs>
    <g id="Page-1" stroke="none" stroke-width="1" fill="none" fill-rule="evenodd">
        <g id="litsco_logo_bar" fill="#2B3668">
            <polygon id="Rectangle-218" points="57 58.81218 51 66 51 0 57 7.44672309"></polygon>
            <rect id="Rectangle-217" x="60" y="7" width="37" height="52"></rect>
            <polygon id="Rectangle-218" transform="translate(103.000000, 33.000000) scale(-1, 1) translate(-103.000000, -33.000000) " points="106 58.81218 100 66 100 0 106 7.44672309"></polygon>
            <polygon id="Rectangle-218" points="157 58.81218 151 66 151 0 157 7.44672309"></polygon>
            <rect id="Rectangle-217" x="9" y="0" width="39" height="66"></rect>
            <rect id="Rectangle-217" x="109" y="0" width="39" height="66"></rect>
            <rect id="Rectangle-217" x="160" y="7" width="37" height="52"></rect>
            <polygon id="Rectangle-218" transform="translate(203.000000, 33.000000) scale(-1, 1) translate(-203.000000, -33.000000) " points="206 58.81218 200 66 200 0 206 7.44672309"></polygon>
            <polygon id="Rectangle-218" points="257 58.81218 251 66 251 0 257 7.44672309"></polygon>
            <rect id="Rectangle-217" x="209" y="0" width="39" height="66"></rect>
            <polygon id="Rectangle-218" transform="translate(3.000000, 33.000000) scale(-1, 1) translate(-3.000000, -33.000000) " points="6 58.81218 0 66 0 0 6 7.44672309"></polygon>
        </g>
    </g>
</svg>