<?xml version="1.0" encoding="UTF-8" standalone="no"?>
<svg width="265px" height="42px" viewBox="0 0 265 42" version="1.1" xmlns="http://www.w3.org/2000/svg" xmlns:xlink="http://www.w3.org/1999/xlink">
    <!-- Generator: Sketch 42 (36781) - http://www.bohemiancoding.com/sketch -->
    <title>Group 2</title>
    <desc>Created with Sketch.</desc>
    <defs></defs>
    <g id="Page-1" stroke="none" stroke-width="1" fill="none" fill-rule="evenodd">
        <g id="Group-2" transform="translate(0.000000, -7.000000)">
            <g id="litsco_logo_bar" transform="translate(0.000000, 9.000000)" fill="#2B3668">
                <polygon id="Rectangle-218" points="33.2684825 31.1882773 29.766537 35 29.766537 0 33.2684825 3.94901982"></polygon>
                <rect id="Rectangle-217" x="35.0194553" y="3.71212121" width="21.5953307" height="27.5757576"></rect>
                <polygon id="Rectangle-218" transform="translate(60.116732, 17.500000) scale(-1, 1) translate(-60.116732, -17.500000) " points="61.8677043 31.1882773 58.3657588 35 58.3657588 0 61.8677043 3.94901982"></polygon>
                <polygon id="Rectangle-218" points="91.6342412 31.1882773 88.1322957 35 88.1322957 0 91.6342412 3.94901982"></polygon>
                <rect id="Rectangle-217" x="5.25291829" y="0" width="22.7626459" height="35"></rect>
                <rect id="Rectangle-217" x="63.618677" y="0" width="22.7626459" height="35"></rect>
                <rect id="Rectangle-217" x="93.385214" y="3.71212121" width="21.5953307" height="27.5757576"></rect>
                <polygon id="Rectangle-218" transform="translate(118.482490, 17.500000) scale(-1, 1) translate(-118.482490, -17.500000) " points="120.233463 31.1882773 116.731518 35 116.731518 0 120.233463 3.94901982"></polygon>
                <polygon id="Rectangle-218" points="150 31.1882773 146.498054 35 146.498054 0 150 3.94901982"></polygon>
                <rect id="Rectangle-217" x="121.984436" y="0" width="22.7626459" height="35"></rect>
                <polygon id="Rectangle-218" transform="translate(1.750973, 17.500000) scale(-1, 1) translate(-1.750973, -17.500000) " points="3.50194553 31.1882773 2.91433544e-14 35 2.91433544e-14 0 3.50194553 3.94901982"></polygon>
            </g>
            <g id="Group-3" transform="translate(161.000000, 0.000000)">
                <text id="LITSCO" font-family="AvenirNext-Medium, Avenir Next" font-size="28" font-weight="400" letter-spacing="1" fill="#4E4E4E">
                    <tspan x="2" y="28">LITSCO</tspan>
                </text>
                <path d="M0,34 L103,34" id="Line" stroke="#9B9B9B" stroke-width="2" stroke-linecap="square"></path>
                <text id="SINCE-1918" font-family="AvenirNext-Regular, Avenir Next" font-size="13" font-weight="normal" letter-spacing="0.851190507" fill="#4E4E4E">
                    <tspan x="14" y="48">SINCE 1918</tspan>
                </text>
            </g>
        </g>
    </g>
</svg>