<svg id="Layer_1" data-name="Layer 1" xmlns="http://www.w3.org/2000/svg" viewBox="0 0 647.94 519.33"><defs><style>.cls-1,.cls-11,.cls-13,.cls-16,.cls-17,.cls-18,.cls-2{fill:none;}.cls-1,.cls-10,.cls-12,.cls-13,.cls-15,.cls-16,.cls-17,.cls-18,.cls-2,.cls-4,.cls-6,.cls-7,.cls-8,.cls-9{stroke:#000;}.cls-1,.cls-10,.cls-17,.cls-18,.cls-6,.cls-7,.cls-8{stroke-linecap:round;stroke-linejoin:round;}.cls-1,.cls-10,.cls-17,.cls-18,.cls-2,.cls-6,.cls-7,.cls-8,.cls-9{stroke-width:0.2px;}.cls-12,.cls-13,.cls-15,.cls-16,.cls-2,.cls-4,.cls-9{stroke-miterlimit:10;}.cls-3,.cls-6{fill:gray;}.cls-14,.cls-4,.cls-8,.cls-9{fill:#b2b3b3;}.cls-12,.cls-13,.cls-4{stroke-width:0.1px;}.cls-5,.cls-7{fill:#989898;}.cls-10{fill:#fff;}.cls-12,.cls-15{fill:#e6e6e5;}.cls-15,.cls-16{stroke-width:0.09px;}.cls-17{stroke-dasharray:7.15 7.15;}.cls-18{stroke-dasharray:6.42 6.42;}</style></defs><title>Omniwall CL_1</title><polygon class="cls-1" points="635.38 33.75 635.35 33.75 305.45 128.29 303.85 127.37 303.83 127.37 299.42 124.84 280.04 113.73 277.24 112.14 470.07 57.85 608.11 19 635.38 33.75"/><polygon class="cls-2" points="213.61 375.71 213.61 442.36 191.32 429.65 191.32 381.95 193.69 379.91 201.33 375.82 207.25 372.12 213.61 375.71"/><path class="cls-3" d="M236.17,136.57a6,6,0,0,0-6,6,5.86,5.86,0,0,0,1.63,4.07,5.86,5.86,0,0,1-.61-2.62,6,6,0,0,1,10.3-4.09A6,6,0,0,0,236.17,136.57Zm0,0a6,6,0,0,0-6,6,5.86,5.86,0,0,0,1.63,4.07,5.86,5.86,0,0,1-.61-2.62,6,6,0,0,1,10.3-4.09A6,6,0,0,0,236.17,136.57ZM405.23,81.72,233.32,129,82.1,170.56V196.4l151.19-42.58,12.92-3.64,158.7-44.7v0l13-3.66L527,71.07V48.25ZM235.08,151.18a9.8,9.8,0,1,1,9.8-9.8A9.8,9.8,0,0,1,235.08,151.18Zm172.75-50.1A9.11,9.11,0,1,1,416.95,92,9.11,9.11,0,0,1,407.83,101.08Zm1-13.58A5.56,5.56,0,0,0,403.29,93a5.49,5.49,0,0,0,1.51,3.79,5.46,5.46,0,0,1-.56-2.42,5.55,5.55,0,0,1,9.55-3.84A5.52,5.52,0,0,0,408.85,87.49ZM236.17,136.57a6,6,0,0,0-6,6,5.86,5.86,0,0,0,1.63,4.07,5.86,5.86,0,0,1-.61-2.62,6,6,0,0,1,10.3-4.09A6,6,0,0,0,236.17,136.57Zm0,0a6,6,0,0,0-6,6,5.86,5.86,0,0,0,1.63,4.07,5.86,5.86,0,0,1-.61-2.62,6,6,0,0,1,10.3-4.09A6,6,0,0,0,236.17,136.57Zm0,0a6,6,0,0,0-6,6,5.86,5.86,0,0,0,1.63,4.07,5.86,5.86,0,0,1-.61-2.62,6,6,0,0,1,10.3-4.09A6,6,0,0,0,236.17,136.57Z" transform="translate(-73.16 -46.57)"/><polygon class="cls-4" points="470.07 31.06 341.09 67.61 78.48 142.05 78.36 142.09 20.66 158.43 8.93 149.82 160.11 107.24 173.03 103.59 331.74 58.89 331.74 58.88 344.77 55.22 453.82 24.49 470.07 31.06"/><polygon class="cls-5" points="470.07 31.06 470.07 57.85 403.64 76.55 403.64 55.5 399.55 53.56 341.73 69.93 341.73 93.98 277.24 112.14 277.24 116.98 276.59 116.98 251.49 124.14 222.65 132.36 211.78 135.46 198.48 139.25 198.46 139.25 190.89 135.39 140.93 149.66 140.93 129.9 136.84 128.07 136.16 125.7 470.07 31.06"/><polygon class="cls-5" points="136.84 128.07 79.13 144.44 79.13 173.18 20.66 189.8 20.66 158.43 136.16 125.7 136.84 128.07"/><polygon class="cls-2" points="647.84 87.48 647.3 105.89 644.71 124.3 640.51 142.71 630.72 179.86 626.52 198.38 623.61 216.9 622.86 235.53 624.04 254.04 630.72 291.08 640.62 328.01 640.84 328.87 305.45 425.02 305.45 128.29 548.35 58.68 551.94 57.66 572.22 51.84 572.9 51.64 576.29 50.67 576.97 50.48 635.35 33.75 635.38 33.75 645.47 69.28 647.84 87.48"/><line class="cls-1" x1="468.94" y1="355.31" x2="480.57" y2="352.08"/><line class="cls-1" x1="493.6" y1="348.41" x2="506.63" y2="344.75"/><line class="cls-1" x1="519.66" y1="341.09" x2="532.58" y2="337.43"/><line class="cls-1" x1="545.6" y1="333.77" x2="557.23" y2="330.43"/><polyline class="cls-1" points="432.44 90.33 440.41 94.96 440.41 110.79"/><line class="cls-1" x1="440.41" y1="124.25" x2="440.41" y2="137.81"/><line class="cls-1" x1="440.41" y1="151.38" x2="440.41" y2="164.84"/><line class="cls-1" x1="440.41" y1="178.41" x2="440.41" y2="191.86"/><line class="cls-1" x1="440.41" y1="205.43" x2="440.41" y2="218.89"/><line class="cls-1" x1="440.41" y1="232.46" x2="440.41" y2="246.02"/><line class="cls-1" x1="440.41" y1="259.48" x2="440.41" y2="273.05"/><line class="cls-1" x1="440.41" y1="286.5" x2="440.41" y2="300.07"/><line class="cls-1" x1="440.41" y1="313.53" x2="440.41" y2="327.1"/><line class="cls-1" x1="440.41" y1="340.66" x2="440.41" y2="354.12"/><line class="cls-1" x1="440.41" y1="367.69" x2="440.41" y2="383.51"/><polyline class="cls-1" points="420.6 372.32 416.62 370.06 412.63 367.8"/><line class="cls-1" x1="432.44" y1="378.99" x2="440.41" y2="383.51"/><line class="cls-1" x1="468.94" y1="86.78" x2="468.94" y2="102.61"/><line class="cls-1" x1="468.94" y1="116.07" x2="468.94" y2="129.63"/><line class="cls-1" x1="468.94" y1="143.2" x2="468.94" y2="156.66"/><line class="cls-1" x1="468.94" y1="170.22" x2="468.94" y2="183.68"/><line class="cls-1" x1="468.94" y1="197.25" x2="468.94" y2="210.81"/><line class="cls-1" x1="468.94" y1="224.27" x2="468.94" y2="237.84"/><line class="cls-1" x1="468.94" y1="251.3" x2="468.94" y2="264.86"/><line class="cls-1" x1="468.94" y1="278.32" x2="468.94" y2="291.89"/><line class="cls-1" x1="468.94" y1="305.45" x2="468.94" y2="318.91"/><line class="cls-1" x1="468.94" y1="332.48" x2="468.94" y2="345.94"/><line class="cls-1" x1="468.94" y1="359.5" x2="468.94" y2="375.33"/><line class="cls-1" x1="468.94" y1="86.78" x2="461.19" y2="88.93"/><line class="cls-1" x1="448.16" y1="92.7" x2="440.41" y2="94.96"/><line class="cls-1" x1="440.41" y1="383.51" x2="448.16" y2="381.25"/><line class="cls-1" x1="461.19" y1="377.59" x2="468.94" y2="375.33"/><polyline class="cls-1" points="412.63 94.96 412.63 87.71 412.63 79.03"/><line class="cls-1" x1="412.63" y1="108.42" x2="412.63" y2="121.99"/><line class="cls-1" x1="412.63" y1="135.55" x2="412.63" y2="149.01"/><line class="cls-1" x1="412.63" y1="162.58" x2="412.63" y2="176.04"/><line class="cls-1" x1="412.63" y1="189.6" x2="412.63" y2="203.17"/><line class="cls-1" x1="412.63" y1="216.63" x2="412.63" y2="230.19"/><line class="cls-1" x1="412.63" y1="243.65" x2="412.63" y2="257.22"/><line class="cls-1" x1="412.63" y1="270.68" x2="412.63" y2="284.24"/><line class="cls-1" x1="412.63" y1="297.81" x2="412.63" y2="311.27"/><line class="cls-1" x1="412.63" y1="324.84" x2="412.63" y2="338.29"/><line class="cls-1" x1="412.63" y1="351.86" x2="412.63" y2="367.79"/><line class="cls-1" x1="552.39" y1="68.91" x2="552.39" y2="82.36"/><line class="cls-1" x1="552.39" y1="95.93" x2="552.39" y2="109.5"/><line class="cls-1" x1="552.39" y1="122.96" x2="552.39" y2="136.52"/><line class="cls-1" x1="552.39" y1="149.98" x2="552.39" y2="163.55"/><line class="cls-1" x1="552.39" y1="177.01" x2="552.39" y2="190.57"/><line class="cls-1" x1="552.39" y1="204.14" x2="552.39" y2="217.6"/><line class="cls-1" x1="552.39" y1="231.16" x2="552.39" y2="244.62"/><line class="cls-1" x1="552.39" y1="258.19" x2="552.39" y2="271.65"/><line class="cls-1" x1="552.39" y1="285.21" x2="552.39" y2="298.78"/><line class="cls-1" x1="552.39" y1="312.24" x2="552.39" y2="327.74"/><polyline class="cls-1" points="572.2 51.25 580.17 55.77 580.17 71.17"/><line class="cls-1" x1="580.17" y1="84.73" x2="580.17" y2="98.19"/><line class="cls-1" x1="580.17" y1="111.76" x2="580.17" y2="125.22"/><line class="cls-1" x1="580.17" y1="138.78" x2="580.17" y2="152.35"/><line class="cls-1" x1="580.17" y1="165.81" x2="580.17" y2="179.37"/><line class="cls-1" x1="580.17" y1="192.83" x2="580.17" y2="206.4"/><line class="cls-1" x1="580.17" y1="219.86" x2="580.17" y2="233.42"/><line class="cls-1" x1="580.17" y1="246.99" x2="580.17" y2="260.45"/><line class="cls-1" x1="580.17" y1="274.02" x2="580.17" y2="287.47"/><line class="cls-1" x1="580.17" y1="301.04" x2="580.17" y2="314.61"/><line class="cls-1" x1="580.17" y1="328.06" x2="580.17" y2="343.46"/><line class="cls-1" x1="608.7" y1="47.59" x2="600.95" y2="49.85"/><line class="cls-1" x1="588.03" y1="53.51" x2="580.17" y2="55.77"/><line class="cls-1" x1="608.7" y1="47.59" x2="608.7" y2="62.98"/><line class="cls-1" x1="608.7" y1="76.55" x2="608.7" y2="90.01"/><line class="cls-1" x1="608.7" y1="103.58" x2="608.7" y2="117.14"/><line class="cls-1" x1="608.7" y1="130.6" x2="608.7" y2="144.17"/><line class="cls-1" x1="608.7" y1="157.63" x2="608.7" y2="171.19"/><line class="cls-1" x1="608.7" y1="184.65" x2="608.7" y2="198.22"/><line class="cls-1" x1="608.7" y1="211.78" x2="608.7" y2="225.24"/><line class="cls-1" x1="608.7" y1="238.81" x2="608.7" y2="252.27"/><line class="cls-1" x1="608.7" y1="265.83" x2="608.7" y2="279.29"/><line class="cls-1" x1="608.7" y1="292.86" x2="608.7" y2="306.42"/><line class="cls-1" x1="608.7" y1="319.88" x2="608.7" y2="335.28"/><line class="cls-1" x1="552.39" y1="327.74" x2="560.46" y2="332.26"/><polyline class="cls-1" points="572.2 338.94 580.17 343.46 588.03 341.2"/><line class="cls-1" x1="600.95" y1="337.54" x2="608.7" y2="335.28"/><line class="cls-1" x1="609.24" y1="315.79" x2="617.2" y2="319.99"/><line class="cls-1" x1="629.26" y1="326.13" x2="637.34" y2="330.33"/><line class="cls-1" x1="333.82" y1="393.42" x2="315.95" y2="398.37"/><line class="cls-1" x1="346.74" y1="389.76" x2="359.77" y2="386.1"/><line class="cls-1" x1="372.8" y1="382.44" x2="385.82" y2="378.78"/><line class="cls-1" x1="398.85" y1="375.12" x2="416.62" y2="370.06"/><line class="cls-1" x1="369.03" y1="116.93" x2="369.24" y2="113.05"/><line class="cls-1" x1="369.03" y1="116.93" x2="361.6" y2="112.08"/><polyline class="cls-1" points="350.29 104.65 341.73 99.21 341.73 93.23"/><polyline class="cls-1" points="366.01 110.92 346.95 98.3 356.32 95.61"/><polyline class="cls-1" points="366.03 110.92 368.83 112.78 369.24 113.05"/><line class="cls-1" x1="369.35" y1="91.95" x2="382.38" y2="88.29"/><line class="cls-1" x1="395.41" y1="84.52" x2="404.77" y2="81.93"/><line class="cls-1" x1="369.24" y1="113.05" x2="378.18" y2="110.25"/><line class="cls-1" x1="391.1" y1="106.27" x2="404.02" y2="102.28"/><line class="cls-1" x1="416.94" y1="98.19" x2="425.77" y2="95.5"/><line class="cls-1" x1="369.03" y1="116.93" x2="378.5" y2="114.13"/><line class="cls-1" x1="404.45" y1="106.48" x2="391.42" y2="110.25"/><line class="cls-1" x1="417.37" y1="102.61" x2="426.85" y2="99.81"/><line class="cls-1" x1="416.51" y1="77.95" x2="422.86" y2="81.5"/><line class="cls-1" x1="434.6" y1="88.07" x2="440.84" y2="91.62"/><line class="cls-1" x1="412.63" y1="79.03" x2="416.51" y2="77.95"/><line class="cls-1" x1="556.37" y1="38.76" x2="562.62" y2="42.31"/><line class="cls-1" x1="574.35" y1="48.99" x2="580.6" y2="52.54"/><polyline class="cls-1" points="468.94 86.78 464.85 84.84 440.84 91.62"/><polyline class="cls-1" points="608.7 47.59 604.72 45.76 580.6 52.54"/><polygon class="cls-1" points="222.33 151.44 160.02 168.75 140.93 156.28 140.93 149.66 190.89 135.39 198.46 139.25 198.48 139.25 211.78 146.05 222.33 151.44"/><polygon class="cls-1" points="160.02 168.75 109.28 182.87 83 166.19 140.93 149.66 140.93 156.28 160.02 168.75"/><polygon class="cls-1" points="305.45 128.29 305.45 419.6 299.42 421.36 299.31 421.54 293.35 418.15 277.24 408.98 277.24 112.14 280.04 113.73 299.42 124.84 303.83 127.37 303.85 127.37 305.45 128.29"/><line class="cls-1" x1="105.51" y1="477.03" x2="105.44" y2="477.04"/><line class="cls-1" x1="299.42" y1="388.41" x2="299.42" y2="398.1"/><line class="cls-1" x1="299.42" y1="411.67" x2="299.42" y2="421.36"/><line class="cls-1" x1="303.4" y1="387.23" x2="303.4" y2="394.98"/><line class="cls-1" x1="303.4" y1="408.55" x2="303.4" y2="416.3"/><line class="cls-1" x1="305.45" y1="398.82" x2="303.4" y2="399.4"/><line class="cls-1" x1="280.04" y1="376.79" x2="280.04" y2="386.8"/><line class="cls-1" x1="280.04" y1="400.37" x2="280.04" y2="410.38"/><line class="cls-1" x1="280.04" y1="113.32" x2="280.04" y2="123.33"/><line class="cls-1" x1="280.04" y1="136.79" x2="280.04" y2="146.81"/><line class="cls-1" x1="303.83" y1="127.37" x2="303.3" y2="127.53"/><polyline class="cls-1" points="303.3 156.71 299.42 157.79 280.04 146.81"/><line class="cls-1" x1="303.3" y1="127.53" x2="303.3" y2="135.28"/><line class="cls-1" x1="303.3" y1="148.85" x2="303.3" y2="156.71"/><line class="cls-1" x1="299.42" y1="124.84" x2="299.42" y2="134.53"/><line class="cls-1" x1="299.42" y1="148.1" x2="299.42" y2="157.79"/><polygon class="cls-1" points="109.28 182.87 109.28 479.07 105.44 477.04 105.42 477.04 81.07 464.32 81.07 457.86 104.22 470.67 104.22 186.53 83 172.43 83 166.19 109.28 182.87"/><polygon class="cls-1" points="180.55 212.81 178.18 216.04 180.23 220.02 183.03 224.54 182.81 229.28 179.91 233.91 177 238.11 176.46 241.55 179.48 244.25 184.43 246.61 191.32 251.39 192.83 252.43 200.9 256.95 204.78 259.54 207.58 263.41 213.39 270.84 213.61 270.95 217.16 272.72 221.79 275.04 221.79 351.92 217.34 356.62 216.3 357.73 215.47 359.47 212.75 365.16 209.16 370.2 208.22 371.51 207.25 372.12 201.33 375.82 193.69 379.91 191.32 381.95 190.57 382.6 188.63 385.83 187.44 394.01 185.83 397.67 182.71 400.47 179.91 403.38 178.62 406.93 179.91 415.22 179.8 423.73 179.8 427.82 182.49 429.76 186.8 430.73 189.49 433.2 191.75 441.5 194.34 444.29 198 446.23 204.24 451.4 204.26 451.44 109.28 479.07 109.28 182.87 160.02 168.75 222.33 151.44 222.33 173.4 214.58 178.78 211.78 181.17 210.92 181.91 208.87 186.53 206.5 190.41 202.41 191.27 197.24 190.84 194.76 191.61 192.72 192.24 189.6 196.01 187.88 200.75 184.65 209.58 180.55 212.81"/><path class="cls-1" d="M455.92,118.76l-.11.65c-1.13,3.79-11.13,6.39-14.43,4l-.54-.54-.32-.65v-.65l.22-.75c2-3.79,12.31-6.5,15.07-2.8Z" transform="translate(-73.16 -46.57)"/><path class="cls-1" d="M193.21,193.06l-.11.65c-1.65,4-11.13,6.24-14.43,4l-.65-.54-.22-.65-.11-.75L178,195c1.76-3.64,12.44-6.41,15-2.69Z" transform="translate(-73.16 -46.57)"/><line class="cls-1" x1="470.07" y1="57.87" x2="470.07" y2="57.85"/><line class="cls-1" x1="341.73" y1="94.05" x2="341.73" y2="93.98"/><line class="cls-1" x1="300.6" y1="181.58" x2="300.6" y2="169.09"/><line class="cls-1" x1="300.6" y1="208.71" x2="300.6" y2="195.15"/><line class="cls-1" x1="300.6" y1="222.17" x2="300.6" y2="234.66"/><line class="cls-1" x1="254.84" y1="162.52" x2="254.84" y2="162.47"/><line class="cls-1" x1="277.24" y1="224.86" x2="296.62" y2="235.85"/><line class="cls-1" x1="296.62" y1="170.28" x2="296.62" y2="182.77"/><line class="cls-1" x1="296.62" y1="196.33" x2="296.62" y2="209.79"/><line class="cls-1" x1="296.62" y1="223.36" x2="296.62" y2="235.85"/><line class="cls-1" x1="296.62" y1="235.85" x2="300.6" y2="234.66"/><polygon class="cls-1" points="277.24 296.79 277.24 300.23 254.84 306.91 250.32 304.76 254.84 303.41 277.24 296.79"/><path class="cls-1" d="M350.4,205.87v65.57L328,278.11V250.44l11.52-3.34,1.4-.43c3.91-1.33,5.78-3.19,5.78-4.7s-1.56-2.46-4.49-2.51a15.43,15.43,0,0,0-3,.22l-1.51.32L328,242.91V212.44Z" transform="translate(-73.16 -46.57)"/><line class="cls-1" x1="211.78" y1="135.46" x2="211.78" y2="135.39"/><line class="cls-1" x1="163" y1="174.58" x2="162.68" y2="170.49"/><polygon class="cls-3" points="211.78 135.46 211.78 146.05 198.48 139.25 211.78 135.46"/><line class="cls-1" x1="109.28" y1="189.12" x2="116.6" y2="187.07"/><line class="cls-1" x1="129.63" y1="183.63" x2="142.65" y2="180.07"/><line class="cls-1" x1="155.79" y1="176.52" x2="163" y2="174.58"/><line class="cls-1" x1="109.28" y1="185.57" x2="116.49" y2="183.52"/><line class="cls-1" x1="129.52" y1="179.86" x2="142.55" y2="176.2"/><polyline class="cls-1" points="160.02 168.75 162.68 170.49 155.47 172.43"/><line class="cls-1" x1="198.46" y1="139.25" x2="198.43" y2="139.27"/><polygon class="cls-4" points="20.66 158.43 20.66 189.8 20.02 189.98 7.85 185.46 7.85 209.15 4.41 207.64 4.41 178.78 17.11 184.27 17.11 160.48 4.95 152.4 4.95 122.47 8.93 123.98 8.93 149.82 20.66 158.43"/><polygon class="cls-6" points="94.09 183.63 7.85 209.15 7.85 185.46 20.02 189.98 20.66 189.8 79.13 173.18 79.13 173.29 94.09 183.63"/><line class="cls-1" x1="300.6" y1="310.03" x2="300.6" y2="322.63"/><line class="cls-1" x1="300.6" y1="336.09" x2="300.6" y2="349.65"/><line class="cls-1" x1="300.6" y1="363.11" x2="300.6" y2="375.6"/><line class="cls-1" x1="296.62" y1="311.21" x2="296.62" y2="323.7"/><line class="cls-1" x1="296.62" y1="337.27" x2="296.62" y2="350.73"/><polyline class="cls-1" points="296.62 364.3 296.62 376.79 277.24 365.8"/><path class="cls-2" d="M350.4,346.81v65.57L328,419.05V391.27l9.58-2.91,1.51-.32c3.89-1.38,5.72-3.27,5.72-4.77,0-1-.88-1.9-2.58-2.26a12.6,12.6,0,0,0-4.86,0l-1.51.32L328,383.74V353.48Z" transform="translate(-73.16 -46.57)"/><line class="cls-1" x1="296.62" y1="376.78" x2="300.6" y2="375.6"/><polygon class="cls-1" points="220.18 358.16 220.18 423.84 217.16 424.7 217.16 374.74 209.16 370.2 212.75 365.16 215.47 359.47 220.18 358.16"/><polygon class="cls-1" points="104.22 443.86 104.22 466.15 77.19 451.4 104.22 443.86"/><polygon class="cls-1" points="104.22 466.15 104.22 470.67 81.07 457.86 81.07 484.13 77.84 482.52 77.19 482.19 77.19 451.4 104.22 466.15"/><line class="cls-1" x1="293.39" y1="418.13" x2="293.35" y2="418.15"/><line class="cls-1" x1="0.1" y1="435.25" x2="0.1" y2="435.03"/><line class="cls-1" x1="3.98" y1="436.54" x2="3.98" y2="436.33"/><polygon class="cls-7" points="15.5 499.85 15.5 469.06 15.3 468.95 15.5 468.63 77.19 451.4 77.19 482.19 77.84 482.52 15.5 499.85"/><polygon class="cls-6" points="104.22 408.23 104.22 433.85 4.3 462.17 4.26 462.24 3.98 462.06 3.98 436.54 104.22 408.23"/><polygon class="cls-8" points="3.98 436.54 3.98 462.06 4.26 462.24 15.3 468.95 15.5 469.06 15.5 499.85 3.98 496.08 3.98 519.23 1.39 517.94 1.39 490.27 12.91 494.14 12.91 472.29 0.1 464 0.1 435.25 104.22 405.86 104.22 408.23 3.98 436.54"/><polygon class="cls-8" points="104.22 433.85 104.22 443.86 77.19 451.4 15.5 468.63 15.3 468.95 4.26 462.24 4.3 462.17 104.22 433.85"/><polygon class="cls-1" points="254.84 165.86 254.84 196.33 250.32 194.29 250.32 163.82 254.84 165.86"/><polygon class="cls-1" points="254.84 306.91 254.84 337.16 250.32 335.12 250.32 304.76 254.84 306.91"/><path class="cls-2" d="M342.24,381l0,0-.54,1.08c-1.56,2.15-4.24,3-6.68,3.66l-11.52,3.45V417l4.52,2v25.84l-28.86,8V181.1L328,172.92V209l-4.52,1.35v30.47l4.52,2L337.7,240l1.51-.32a15.43,15.43,0,0,1,3-.22l-.11,1.08c-1.09,2.23-3.46,3.37-5.71,4.09l-1.4.43-11.52,3.34v27.67l4.52,2V350l-4.52,1.35v30.36l4.52,2,7.86-2.37,1.51-.32A12.6,12.6,0,0,1,342.24,381Z" transform="translate(-73.16 -46.57)"/><polygon class="cls-1" points="300.6 310.03 296.62 311.22 277.24 300.23 277.24 296.79 300.6 310.03"/><polygon class="cls-1" points="300.6 169.09 296.62 170.28 277.24 159.29 277.24 155.85 300.6 169.09"/><polygon class="cls-1" points="277.24 155.85 277.24 159.29 254.84 165.86 250.32 163.82 254.84 162.47 277.24 155.85"/><polygon class="cls-1" points="220.18 197.52 220.18 263.19 217.16 264.06 217.16 214.1 198.53 203.55 220.18 197.52"/><polygon class="cls-9" points="254.84 126.35 225.99 134.53 222.65 132.38 222.65 132.36 251.49 124.14 251.51 124.19 254.84 126.35"/><polygon class="cls-1" points="220.18 358.16 215.47 359.47 216.3 357.73 217.34 356.62 220.18 358.16"/><polygon class="cls-9" points="225.99 134.53 225.99 406.29 220.18 402.52 220.18 358.16 217.34 356.62 221.79 351.92 221.79 275.04 217.16 272.72 217.16 264.06 220.18 263.19 220.18 197.52 216.41 195.36 211.78 196.66 211.78 181.17 214.58 178.78 222.33 173.4 222.33 151.44 211.78 146.05 211.78 135.46 222.65 132.36 222.65 132.38 225.99 134.53"/><polygon class="cls-1" points="105.42 477.04 81.07 484.13 81.07 464.32 105.42 477.04"/><polygon class="cls-2" points="217.16 214.1 217.16 272.72 213.61 270.95 213.61 215.07 217.16 214.1"/><polygon class="cls-1" points="217.16 374.74 213.61 375.71 207.25 372.12 208.22 371.51 209.16 370.2 217.16 374.74"/><polygon class="cls-4" points="453.82 1.67 332.06 35.13 160.15 82.4 8.93 123.98 4.95 122.47 449.73 0.05 453.82 1.67"/><path class="cls-1" d="M419,118.44v21l57.82-16.28v-21Zm36.82,1c-1.13,3.79-11.13,6.39-14.43,4l-.54-.54-.32-.65v-.65l.22-.75c2-3.79,12.31-6.5,15.07-2.8l.11.75Z" transform="translate(-73.16 -46.57)"/><polygon class="cls-1" points="403.64 55.5 345.82 71.87 341.73 69.93 399.55 53.56 403.64 55.5"/><polygon class="cls-1" points="345.82 71.87 345.82 92.83 341.73 93.98 341.73 69.93 345.82 71.87"/><polyline class="cls-1" points="370.37 101.15 370.32 101.01 370.3 101.01"/><polyline class="cls-1" points="370.37 101.15 370.32 101.01 370.3 101.01"/><polygon class="cls-2" points="213.61 215.07 213.61 270.95 213.39 270.84 207.58 263.41 204.78 259.54 200.9 256.95 192.83 252.43 191.32 251.39 191.32 202.36 213.61 215.07"/><polygon class="cls-1" points="198.53 203.55 217.16 214.1 213.61 215.07 191.32 202.36 194.76 201.39 211.78 196.66 216.41 195.36 220.18 197.52 198.53 203.55"/><polygon class="cls-6" points="211.78 181.17 211.78 196.66 194.76 201.39 194.76 191.61 197.24 190.84 202.41 191.27 206.5 190.41 208.87 186.53 210.92 181.91 211.78 181.17"/><line class="cls-1" x1="211.78" y1="196.76" x2="211.78" y2="196.66"/><line class="cls-1" x1="211.78" y1="181.17" x2="211.78" y2="181.15"/><polygon class="cls-1" points="254.84 344.7 254.84 372.48 250.32 370.43 250.32 342.65 254.84 344.7"/><path class="cls-1" d="M344.82,383.27c0,1.51-1.83,3.39-5.72,4.77l-1.51.32L328,391.27l-4.52-2L335,385.78c2.44-.68,5.11-1.51,6.68-3.66l.54-1.08,0,0C343.94,381.37,344.82,382.23,344.82,383.27Z" transform="translate(-73.16 -46.57)"/><path class="cls-1" d="M346.71,242c0,1.51-1.87,3.37-5.78,4.7l-1.4.43L328,250.44l-4.52-2L335,245.06l1.4-.43c2.24-.72,4.61-1.87,5.71-4.09l.11-1.08C345.15,239.51,346.71,240.59,346.71,242Z" transform="translate(-73.16 -46.57)"/><polygon class="cls-1" points="254.84 203.87 254.84 231.54 250.32 229.5 250.32 201.82 254.84 203.87"/><polygon class="cls-1" points="140.93 129.9 83 146.38 79.13 144.49 79.13 144.44 136.84 128.07 140.93 129.9"/><path class="cls-1" d="M156.17,192.95v19.81l57.93-16.53V176.47Zm36.93.75c-1.65,4-11.13,6.24-14.43,4l-.65-.54-.22-.65-.11-.75L178,195c1.76-3.64,12.44-6.41,15-2.69l.22.75Z" transform="translate(-73.16 -46.57)"/><polygon class="cls-1" points="104.22 186.53 104.22 190.63 94.09 183.63 79.13 173.29 79.13 144.49 83 146.38 83 172.43 104.22 186.53"/><ellipse class="cls-1" cx="288.51" cy="212.46" rx="2.07" ry="3.45"/><ellipse class="cls-1" cx="288.51" cy="184.07" rx="2.07" ry="3.45"/><ellipse class="cls-1" cx="290" cy="141.21" rx="2.07" ry="3.45"/><ellipse class="cls-10" cx="290" cy="130.31" rx="2.07" ry="3.45"/><ellipse class="cls-1" cx="286.62" cy="325.21" rx="2.07" ry="3.45"/><ellipse class="cls-1" cx="286.62" cy="354.28" rx="2.07" ry="3.45"/><ellipse class="cls-10" cx="290.06" cy="393.91" rx="2.07" ry="3.45"/><ellipse class="cls-10" cx="290.06" cy="404.67" rx="2.07" ry="3.45"/><ellipse class="cls-1" cx="202.17" cy="389.28" rx="2.07" ry="3.45"/><ellipse class="cls-1" cx="202.17" cy="416.95" rx="2.07" ry="3.45"/><ellipse class="cls-1" cx="203.38" cy="224.97" rx="2.07" ry="3.45"/><ellipse class="cls-1" cx="203.38" cy="253.07" rx="2.07" ry="3.45"/><ellipse class="cls-10" cx="374.16" cy="162.01" rx="3.45" ry="2.07" transform="translate(-104.44 72.26) rotate(-17.33)"/><ellipse class="cls-10" cx="384.6" cy="159.42" rx="3.45" ry="2.07" transform="translate(-103.2 75.25) rotate(-17.33)"/><ellipse class="cls-1" cx="446.54" cy="146.38" rx="3.45" ry="2.07" transform="translate(-96.5 93.11) rotate(-17.33)"/><ellipse class="cls-1" cx="471.64" cy="138.63" rx="3.45" ry="2.07" transform="translate(-93.05 100.24) rotate(-17.33)"/><ellipse class="cls-1" cx="384.48" cy="452.16" rx="3.45" ry="2.07" transform="translate(-190.42 88.51) rotate(-17.33)"/><ellipse class="cls-1" cx="208.4" cy="211.81" rx="3.45" ry="2.07" transform="translate(-126.8 25.13) rotate(-17.33)"/><ellipse class="cls-1" cx="187.5" cy="217.27" rx="3.45" ry="2.07" transform="translate(-129.38 19.16) rotate(-17.33)"/><polygon class="cls-11" points="217.16 374.74 217.16 441.39 213.97 442.27 213.95 442.27 213.61 442.36 213.61 375.71 217.16 374.74"/><polygon class="cls-7" points="293.35 418.15 221.79 439.34 217.16 439.34 217.16 424.7 220.18 423.84 220.18 411.67 277.24 395.74 277.24 408.98 293.35 418.15"/><polygon class="cls-6" points="305.45 425.02 305.45 431.39 220.19 456.23 3.98 519.23 3.98 496.08 15.5 499.85 77.84 482.52 81.07 484.13 105.42 477.04 105.44 477.04 109.28 479.07 204.26 451.44 221.47 446.45 213.64 442.37 217.16 441.39 217.16 439.34 221.79 439.34 293.35 418.15 299.31 421.54 305.45 425.02"/><path class="cls-12" d="M236.17,136.57a6,6,0,0,0-6,6,5.86,5.86,0,0,0,1.63,4.07,5.86,5.86,0,0,1-.61-2.62,6,6,0,0,1,10.3-4.09A6,6,0,0,0,236.17,136.57Z" transform="translate(-73.16 -46.57)"/><path class="cls-13" d="M243.15,144a6,6,0,0,1-6,6,5.17,5.17,0,0,1-1.06-.11h0a6,6,0,0,1-4.88-5.87,6,6,0,0,1,10.3-4.09A5.84,5.84,0,0,1,243.15,144Z" transform="translate(-73.16 -46.57)"/><path class="cls-14" d="M241.52,139.91a6,6,0,0,0-10.3,4.09,5.86,5.86,0,0,0,.61,2.62,5.86,5.86,0,0,1-1.63-4.07,6,6,0,0,1,11.32-2.64Z" transform="translate(-73.16 -46.57)"/><path class="cls-15" d="M408.85,87.49A5.56,5.56,0,0,0,403.29,93a5.49,5.49,0,0,0,1.51,3.79,5.46,5.46,0,0,1-.56-2.42,5.55,5.55,0,0,1,9.55-3.84A5.52,5.52,0,0,0,408.85,87.49Z" transform="translate(-73.16 -46.57)"/><path class="cls-14" d="M413.79,90.56a5.55,5.55,0,0,0-9,6.26A5.49,5.49,0,0,1,403.29,93a5.54,5.54,0,0,1,10.5-2.48Z" transform="translate(-73.16 -46.57)"/><path class="cls-16" d="M415.33,94.4a5.55,5.55,0,0,1-10.53,2.42,5.46,5.46,0,0,1-.56-2.42,5.54,5.54,0,1,1,11.09,0Z" transform="translate(-73.16 -46.57)"/><line class="cls-1" x1="312.17" y1="104.17" x2="331.23" y2="114.94"/><line class="cls-1" x1="303.34" y1="127.53" x2="310.99" y2="125.27"/><line class="cls-1" x1="323.91" y1="121.4" x2="331.44" y2="119.13"/><line class="cls-1" x1="299.47" y1="124.84" x2="308.83" y2="121.93"/><line class="cls-1" x1="321.75" y1="117.84" x2="331.23" y2="114.94"/><line class="cls-1" x1="280.09" y1="113.32" x2="289.67" y2="110.52"/><line class="cls-1" x1="302.59" y1="106.86" x2="312.17" y2="104.17"/><line class="cls-1" x1="331.44" y1="119.13" x2="331.23" y2="114.94"/><line class="cls-1" x1="299.42" y1="421.36" x2="305.17" y2="419.66"/><line class="cls-17" x1="312.03" y1="417.64" x2="322.32" y2="414.6"/><polyline class="cls-1" points="325.75 413.58 331.5 411.89 331.5 407.69 326.27 404.76"/><line class="cls-18" x1="320.67" y1="401.63" x2="312.27" y2="396.94"/><line class="cls-1" x1="309.18" y1="397.78" x2="303.4" y2="399.4"/><polyline class="cls-1" points="303.4 408.55 303.4 416.3 309.14 414.54"/><line class="cls-1" x1="325.77" y1="409.45" x2="331.5" y2="407.69"/></svg>