<?xml version="1.0" encoding="utf-8"?>
<!-- Generator: Adobe Illustrator 21.1.0, SVG Export Plug-In . SVG Version: 6.00 Build 0)  -->
<svg version="1.1" id="Layer_1" xmlns="http://www.w3.org/2000/svg" xmlns:xlink="http://www.w3.org/1999/xlink" x="0px" y="0px"
	 viewBox="0 0 792 612" style="enable-background:new 0 0 792 612;" xml:space="preserve">
<style type="text/css">
	.st1{fill:#929497;stroke:#000000;stroke-width:0.5;stroke-miterlimit:10;}
	.st2{fill:#A7A9AC;stroke:#000000;stroke-width:0.5;stroke-miterlimit:10;}
	.st3{fill:#6E6F71;stroke:#000000;stroke-width:0.5;stroke-miterlimit:10;}
	.st4{fill:#FFF;stroke:#000000;stroke-width:0.5;stroke-miterlimit:10;}
</style>
<polygon class="hover_color_change" fill="none" stroke="#000000" stroke-width="0.5644" points="410.2,460.4 409.3,460.7 236.9,518.1 235,512.2 404.9,455.6 408,454.6 "/>
<polygon class="st1" points="410.2,460.4 411.1,462.7 409.3,460.7 "/>
<polygon class="hover_color_change" fill="none" stroke="#000000" stroke-width="0.5644" points="624.2,362.3 442.4,422.1 361.8,341.5 361.8,342.1 318.9,356.5 318.6,356.1 318.4,355.9 361.8,341.4 
	543.1,281.2 "/>
<polygon class="st1" points="411.1,462.7 646.9,385 646.9,384.9 647,385 "/>
<polygon class="hover_color_change" fill="none" stroke="#000000" stroke-width="0.5644" points="400.9,435.8 408,454.6 404.9,455.6 235,512.2 236.9,518.1 236.9,518.1 236.9,518.1 147.2,414.3 
	318.9,356.5 361.8,342.1 361.8,341.5 442.4,422.1 "/>
<polygon class="st2" points="361.8,341.5 361.8,342.1 318.9,356.5 147.2,414.3 146.8,413.8 318.6,356.1 "/>
<polygon class="st1" points="409.3,460.7 236.9,518.1 236.9,518.1 "/>
<polygon class="hover_color_change" fill="none" stroke="#000000" stroke-width="0.5644" points="646.9,385 411.1,462.7 410.2,460.4 408,454.6 400.9,435.8 442.4,422.1 624.2,362.3 636.6,358.2 
	646.9,384.9 "/>
<polygon class="hover_color_change" fill="none" stroke="#000000" stroke-width="0.5644" points="543.1,135.5 543.1,281.2 361.8,341.4 361.8,197.6 "/>
<polygon class="hover_color_change" fill="none" stroke="#000000" stroke-width="0.5644" points="321.3,171.3 318.4,172.3 318.4,168.1 318.5,168.1 "/>
<polygon class="hover_color_change" fill="none" stroke="#000000" stroke-width="0.5644" points="321.4,171.4 258,192.7 318.4,172.3 321.3,171.3 "/>
<polygon class="hover_color_change" fill="none" stroke="#000000" stroke-width="0.5644" points="361.8,341.4 318.4,355.9 318.6,356.1 146.8,413.8 146.8,230.2 146.9,230.2 151.6,235.7 325.3,175.9 
	332.3,184 332,207.9 361.8,197.6 "/>
<polygon class="st1" points="361.8,341.4 361.8,342.1 318.9,356.5 147.2,414.3 146.8,414.4 146.8,413.8 318.6,356.1 318.4,355.9 "/>
<polygon class="hover_color_change" fill="none" stroke="#000000" stroke-width="0.5644" points="325.3,175.9 151.6,235.7 146.9,230.2 253.5,194.2 258,192.7 321.4,171.4 "/>
<polygon class="st3" points="253.5,194.2 146.9,230.2 146.8,230.1 "/>
<polygon class="hover_color_change" fill="none" stroke="#000000" stroke-width="0.5644" points="557.3,107.4 543.1,112.2 361.8,174 332.3,184 325.3,175.9 321.4,171.4 321.3,171.3 318.5,168.1 
	435.3,129.1 437.4,128.4 543.1,93.2 "/>
<polygon class="st1" points="435.3,129.1 318.5,168.1 318.4,168 "/>
<polygon class="hover_color_change" fill="none" stroke="#000000" stroke-width="0.5644" points="557.3,107.4 557.3,130.6 543.1,135.5 361.8,197.6 332,207.9 332.3,184 361.8,174 543.1,112.2 "/>
<path class="hover_color_change" fill="none" stroke="#000000" stroke-width="0.5644" d="M332,239.7v-6.2c0-1.7,1.1-3.3,2.7-3.9l10.5-4.2c1.1-0.4,2.2,0.4,2.2,1.5v7.2"/>
<path class="hover_color_change" fill="none" stroke="#000000" stroke-width="0.5644" d="M332,304.1v-6.2c0-1.7,1.1-3.3,2.7-3.9l10.5-4.2c1.1-0.4,2.2,0.4,2.2,1.5v7.2"/>
<path class="st4" d="M387.4,326.1L387.4,326.1c-2.9,0.9-5.8-1.3-5.8-4.3V302c0-2.1,1.3-4.1,3.3-4.8l0,0c2.9-1.1,6.1,1,6.1,4.2v19.8
	C391.1,323.5,389.6,325.5,387.4,326.1z"/>
<path class="st4" d="M453.4,303.5L453.4,303.5c-2.9,0.9-5.8-1.3-5.8-4.3v-19.8c0-2.1,1.3-4.1,3.3-4.8l0,0c2.9-1.1,6.1,1,6.1,4.2
	v19.8C457,300.9,455.5,302.9,453.4,303.5z"/>
<path class="st4" d="M519.3,280.9L519.3,280.9c-2.9,0.9-5.8-1.3-5.8-4.3v-19.8c0-2.1,1.3-4.1,3.3-4.8l0,0c2.9-1.1,6.1,1,6.1,4.2V276
	C522.9,278.3,521.5,280.3,519.3,280.9z"/>
<path class="hover_color_change" fill="none" stroke="#000000" stroke-width="0.5644" d="M351.2,365.5l5.5,5.4c0.9,0.9,2.3,1.3,3.6,0.9l9.9-3.2c2.5-0.8,3.3-4,1.4-5.8l-3.9-3.8"/>
<path class="hover_color_change" fill="none" stroke="#000000" stroke-width="0.5644" d="M388.1,405.4l5.5,5.4c0.9,0.9,2.3,1.3,3.6,0.9l9.9-3.2c2.5-0.8,3.3-4,1.4-5.8l-3.9-3.8"/>
</svg>
