<svg id="Layer_1" data-name="Layer 1" xmlns="http://www.w3.org/2000/svg" viewBox="0 0 425.07 562.01">
    <defs>
        <style>
        .cls-1,
        .cls-3,
        .cls-4,
        .cls-8 {
            fill: none;
            stroke-width: 0.3;
            stroke: #000000;
        }
        
        .cls-10,
        .cls-11,
        .cls-12,
        .cls-13,
        .cls-14,
        .cls-16,
        .cls-17,
        .cls-2,
        .hover-color-change,
        .cls-9 {
            fill: none;
        }
        
        .cls-2 {
            stroke: #231f20;
        }
        
        .cls-10,
        .cls-11,
        .cls-12,
        .cls-13,
        .cls-16,
        .cls-17,
        .cls-2,
        .hover-color-change,
        .cls-9 {
            stroke-miterlimit: 10;
        }
        
        .cls-2,
        .hover-color-change {
            stroke-width: 0.5px;
        }

        .cls-10,
        .cls-11,
        .cls-12,
        .cls-13,
        .cls-16,
        .cls-17,
        .cls-9,
        .hover-color-change, {
            stroke: #000;
        }

        .hover-color-change, {
        	fill: none;
        }
        
        .cls-6 {
            fill: #a6a7aa;
        }
        
        .cls-7 {
            fill: gray;
        }
        
        .cls-9 {
            stroke-width: 0.06px;
        }
        
        .cls-10,
        .cls-12,
        .cls-13 {
            stroke-width: 0.18px;
        }
        
        .cls-11 {
            stroke-width: 0.54px;
        }
        
        .cls-12,
        .cls-17 {
            stroke-dasharray: 6 6;
        }
        
        .cls-13 {
            stroke-dasharray: 5.79 5.79;
        }
        
        .cls-15 {
            fill: #666667;
        }
        
        .cls-16,
        .cls-17 {
            stroke-width: 0.2px;
        }
        </style>
    </defs>
    <title>Classic CR_1</title>
    <polygon class="cls-1" points="277.57 231.71 277.57 251.51 276.44 252.16 251.79 266.3 251.79 246.5 252.85 245.89 252.92 245.93 252.92 245.85 276.44 232.35 277.57 231.71" />
    <path class="cls-2" d="M504.72,538.13l-22-12.67-.65-.36-28.8-16.63-1.12-.66-1.05-.59-23.6-13.63v14.87l42.63,24.62.07,0L477,537l0,0,.34.2.73.42.27.16,27.41,15.81V538.75Zm-22.92-3.81a1,1,0,0,1-.27.12,1.4,1.4,0,0,1-.84-.07,2.26,2.26,0,0,1-.27-.11l-.28-.15a4.26,4.26,0,0,1-1.09-1h0a1.62,1.62,0,0,1-.75-.73,1.71,1.71,0,0,1-.26-1.05c-.48-1.31-.35-2.52.36-2.95a1.06,1.06,0,0,1,.58-.15,1.88,1.88,0,0,1,.84.22l.3.16a3.7,3.7,0,0,1,.7.55,6.11,6.11,0,0,1,.94,1.24,5.48,5.48,0,0,1,.58,1.43C482.62,533,482.44,533.94,481.8,534.32Z" transform="translate(-184.33 -30.57)" />
    <polygon class="cls-3" points="267.91 333.77 244.35 347.36 243.22 346.71 243.22 345.5 265.8 332.5 266.82 333.09 267.87 333.7 267.91 333.77" />
    <polygon class="hover_color_change" stroke-width="0.5" fill="none" stroke="#000000" points="86.84 242.78 85.79 244.64 85.79 391.89 81.51 389.38 81.51 239.71 86.84 242.78" />
    <polygon class="cls-4" points="159.66 270.02 158.57 270.65 146.84 277.44 146.82 277.44 145.76 276.8 142.53 277.45 137.19 274.38 138.24 272.52 132.91 269.37 129.68 270.02 125.39 267.55 125.39 265.09 120.06 262.01 116.83 262.58 112.54 260.12 112.54 257.65 107.21 254.58 103.98 255.15 99.69 252.68 99.69 250.22 95.45 247.76 107.22 240.95 108.26 240.36 159.66 270.02" />
    <polygon class="hover_color_change" stroke-width="0.5" fill="none" stroke="#000000" points="129.68 270.02 129.68 419.69 124.34 416.62 124.34 266.94 125.39 267.55 129.68 270.02" />
    <polygon class="hover_color_change" stroke-width="0.5" fill="none" stroke="#000000" points="116.83 262.58 116.83 412.33 111.49 409.18 111.49 259.51 112.54 260.12 116.83 262.58" />
    <polygon class="hover_color_change" stroke-width="0.5" fill="none" stroke="#000000" points="103.98 255.15 103.98 404.9 98.64 401.75 98.64 252.07 99.69 252.68 103.98 255.15" />
    <polygon class="hover_color_change" stroke-width="0.5" fill="none" stroke="#000000" points="155.38 284.89 155.38 434.56 150.04 431.49 150.04 281.81 151.09 282.42 155.38 284.89" />
    <polygon class="hover_color_change" stroke-width="0.5" fill="none" stroke="#000000" points="81.51 239.71 81.51 389.38 78.28 390.03 78.28 240.36 81.51 239.71" />
    <polygon class="cls-2" points="321.45 523.05 319.35 524.26 318.22 524.91 310.79 529.19 112.78 414.91 110.5 413.57 110.47 413.57 102.91 409.21 17.18 359.72 21.46 357.22 26.88 360.37 30.03 359.72 34.31 362.23 34.31 364.65 39.73 367.72 42.88 367.16 47.16 369.58 47.16 372.09 52.58 375.16 55.73 374.59 60.01 377.02 60.01 379.52 65.43 382.59 68.66 382.03 72.94 384.45 72.94 386.96 78.28 390.03 81.51 389.38 85.79 391.89 85.79 394.39 91.13 397.46 94.36 396.82 98.64 399.32 98.64 401.75 103.98 404.9 107.21 404.25 111.49 406.76 111.49 409.18 114.75 411.11 114.77 411.11 116.83 412.33 120.06 411.69 124.34 414.19 124.34 416.62 129.68 419.69 132.91 419.12 137.19 421.55 137.19 424.05 142.53 427.12 145.76 426.56 150.04 428.98 150.04 431.49 155.38 434.56 158.61 433.91 162.89 436.42 162.89 438.92 168.22 441.99 171.46 441.35 175.74 443.85 175.74 446.36 181.16 449.43 184.31 448.78 188.59 451.29 188.59 453.71 194 456.86 197.16 456.22 201.44 458.72 201.44 461.15 206.85 464.3 210.01 463.65 214.29 466.08 214.29 468.58 219.71 471.65 222.94 471.09 227.22 473.51 227.22 476.02 232.55 479.09 235.79 478.52 240.07 480.95 240.07 483.45 243.22 485.31 243.22 477.88 285.85 502.5 285.88 502.5 285.92 502.54 292.67 506.43 292.71 506.46 293.05 506.66 293.77 507.08 294.04 507.24 321.45 523.05" />
    <polygon class="hover_color_change" stroke-width="0.5" fill="none" stroke="#000000" points="176.79 294.75 176.79 297.21 175.74 296.6 176.79 294.75" />
    <polygon class="cls-4" points="266.82 331.96 265.8 332.54 243.22 345.54 243.22 335.6 241.12 334.36 241.12 331.96 235.79 328.81 232.55 329.45 227.22 326.38 228.27 324.52 222.94 321.37 219.71 322.02 214.29 318.95 215.42 317.09 210.01 314.02 206.85 314.58 202.57 312.16 202.57 309.65 214.29 302.87 215.42 302.22 240.18 316.54 243.22 318.3 266.82 331.96" />
    <path class="cls-6" d="M481.8,534.32a1.59,1.59,0,0,1-1.66-.2,4.26,4.26,0,0,1-1.09-1h0a5.27,5.27,0,0,1-.58-.82,4.6,4.6,0,0,1-.42-.92s0,0,0,0c-.48-1.31-.35-2.52.36-2.95a1.67,1.67,0,0,1,1.71.23,3.7,3.7,0,0,1,.7.55,6.11,6.11,0,0,1,.94,1.24,5.48,5.48,0,0,1,.58,1.43C482.62,533,482.44,533.94,481.8,534.32Z" transform="translate(-184.33 -30.57)" />
    <path class="cls-7" d="M479.76,532.6a.71.71,0,0,1,0,.18.5.5,0,0,1-.23.36.52.52,0,0,1-.47,0l0,0a1.62,1.62,0,0,1-.75-.73,1.71,1.71,0,0,1-.26-1.05.55.55,0,0,1,.24-.4.32.32,0,0,1,.3,0l.34.12,0,0a1.88,1.88,0,0,1,.57.63A1.91,1.91,0,0,1,479.76,532.6Z" transform="translate(-184.33 -30.57)" />
    <path class="cls-6" d="M404.72,578.83c-.73.43-1.86-.08-2.75-1.17h0a5.59,5.59,0,0,1-.59-.85,4.61,4.61,0,0,1-.42-.92c-.5-1.32-.38-2.56.35-3s1.58,0,2.41.78a6.11,6.11,0,0,1,.94,1.24,5.49,5.49,0,0,1,.58,1.43C405.54,577.47,405.36,578.45,404.72,578.83Z" transform="translate(-184.33 -30.57)" />
    <ellipse class="cls-7" cx="401.81" cy="576.55" rx="0.7" ry="1.27" transform="translate(-418.78 247.58) rotate(-30)" />
    <path class="cls-7" d="M416.8,568.75v.65l-.24.4-11.31,6.55h0a5.49,5.49,0,0,0-.58-1.43,6.11,6.11,0,0,0-.94-1.24L415,567.14h.48l.57.32.48.57Z" transform="translate(-184.33 -30.57)" />
    <path class="cls-6" d="M466.85,437.74c-.73.43-1.86-.08-2.75-1.17h0a5.59,5.59,0,0,1-.59-.85,4.61,4.61,0,0,1-.42-.92c-.5-1.32-.38-2.56.35-3s1.58,0,2.41.78a6.11,6.11,0,0,1,.94,1.24,5.49,5.49,0,0,1,.58,1.43C467.67,436.38,467.5,437.36,466.85,437.74Z" transform="translate(-184.33 -30.57)" />
    <ellipse class="cls-7" cx="463.94" cy="435.46" rx="0.7" ry="1.27" transform="translate(-339.91 259.74) rotate(-30)" />
    <polygon class="cls-8" points="266.82 428.42 266.82 448.13 243.22 434.56 243.22 414.76 249.5 418.38 256.26 422.31 256.27 422.31 266.82 428.42" />
    <path class="cls-6" d="M338.29,512c-.73.43-1.86-.08-2.75-1.17h0a5.59,5.59,0,0,1-.59-.85,4.61,4.61,0,0,1-.42-.92c-.5-1.32-.38-2.56.35-3s1.58,0,2.41.78a6.11,6.11,0,0,1,.94,1.24,5.49,5.49,0,0,1,.58,1.43C339.11,510.61,338.94,511.6,338.29,512Z" transform="translate(-184.33 -30.57)" />
    <ellipse class="cls-7" cx="335.38" cy="509.7" rx="0.7" ry="1.27" transform="matrix(0.87, -0.5, 0.5, 0.87, -394.25, 205.41)" />
    <polygon class="cls-1" points="328.97 203.21 328.97 244.07 280.72 271.88 280.72 207.54 281.85 206.9 290.82 201.73 290.82 201.71 291.39 201.89 297.29 203.18 303.43 204.07 309.65 204.55 315.88 204.63 322.02 204.23 328 203.42 328.97 203.21" />
    <polygon class="cls-2" points="424.57 229.04 420.05 231.71 390.12 214.44 393.19 212.66 410.43 222.66 410.43 220.88 420.05 226.46 424.57 229.04" />
    <polyline class="cls-2" points="410.43 221.76 414.23 224.44 410.43 222.66 410.43 221.76" />
    <polygon class="cls-2" points="121.11 126.84 121.11 162.15 119.1 160.99 119.01 160.94 119.01 125.62 120.27 126.35 121.11 126.84" />
    <polygon class="hover_color_change" stroke-width="0.5" fill="none" stroke="#000000" points="81.51 150.38 81.51 197.04 78.28 197.69 78.28 148.51 81.51 150.38" />
    <polygon class="cls-2" points="119.01 125.52 119.01 161.48 102.71 152.08 102.7 152.08 17.18 102.73 17.18 66.79 17.19 66.78 17.21 66.78 102.98 116.28 108.66 119.55 109.94 120.29 119.01 125.52" />
    <polygon class="cls-8" points="280.72 207.54 280.72 271.88 277.57 270.02 277.57 253.93 276.44 253.29 276.44 252.16 277.57 251.51 277.57 231.71 276.44 231.06 276.44 229.85 277.57 229.2 277.57 209.4 276.44 208.76 276.44 207.57 278.61 206.32 278.62 206.33 280.72 207.54" />
    <polygon class="cls-1" points="277.57 253.93 277.57 273.73 251.79 288.6 251.79 268.8 252.92 268.16 276.44 254.58 277.57 253.93" />
    <polygon class="cls-3" points="276.44 252.16 276.44 254.58 252.92 268.16 246.46 264.44 246.46 263.87 247.02 263.55 251.79 266.3 276.44 252.16" />
    <polygon class="cls-3" points="276.44 229.85 276.44 232.35 252.92 245.85 252.92 243.43 276.44 229.85" />
    <polygon class="cls-4" points="277.57 231.71 276.44 232.35 276.44 231.06 277.57 231.71" />
    <polygon class="cls-4" points="277.57 253.93 276.44 254.58 276.44 253.29 277.57 253.93" />
    <polygon class="cls-1" points="277.57 209.4 277.57 229.2 276.44 229.85 252.92 243.43 251.79 244.07 251.79 224.27 252.92 223.63 276.44 210.05 277.57 209.4" />
    <polygon class="hover_color_change" stroke-width="0.5" fill="none" stroke="#000000" points="206.85 222.78 206.85 271.88 201.44 268.8 201.44 219.64 206.85 222.78" />
    <polygon class="hover_color_change" stroke-width="0.5" fill="none" stroke="#000000" points="201.44 219.64 201.44 266.3 197.16 263.87 197.16 217.18 201.44 219.64" />
    <polygon class="hover_color_change" stroke-width="0.5" fill="none" stroke="#000000" points="222.94 232.07 222.94 278.66 219.71 279.31 219.71 230.2 222.94 232.07" />
    <polygon class="hover_color_change" stroke-width="0.5" fill="none" stroke="#000000" points="210.01 224.6 210.01 271.23 206.85 271.88 206.85 222.78 210.01 224.6" />
    <polygon class="hover_color_change" stroke-width="0.5" fill="none" stroke="#000000" points="240.07 231.39 240.07 288.6 235.79 286.1 235.79 239.14 235.77 239.13 239.34 237.04 237.4 235.99 237.39 235.99 240.07 231.39" />
    <polygon class="hover_color_change" stroke-width="0.5" fill="none" stroke="#000000" points="235.79 239.14 235.79 286.1 232.55 286.75 232.55 237.62 235.46 239.31 235.77 239.13 235.79 239.14" />
    <polygon class="hover_color_change" stroke-width="0.5" fill="none" stroke="#000000" points="232.55 237.62 232.55 286.75 227.22 283.67 227.22 234.54 232.55 237.62" />
    <polygon class="hover_color_change" stroke-width="0.5" fill="none" stroke="#000000" points="227.22 234.54 227.22 281.17 222.94 278.66 222.94 232.07 227.22 234.54" />
    <polygon class="hover_color_change" stroke-width="0.5" fill="none" stroke="#000000" points="219.71 230.2 219.71 279.31 214.29 276.24 214.29 227.07 219.71 230.2" />
    <polygon class="hover_color_change" stroke-width="0.5" fill="none" stroke="#000000" points="214.29 227.07 214.29 273.73 210.01 271.23 210.01 224.6 214.29 227.07" />
    <polygon class="hover_color_change" stroke-width="0.5" fill="none" stroke="#000000" points="197.16 217.16 197.16 263.87 194 264.44 194 215.34 197.16 217.16" />
    <polygon class="hover_color_change" stroke-width="0.5" fill="none" stroke="#000000" points="194 215.34 194 264.44 188.59 261.37 188.59 212.22 194 215.34" />
    <polygon class="hover_color_change" stroke-width="0.5" fill="none" stroke="#000000" points="188.59 212.22 188.59 258.86 184.31 256.44 184.31 238.82 184.32 238.81 184.32 238.52 184.31 233.81 184.31 209.74 188.59 212.22" />
    <polygon class="hover_color_change" stroke-width="0.5" fill="none" stroke="#000000" points="181.16 207.92 181.16 257 175.74 253.93 175.74 204.8 181.16 207.92" />
    <polygon class="hover_color_change" stroke-width="0.5" fill="none" stroke="#000000" points="184.31 256.44 181.16 257 181.16 207.92 184.31 209.74 184.31 256.44" />
    <polygon class="hover_color_change" stroke-width="0.5" fill="none" stroke="#000000" points="175.74 204.8 175.74 251.51 171.46 249 171.46 202.32 175.74 204.8" />
    <polygon class="cls-2" points="117.18 166.52 115.05 168.28 116.35 166.05 117.18 166.52" />
    <polygon class="hover_color_change" stroke-width="0.5" fill="none" stroke="#000000" points="116.58 170.61 116.84 170.76 116.83 170.77 116.83 219.91 111.49 216.84 111.49 167.72 114.4 169.4 115.05 168.28 117.18 166.52 118.48 167.28 116.58 170.61" />
    <polygon class="cls-2" points="119.01 161.48 117.23 164.55 116.35 166.05 115.05 168.28 114.4 169.4 111.49 167.72 107.21 165.24 103.98 163.37 98.64 160.28 94.36 157.82 91.13 155.94 85.79 152.86 81.51 150.38 78.28 148.51 72.94 145.42 68.66 142.94 65.43 141.09 60.01 137.95 55.73 135.47 52.59 133.65 47.16 130.53 42.91 128.06 39.74 126.23 34.31 123.09 30.05 120.63 26.89 118.8 21.5 115.68 21.49 115.68 12.65 110.56 17.18 102.73 102.7 152.08 102.71 152.08 119.01 161.48" />
    <polygon class="cls-2" points="121.11 162.15 121.11 162.69 120.48 163.8 118.48 167.28 117.18 166.52 116.35 166.05 117.23 164.55 119.01 161.48 119.01 161.07 119.1 160.99 121.11 162.15" />
    <polygon class="cls-2" points="240.07 231.39 237.39 235.99 235.46 239.31 232.55 237.62 227.22 234.54 222.94 232.07 219.71 230.2 214.29 227.07 210.01 224.6 206.85 222.78 201.44 219.64 197.16 217.18 197.16 217.16 194 215.34 188.59 212.22 184.31 209.74 181.16 207.92 175.74 204.8 171.46 202.32 168.22 200.45 162.89 197.38 162.89 197.36 158.61 194.9 155.38 193.03 150.04 189.94 145.76 187.47 142.53 185.6 137.19 182.52 132.92 180.05 129.69 178.18 124.34 175.1 120.06 172.62 116.84 170.76 116.58 170.61 118.48 167.28 120.48 163.8 121.11 162.69 136.95 171.84 240.07 231.39" />
    <polygon class="hover_color_change" stroke-width="0.5" fill="none" stroke="#000000" points="107.21 165.24 107.21 211.91 103.98 212.47 103.98 163.37 107.21 165.24" />
    <polygon class="hover_color_change" stroke-width="0.5" fill="none" stroke="#000000" points="103.98 163.37 103.98 212.47 98.64 209.4 98.64 160.28 103.98 163.37" />
    <polygon class="cls-4" points="106.16 239.06 105.04 239.71 105.03 239.71 91.13 247.79 86.84 245.26 86.84 242.78 81.51 239.71 78.28 240.36 73.99 237.82 73.99 235.35 68.66 232.28 65.43 232.92 60.01 229.85 61.14 227.99 55.73 224.84 52.58 225.49 47.16 222.41 48.29 220.56 42.88 217.49 39.73 218.05 54.68 209.4 106.16 239.06" />
    <polygon class="cls-3" points="107.22 240.95 95.45 247.76 94.36 247.15 91.13 247.79 105.03 239.71 105.04 239.71 106.16 240.34 107.21 240.92 107.22 240.95" />
    <polygon class="hover_color_change" stroke-width="0.5" fill="none" stroke="#000000" points="129.69 178.18 129.68 178.21 129.68 227.34 124.34 224.27 124.34 175.1 129.69 178.18" />
    <polygon class="cls-1" points="106.16 239.06 106.16 240.34 105.04 239.71 106.16 239.06" />
    <polygon class="hover_color_change" stroke-width="0.5" fill="none" stroke="#000000" points="171.46 202.32 171.46 249 168.22 249.65 168.22 200.45 171.46 202.32" />
    <polygon class="hover_color_change" stroke-width="0.5" fill="none" stroke="#000000" points="158.61 194.9 158.61 241.57 155.38 242.22 155.38 193.03 158.61 194.9" />
    <polygon class="hover_color_change" stroke-width="0.5" fill="none" stroke="#000000" points="145.76 187.47 145.76 234.13 142.53 234.78 142.53 185.6 145.76 187.47" />
    <polygon class="hover_color_change" stroke-width="0.5" fill="none" stroke="#000000" points="132.92 180.05 132.91 180.07 132.91 226.7 129.68 227.34 129.68 178.21 129.69 178.18 132.92 180.05" />
    <polygon class="hover_color_change" stroke-width="0.5" fill="none" stroke="#000000" points="168.22 200.45 168.22 249.65 162.89 246.5 162.89 197.38 168.22 200.45" />
    <polygon class="hover_color_change" stroke-width="0.5" fill="none" stroke="#000000" points="162.89 197.36 162.89 244.07 158.61 241.57 158.61 194.9 162.89 197.36" />
    <polygon class="hover_color_change" stroke-width="0.5" fill="none" stroke="#000000" points="155.38 193.03 155.38 242.22 150.04 239.06 150.04 189.94 155.38 193.03" />
    <polygon class="hover_color_change" stroke-width="0.5" fill="none" stroke="#000000" points="150.04 189.94 150.04 236.64 145.76 234.13 145.76 187.47 150.04 189.94" />
    <polygon class="hover_color_change" stroke-width="0.5" fill="none" stroke="#000000" points="142.53 185.6 142.53 234.78 137.19 231.71 137.19 182.52 142.53 185.6" />
    <polygon class="hover_color_change" stroke-width="0.5" fill="none" stroke="#000000" points="137.19 182.52 137.19 229.2 132.91 226.7 132.91 180.07 132.92 180.05 137.19 182.52" />
    <polygon class="hover_color_change" stroke-width="0.5" fill="none" stroke="#000000" points="124.34 175.1 124.34 221.77 120.06 219.26 120.06 172.62 124.34 175.1" />
    <polygon class="hover_color_change" stroke-width="0.5" fill="none" stroke="#000000" points="120.06 172.62 120.06 219.26 116.83 219.91 116.83 170.77 116.84 170.76 120.06 172.62" />
    <polygon class="hover_color_change" stroke-width="0.5" fill="none" stroke="#000000" points="111.49 167.72 111.49 214.33 107.21 211.91 107.21 165.24 111.49 167.72" />
    <polygon class="cls-2" points="213.15 79.65 208.5 82.04 202.33 85.19 196.28 88.29 190.45 91.28 178.18 97.57 172.19 100.64 166.04 103.78 160 106.87 147.97 113.04 147.94 113.07 141.89 116.16 135.88 119.24 121.12 126.81 121.11 126.81 121.11 126.84 120.27 126.35 119.01 125.62 119.01 125.52 124.77 122.58 124.8 122.55 142.81 113.33 142.82 113.33 148.98 110.17 148.99 110.16 155.04 107.06 167.16 100.87 167.17 100.85 173.22 97.76 179.2 94.7 185.24 91.6 185.28 91.57 203.46 82.28 209.51 79.18 211.02 78.4 213.15 79.65" />
    <polygon class="cls-2" points="420.05 196.63 415.36 194.29 410.19 192.19 404.61 190.49 398.71 189.2 392.57 188.23 390.25 188.05 386.35 187.75 380.13 187.75 373.98 188.15 368 188.96 362.35 190.17 357.09 191.87 353.55 193.29 353.54 193.29 352.24 193.81 347.96 196.15 343.76 198.49 338.91 200.51 333.66 202.13 328.97 203.21 328 203.42 322.02 204.23 315.88 204.63 309.65 204.55 303.43 204.07 297.29 203.18 291.39 201.89 290.82 201.71 288.01 200.86 285.81 200.19 280.64 198.09 275.95 195.66 271.91 194.05 267.63 192.9 267.39 192.84 262.54 192.03 257.69 191.79 252.76 192.03 248.15 192.67 243.79 193.89 240.31 195.33 240.3 195.33 240.07 195.42 137.21 136.09 121.12 126.81 135.88 119.24 141.89 116.16 147.94 113.07 147.97 113.04 160 106.87 166.04 103.78 172.19 100.64 178.18 97.57 190.45 91.28 196.28 88.29 202.33 85.19 208.5 82.04 213.15 79.65 213.16 79.65 213.24 79.6 215.42 78.48 230.4 87.13 420.05 196.63" />
    <polygon class="cls-2" points="213.24 77.27 211.02 78.4 209.51 79.18 203.46 82.28 185.28 91.57 185.24 91.6 179.2 94.7 173.22 97.76 167.17 100.85 167.16 100.87 155.04 107.06 148.99 110.16 148.98 110.17 142.82 113.33 142.81 113.33 124.8 122.55 124.79 122.57 119.01 125.52 109.94 120.29 108.66 119.55 102.98 116.28 17.21 66.78 69.47 40.01 65.18 32.9 82.32 42.76 78.03 35.65 111.49 18.52 202.98 71.34 213.24 77.27" />
    <polygon class="cls-3" points="160.75 271.86 148.94 278.69 146.84 277.44 158.57 270.65 159.65 271.24 160.75 271.86" />
    <polygon class="cls-4" points="213.24 300.97 212.23 301.56 200.42 308.39 197.16 306.55 194 307.11 189.72 304.69 189.72 302.18 184.31 299.11 181.16 299.76 176.79 297.21 176.79 294.75 171.46 291.68 168.22 292.32 163.94 289.79 163.94 287.31 158.61 284.24 155.38 284.89 150.04 281.81 151.09 279.96 148.94 278.69 160.75 271.86 160.76 271.86 161.84 271.23 213.24 300.97" />
    <polyline class="cls-9" points="120.54 163.74 120.48 163.8 117.18 166.52" />
    <line class="cls-9" x1="117.23" y1="164.55" x2="120.06" y2="162.13" />
    <line class="cls-9" x1="121.11" y1="159.3" x2="119.1" y2="160.99" />
    <line class="cls-9" x1="119.01" y1="159.14" x2="121.11" y2="157.28" />
    <line class="cls-9" x1="119.01" y1="157.12" x2="121.11" y2="155.34" />
    <line class="cls-9" x1="119.01" y1="155.18" x2="121.11" y2="153.4" />
    <line class="cls-9" x1="119.01" y1="151.22" x2="121.11" y2="149.44" />
    <line class="cls-9" x1="119.01" y1="149.2" x2="121.11" y2="147.42" />
    <line class="cls-9" x1="119.01" y1="147.26" x2="121.11" y2="145.48" />
    <line class="cls-9" x1="119.01" y1="145.24" x2="121.11" y2="143.46" />
    <line class="cls-9" x1="119.01" y1="141.28" x2="121.11" y2="139.5" />
    <line class="cls-9" x1="119.01" y1="139.34" x2="121.11" y2="137.56" />
    <line class="cls-9" x1="119.01" y1="137.4" x2="121.11" y2="135.54" />
    <line class="cls-9" x1="119.01" y1="135.38" x2="121.11" y2="133.6" />
    <line class="cls-9" x1="119.01" y1="131.42" x2="121.11" y2="129.64" />
    <line class="cls-9" x1="119.01" y1="129.48" x2="121.11" y2="127.62" />
    <line class="cls-9" x1="119.01" y1="127.46" x2="120.3" y2="126.32" />
    <line class="cls-9" x1="120.3" y1="126.32" x2="124.83" y2="122.53" />
    <line class="cls-10" x1="102.92" y1="151.7" x2="101.96" y2="153.32" />
    <line class="cls-10" x1="102.92" y1="151.7" x2="102.92" y2="144.59" />
    <line class="cls-10" x1="102.92" y1="137.48" x2="102.92" y2="130.45" />
    <line class="cls-11" x1="137.19" y1="171.42" x2="136.22" y2="173.12" />
    <line class="cls-11" x1="135.25" y1="174.81" x2="134.28" y2="176.43" />
    <line class="cls-10" x1="100.02" y1="156.63" x2="106.88" y2="160.59" />
    <line class="cls-10" x1="120.62" y1="168.51" x2="118.48" y2="167.28" />
    <line class="cls-10" x1="116.35" y1="166.05" x2="113.75" y2="164.55" />
    <line class="cls-10" x1="127.41" y1="172.47" x2="134.28" y2="176.43" />
    <line class="cls-10" x1="102.92" y1="151.7" x2="109.79" y2="155.66" />
    <line class="cls-10" x1="119.01" y1="160.94" x2="116.58" y2="159.54" />
    <line class="cls-10" x1="123.45" y1="128.18" x2="121.11" y2="126.84" />
    <line class="cls-10" x1="119.01" y1="125.62" x2="116.58" y2="124.22" />
    <line class="cls-10" x1="130.32" y1="132.14" x2="137.19" y2="136.1" />
    <polygon class="cls-1" points="288.01 200.86 287.99 200.92 281.84 204.46 278.61 206.32 276.44 207.57 252.92 221.12 251.79 221.77 251.79 201.97 267.63 192.92 267.63 192.9 271.91 194.05 275.95 195.66 280.64 198.09 285.81 200.19 288.01 200.86" />
    <polygon class="hover_color_change" stroke-width="0.5" fill="none" stroke="#000000" points="151.09 279.96 150.04 281.81 150.04 428.98 145.76 426.56 145.76 276.8 146.82 277.44 146.84 277.44 148.96 278.7 151.09 279.96" />
    <polygon class="hover_color_change" stroke-width="0.5" fill="none" stroke="#000000" points="151.09 279.96 151.09 282.42 150.04 281.81 151.09 279.96" />
    <polygon class="hover_color_change" stroke-width="0.5" fill="none" stroke="#000000" points="138.24 272.52 137.19 274.38 137.19 421.55 132.91 419.12 132.91 269.37 138.24 272.52" />
    <polygon class="hover_color_change" stroke-width="0.5" fill="none" stroke="#000000" points="142.53 277.45 142.53 427.12 137.19 424.05 137.19 274.38 138.24 274.99 142.53 277.45" />
    <polygon class="hover_color_change" stroke-width="0.5" fill="none" stroke="#000000" points="138.24 272.52 138.24 274.99 137.19 274.38 138.24 272.52" />
    <line class="cls-10" x1="266.82" y1="287.31" x2="266.82" y2="279.96" />
    <polygon class="hover_color_change" stroke-width="0.5" fill="none" stroke="#000000" points="159.66 270.02 159.66 271.23 159.65 271.24 158.57 270.65 159.66 270.02" />
    <line class="hover_color_change" stroke-width="0.5" fill="none" stroke="#000000" x1="146.82" y1="277.44" x2="146.81" y2="277.45" />
    <polygon class="hover_color_change" stroke-width="0.5" fill="none" stroke="#000000" points="132.91 269.37 132.91 419.12 129.68 419.69 129.68 270.02 132.91 269.37" />
    <polygon class="hover_color_change" stroke-width="0.5" fill="none" stroke="#000000" points="145.76 276.8 145.76 426.56 142.53 427.12 142.53 277.45 145.76 276.8" />
    <line class="cls-10" x1="252.92" y1="268.16" x2="252.92" y2="265.73" />
    <polygon class="hover_color_change" stroke-width="0.5" fill="none" stroke="#000000" points="239.34 237.04 235.77 239.13 235.46 239.31 237.39 235.99 237.4 235.99 239.34 237.04" />
    <polygon class="subgirt" fill="#6D6E70" stroke="#000000" stroke-width="0.25" points="246.46 263.87 246.46 274.95 243.22 273.09 243.22 262.01 246.46 263.87" />
    <polygon class="subgirt" fill="#6D6E70" stroke="#000000" stroke-width="0.25" points="250.74 255.15 250.74 261.37 243.22 257 243.22 250.86 250.74 255.15" />
    <polygon class="cls-3" points="281.85 204.47 281.85 206.9 280.72 207.54 278.62 206.33 278.61 206.32 281.84 204.46 281.85 204.47" />
    <polygon class="cls-3" points="290.82 201.71 290.82 201.73 281.85 206.9 281.85 204.47 281.84 204.46 287.99 200.92 288.01 200.86 290.82 201.71" />
    <polygon class="cls-2" points="250.74 272.52 246.46 274.95 246.46 270.02 250.74 272.52" />
    <polygon class="cls-4" points="252.92 268.16 251.79 268.8 246.46 265.73 246.46 264.44 252.92 268.16" />
    <polygon class="subgirt" fill="#6D6E70" stroke="#000000" stroke-width="0.25" points="250.74 272.52 250.74 278.66 243.22 274.38 243.22 273.09 246.46 274.95 250.74 272.52" />
    <polygon class="cls-8" points="251.79 268.8 251.79 288.6 243.22 283.67 243.22 274.38 250.74 278.66 250.74 272.52 246.46 270.02 246.46 265.73 251.79 268.8" />
    <line class="cls-10" x1="276.44" y1="207.57" x2="276.44" y2="207.54" />
    <polygon class="cls-4" points="267.63 192.9 267.63 192.92 251.79 201.97 240.31 195.34 240.31 195.33 243.79 193.89 248.15 192.67 252.76 192.03 257.69 191.79 262.54 192.03 267.39 192.84 267.63 192.9" />
    <polygon class="cls-2" points="240.07 195.42 240.07 231.39 136.95 171.84 121.11 162.69 121.11 126.81 121.12 126.81 137.21 136.09 240.07 195.42" />
    <polygon class="cls-8" points="251.79 201.97 251.79 221.77 243.22 216.84 243.22 206.9 240.07 205.04 240.07 195.42 240.3 195.33 240.31 195.33 240.31 195.34 251.79 201.97" />
    <polygon class="cls-3" points="276.44 207.57 276.44 210.05 252.92 223.63 252.92 221.12 276.44 207.57" />
    <polygon class="subgirt" fill="#6D6E70" stroke="#000000" stroke-width="0.25" points="250.74 261.37 247.02 263.55 246.46 263.87 243.22 262.01 243.22 257 250.74 261.37" />
    <polygon class="cls-8" points="251.79 246.5 251.79 266.3 247.02 263.55 250.74 261.37 250.74 255.15 243.22 250.86 243.22 241.57 251.79 246.5" />
    <polygon class="cls-4" points="252.85 245.89 251.79 246.5 243.22 241.57 243.22 240.36 252.85 245.89" />
    <polygon class="cls-4" points="277.57 209.4 276.44 210.05 276.44 208.76 277.57 209.4" />
    <polygon class="cls-8" points="251.79 224.27 251.79 244.07 243.22 239.06 243.22 219.26 251.79 224.27" />
    <polygon class="cls-3" points="252.92 221.12 252.92 223.63 243.22 218.05 243.22 216.84 251.79 221.77 252.92 221.12" />
    <polygon class="cls-4" points="252.92 223.63 251.79 224.27 243.22 219.26 243.22 218.05 252.92 223.63" />
    <polygon class="cls-3" points="252.92 243.43 252.92 245.85 252.85 245.89 243.22 240.36 243.22 239.06 251.79 244.07 252.92 243.43" />
    <polygon class="cls-6" points="185.68 189.56 185.05 190.45 184.89 190.68 183.28 189.81 182.47 187.7 183.2 186.68 183.27 186.59 184.87 187.46 185.68 189.56" />
    <path class="cls-6" d="M372.17,221.79c-.73.43-1.75.13-2.67-.67l.78-.42.78-1.21-.81-2-1.86-.92-.81.59h0l-.07.09a2.1,2.1,0,0,1,.81-2.09c1.09-.63,2.83.34,3.89,2.17S373.26,221.16,372.17,221.79Z" transform="translate(-184.33 -30.57)" />
    <polygon class="hover_color_change" stroke-width="0.5" fill="none" stroke="#000000" points="85.79 152.86 85.79 199.54 81.51 197.04 81.51 150.38 85.79 152.86" />
    <polygon class="hover_color_change" stroke-width="0.5" fill="none" stroke="#000000" points="94.36 157.82 94.36 204.47 91.13 205.04 91.13 155.94 94.36 157.82" />
    <polygon class="hover_color_change" stroke-width="0.5" fill="none" stroke="#000000" points="98.64 160.28 98.64 206.9 94.36 204.47 94.36 157.82 98.64 160.28" />
    <polygon class="hover_color_change" stroke-width="0.5" fill="none" stroke="#000000" points="91.13 155.94 91.13 205.04 85.79 201.97 85.79 152.86 91.13 155.94" />
    <line class="cls-10" x1="21.46" y1="164.87" x2="21.46" y2="170.94" />
    <polygon class="hover_color_change" stroke-width="0.5" fill="none" stroke="#000000" points="26.89 118.8 26.88 118.81 26.88 167.94 21.46 164.87 21.46 115.74 21.49 115.68 21.5 115.68 26.89 118.8" />
    <polygon class="hover_color_change" stroke-width="0.5" fill="none" stroke="#000000" points="30.05 120.63 30.03 120.67 30.03 167.38 26.88 167.94 26.88 118.81 26.89 118.8 30.05 120.63" />
    <polygon class="hover_color_change" stroke-width="0.5" fill="none" stroke="#000000" points="34.31 123.09 34.31 169.8 30.03 167.38 30.03 120.67 30.05 120.63 34.31 123.09" />
    <polygon class="hover_color_change" stroke-width="0.5" fill="none" stroke="#000000" points="55.73 135.47 55.73 182.17 54.68 182.38 52.58 182.81 52.58 133.68 52.59 133.65 55.73 135.47" />
    <polygon class="hover_color_change" stroke-width="0.5" fill="none" stroke="#000000" points="65.43 141.09 65.43 190.25 60.01 187.1 60.01 137.95 65.43 141.09" />
    <polygon class="hover_color_change" stroke-width="0.5" fill="none" stroke="#000000" points="47.16 130.53 47.16 177.24 42.88 174.73 42.88 128.1 42.91 128.06 47.16 130.53" />
    <polygon class="hover_color_change" stroke-width="0.5" fill="none" stroke="#000000" points="68.66 142.94 68.66 189.6 65.43 190.25 65.43 141.09 68.66 142.94" />
    <polygon class="hover_color_change" stroke-width="0.5" fill="none" stroke="#000000" points="60.01 137.95 60.01 184.67 55.73 182.17 55.73 135.47 60.01 137.95" />
    <polygon class="hover_color_change" stroke-width="0.5" fill="none" stroke="#000000" points="52.59 133.65 52.58 133.68 52.58 182.81 47.16 179.74 47.16 130.53 52.59 133.65" />
    <polygon class="hover_color_change" stroke-width="0.5" fill="none" stroke="#000000" points="42.91 128.06 42.88 128.1 42.88 174.73 39.73 175.38 39.73 126.24 39.74 126.23 42.91 128.06" />
    <polygon class="hover_color_change" stroke-width="0.5" fill="none" stroke="#000000" points="39.74 126.23 39.73 126.24 39.73 175.38 34.31 172.31 34.31 123.09 39.74 126.23" />
    <polygon class="hover_color_change" stroke-width="0.5" fill="none" stroke="#000000" points="78.28 148.51 78.28 197.69 72.94 194.53 72.94 145.42 78.28 148.51" />
    <polygon class="hover_color_change" stroke-width="0.5" fill="none" stroke="#000000" points="72.94 145.42 72.94 192.11 68.66 189.6 68.66 142.94 72.94 145.42" />
    <path class="cls-2" d="M594.76,230.27v23l-17.24-10,7.85-4.55s0,0,0,0l1.54-.89.24-.4v-.65l-.24-.73-.48-.57-.57-.32h-.48l-1.54.89-.13.08-9.35,5.4-32.95-19.06,5.25-1.7,5.66-1.21,6-.81,6.14-.4h6.22l3.91.31Z" transform="translate(-184.33 -30.57)" />
    <polygon class="cls-2" points="420.05 196.63 420.05 226.46 410.43 220.88 410.43 199.71 390.25 188.05 392.57 188.23 398.71 189.2 404.61 190.49 410.19 192.19 415.36 194.29 420.05 196.63" />
    <polygon class="cls-3" points="321.47 364.68 297.87 378.27 297.85 378.27 295.78 377.03 319.31 363.43 320.4 364.05 321.45 364.65 321.47 364.68" />
    <polygon class="cls-3" points="136.14 435.39 136.14 438.28 135.01 437.63 135.01 434.73 136.14 435.39" />
    <polygon class="cls-8" points="187.55 465.08 187.54 465.11 187.54 469.23 181.29 465.62 136.14 439.49 136.14 435.39 178.08 459.61 187.55 465.08" />
    <polygon class="cls-8" points="133.97 434.14 133.96 434.15 133.96 438.28 93.27 414.79 93.25 414.79 82.56 408.62 82.56 404.45 97.78 413.24 104.41 417.07 133.97 434.14" />
    <polygon class="cls-8" points="241.12 495.99 241.12 500.1 189.72 470.44 189.72 466.32 241.12 495.99" />
    <polygon class="cls-1" points="242.19 496.61 242.17 496.63 242.17 499.53 241.12 500.1 241.12 495.99 242.19 496.61" />
    <polygon class="cls-1" points="373.98 393.75 373.98 413.55 372.92 414.17 349.33 427.81 348.28 428.42 348.28 408.62 373.98 393.75" />
    <polygon class="cls-1" points="373.98 415.97 373.98 435.77 372.92 436.39 349.33 450.03 348.28 450.64 348.28 430.84 349.29 430.25 349.33 430.27 349.33 430.23 372.93 416.58 373.98 415.97" />
    <polygon class="cls-3" points="372.93 480.99 372.93 483.41 349.35 497.06 349.33 497.03 349.33 494.61 349.32 494.58 372.93 480.99" />
    <polygon class="cls-1" points="373.98 460.58 373.98 480.38 372.93 480.99 349.32 494.58 348.28 495.17 348.28 475.37 349.29 474.79 349.33 474.81 349.33 474.76 372.93 461.19 373.98 460.58" />
    <polygon class="cls-8" points="373.98 527.34 372.93 527.94 372.93 526.77 373.98 527.34" />
    <polygon class="cls-3" points="372.93 525.52 372.93 527.94 372.77 528.04 349.35 541.59 349.33 541.56 349.33 539.13 349.32 539.11 372.93 525.52" />
    <polygon class="cls-1" points="373.98 527.34 373.98 547.13 348.28 562 348.28 542.21 348.3 542.19 349.32 541.61 349.32 541.6 349.35 541.59 372.77 528.04 372.93 527.94 373.98 527.34" />
    <polygon class="cls-1" points="373.98 505.11 373.98 524.91 372.93 525.52 349.32 539.11 348.28 539.7 348.28 519.9 349.29 519.32 349.33 519.33 349.33 519.29 372.93 505.72 373.98 505.11" />
    <line class="cls-9" x1="208.39" y1="82.12" x2="213.81" y2="77.59" />
    <line class="cls-9" x1="202.33" y1="85.19" x2="209.52" y2="79.21" />
    <line class="cls-9" x1="196.27" y1="88.26" x2="203.46" y2="82.28" />
    <line class="cls-9" x1="190.29" y1="91.41" x2="197.4" y2="85.43" />
    <line class="cls-9" x1="178.16" y1="97.55" x2="185.28" y2="91.57" />
    <line class="cls-9" x1="172.1" y1="100.71" x2="179.22" y2="94.73" />
    <line class="cls-9" x1="166.04" y1="103.78" x2="173.24" y2="97.8" />
    <line class="cls-9" x1="159.98" y1="106.85" x2="167.17" y2="100.87" />
    <line class="cls-9" x1="155.05" y1="107.09" x2="147.97" y2="113.04" />
    <line class="cls-9" x1="148.98" y1="110.17" x2="141.88" y2="116.14" />
    <line class="cls-9" x1="135.82" y1="119.29" x2="142.93" y2="113.23" />
    <line class="cls-9" x1="129.76" y1="122.36" x2="136.95" y2="116.38" />
    <polygon class="cls-2" points="213.24 77.27 213.15 79.65 211.02 78.4 213.24 77.27" />
    <line class="cls-10" x1="100.99" y1="155.01" x2="100.02" y2="156.63" />
    <polyline class="cls-10" points="102.92 123.33 102.92 116.3 108.34 113.47" />
    <line class="cls-10" x1="113.75" y1="110.73" x2="119.17" y2="107.98" />
    <line class="cls-10" x1="124.58" y1="105.23" x2="130" y2="102.4" />
    <line class="cls-10" x1="135.41" y1="99.65" x2="140.83" y2="96.91" />
    <line class="cls-10" x1="146.24" y1="94.08" x2="151.66" y2="91.33" />
    <line class="cls-10" x1="157.07" y1="88.58" x2="162.49" y2="85.84" />
    <line class="cls-10" x1="167.98" y1="83.01" x2="173.4" y2="80.26" />
    <line class="cls-10" x1="178.81" y1="77.51" x2="184.23" y2="74.68" />
    <line class="cls-10" x1="189.64" y1="71.93" x2="195.06" y2="69.19" />
    <line class="cls-12" x1="229.32" y1="118.24" x2="232.23" y2="119.94" />
    <line class="cls-10" x1="195.06" y1="69.19" x2="201.93" y2="73.15" />
    <polyline class="cls-10" points="215.58 81.07 213.16 79.65 213.15 79.65" />
    <line class="cls-10" x1="211.02" y1="78.4" x2="208.79" y2="77.11" />
    <line class="cls-10" x1="123.45" y1="163.5" x2="121.11" y2="162.15" />
    <line class="cls-10" x1="130.32" y1="167.46" x2="137.19" y2="171.42" />
    <line class="cls-10" x1="102.92" y1="116.3" x2="109.79" y2="120.26" />
    <line class="cls-10" x1="222.45" y1="85.03" x2="225.05" y2="86.53" />
    <polyline class="cls-10" points="226.72 87.49 229.32 88.99 226.65 90.35" />
    <polyline class="cls-13" points="221.49 92.99 137.21 136.09 137.19 136.1 137.19 165.94" />
    <line class="cls-10" x1="137.19" y1="168.84" x2="137.19" y2="171.84" />
    <path class="cls-14" d="M413.65,148.81" transform="translate(-184.33 -30.57)" />
    <polygon class="cls-2" points="390.04 210.93 388.21 211.99 388.17 212.08 387.88 212.72 388.03 213.19 387.96 213.2 387.86 213.13 353.55 193.29 357.09 191.87 390.04 210.93" />
    <polygon class="cls-3" points="82.56 404.45 82.56 407.32 81.51 406.76 81.51 403.85 82.56 404.45" />
    <polygon class="cls-1" points="135.01 434.73 135.01 437.63 133.96 438.28 133.96 434.15 133.97 434.14 135.01 434.73" />
    <polygon class="cls-3" points="296.8 528.14 296.8 531.05 295.75 530.41 295.75 527.58 295.77 527.55 296.8 528.14" />
    <polygon class="hover_color_change" stroke-width="0.5" fill="none" stroke="#000000" points="228.27 324.49 227.22 326.35 227.22 473.51 222.94 471.09 222.94 321.33 228.27 324.49" />
    <polygon class="hover_color_change" stroke-width="0.5" fill="none" stroke="#000000" points="228.27 324.49 228.27 326.95 227.22 326.35 228.27 324.49" />
    <polygon class="hover_color_change" stroke-width="0.5" fill="none" stroke="#000000" points="219.71 321.98 219.71 471.65 214.29 468.58 214.29 318.91 215.42 319.56 219.71 321.98" />
    <polygon class="hover_color_change" stroke-width="0.5" fill="none" stroke="#000000" points="215.42 317.05 214.29 318.91 214.29 466.08 210.01 463.65 210.01 313.98 215.42 317.05" />
    <polygon class="hover_color_change" stroke-width="0.5" fill="none" stroke="#000000" points="215.42 317.05 215.42 319.56 214.29 318.91 215.42 317.05" />
    <polygon class="hover_color_change" stroke-width="0.5" fill="none" stroke="#000000" points="181.16 299.76 181.16 449.43 175.74 446.36 175.74 296.6 176.79 297.21 181.16 299.76" />
    <polygon class="hover_color_change" stroke-width="0.5" fill="none" stroke="#000000" points="168.22 292.32 168.22 441.99 162.89 438.92 162.89 289.17 163.94 289.79 168.22 292.32" />
    <polygon class="hover_color_change" stroke-width="0.5" fill="none" stroke="#000000" points="91.13 247.79 91.13 397.46 85.79 394.39 85.79 244.64 86.84 245.26 91.13 247.79" />
    <polygon class="hover_color_change" stroke-width="0.5" fill="none" stroke="#000000" points="78.28 240.36 78.28 390.03 72.94 386.96 72.94 237.2 73.99 237.82 78.28 240.36" />
    <polygon class="hover_color_change" stroke-width="0.5" fill="none" stroke="#000000" points="65.43 232.92 65.43 382.59 60.01 379.52 60.01 229.85 61.14 230.5 65.43 232.92" />
    <polygon class="cls-15" points="61.14 227.99 61.14 230.5 60.01 229.85 61.14 227.99" />
    <polygon class="cls-15" points="48.29 220.56 48.29 223.06 47.16 222.41 48.29 220.56" />
    <polygon class="cls-15" points="35.44 213.12 35.44 215.63 34.31 214.98 35.44 213.12" />
    <polygon class="cls-15" points="22.51 205.69 22.51 208.14 21.46 207.54 22.51 205.69" />
    <line class="cls-10" x1="22.51" y1="208.19" x2="22.51" y2="208.14" />
    <line class="cls-10" x1="21.46" y1="183.14" x2="21.46" y2="177.08" />
    <line class="cls-10" x1="21.46" y1="189.28" x2="21.46" y2="195.34" />
    <line class="cls-10" x1="21.46" y1="201.48" x2="21.46" y2="207.54" />
    <polygon class="hover_color_change" stroke-width="0.5" stroke="#000000" fill="none" points="26.88 210.62 26.88 360.37 21.46 357.22 21.46 207.54 22.51 208.14 26.88 210.62" />
    <polygon class="hover_color_change" stroke-width="0.5" stroke="#000000" fill="none" points="30.03 210.05 30.03 359.72 26.88 360.37 26.88 210.62 30.03 210.05" />
    <polygon class="hover_color_change" stroke-width="0.5" stroke="#000000" fill="none" points="35.44 213.12 34.31 214.98 34.31 362.23 30.03 359.72 30.03 210.05 35.44 213.12" />
    <polygon class="hover_color_change" stroke-width="0.5" stroke="#000000" fill="none" points="39.73 218.05 39.73 367.72 34.31 364.65 34.31 214.98 35.44 215.63 39.73 218.05" />
    <line class="cls-10" x1="17.18" y1="66.79" x2="17.18" y2="66.76" />
    <polygon class="cls-1" points="81.51 403.85 81.51 406.76 80.38 407.32 80.38 403.2 81.51 403.85" />
    <polygon class="cls-8" points="80.38 403.2 80.38 407.32 28.98 377.66 28.98 373.54 28.99 373.53 80.38 403.2" />
    <polygon class="cls-3" points="243.22 497.2 243.22 500.1 242.17 499.53 242.17 496.63 242.19 496.61 243.22 497.2" />
    <polygon class="cls-8" points="294.7 526.93 294.7 531.05 272.4 518.2 243.22 501.39 243.22 497.2 269.1 512.14 269.1 512.15 294.7 526.93" />
    <polygon class="cls-1" points="295.77 527.55 295.75 527.58 295.75 530.41 294.7 531.05 294.7 526.93 295.77 527.55" />
    <polygon class="cls-3" points="189.72 466.32 189.72 469.23 188.59 468.58 188.59 465.67 189.72 466.32" />
    <polygon class="cls-1" points="188.59 465.67 188.59 468.58 187.54 469.23 187.54 465.11 187.55 465.08 188.59 465.67" />
    <path class="cls-3" d="M508,446l25.66,14.84h0v-2.42l-1.05.61-51.48-29.74v-19.8l1.05-.61-2.07-1.24,0,0v19.76L479,428l-51.48-29.74v1.29l24.65,14.22v10.52l1.12.66v-9.32l1.05-.65,51.4,29.74v19.72l-1.05.65-30.55-17.62-.57.32v.57l6.47,3.72v19.8l-1.05.65-43.1-24.84-8.38-4.82v1.21l7.33,4.23,6.79,3.91,10.53,6.09v19.8l-1.05.57-23.6-13.58v2.51l1.13-.65,51.4,29.66v19.8l-1.05.65-51.48-29.66v1.21l24.65,14.22v4.93l1.12.66h0v-3.72l1.05-.65,51.4,29.74v19.8l-2.1,1.21,30,17.29v-2.45l-1,.59-25.78-14.79v-19.8L508,535l25.66,14.86,0,0v-2.42l-1.05.61L481.14,518.3V498.5l1.13-.57,51.4,29.66v-2.45l-1,.59-25.78-14.79v-19.8l1.13-.65,25.66,14.86,0,0v-2.42l-1.05.61-51.48-29.74V454l1.13-.57,51.4,29.66V480.6l-1.05.61-25.78-14.87v-19.8Zm-2.18,43.32v19.8l-1.05.57L453.34,480V460.2l1.05-.65Z" transform="translate(-184.33 -30.57)" />
    <polygon class="cls-4" points="321.45 458.72 320.4 459.29 269 429.63 270.05 428.98 321.45 458.72" />
    <polygon class="cls-1" points="321.45 458.72 321.45 478.52 320.4 479.09 320.4 459.29 321.45 458.72" />
    <polygon class="cls-4" points="349.35 541.59 349.32 541.6 349.32 541.61 348.3 542.19 348.28 542.21 318.22 524.91 319.35 524.26 349.33 541.56 349.35 541.59" />
    <polygon class="hover_color_change" stroke-width="0.5" stroke="#000000" fill="none" points="309.57 532.18 307.71 534.45 309.17 531.94 309.18 531.94 309.57 532.18" />
    <polygon class="cls-8" points="348.28 542.21 348.28 562 296.8 532.26 296.8 528.14 307.71 534.45 309.57 532.18 309.18 531.94 310.79 529.19 318.22 524.91 348.28 542.21" />
    <line class="cls-10" x1="349.33" y1="516.87" x2="349.33" y2="516.83" />
    <polygon class="cls-4" points="349.29 519.32 348.28 519.9 322.5 505.11 323.63 504.46 349.29 519.32" />
    <polygon class="cls-8" points="348.28 519.9 348.28 539.7 322.5 524.91 322.5 505.11 348.28 519.9" />
    <polygon class="cls-8" points="373.98 482.81 372.93 483.41 372.93 482.16 373.98 482.81" />
    <polygon class="cls-8" points="373.98 505.11 372.93 505.72 372.93 504.46 373.98 505.11" />
    <polygon class="cls-3" points="372.93 503.25 372.93 505.72 349.33 519.29 349.33 516.87 372.92 503.23 372.93 503.25" />
    <polygon class="cls-1" points="373.98 482.81 373.98 502.61 372.92 503.23 349.33 516.87 348.28 517.48 348.28 497.68 349.35 497.06 373.98 482.81" />
    <polygon class="cls-8" points="294.7 422.19 294.7 441.99 251.6 417.16 243.22 412.33 243.22 403.04 266.47 416.44 293.57 432.05 293.57 425.91 289.29 423.4 289.29 419.12 294.7 422.19" />
    <line class="cls-10" x1="297.93" y1="378.31" x2="297.87" y2="378.27" />
    <polygon class="cls-8" points="320.4 459.29 320.4 479.09 269 449.43 269 429.63 320.4 459.29" />
    <polygon class="cls-8" points="373.98 460.58 372.93 461.19 372.93 459.93 373.98 460.58" />
    <polygon class="cls-8" points="373.98 438.28 372.93 438.88 372.93 437.63 373.98 438.28" />
    <polygon class="cls-8" points="373.98 415.97 372.93 416.58 372.93 415.4 373.98 415.97" />
    <polygon class="cls-4" points="373.98 393.75 348.28 408.62 296.8 378.88 297.85 378.27 297.87 378.27 321.47 364.68 322.5 364.09 373.98 393.75" />
    <polygon class="cls-3" points="372.93 414.15 372.93 416.58 349.33 430.23 349.33 427.81 372.93 414.15" />
    <line class="cls-10" x1="349.33" y1="472.34" x2="349.33" y2="472.3" />
    <polygon class="cls-3" points="372.93 458.72 372.93 461.19 349.33 474.76 349.33 472.34 372.92 458.69 372.93 458.72" />
    <line class="cls-10" x1="372.93" y1="438.92" x2="372.93" y2="438.88" />
    <line class="cls-10" x1="349.33" y1="450.03" x2="349.33" y2="449.99" />
    <line class="cls-10" x1="349.33" y1="427.81" x2="349.33" y2="427.77" />
    <polygon class="cls-8" points="348.28 475.37 348.28 495.17 322.5 480.38 322.5 460.58 348.28 475.37" />
    <polygon class="cls-4" points="349.29 474.79 348.28 475.37 322.5 460.58 323.63 459.93 349.29 474.79" />
    <polygon class="cls-1" points="373.98 438.28 373.98 458.08 372.92 458.69 349.33 472.34 348.28 472.95 348.28 453.15 349.35 452.53 372.93 438.88 373.98 438.28" />
    <polygon class="cls-1" points="321.45 414.19 321.45 433.91 320.4 434.56 320.4 414.76 321.45 414.19" />
    <polygon class="cls-4" points="321.45 414.19 320.4 414.76 269 385.1 270.05 384.45 321.45 414.19" />
    <polygon class="cls-8" points="320.4 414.76 320.4 434.56 289.85 416.94 293.57 414.76 293.57 408.62 280.29 400.94 268.99 394.42 269 394.39 269 385.1 320.4 414.76" />
    <polygon class="cls-4" points="349.35 452.53 348.28 453.15 296.8 423.4 297.94 422.84 349.33 452.5 349.35 452.53" />
    <polygon class="cls-8" points="348.28 453.15 348.28 472.95 296.8 443.2 296.8 423.4 348.28 453.15" />
    <polygon class="cls-8" points="348.28 430.84 348.28 450.64 322.5 435.77 322.5 415.97 348.28 430.84" />
    <polygon class="cls-4" points="349.29 430.25 348.28 430.84 322.5 415.97 323.63 415.4 349.29 430.25" />
    <polygon class="cls-3" points="372.93 436.42 372.93 438.88 349.35 452.53 349.33 452.5 349.33 450.03 372.92 436.39 372.93 436.42" />
    <polygon class="cls-8" points="348.28 408.62 348.28 428.42 296.8 398.68 296.8 378.88 348.28 408.62" />
    <polygon class="cls-7" points="81.43 426.31 81.43 426.64 81.35 426.88 77.63 428.98 77.51 429.04 77.22 428.33 76.75 427.74 76.82 427.69 80.54 425.59 80.78 425.51 81.1 425.67 81.35 425.99 81.43 426.31" />
    <path class="cls-7" d="M350.38,501.9v.65l-.24.4-11.31,6.55h0a5.49,5.49,0,0,0-.58-1.43,6.11,6.11,0,0,0-.94-1.24l11.31-6.55h.48l.57.32.48.57Z" transform="translate(-184.33 -30.57)" />
    <line class="cls-10" x1="54.68" y1="209.4" x2="54.68" y2="200.43" />
    <polyline class="cls-10" points="54.68 182.41 54.68 187.1 54.68 191.38" />
    <line class="cls-10" x1="266.82" y1="331.92" x2="266.82" y2="324.49" />
    <line class="cls-10" x1="266.82" y1="317.05" x2="266.82" y2="309.62" />
    <line class="cls-10" x1="266.82" y1="302.18" x2="266.82" y2="294.75" />
    <line class="cls-10" x1="243.22" y1="292.89" x2="243.22" y2="299.03" />
    <line class="cls-10" x1="243.22" y1="305.09" x2="243.22" y2="311.23" />
    <line class="cls-10" x1="243.22" y1="317.29" x2="243.22" y2="323.44" />
    <polygon class="hover_color_change" stroke-width="0.5" fill="none" stroke="#000000" points="235.79 328.77 235.79 478.52 232.55 479.09 232.55 329.42 235.79 328.77" />
    <polygon class="hover_color_change" stroke-width="0.5" fill="none" stroke="#000000" points="241.12 331.96 241.12 334.36 240.07 333.74 241.12 331.96" />
    <polygon class="hover_color_change" stroke-width="0.5" fill="none" stroke="#000000" points="241.12 331.96 240.07 333.74 240.07 480.99 235.79 478.56 235.79 328.81 241.12 331.96" />
    <line class="cls-10" x1="243.22" y1="335.56" x2="243.22" y2="329.5" />
    <line class="hover_color_change" stroke-width="0.5" fill="none" stroke="#000000" x1="212.23" y1="301.56" x2="212.19" y2="301.53" />
    <polygon class="hover_color_change" stroke-width="0.5" fill="none" stroke="#000000" points="213.24 300.97 213.24 302.18 212.23 301.56 213.24 300.97" />
    <line class="cls-10" x1="95.45" y1="247.76" x2="95.41" y2="247.79" />
    <line class="hover_color_change" stroke-width="0.5" fill="none" stroke="#000000" x1="200.42" y1="308.39" x2="200.39" y2="308.4" />
    <polygon class="hover_color_change" stroke-width="0.5" fill="none" stroke="#000000" points="42.88 217.49 42.88 367.16 39.73 367.72 39.73 218.05 42.88 217.49" />
    <polygon class="hover_color_change" stroke-width="0.5" fill="none" stroke="#000000" points="94.36 247.15 94.36 396.82 91.13 397.46 91.13 247.79 94.36 247.15" />
    <polygon class="hover_color_change" stroke-width="0.5" fill="none" stroke="#000000" points="171.46 291.68 171.46 441.35 168.22 441.99 168.22 292.32 171.46 291.68" />
    <polygon class="hover_color_change" stroke-width="0.5" fill="none" stroke="#000000" points="176.79 294.75 175.74 296.6 175.74 443.85 171.46 441.35 171.46 291.68 176.79 294.75" />
    <polygon class="hover_color_change" stroke-width="0.5" fill="none" stroke="#000000" points="184.31 299.11 184.31 448.78 181.16 449.43 181.16 299.76 184.31 299.11" />
    <polygon class="hover_color_change" stroke-width="0.5" fill="none" stroke="#000000" points="189.72 302.18 188.59 304.04 188.59 451.29 184.31 448.78 184.31 299.11 189.72 302.18" />
    <polygon class="hover_color_change" stroke-width="0.5" fill="none" stroke="#000000" points="197.16 306.55 197.16 456.22 194 456.86 194 307.11 197.16 306.55" />
    <polygon class="hover_color_change" stroke-width="0.5" fill="none" stroke="#000000" points="222.94 321.33 222.94 471.09 219.71 471.65 219.71 321.98 222.94 321.33" />
    <polygon class="cls-1" points="295.75 466.08 295.75 485.88 294.7 486.52 294.7 466.72 295.75 466.08" />
    <polygon class="cls-4" points="295.75 466.08 294.7 466.72 243.22 437.06 244.35 436.42 295.75 466.08" />
    <polygon class="cls-1" points="267.87 427.77 267.87 447.57 266.82 448.13 266.82 428.42 267.87 427.77" />
    <polygon class="cls-4" points="267.87 427.77 266.82 428.42 256.27 422.31 256.26 422.31 249.5 418.38 243.22 414.76 243.22 413.55 250.55 417.77 257.34 421.68 267.87 427.77" />
    <polygon class="subgirt" stroke="#000000" stroke-width="0.25" fill="#6D6E70" points="289.29 417.26 289.29 428.42 243.22 401.75 243.22 390.68 289.29 417.26" />
    <polygon class="subgirt" stroke="#000000" stroke-width="0.25" fill="#6D6E70" points="293.57 414.76 289.85 416.94 289.29 417.26 243.22 390.68 243.22 385.66 293.57 414.76" />
    <polygon class="subgirt" stroke="#000000" stroke-width="0.25" fill="#404041" points="293.57 425.91 293.57 432.05 266.47 416.44 243.22 403.04 243.22 401.75 289.29 428.42 293.57 425.91" />
    <polygon class="cls-2" points="293.57 425.91 289.29 428.42 289.29 423.4 293.57 425.91" />
    <polygon class="cls-1" points="295.75 421.55 295.75 441.35 294.7 441.99 294.7 422.19 295.75 421.55" />
    <polygon class="cls-4" points="295.75 421.55 294.7 422.19 289.29 419.12 289.29 417.83 295.75 421.55" />
    <polygon class="hover_color_change" stroke-width="0.5" fill="none" stroke="#000000" points="202.57 309.62 201.44 311.48 201.44 458.72 197.16 456.22 197.16 306.55 200.42 308.39 202.57 309.62" />
    <polygon class="cls-15" points="86.84 242.78 86.84 245.26 85.79 244.64 86.84 242.78" />
    <polygon class="cls-15" points="99.69 250.22 99.69 252.68 98.64 252.07 99.69 250.22" />
    <polygon class="hover_color_change" stroke-width="0.5" fill="none" stroke="#000000" points="99.69 250.22 98.64 252.07 98.64 399.32 94.36 396.82 94.36 247.15 95.45 247.76 99.69 250.22" />
    <polygon class="cls-2" points="310.79 529.19 309.18 531.94 309.17 531.94 307.71 534.45 296.8 528.14 295.77 527.55 294.7 526.93 269.1 512.15 269.1 512.14 243.22 497.2 242.19 496.61 241.12 495.99 189.72 466.32 188.59 465.67 187.55 465.08 178.08 459.61 136.14 435.39 135.01 434.73 133.97 434.14 104.41 417.07 97.78 413.24 82.56 404.45 81.51 403.85 80.38 403.2 28.99 373.53 14.19 364.98 17.18 359.72 110.47 413.57 112.61 414.81 310.79 529.19" />
    <polygon class="hover_color_change" stroke-width="0.5" fill="none" stroke="#000000" points="163.94 287.31 163.94 289.79 162.89 289.17 163.94 287.31" />
    <polygon class="hover_color_change" stroke-width="0.5" fill="none" stroke="#000000" points="163.94 287.31 162.89 289.17 162.89 436.42 158.61 433.91 158.61 284.24 163.94 287.31" />
    <polygon class="hover_color_change" stroke-width="0.5" fill="none" stroke="#000000" points="158.61 284.24 158.61 433.91 155.38 434.56 155.38 284.89 158.61 284.24" />
    <polygon class="hover_color_change" stroke-width="0.5" fill="none" stroke="#000000" points="125.39 265.09 125.39 267.55 124.34 266.94 125.39 265.09" />
    <polygon class="hover_color_change" stroke-width="0.5" fill="none" stroke="#000000" points="125.39 265.09 124.34 266.94 124.34 414.19 120.06 411.69 120.06 262.01 125.39 265.09" />
    <polygon class="hover_color_change" stroke-width="0.5" fill="none" stroke="#000000" points="120.06 262.01 120.06 411.69 116.83 412.33 116.83 262.58 120.06 262.01" />
    <polygon class="hover_color_change" stroke-width="0.5" fill="none" stroke="#000000" points="112.54 257.65 112.54 260.12 111.49 259.51 112.54 257.65" />
    <polygon class="hover_color_change" stroke-width="0.5" fill="none" stroke="#000000" points="112.54 257.65 111.49 259.51 111.49 406.76 107.21 404.25 107.21 254.58 112.54 257.65" />
    <polygon class="hover_color_change" stroke-width="0.5" fill="none" stroke="#000000" points="107.21 254.58 107.21 404.25 103.98 404.9 103.98 255.15 107.21 254.58" />
    <polygon class="hover_color_change" stroke-width="0.5" fill="none" stroke="#000000" points="68.66 232.28 68.66 382.03 65.43 382.59 65.43 232.92 68.66 232.28" />
    <polygon class="cls-15" points="73.99 235.35 73.99 237.82 72.94 237.2 73.99 235.35" />
    <polygon class="hover_color_change" stroke-width="0.5" fill="none" stroke="#000000" points="73.99 235.35 72.94 237.2 72.94 384.45 68.66 382.03 68.66 232.28 73.99 235.35" />
    <polygon class="hover_color_change" stroke-width="0.5" fill="none" stroke="#000000" points="61.14 227.99 60.01 229.85 60.01 377.02 55.73 374.59 55.73 224.84 61.14 227.99" />
    <polygon class="hover_color_change" stroke-width="0.5" fill="none" stroke="#000000" points="55.73 224.84 55.73 374.59 52.58 375.16 52.58 225.49 55.73 224.84" />
    <polygon class="hover_color_change" stroke-width="0.5" fill="none" stroke="#000000" points="52.58 225.49 52.58 375.16 47.16 372.09 47.16 222.41 48.29 223.06 52.58 225.49" />
    <polygon class="hover_color_change" stroke-width="0.5" fill="none" stroke="#000000" points="48.29 220.56 47.16 222.41 47.16 369.58 42.88 367.16 42.88 217.49 48.29 220.56" />
    <polygon class="cls-8" points="266.82 472.95 266.82 476.64 243.22 463 243.22 459.29 266.82 472.95" />
    <polygon class="cls-1" points="266.82 331.92 266.82 333.09 265.8 332.5 266.82 331.92" />
    <polygon class="cls-1" points="320.4 362.79 320.4 364.05 319.31 363.43 320.4 362.79" />
    <polygon class="cls-4" points="320.4 362.79 319.31 363.43 295.78 377.03 295.75 377.02 295.75 377.06 294.7 377.66 243.22 348 244.35 347.36 267.91 333.77 269 333.13 320.4 362.79" />
    <polygon class="cls-1" points="267.87 383.24 267.87 393.76 267.86 393.76 266.79 393.14 266.82 393.1 266.82 383.81 267.87 383.24" />
    <polygon class="cls-4" points="267.87 383.24 266.82 383.81 243.22 370.23 243.22 369.02 267.87 383.24" />
    <polygon class="subgirt" stroke="#000000" stroke-width="0.25" fill="#6D6E70" points="293.57 408.62 293.57 414.76 243.22 385.66 243.22 379.52 266.79 393.14 267.86 393.76 267.87 393.76 268.99 394.42 280.29 400.94 293.57 408.62" />
    <polygon class="cls-8" points="266.82 383.81 266.82 393.1 266.79 393.14 243.22 379.52 243.22 370.23 266.82 383.81" />
    <polygon class="cls-1" points="295.75 377.06 295.75 396.82 294.7 397.46 294.7 377.66 295.75 377.06" />
    <polygon class="cls-8" points="294.7 377.66 294.7 397.46 243.22 367.72 243.22 348 294.7 377.66" />
    <polygon class="cls-3" points="214.29 302.83 202.57 309.62 200.42 308.39 212.23 301.56 213.24 302.18 214.29 302.83" />
    <polygon class="cls-3" points="244.35 347.36 243.22 348 243.22 346.71 244.35 347.36" />
    <polygon class="hover_color_change" stroke-width="0.5" fill="none" stroke="#000000" points="232.55 329.42 232.55 479.09 227.22 476.02 227.22 326.35 228.27 326.95 232.55 329.42" />
    <polygon class="hover_color_change" stroke-width="0.5" fill="none" stroke="#000000" points="210.01 313.98 210.01 463.65 206.85 464.3 206.85 314.55 210.01 313.98" />
    <polygon class="hover_color_change" stroke-width="0.5" fill="none" stroke="#000000" points="206.85 314.55 206.85 464.3 201.44 461.15 201.44 311.48 202.57 312.12 206.85 314.55" />
    <polygon class="hover_color_change" stroke-width="0.5" fill="none" stroke="#000000" points="202.57 309.62 202.57 312.12 201.44 311.48 202.57 309.62" />
    <line class="cls-10" x1="17.21" y1="66.78" x2="17.18" y2="66.76" />
    <line class="cls-10" x1="328.97" y1="203.21" x2="328.97" y2="203.18" />
    <polyline class="cls-16" points="147.46 0.09 111.49 18.52 78.03 35.65 82.32 42.76 65.18 32.9 69.47 40.01 17.18 66.79 0.05 75.57" />
    <polygon class="cls-4" points="349.35 497.06 348.28 497.68 296.8 467.94 297.94 467.37 349.33 497.03 349.35 497.06" />
    <polygon class="cls-8" points="348.28 497.68 348.28 517.48 296.8 487.74 296.8 467.94 348.28 497.68" />
    <polygon class="cls-1" points="267.87 472.3 267.87 477.23 266.82 476.64 266.82 472.95 267.87 472.3" />
    <line class="cls-10" x1="266.82" y1="476.66" x2="266.82" y2="476.64" />
    <polygon class="cls-4" points="267.87 472.3 266.82 472.95 243.22 459.29 243.22 458.08 267.87 472.3" />
    <polygon class="cls-4" points="321.45 503.25 320.4 503.82 269 474.16 270.05 473.51 321.45 503.25" />
    <polygon class="cls-8" points="320.4 503.82 320.4 507.54 320.39 507.56 298.43 494.89 297.79 494.52 268.99 477.89 269 477.88 269 474.16 320.4 503.82" />
    <polygon class="cls-1" points="321.45 503.25 321.45 508.18 320.39 507.56 320.4 507.54 320.4 503.82 321.45 503.25" />
    <polygon class="cls-8" points="294.7 466.72 294.7 486.52 243.22 456.86 243.22 437.06 294.7 466.72" />
    <polyline class="cls-12" points="229.32 88.99 229.32 118.24 202.41 102.4" />
    <polygon class="cls-15" points="185.92 186.9 184.87 187.46 183.27 186.59 183.26 186.57 184.06 185.98 185.92 186.9" />
    <polygon class="cls-7" points="186.73 188.92 185.68 189.56 184.87 187.46 185.92 186.9 186.73 188.92" />
    <polygon class="cls-15" points="186.73 188.92 185.95 190.13 185.17 190.55 184.9 190.69 184.89 190.68 185.05 190.45 185.68 189.56 186.73 188.92" />
    <polygon class="cls-6" points="83.31 129.76 82.68 130.65 82.52 130.88 80.92 130 80.11 127.9 80.83 126.87 80.9 126.78 82.5 127.66 83.31 129.76" />
    <path class="cls-6" d="M269.8,162c-.73.43-1.75.13-2.67-.67l.78-.42.78-1.21-.81-2-1.86-.92-.81.59h0l-.07.09a2.1,2.1,0,0,1,.81-2.09c1.09-.63,2.83.34,3.89,2.17S270.89,161.35,269.8,162Z" transform="translate(-184.33 -30.57)" />
    <polygon class="cls-15" points="83.56 127.09 82.5 127.66 80.9 126.78 80.89 126.77 81.7 126.17 83.56 127.09" />
    <polygon class="cls-7" points="84.36 129.11 83.31 129.76 82.5 127.66 83.56 127.09 84.36 129.11" />
    <polygon class="cls-15" points="84.36 129.11 83.58 130.32 82.8 130.74 82.53 130.89 82.52 130.88 82.68 130.65 83.31 129.76 84.36 129.11" />
    <polygon class="cls-6" points="186.04 238.24 185.41 239.13 185.24 239.36 183.64 238.48 182.83 236.38 183.56 235.36 183.63 235.26 185.23 236.14 186.04 238.24" />
    <path class="cls-6" d="M372.53,270.47c-.73.43-1.75.13-2.67-.67l.78-.42.78-1.21-.81-2-1.86-.92-.81.59h0l-.07.09a2.1,2.1,0,0,1,.81-2.09c1.09-.63,2.83.34,3.89,2.17S373.62,269.83,372.53,270.47Z" transform="translate(-184.33 -30.57)" />
    <polygon class="cls-15" points="186.28 235.57 185.23 236.14 183.63 235.26 183.61 235.25 184.42 234.66 186.28 235.57" />
    <polygon class="cls-7" points="187.09 237.59 186.04 238.24 185.23 236.14 186.28 235.57 187.09 237.59" />
    <polygon class="cls-15" points="187.09 237.59 186.31 238.81 185.53 239.22 185.26 239.37 185.24 239.36 185.41 239.13 186.04 238.24 187.09 237.59" />
    <polygon class="cls-6" points="83.42 178.09 82.79 178.97 82.62 179.2 81.02 178.33 80.21 176.23 80.94 175.2 81.01 175.11 82.61 175.98 83.42 178.09" />
    <path class="cls-6" d="M269.91,210.31c-.73.43-1.75.13-2.67-.67l.78-.42.78-1.21-.81-2-1.86-.92-.81.59h0l-.07.09a2.1,2.1,0,0,1,.81-2.09c1.09-.63,2.83.34,3.89,2.17S271,209.68,269.91,210.31Z" transform="translate(-184.33 -30.57)" />
    <polygon class="cls-15" points="83.66 175.42 82.61 175.98 81.01 175.11 81 175.09 81.8 174.5 83.66 175.42" />
    <polygon class="cls-7" points="84.47 177.44 83.42 178.09 82.61 175.98 83.66 175.42 84.47 177.44" />
    <polygon class="cls-15" points="84.47 177.44 83.69 178.65 82.91 179.07 82.64 179.22 82.62 179.2 82.79 178.97 83.42 178.09 84.47 177.44" />
    <path class="cls-6" d="M574.37,245a.33.33,0,0,1-.12.19c-.35.28-1.09,0-1.63-.66a2.26,2.26,0,0,1-.43-.78.84.84,0,0,1,.11-1,.35.35,0,0,1,.2-.09,1.67,1.67,0,0,1,1.43.75A1.65,1.65,0,0,1,574.37,245Z" transform="translate(-184.33 -30.57)" />
    <path class="cls-15" d="M587.17,236.74v.65l-.24.4-1.54.89s0,0,0,0l-7.85,4.55L574.45,245l-.08-.05a1.65,1.65,0,0,0-.44-1.55,1.67,1.67,0,0,0-1.43-.75l0-.09,1.83-1.06,9.35-5.4.13-.08,1.54-.89h.48l.57.32.48.57Z" transform="translate(-184.33 -30.57)" />
    <path class="cls-6" d="M588.11,239.58c-.73.36-1.76,0-2.72-.9l1.54-.89.24-.4v-.65l-.24-.73-.48-.57-.57-.32h-.48l-1.54.89-.13.08a4,4,0,0,1-.19-1.16,2.21,2.21,0,0,1,.75-2c1.09-.63,2.83.34,3.89,2.17S589.24,239,588.11,239.58Z" transform="translate(-184.33 -30.57)" />
    <line class="cls-17" x1="180.91" y1="364.32" x2="75.29" y2="425.1" />
    <line class="cls-17" x1="185.12" y1="370.63" x2="79.49" y2="431.41" />
    <polygon class="hover_color_change" stroke-width="0.5" fill="none" stroke="#000000" points="189.72 302.18 189.72 304.69 188.59 304.04 189.72 302.18" />
    <polygon class="hover_color_change" stroke-width="0.5" fill="none" stroke="#000000" points="194 307.11 194 456.86 188.59 453.71 188.59 304.04 189.72 304.69 194 307.11" />
    <polygon class="cls-6" points="75.16 431.28 74.52 432.17 74.36 432.4 72.76 431.53 71.95 429.42 72.68 428.4 72.74 428.31 74.35 429.18 75.16 431.28" />
    <path class="cls-6" d="M261.64,463.51c-.73.43-1.75.13-2.67-.67l.78-.42.78-1.21-.81-2-1.86-.92-.81.59h0L257,459a2.1,2.1,0,0,1,.81-2.09c1.09-.63,2.83.34,3.89,2.17S262.73,462.88,261.64,463.51Z" transform="translate(-184.33 -30.57)" />
    <polygon class="cls-15" points="75.4 428.62 74.35 429.18 72.74 428.31 72.73 428.29 73.54 427.7 75.4 428.62" />
    <polygon class="cls-7" points="76.21 430.64 75.16 431.28 74.35 429.18 75.4 428.62 76.21 430.64" />
    <polygon class="cls-15" points="76.21 430.64 75.42 431.85 74.64 432.27 74.37 432.41 74.36 432.4 74.52 432.17 75.16 431.28 76.21 430.64" />
    <polygon class="cls-6" points="185.22 368.49 184.59 369.38 184.43 369.61 182.82 368.73 182.02 366.63 182.74 365.61 182.81 365.51 184.41 366.39 185.22 368.49" />
    <path class="cls-6" d="M371.71,400.71c-.73.43-1.75.13-2.67-.67l.78-.42.78-1.21-.81-2-1.86-.92-.81.59h0l-.07.09a2.1,2.1,0,0,1,.81-2.09c1.09-.63,2.83.34,3.89,2.17S372.8,400.08,371.71,400.71Z" transform="translate(-184.33 -30.57)" />
    <polygon class="cls-7" points="186.27 367.84 185.22 368.49 184.41 366.39 185.46 365.82 186.27 367.84" />
    <polygon class="cls-15" points="186.27 367.84 185.49 369.05 184.71 369.47 184.44 369.62 184.43 369.61 184.59 369.38 185.22 368.49 186.27 367.84" />
    <line class="cls-12" x1="280.4" y1="408.58" x2="156.03" y2="480.34" />
    <line class="cls-12" x1="277.32" y1="402.39" x2="152.95" y2="474.16" />
    <line class="cls-12" x1="294.88" y1="505.15" x2="222.84" y2="546.77" />
    <line class="cls-12" x1="291.48" y1="499.25" x2="219.45" y2="540.87" />
    <polygon class="cls-6" points="83.76 307.24 83.12 308.13 82.96 308.36 81.36 307.49 80.55 305.38 81.28 304.36 81.35 304.27 82.95 305.14 83.76 307.24" />
    <path class="cls-6" d="M270.24,339.47c-.73.43-1.75.13-2.67-.67l.78-.42.78-1.21-.81-2-1.86-.92-.81.59h0l-.07.09a2.1,2.1,0,0,1,.81-2.09c1.09-.63,2.83.34,3.89,2.17S271.34,338.84,270.24,339.47Z" transform="translate(-184.33 -30.57)" />
    <polygon class="cls-15" points="84 304.58 82.95 305.14 81.35 304.27 81.33 304.25 82.14 303.66 84 304.58" />
    <polygon class="cls-7" points="84.81 306.6 83.76 307.24 82.95 305.14 84 304.58 84.81 306.6" />
    <polygon class="cls-15" points="84.81 306.6 84.03 307.81 83.25 308.23 82.98 308.38 82.96 308.36 83.12 308.13 83.76 307.24 84.81 306.6" />
    <polygon class="hover_color_change" stroke-width="0.5" fill="none" stroke="#000000" points="243.22 335.6 243.22 485.35 240.07 483.49 240.07 333.74 241.12 334.36 243.22 335.6" />
    <polygon class="hover_color_change" stroke-width="0.5" fill="none" stroke="#000000" points="243.22 206.9 243.22 292.89 240.07 291.03 240.07 205.04 243.22 206.9" />
</svg>