<svg id="Layer_1" data-name="Layer 1" xmlns="http://www.w3.org/2000/svg" viewBox="0 0 451.52 563.37"><defs><style>.cls-1,.cls-2,.cls-3{fill:none;stroke:#231f20;stroke-width:0.5px;}.cls-1,.cls-3{stroke-miterlimit:10;}.cls-2{stroke-linecap:round;stroke-linejoin:round;}.cls-3{stroke-dasharray:6;}</style></defs><title>Flatwall SM_5</title><path class="cls-1" d="M476.56,165.8l6.74-3.37,2.08-2.58-3.82-43-2.34,2.78-6.43,3.27m6.9-27.07-2.6-29.48-.54-.83-8.33,5.43L471,102l6.31-3.16Z" transform="translate(-175.55 -24.38)"/><path class="cls-1" d="M472.79,122.89l-.61.3h0L467,125.84l-7.81,9.77-2.31-21.85,6.57-8L471,102l-2.73-31.06-.7.46L275.9,196.68l.47.74.48,5.36L278,216l1.42,16.29,4.2-5,.36-1.06v-.54l2.13,21v.71l-.53.71-4.26,5.33,2.9,32.89.11,1.1.77,8.88,4.56-5.39.36-1.06v-.54l2.13,21v.71l-.53.71L287,317.41l3,34.19-.18,2L289,355l.21.33,75.28-49.17h0l.12-.06,9.39-6.16h0L489.9,224.18l-.2-.29.89-1.6.17-1.78-.26-3.17-.27-2.75-3-33.48-1.84,2.28-7,3.41-5.4,2.63-7.81,9.77-2.31-21.67,6.57-8.17,6.5-3.26h0l.6-.3M340.49,319.27l-.88.89-1.07.53-8.35,5.51-1.77,1.06-.72.71-.88.36-1.25-.18-.88-.71-.72-1.06-.74-6.19-.32-2.87,3.58-2.28,0,0-.35-1.25-6.4-9.94-.53-1.25-1.24-10.83,13-8.53,1.42,11.9.18.36,6.4,9.77.71,2,.32,3,.92,7.88ZM459.68,240l-.89.89-1.06.53L449.38,247l0,0-1.81,1.21-.71.53-.89.54-1.24-.36-.89-.71-.71-1.06-.47-4.15v0l-.6-4.88,3.59-2.28,0,0-.36-1.25-6.39-9.94-.54-1.25-1.24-10.83,13-8.53,1.42,11.9.18.36,6.39,9.77.71,2L460,238.81Z" transform="translate(-175.55 -24.38)"/><path class="cls-1" d="M290,351.6l-3-34.19-2,2.39L272.82,326l-8,9.77-2.14-21.85,6.58-8.17,6.42-3.26h0l7.24-3.67,2.19-2.6-.77-8.88-.11-1.1-2.9-32.89L279,256.21l-7.14,3.62-5.12,2.6-8,9.77-2.13-21.85,6.57-8.17,13.67-6.93,2.55-3L278,216l-1.18-13.17-.48-5.36-.47-.74-83.72,54.74h-.49c-.54,1.06-1.76,1.34-3,1.41h-.11c-.52,0-1,0-1.53,0-.72,0-1.34-.61-1.85-1.59l.6.7,1.25.89h1.64l1.55-.35,1.25-1.06.5-1s0,0,0,0a2.65,2.65,0,0,0,0-.57l-1.75,1.12-.38.48-1.24.53-1.07-.35-1.07-.71-.71-1.07-1.06-8.88,1.42-.18,1.07,8.88.53.71.89.18.53-.35.53-.72-1.06-8.2-1.19.77,0,0c0-.29-.07-.59-.1-.88,0,0,0,0,0-.06a6.35,6.35,0,0,0-1.06-2.53s0,0,0,0a.38.38,0,0,0-.09-.09,3.21,3.21,0,0,0-.78-.56l-.09,0a6.2,6.2,0,0,0-3.36,0l-.06,0a3,3,0,0,0-.67.34l0,0-.71.71c-.61.88-1,2.42-.85,5.29,0,.1,0,.24,0,.42s0,.25,0,.4c0,.62.09,1.52.16,2.68l0,.44,0,.47c0,.38,0,.77.07,1.19,0,.65.08,1.35.13,2.1s.08,1.26.12,1.94c0,.3,0,.6.05.91l.08,1.21c0,.24,0,.49.05.75,0,.5.06,1,.1,1.55s.07,1.07.1,1.62c.1,1.65.21,3.4.34,5.25,0,.86.11,1.74.17,2.64s.11,1.76.17,2.67L188,376.17l.06-.06,2.31-1.6h1.07l.53,11.37.18.18,7.28,9.94.71,1.78.42,3.67.82,7.17-.35,1.24-.89.89-1.06.71-8.35,5.33,0,0-.33.23-.06.45c-.06.2-.15.41-.23.62v0a6.1,6.1,0,0,1-.39.71l.68,1,97.13-63.5,1.6-1.06L289,355l.89-1.42ZM184.72,250.71l-.53-1.42-.15-1.82a28.07,28.07,0,0,1-.39-4.93l.39,4.93a13.76,13.76,0,0,0,1.13,3.76Z" transform="translate(-175.55 -24.38)"/><path class="cls-1" d="M179.57,244.31c.06,1,.42,6.82,1,15.68l-1.15-17.81.18-1.6.71-1.42.14-.14C179.81,239.9,179.41,241.44,179.57,244.31Z" transform="translate(-175.55 -24.38)"/><path class="cls-1" d="M181.43,238.07a3.19,3.19,0,0,1,.4-.12,3,3,0,0,0-.67.34l.09-.1.12-.09Z" transform="translate(-175.55 -24.38)"/><path class="cls-1" d="M183.65,242.54l.39,4.93A28.07,28.07,0,0,1,183.65,242.54Z" transform="translate(-175.55 -24.38)"/><path class="cls-1" d="M184,247.47a13.76,13.76,0,0,0,1.13,3.76l-.45-.52-.53-1.42Z" transform="translate(-175.55 -24.38)"/><path class="cls-1" d="M186.12,238.48a3.21,3.21,0,0,0-.78-.56A1.8,1.8,0,0,1,186.12,238.48Z" transform="translate(-175.55 -24.38)"/><path class="cls-1" d="M185.78,252l1.25.89c-.72,0-1.34-.61-1.85-1.59Z" transform="translate(-175.55 -24.38)"/><path class="cls-1" d="M187.39,242.06c0-.29-.07-.59-.1-.88.11.5.15.85.15.85Z" transform="translate(-175.55 -24.38)"/><path class="cls-1" d="M187,252.84h1.53C188,252.86,187.51,252.84,187,252.84Z" transform="translate(-175.55 -24.38)"/><path class="cls-1" d="M188.56,252.84h0Z" transform="translate(-175.55 -24.38)"/><path class="cls-1" d="M191.47,251.42h.22c-.54,1.06-1.76,1.34-3,1.41l1.55-.35Z" transform="translate(-175.55 -24.38)"/><path class="cls-1" d="M192.18,249.73V250l-.21.39a2.65,2.65,0,0,0,0-.57l.15-.09Z" transform="translate(-175.55 -24.38)"/><polygon class="cls-1" points="5.82 213.72 5.7 213.81 5.79 213.72 5.82 213.72"/><line class="cls-2" x1="204.73" y1="91.51" x2="202.6" y2="66.11"/><line class="cls-2" x1="204.73" y1="91.51" x2="204.91" y2="91.51"/><line class="cls-2" x1="202.6" y1="66.11" x2="204.73" y2="91.51"/><line class="cls-2" x1="11.84" y1="217.68" x2="11.12" y2="218.16"/><polyline class="cls-2" points="406.69 170.91 406.69 170.38 405.98 169.49 405.09 169.13"/><polyline class="cls-2" points="412.73 234.5 412.73 233.97 412.02 233.08 411.13 232.72"/><line class="cls-2" x1="411.84" y1="301.29" x2="410.24" y2="302.35"/><polyline class="cls-2" points="399.05 142.67 399.2 144.36 399.2 144.45"/><line class="cls-2" x1="411.84" y1="301.29" x2="410.24" y2="302.35"/><polyline class="cls-2" points="399.05 142.67 399.2 144.36 399.2 144.45"/><line class="cls-2" x1="399.23" y1="144.45" x2="399.2" y2="144.45"/><line class="cls-2" x1="351.45" y1="156.52" x2="351.24" y2="156.67"/><line class="cls-2" x1="351.27" y1="156.7" x2="351.24" y2="156.67"/><line class="cls-2" x1="355" y1="167.89" x2="355.71" y2="167.36"/><polygon class="cls-1" points="310.77 85.65 310.77 86.36 310.42 87.25 306.01 92.46 303.67 95.24 297.24 98.51 296.63 98.81 296.62 98.82 291.41 101.46 283.6 111.23 281.29 89.38 287.86 81.39 295.4 77.62 301.71 74.46 304.14 71.44 308.29 66.29 308.64 65.4 308.64 64.87 308.82 64.87 310.77 85.65"/><polygon class="cls-1" points="316.81 149.24 316.81 150.13 316.46 150.84 311.72 156.73 309.88 159.01 302.85 162.42 297.45 165.05 289.64 174.82 287.33 153.15 293.9 144.98 300.4 141.72 300.41 141.72 307.75 138.05 309.83 135.47 314.33 129.88 314.68 128.99 314.68 128.46 314.86 128.46 316.81 149.24"/><polyline class="cls-2" points="314.68 128.46 314.68 127.93 314.14 127.04 313.08 126.51"/><line class="cls-2" x1="254.82" y1="66.29" x2="255.53" y2="65.76"/><polygon class="cls-1" points="217.13 51.87 216.99 51.9 216.99 52.79 216.63 53.5 211.95 59.34 210.06 61.67 197.62 67.71 189.81 77.48 187.5 55.81 194.25 47.64 200.59 44.41 207.93 40.71 210.09 38.02 214.5 32.54 214.85 31.66 214.85 31.12 215.03 31.12 217.13 51.87"/><line class="cls-2" x1="174.36" y1="119.4" x2="173.62" y2="119.9"/><polygon class="cls-1" points="184.13 111.76 183.77 113.01 183.06 113.89 181.82 114.61 173.65 119.93 173.62 119.9 171.69 121.18 170.98 121.71 170.09 122.24 169.03 121.89 167.96 121.18 167.25 120.11 166.19 111.05 169.77 108.77 169.74 108.74 169.38 107.5 162.99 97.55 162.46 96.31 161.21 85.47 174.18 76.95 175.6 88.85 175.78 89.2 182.17 99.15 182.88 100.93 183.41 105.52 184.13 111.76"/><line class="cls-2" x1="170.09" y1="108.57" x2="169.77" y2="108.77"/><polygon class="cls-1" points="265.3 58.12 264.94 59.36 264.23 60.43 262.99 60.96 254.82 66.29 253.04 67.53 252.33 68.25 251.44 68.6 250.2 68.25 249.13 67.53 248.6 66.47 247.36 57.59 251.06 55.07 250.56 53.86 244.16 43.91 243.81 42.67 242.38 31.83 255.35 23.31 256.77 35.21 256.95 35.56 263.35 45.51 264.06 47.29 264.65 52.44 265.3 58.12"/><line class="cls-2" x1="270.45" y1="211.23" x2="270.12" y2="211.44"/><line class="cls-2" x1="274.71" y1="222.07" x2="273.85" y2="222.63"/><line class="cls-2" x1="155.53" y1="301.29" x2="154.64" y2="301.82"/><line class="cls-2" x1="151.26" y1="290.45" x2="150.94" y2="290.66"/><polyline class="cls-2" points="108.46 201.28 108.46 200.75 107.75 199.86 106.86 199.51"/><polyline class="cls-2" points="114.5 264.87 114.5 264.34 113.79 263.45 112.9 263.1"/><line class="cls-2" x1="110.59" y1="222.24" x2="110.59" y2="222.07"/><polygon class="cls-1" points="17.34 182.99 14.17 185 14.05 185.08 12.9 185.83 3.66 191.51 2.24 191.69 13.79 184.59 14.01 184.44 14.14 184.35 16.27 182.99 17.34 182.99"/><line class="cls-2" x1="17.34" y1="224.91" x2="16.63" y2="225.35"/><line class="cls-2" x1="116.63" y1="285.83" x2="116.63" y2="285.66"/><line class="cls-2" x1="3.3" y1="360.43" x2="3.3" y2="367.54"/><line class="cls-2" x1="17.16" y1="392.05" x2="14.61" y2="393.74"/><line class="cls-2" x1="14.61" y1="393.77" x2="12.9" y2="394.89"/><line class="cls-2" x1="16.09" y1="391.88" x2="15.23" y2="392.44"/><line class="cls-2" x1="371.87" y1="321.18" x2="371.01" y2="321.74"/><line class="cls-2" x1="367.61" y1="310.35" x2="367.28" y2="310.55"/><polyline class="cls-2" points="205.97 302.71 205.79 301.64 205.26 300.75 204.37 300.22"/><line class="cls-2" x1="253.58" y1="355.64" x2="253.75" y2="355.64"/><polyline class="cls-2" points="212.01 365.76 212.01 365.23 211.3 364.34 210.41 363.81"/><line class="cls-2" x1="252.69" y1="400.4" x2="251.83" y2="400.96"/><line class="cls-2" x1="248.42" y1="389.57" x2="248.1" y2="389.77"/><line class="cls-2" x1="167.25" y1="443.21" x2="166.93" y2="443.42"/><line class="cls-2" x1="171.51" y1="454.04" x2="170.63" y2="454.58"/><line class="cls-2" x1="13.64" y1="559.91" x2="13.61" y2="559.91"/><polygon class="cls-2" points="11.3 519.64 2.06 525.09 0.82 525.27 10.77 519.23 11.24 518.93 11.3 519.64"/><polygon class="cls-2" points="12.54 559.37 12.19 560.62 11.3 561.68 10.23 562.22 8.99 561.86 7.92 561.15 7.39 560.09 6.5 552.62 6.32 551.03 7.75 551.03 7.95 552.8 8.81 559.91 9.34 560.44 10.05 560.79 10.77 560.26 11.12 559.55 10.17 551.26 9.88 548.72 9.61 548.07 9.34 547.47 1.53 537.7 0.99 536.28 0.91 531.01 0.82 525.27 2.06 525.09 2.18 528.76 2.24 530.98 2.42 536.28 2.59 536.82 7.86 543.54 10.41 546.76 11.12 548.54 11.39 550.49 12.54 559.37"/><line class="cls-2" x1="201.89" y1="426.16" x2="200.11" y2="406.08"/><line class="cls-2" x1="198.16" y1="384.95" x2="196.38" y2="363.63"/><line class="cls-2" x1="194.43" y1="342.49" x2="192.47" y2="321.18"/><line class="cls-2" x1="189.07" y1="281.69" x2="188.92" y2="280.15"/><line class="cls-2" x1="190.7" y1="300.04" x2="189.07" y2="281.75"/><line class="cls-2" x1="201.89" y1="426.16" x2="202.06" y2="426.16"/><line class="cls-2" x1="190.7" y1="300.04" x2="189.07" y2="281.75"/><line class="cls-2" x1="189.07" y1="281.69" x2="188.92" y2="280.15"/><line class="cls-2" x1="192.47" y1="321.18" x2="194.43" y2="342.49"/><line class="cls-2" x1="196.38" y1="363.63" x2="198.16" y2="384.95"/><line class="cls-2" x1="200.11" y1="406.08" x2="201.89" y2="426.16"/><line class="cls-2" x1="5.26" y1="552.8" x2="5.44" y2="552.8"/><line class="cls-2" x1="91.41" y1="179.26" x2="91.58" y2="179.26"/><line class="cls-2" x1="104.37" y1="325.09" x2="102.6" y2="305.19"/><line class="cls-2" x1="100.64" y1="284.06" x2="98.87" y2="262.74"/><line class="cls-2" x1="96.91" y1="241.6" x2="94.96" y2="220.29"/><line class="cls-2" x1="93.18" y1="199.15" x2="91.41" y2="179.26"/><line class="cls-2" x1="104.37" y1="325.09" x2="104.55" y2="325.09"/><line class="cls-2" x1="7.03" y1="392.41" x2="7.21" y2="392.41"/><line class="cls-2" x1="6.5" y1="385.66" x2="6.68" y2="385.66"/><line class="cls-2" x1="15.03" y1="391.52" x2="14.91" y2="392.67"/><path class="cls-2" d="M189.78,418.86c-1.69,2.46-5.21,2.16-6.84-.47l-.36-1.6" transform="translate(-175.55 -24.38)"/><line class="cls-2" x1="15.03" y1="391.52" x2="14.91" y2="392.67"/><path class="cls-2" d="M189.78,418.86c-1.69,2.46-5.21,2.16-6.84-.47l-.36-1.6" transform="translate(-175.55 -24.38)"/><line class="cls-2" x1="15.03" y1="391.52" x2="15.21" y2="391.52"/><line class="cls-2" x1="2.59" y1="384.77" x2="2.77" y2="384.77"/><line class="cls-2" x1="10.59" y1="383.88" x2="10.76" y2="383.88"/><line class="cls-2" x1="189.1" y1="281.75" x2="189.07" y2="281.75"/><line class="cls-2" x1="198.45" y1="275.53" x2="198.33" y2="275.53"/><line class="cls-2" x1="113.43" y1="330.6" x2="111.83" y2="331.66"/><line class="cls-2" x1="113.43" y1="330.6" x2="111.83" y2="331.66"/><line class="cls-2" x1="314.15" y1="199.51" x2="312.72" y2="200.4"/><line class="cls-2" x1="314.15" y1="199.51" x2="312.72" y2="200.4"/><line class="cls-2" x1="8.1" y1="218.16" x2="8.28" y2="218.16"/><path class="cls-2" d="M185.18,251.25v0" transform="translate(-175.55 -24.38)"/><polygon class="cls-1" points="15.38 224.91 15.03 226.15 14.7 226.56 14.32 227.04 13.08 227.57 12.01 227.22 10.94 226.51 10.23 225.44 9.17 216.56 10.59 216.38 11.66 225.26 12.19 225.97 13.08 226.15 13.61 225.8 14.14 225.08 13.08 216.88 12.72 214.07 12.37 212.83 2.77 203.95 2.42 202.7 2.24 191.69 3.66 191.51 3.66 202.53 3.84 203.24 13.43 212.12 14.14 214.07 15.38 224.91"/><path class="cls-2" d="M185.18,251.25v0" transform="translate(-175.55 -24.38)"/><line class="cls-2" x1="305.09" y1="193.82" x2="303.13" y2="171.44"/><line class="cls-2" x1="301.18" y1="150.13" x2="299.22" y2="128.99"/><line class="cls-2" x1="297.45" y1="107.68" x2="295.49" y2="86.54"/><line class="cls-2" x1="305.09" y1="193.82" x2="305.26" y2="193.82"/><line class="cls-2" x1="402.6" y1="294.89" x2="400.83" y2="275"/><line class="cls-2" x1="398.87" y1="253.68" x2="397.1" y2="232.55"/><line class="cls-2" x1="395.14" y1="211.23" x2="393.19" y2="190.09"/><line class="cls-2" x1="402.6" y1="294.89" x2="402.78" y2="294.89"/><polygon class="cls-1" points="365.48 159.72 365.12 160.97 364.41 161.85 363.35 162.56 355 167.89 353.22 169.14 352.51 169.67 351.62 170.2 350.38 169.85 349.31 169.14 348.78 168.07 347.72 159.19 351.24 156.67 350.74 155.46 344.34 145.51 343.99 144.27 342.56 133.43 355.71 124.91 357.13 136.81 357.13 137.16 363.52 147.11 364.24 148.89 364.92 154.75 365.48 159.72"/><line class="cls-2" x1="24.44" y1="541.97" x2="23.11" y2="542.83"/><polygon class="cls-1" points="11.12 559.55 10.77 560.26 10.05 560.79 9.34 560.44 8.81 559.91 7.95 552.8 10.17 551.26 11.12 559.55"/><line class="cls-2" x1="381.29" y1="308.75" x2="381.11" y2="308.87"/><line class="cls-2" x1="364.53" y1="319.82" x2="363.52" y2="320.47"/><path class="cls-1" d="M588.56,322.29l-.83-9.18v0l-2.34-26.14-2,2.49-7.54,3.82,2.29,26,1.05,12,8.37-5.47,0,0-.06-.07.89-1.6ZM574,272.09l-.09.05-6.42,3.26-6.58,8.17,2.14,21.85.09-.11L561,283.57l6.57-8.17,6.33-3.21.09,0,7.26-3.67,2.25-2.66v-.12l-3.81-42.75-2.34,2.9-7.11,3.59m-8.7-17.62,6.85-3.47,6.83-3.46,2.57-3.11v-.11l-3-32.84h-.14L570,171.91l-4.51,3,2.94,33.43-6.95,3.52L554.89,220,557,241.83l.09-.11L555,220Zm-14.31,91.3-13,8.52,1.24,10.84.54,1.24,6.21,10,.54,1.24,0,0-3.59,2.28.83,7,.24,2.07.71,1.07.89.71,1.24.35,0,0L542,348l-.89-.71-.71-1.07-.23-2.07-.83-7,3.58-2.28,0,0-.52-1.23-6.22-10-.53-1.24-1.25-10.84,12.88-8.46ZM428.06,382.33l-13,8.52,1.24,10.84.53,1.24,6.22,10,.53,1.24,0,0-3.58,2.28,1.06,9.06.72,1.07.88.71,1.25.17h0l-1.17-.16-.89-.71-.71-1.07-1.07-9.06,3.58-2.28,0,0v0l-.53-1.22-6.21-10-.54-1.24-1.24-10.84,12.87-8.45Zm-40.5,8.35-.35.88-4.41,5.37V397l4.5-5.48.32-.76h0l-.07-.65Zm-6-63.59L381,328l-3.93,4.9V333l4-5,.49-.81v-.07Z" transform="translate(-175.55 -24.38)"/><path class="cls-1" d="M570.26,229.43l0,0-.1,0-5,2.56-8,9.77v-.11l-.09.11L554.89,220l6.57-8.17,6.95-3.52-2.94-33.43,0,0L490,224.18,374.17,299.91h0l1.57,17.58.06.57,1.29,14.81L381,328l.53-.88h.06v.07l0-.07h.06l2.07,20.25V348l-.53.88L379,354.11l3.84,42.82,4.41-5.37.35-.88v-.54l.07.65,0-.11v-.54l2.13,20.78v.71l-.53.89-4.59,5.57,3.17,35.46,1.27,1.93L579.21,331.25l-1.05-12-2.29-26-4.72,2.4-8,9.77v-.11l-.09.11-2.14-21.85,6.58-8.17,6.42-3.26.09-.05M437.76,418.38l-.89.89-1.07.54-8.34,5.5,0,0-1.8,1.22-.71.53-.89.35H424l-1.25-.17-.88-.71-.72-1.07-1.06-9.06,3.58-2.28,0,0-.53-1.24-6.22-10-.53-1.24-1.24-10.84,13-8.52v.07l.1-.07,1.42,11.9.17.35,6.4,9.77.71,2,.56,5v0l.68,5.8Zm119.18-79.22L556,340l-1.06.71-8.35,5.33,0,0-1.81,1.22-.71.53-.88.53-.07,0,0,0-1.24-.35-.89-.71-.71-1.07-.24-2.07-.83-7,3.59-2.28,0,0-.54-1.24-6.21-10-.54-1.24-1.24-10.84,13-8.52v.06l.09-.06,1.42,11.9.18.35,6.39,9.77.71,2,.71,6.09v.06l.53,4.68Z" transform="translate(-175.55 -24.38)"/><polygon class="cls-1" points="381.64 313.54 381.29 314.78 380.4 315.67 379.34 316.38 370.99 321.71 371.02 321.74 369.21 322.96 368.5 323.49 367.65 324 367.61 324.02 366.37 323.67 365.48 322.96 364.77 321.89 364.53 319.82 363.7 312.83 367.29 310.55 367.26 310.52 366.72 309.28 360.51 299.33 359.97 298.09 358.73 287.25 371.7 278.73 371.71 278.79 373.12 290.63 373.3 290.98 379.69 300.75 380.4 302.71 381.11 308.86 381.64 313.54"/><polygon class="cls-1" points="262.46 392.76 262.1 394 261.22 394.89 260.15 395.43 251.8 400.93 251.83 400.96 250.03 402.18 249.31 402.71 248.46 403.05 247.29 402.89 246.4 402.18 245.69 401.11 244.62 392.05 248.2 389.77 248.18 389.74 248.17 389.72 247.64 388.5 241.43 378.55 240.89 377.31 239.65 366.47 252.52 358.02 253.93 369.85 254.11 370.2 260.51 379.97 261.22 381.93 261.78 386.93 261.78 386.96 262.46 392.76"/><polygon class="cls-1" points="247.29 402.89 248.46 403.05 248.43 403.06 247.18 402.89 246.3 402.18 245.58 401.11 244.52 392.05 248.1 389.77 248.07 389.74 247.54 388.5 241.32 378.55 240.79 377.31 239.55 366.47 252.51 357.95 252.52 358.02 239.65 366.47 240.89 377.31 241.43 378.55 247.64 388.5 248.17 389.72 248.18 389.74 248.2 389.77 244.62 392.05 245.69 401.11 246.4 402.18 247.29 402.89"/><line class="cls-2" x1="451.27" y1="275.71" x2="411.93" y2="301.41"/><path class="cls-1" d="M387.74,453.55l-.83-9.2-2.34-26.26-2,2.43-12.26,6.21-8,9.77-2.13-21.85,6.57-8,6.43-3.26h0l7.24-3.67,2.25-2.69-3.85-42.93-2.31,2.82-7.15,3.63h0l-5.09,2.57-8,9.77-2.13-21.84,6.57-8.18,13.68-6.75L377,333l-1.31-14.92-.06-.57L374,299.91h0l-9.39,6.16v.06h-.15L289.19,355.3l-1.6,1.06-97.13,63.5-.68-1a6.1,6.1,0,0,0,.39-.71v0c.08-.21.17-.42.23-.62l.06-.45-2,1.33-1.07.71-1.24-.35-.89-.71-.71-1.07-.56-4.82-.51-4.24,1.43-.17.41,3.52,1.36,3-.32-3.73-.21-2.31-.53-1.42-.89-1.24-1.42-.71-1.6-.18-1.6.53-1.24.89-.71,1.42v1.6l8.64,134.16,2-1.3h1.07l.71,11.55.18.35,6.92,9.59.72,1.78.26,1.92v0l1.16,8.88-.36,1.25-.89.89-1.06.71-8.32,5.32,0,.18-.27.71.48.74L389,455.48ZM356.48,472l-.89.88-1.06.54-8.35,5.5L344.4,480l-.71.71-.89.36-1.24-.18-.89-.71-.71-1.07-.44-3.88-.62-5.18,3.58-2.28,0,0-.54-1.24-6.21-9.95-.53-1.24-1.25-10.83,13-8.53,1.42,11.9.18.18L354.7,458l.71,2,1.43,10.83Z" transform="translate(-175.55 -24.38)"/><polygon class="cls-1" points="181.29 446.4 180.93 447.65 180.04 448.53 178.98 449.07 170.63 454.57 168.85 455.64 168.14 456.35 167.25 456.71 166.01 456.53 165.12 455.82 164.41 454.75 163.97 450.87 163.35 445.69 166.93 443.41 166.9 443.38 166.36 442.14 160.15 432.19 159.62 430.95 158.37 420.12 171.34 411.59 172.76 423.49 172.94 423.67 179.15 433.61 179.86 435.57 181.29 446.4"/><polygon class="cls-1" points="208.11 322.96 208.11 323.67 207.57 324.55 203.31 329.73 201 332.55 193.85 336.18 193.84 336.19 188.75 338.76 180.75 348.53 178.62 326.69 185.19 318.51 198.87 311.76 201.42 308.6 201.51 308.49 205.44 303.59 205.97 302.71 206.03 302.71 206.04 302.78 208.11 322.96"/><polygon class="cls-1" points="214.15 386.54 214.15 387.25 213.61 388.14 209.02 393.71 207.04 396.14 194.78 402.35 186.79 412.12 184.66 390.27 191.23 382.28 197.66 379.02 197.67 379.02 204.91 375.35 207.16 372.66 207.25 372.55 207.26 372.66 211.76 367.18 212.08 366.42 214.15 386.54"/><polygon class="cls-1" points="212.08 366.41 212.08 366.42 211.76 367.18 207.26 372.66 207.25 372.55 211.66 367.18 212.01 366.3 212.01 365.76 212.08 366.41"/><line class="cls-2" x1="13.81" y1="561.54" x2="13.61" y2="561.68"/><line class="cls-2" x1="408.82" y1="191.87" x2="408.82" y2="191.69"/><line class="cls-2" x1="414.86" y1="255.46" x2="414.86" y2="255.28"/><polygon class="cls-1" points="15.92 350.13 12.51 352.41 12.37 352.51 11.66 352.97 2.42 358.48 1.18 358.66 12.33 351.88 12.48 351.79 12.54 351.73 14.85 350.13 15.92 350.13"/><polygon class="cls-1" points="25.86 384.24 25.51 385.48 24.62 386.37 23.56 387.08 15.21 392.41 15.24 392.44 14.91 392.67 12.9 394 13.79 393.12 14.14 391.87 13.31 384.53 13.28 384.53 12.9 381.04 12.19 379.26 3.48 370.74 2.77 370.03 2.6 369.31 2.42 358.48 11.66 352.97 12.37 352.51 12.51 352.41 15.92 350.13 16.45 361.5 16.63 361.68 23.91 371.62 24.62 373.4 25.04 377.07 25.86 384.24"/><polyline class="cls-1" points="2.42 358.48 1.18 358.66 1.18 369.49 1.71 370.74 11.12 379.97 11.48 381.22 12.9 392.05 12.37 392.76 11.83 393.29 10.94 392.94 10.41 392.41 9.76 386.87"/><line class="cls-2" x1="8.43" y1="387.76" x2="8.1" y2="387.97"/><line class="cls-2" x1="167.25" y1="283.88" x2="164.38" y2="285.77"/><line class="cls-2" x1="274.36" y1="213.9" x2="267.13" y2="218.6"/><polyline class="cls-2" points="451.27 110.34 399.2 144.36 399.08 144.45"/><line class="cls-2" x1="389.63" y1="150.48" x2="389.81" y2="150.48"/><polygon class="cls-1" points="414.86 255.46 414.86 256.17 414.33 256.88 409.74 262.56 407.76 265.05 400.32 268.83 395.5 271.27 387.6 280.93 387.51 281.04 385.37 259.19 391.95 251.02 398.37 247.76 398.46 247.71 405.62 244.09 407.87 241.43 407.97 241.31 412.37 236.1 412.73 235.03 412.73 234.5 414.86 255.46"/><polygon class="cls-1" points="408.82 191.87 408.82 192.58 408.29 193.29 404.05 198.56 401.72 201.46 394.71 205 394.58 205.07 394.57 205.07 389.46 207.68 381.56 217.34 381.47 217.45 379.34 195.6 385.91 187.43 392.86 183.91 399.58 180.5 402.16 177.39 402.25 177.28 406.16 172.51 406.69 171.44 406.69 170.91 408.82 191.87"/><line class="cls-2" x1="14.14" y1="184.35" x2="11.48" y2="141.78"/><line class="cls-2" x1="14.14" y1="184.35" x2="11.48" y2="141.78"/><path class="cls-2" d="M182.59,416.78l-.53-6.75Z" transform="translate(-175.55 -24.38)"/><line class="cls-2" x1="206.03" y1="302.71" x2="205.97" y2="302.18"/><polygon class="cls-1" points="284.48 214.43 284.13 215.67 283.24 216.56 282.18 217.09 273.83 222.6 273.86 222.63 272.05 223.84 271.34 224.37 270.45 224.91 269.21 224.55 268.32 223.84 267.61 222.78 267.14 218.63 267.14 218.6 266.54 213.72 270.13 211.44 270.1 211.41 269.74 210.16 263.35 200.22 262.81 198.97 261.57 188.14 274.54 179.61 275.96 191.51 276.14 191.87 282.53 201.64 283.24 203.59 284.48 214.43"/><polygon class="cls-1" points="165.3 293.65 164.94 294.89 164.06 295.78 162.99 296.31 154.64 301.82 152.87 302.88 152.15 303.59 151.27 303.95 150.02 303.77 149.14 303.06 148.42 302 147.68 295.81 147.36 292.94 150.94 290.66 150.91 290.63 150.56 289.38 144.16 279.44 143.63 278.19 142.39 267.36 155.35 258.83 156.77 270.73 156.95 271.09 163.35 280.86 164.06 282.81 164.38 285.77 165.3 293.65"/><polygon class="cls-1" points="116.63 285.83 116.63 286.54 116.1 287.25 111.48 293.03 109.53 295.42 97.27 301.64 89.28 311.41 87.14 289.56 93.72 281.39 100.14 278.13 100.15 278.13 107.39 274.46 109.58 271.86 114.14 266.47 114.5 265.41 114.5 264.87 116.63 285.83"/><polygon class="cls-1" points="110.59 222.24 110.59 222.95 110.06 223.66 105.8 228.99 103.49 231.83 96.35 235.45 91.23 238.05 83.24 247.82 81.11 225.97 87.68 217.8 101.35 210.87 103.9 207.86 108.1 202.88 108.46 201.82 108.46 201.28 110.59 222.24"/><polygon class="cls-1" points="27.11 217.27 26.75 218.34 25.86 219.4 24.8 219.93 16.63 225.32 16.63 225.35 16.6 225.35 16.45 225.44 14.7 226.56 15.03 226.15 15.38 224.91 14.14 214.07 13.43 212.12 3.84 203.24 3.66 202.53 3.66 191.51 12.9 185.83 14.05 185.08 14.17 185 17.34 182.99 17.87 194.53 18.05 194.71 25.15 204.48 25.86 206.26 27.11 217.27"/><line class="cls-3" x1="451.27" y1="98.44" x2="10.79" y2="386.19"/><line class="cls-3" x1="344.34" y1="0.21" x2="12.2" y2="218.34"/><polygon class="cls-2" points="14.32 517.63 11.3 519.64 11.24 518.93 13.25 517.63 14.32 517.63"/><path class="cls-1" d="M199.82,576.11l-.36,1.25-.89.89-1.06.71-8.32,5.32,0,.18-.27.71a4,4,0,0,1-7.19.18l-.89-8.17L182,577l.89,7.46.53,1.07,1.07.71,1.24.35,1.07-.53.89-1.06.35-1.25-1.15-8.88-.27-2-.71-1.78-2.54-3.23-5.27-6.72-.18-.53-.18-5.3-.06-2.22-.12-3.67,9.24-5.45,3-2,.71,11.55.18.35,6.92,9.59.72,1.78.26,1.92v0Z" transform="translate(-175.55 -24.38)"/><path class="cls-2" d="M607.15,288.36" transform="translate(-175.55 -24.38)"/><line class="cls-3" x1="403.66" y1="306.88" x2="403.66" y2="306.87"/><polyline class="cls-3" points="400.32 268.87 400.32 268.83 398.47 247.76 398.46 247.71"/><polyline class="cls-3" points="394.71 205.05 394.71 205 392.86 183.96 392.86 183.91"/><path class="cls-3" d="M471,102" transform="translate(-175.55 -24.38)"/><path class="cls-3" d="M472.79,122.89" transform="translate(-175.55 -24.38)"/><line class="cls-3" x1="292.67" y1="46.56" x2="292.36" y2="42.98"/><polyline class="cls-3" points="396.03 165.4 394.4 147.14 394.4 147.11 394.25 145.51"/><line class="cls-1" x1="207.97" y1="13.89" x2="215.03" y2="94.53"/><path class="cls-1" d="M185.18,251.25v0" transform="translate(-175.55 -24.38)"/><path class="cls-1" d="M192,250.41a2.5,2.5,0,0,1-.28,1" transform="translate(-175.55 -24.38)"/><polyline class="cls-1" points="11.48 141.78 14.01 184.44 14.05 185.08"/><path class="cls-1" d="M180.88,265.24c.05.86.11,1.74.17,2.64,1.74,27.89,4.7,74.65,6.83,108.38,0,.21,0,.42,0,.63" transform="translate(-175.55 -24.38)"/><path class="cls-1" d="M181.13,238.31a2.81,2.81,0,0,0-.71.71" transform="translate(-175.55 -24.38)"/><path class="cls-1" d="M181.89,237.93c.29-.12.57-.19.83-.28a3.48,3.48,0,0,1,2.53.23" transform="translate(-175.55 -24.38)"/><path class="cls-1" d="M186.22,238.59a3.93,3.93,0,0,1,1,2.35c0,.06,0,.12,0,.18" transform="translate(-175.55 -24.38)"/><path class="cls-1" d="M187.39,242.06c.31,2.75.53,5.09.53,5.09" transform="translate(-175.55 -24.38)"/><polyline class="cls-3" points="14.52 547.98 24.44 541.97 163.97 450.9 180.45 440.13 211.36 419.97 451.27 263.39"/></svg>