<svg id="Layer_1" data-name="Layer 1" xmlns="http://www.w3.org/2000/svg" viewBox="0 0 349.63 566.42">
    <defs>
        <style>
        .cls-1 {
            fill: #404041;
        }
        
        .cls-2 {
            fill: #6d6e70;
        }
        
        .cls-3 {
            fill: #929497;
        }
        
        .cls-4 {
            fill: #a6a8ab;
        }
        
        .cls-5,
        .cls-6 {
            fill: none;
            stroke: #231f20;
            stroke-miterlimit: 10;
        }
        
        .cls-5 {
            stroke-width: 0.18px;
        }
        
        .cls-6 {
            stroke-width: 0.5px;
        }
        
        .cls-7 {
            fill: #94937f;
        }
        
        .cls-8 {
            fill: #d0d2d3;
        }
        
        .cls-9 {
            fill: #808184;
        }
        
        .cls-10 {
            fill: #58595b;
        }
        </style>
    </defs>
    <title>Flushwall TG_1</title>
    <polygon class="cls-1" points="48.01 152.89 48.01 153.33 2.65 127.55 2.66 127.54 2.92 127.31 48.01 152.89" />
    <polygon class="cls-1" points="213.37 246.72 213.37 247.32 162.03 218.14 162.03 217.59 213.37 246.72" />
    <polygon class="cls-1" points="349.63 324.04 349.17 324.51 276.95 283.46 276.95 282.8 349.63 324.04" />
    <polygon class="cls-2" points="48.01 153.32 48.01 156.61 2.65 130.75 2.65 127.54 2.66 127.54 48.01 153.32" />
    <polygon class="cls-2" points="213.37 247.32 213.37 250.87 162.03 221.61 162.03 218.14 213.37 247.32" />
    <polygon class="cls-2" points="349.17 324.51 349.17 328.29 276.95 287.12 276.95 283.46 349.17 324.51" />
    <polygon class="cls-1" points="48.01 171.16 48.01 172.65 3.04 146.8 2.65 146.58 2.65 145.31 48.01 171.16" />
    <polygon class="cls-1" points="213.37 265.39 213.37 267.12 162.03 238.08 162.03 236.13 213.37 265.39" />
    <polygon class="cls-1" points="349.29 340.52 349.29 343.98 346.54 342.43 276.95 303.07 276.95 301.62 346.53 341.27 346.53 341.28 346.54 341.28 349.29 340.52" />
    <polygon class="cls-3" points="48.01 160.35 48.01 171.14 0 143.78 0 133.03 48.01 160.35" />
    <polygon class="cls-3" points="158.12 226.1 158.52 227.08 158.52 227.09 158.29 227.69 157.84 227.77 157.84 227.78 157.12 227.67 156.42 226.74 156.33 225.81 156.93 225.49 156.94 225.49 157.34 225.47 158.12 226.1" />
    <polygon class="cls-3" points="213.37 254.46 213.37 265.39 162.03 236.13 162.03 225.24 213.37 254.46" />
    <polygon class="cls-3" points="346.75 330.37 346.53 341.27 346.53 341.28 276.95 301.62 276.95 290.64 346.75 330.37" />
    <polygon class="cls-4" points="48.01 156.6 48.01 160.35 0 133.03 2.65 130.74 48.01 156.6" />
    <polygon class="cls-4" points="213.37 250.87 213.37 254.46 162.03 225.24 162.03 221.6 213.37 250.87" />
    <polygon class="cls-4" points="349.17 328.29 346.75 330.37 276.95 290.64 276.95 287.12 349.17 328.29" />
    <polygon class="cls-1" points="2.92 237.71 48.01 263.29 48.01 263.72 2.65 237.94 2.92 237.71" />
    <polygon class="cls-1" points="213.37 357.12 213.37 357.72 162.03 328.54 162.03 327.99 213.37 357.12" />
    <polygon class="cls-1" points="349.63 434.44 349.17 434.91 276.95 393.86 276.95 393.2 349.63 434.44" />
    <polygon class="cls-2" points="2.65 237.94 48.01 263.72 48.01 267.01 2.65 241.15 2.65 237.94" />
    <polygon class="cls-2" points="213.37 357.72 213.37 361.27 162.03 332.01 162.03 328.54 213.37 357.72" />
    <polygon class="cls-2" points="349.17 434.91 349.17 438.69 276.95 397.52 276.95 393.86 349.17 434.91" />
    <polygon class="cls-1" points="2.65 255.71 48.01 281.56 48.01 283.05 3.04 257.2 2.65 256.98 2.65 255.71" />
    <polygon class="cls-1" points="213.37 375.78 213.37 377.52 162.03 348.48 162.03 346.53 213.37 375.78" />
    <polygon class="cls-1" points="349.29 450.92 349.29 454.38 346.54 452.83 276.95 413.47 276.95 412.01 346.53 451.66 346.53 451.67 346.54 451.67 349.29 450.92" />
    <polygon class="cls-3" points="0 243.43 48.01 270.75 48.01 281.54 0 254.18 0 243.43" />
    <polygon class="cls-3" points="158.12 337.46 158.52 338.45 158.29 339.05 157.84 339.13 157.84 339.14 157.12 339.03 156.42 338.1 156.33 337.17 156.93 336.85 156.94 336.85 157.34 336.83 158.12 337.46" />
    <polygon class="cls-3" points="213.37 364.86 213.37 375.78 162.03 346.52 162.03 335.64 213.37 364.86" />
    <polygon class="cls-3" points="346.75 440.77 346.53 451.66 346.53 451.67 276.95 412.01 276.95 401.04 346.75 440.77" />
    <polygon class="cls-4" points="2.65 241.14 48.01 267 48.01 270.75 0 243.43 2.65 241.14" />
    <polygon class="cls-4" points="213.37 361.27 213.37 364.86 162.03 335.64 162.03 332 213.37 361.27" />
    <polygon class="cls-4" points="349.17 438.69 346.75 440.77 276.95 401.04 276.95 397.52 349.17 438.69" />
    <polygon class="cls-1" points="2.92 349.76 48.01 375.34 48.01 375.77 2.65 349.99 2.66 349.98 2.92 349.76" />
    <polygon class="cls-1" points="162.03 440.04 213.37 469.17 213.37 469.77 162.03 440.59 162.03 440.04" />
    <polygon class="cls-1" points="349.63 546.49 349.17 546.96 276.95 505.91 276.95 505.25 349.63 546.49" />
    <polygon class="cls-2" points="2.66 349.98 48.01 375.76 48.01 379.05 2.65 353.19 2.65 349.98 2.66 349.98" />
    <polygon class="cls-2" points="162.03 440.58 213.37 469.76 213.37 473.32 162.03 444.05 162.03 440.58" />
    <polygon class="cls-2" points="349.17 546.96 349.17 550.74 276.95 509.57 276.95 505.91 349.17 546.96" />
    <polygon class="cls-1" points="2.65 367.76 48.01 393.61 48.01 395.09 3.04 369.24 2.65 369.02 2.65 367.76" />
    <polygon class="cls-1" points="162.03 458.58 213.37 487.83 213.37 489.57 162.03 460.53 162.03 458.58" />
    <polygon class="cls-1" points="349.29 562.96 349.29 566.42 346.54 564.88 276.95 525.52 276.95 524.06 346.53 563.71 346.53 563.72 346.54 563.72 349.29 562.96" />
    <polygon class="cls-3" points="0 355.48 48.01 382.8 48.01 393.59 0 366.23 0 355.48" />
    <polygon class="cls-3" points="158.52 449.82 158.29 450.42 157.84 450.5 157.84 450.51 157.12 450.4 156.42 449.47 156.33 448.54 156.93 448.22 156.94 448.22 157.34 448.2 158.12 448.83 158.52 449.82" />
    <polygon class="cls-3" points="162.03 447.69 213.37 476.91 213.37 487.83 162.03 458.57 162.03 447.69" />
    <polygon class="cls-3" points="346.75 552.82 346.53 563.71 346.53 563.72 276.95 524.06 276.95 513.09 346.75 552.82" />
    <polygon class="cls-4" points="2.65 353.19 48.01 379.05 48.01 382.8 0 355.48 2.65 353.19" />
    <polygon class="cls-4" points="162.03 444.05 213.37 473.32 213.37 476.91 162.03 447.69 162.03 444.05" />
    <polygon class="cls-4" points="349.17 550.74 346.75 552.82 276.95 513.09 276.95 509.57 349.17 550.74" />
    <polygon class="cls-1" points="48.01 36.98 48.01 37.41 2.65 11.63 2.92 11.4 48.01 36.98" />
    <polygon class="cls-1" points="213.37 130.81 213.37 131.41 162.03 102.23 162.03 101.68 213.37 130.81" />
    <polygon class="cls-1" points="349.63 208.13 349.17 208.6 276.95 167.55 276.95 166.89 349.63 208.13" />
    <polygon class="cls-2" points="48.01 37.41 48.01 40.7 2.65 14.84 2.65 11.63 48.01 37.41" />
    <polygon class="cls-2" points="213.37 131.41 213.37 134.96 162.03 105.7 162.03 102.23 213.37 131.41" />
    <polygon class="cls-2" points="349.17 208.6 349.17 212.38 276.95 171.21 276.95 167.55 349.17 208.6" />
    <polygon class="cls-1" points="48.01 55.25 48.01 56.74 3.04 30.89 2.65 30.67 2.65 29.4 48.01 55.25" />
    <polygon class="cls-1" points="213.37 149.47 213.37 151.21 162.03 122.17 162.03 120.22 213.37 149.47" />
    <polygon class="cls-1" points="349.29 224.61 349.29 228.07 346.54 226.52 276.95 187.16 276.95 185.71 346.53 225.36 346.54 225.37 349.29 224.61" />
    <polygon class="cls-3" points="48.01 44.44 48.01 55.23 0 27.87 0 17.12 48.01 44.44" />
    <polygon class="cls-3" points="158.12 114.68 158.52 115.66 158.29 116.27 157.84 116.35 157.84 116.36 157.12 116.24 156.42 115.32 156.33 114.39 156.93 114.07 156.94 114.07 157.34 114.05 158.12 114.68" />
    <polygon class="cls-3" points="213.37 138.55 213.37 149.47 162.03 120.21 162.03 109.33 213.37 138.55" />
    <polygon class="cls-3" points="346.75 214.46 346.53 225.36 276.95 185.71 276.95 174.73 346.75 214.46" />
    <polygon class="cls-4" points="48.01 40.69 48.01 44.44 0 17.12 2.65 14.83 48.01 40.69" />
    <polygon class="cls-4" points="213.37 134.96 213.37 138.55 162.03 109.33 162.03 105.69 213.37 134.96" />
    <polygon class="cls-4" points="349.17 212.38 346.75 214.46 276.95 174.73 276.95 171.21 349.17 212.38" />
    <path class="cls-5" d="M404.09,330.85,377,315.22l8.1,2.15m-8.1-2.15,8.1,7.19" transform="translate(-204.45 -26.5)" />
    <path class="cls-6" d="M362.57,364l-.78-.63-.4,0h0l-.6.32.09.93.7.93.72.11h0l.45-.08.23-.6Z" transform="translate(-204.45 -26.5)" />
    <path class="cls-6" d="M362.57,252.6l-.78-.63-.4,0h0l-.6.32.09.93.7.93.72.11h0l.45-.08.23-.6h0Z" transform="translate(-204.45 -26.5)" />
    <path class="cls-6" d="M362.57,141.18l-.78-.63-.4,0h0l-.6.32.09.93.7.92.72.12h0l.45-.08.23-.61Z" transform="translate(-204.45 -26.5)" />
    <path class="hover_color_change" fill="none" stroke="#000000" stroke-width="0.5644" d="M365.65,87.79l-14-8-1.16.58,1.16.66,6,3.47V530l8.77,5.06V88.28Zm-2.91,389.13-.45.08h0l-.72-.11-.7-.93-.09-.93.6-.32h0l.4,0,.78.63.4,1Zm0-111.37-.45.08h0l-.72-.11-.7-.93-.09-.93.6-.32h0l.4,0,.78.63.4,1Zm.23-112-.23.6-.45.08h0l-.72-.11-.7-.93-.09-.93.6-.32h0l.4,0,.78.63.4,1Zm0-111.43-.23.61-.45.08h0l-.72-.12-.7-.92-.09-.93.6-.32h0l.4,0,.78.63Z" transform="translate(-204.45 -26.5)" />
    <polygon class="cls-6" points="158.52 449.82 158.29 450.42 157.84 450.5 157.84 450.51 157.12 450.4 156.42 449.47 156.33 448.54 156.93 448.22 156.94 448.22 157.34 448.2 158.12 448.83 158.52 449.82" />
    <polygon class="hover_color_change" fill="none" stroke="#000000" stroke-width="0.5644" points="146.65 61.78 146.65 507.26 98.44 479.48 98.44 33.91 105.56 38.02 111.59 41.51 111.59 41.52 146.07 61.45 146.65 61.78" />
    <polygon class="hover_color_change" fill="none" stroke="#000000" stroke-width="0.5644" points="153.26 57.97 153.26 503.54 146.65 507.26 146.65 61.78 153.26 57.97" />
    <polygon class="cls-6" points="153.26 57.97 146.65 61.78 146.07 61.45 146.07 53.84 147.23 54.5 153.26 57.97" />
    <path class="cls-6" d="M310,64.55v0m-6-11.05v0" transform="translate(-204.45 -26.5)" />
    <polygon class="hover_color_change" fill="none" stroke="#000000" stroke-width="0.5644" points="268.19 83.6 268.19 529.17 261.57 532.97 261.57 87.41 268.19 83.6" />
    <polygon class="hover_color_change" fill="none" stroke="#000000" stroke-width="0.5644" points="261.57 87.41 261.57 532.97 213.37 505.11 213.37 59.54 221.06 64 261.06 87.1 261.57 87.41" />
    <line class="cls-6" x1="214.45" y1="58.97" x2="214.45" y2="58.94" />
    <polygon class="cls-6" points="221.06 55.16 214.45 58.94 214.45 51.36 221.06 55.16" />
    <polygon class="cls-6" points="221.06 55.16 221.06 63.99 213.37 59.54 214.45 58.94 221.06 55.16" />
    <path class="cls-6" d="M307.28,57.93v-.07m-6-6v0M425.51,90.51h0" transform="translate(-204.45 -26.5)" />
    <polygon class="hover_color_change" fill="none" stroke="#000000" stroke-width="0.5644" points="96.21 32.67 96.21 478.15 48.01 450.37 48.01 4.81 55.7 9.26 95.7 32.37 96.21 32.67" />
    <polygon class="cls-6" points="55.7 0.43 55.7 9.26 48.01 4.81 49.11 4.19 55.7 0.43" />
    <line class="cls-5" x1="55.7" y1="9.27" x2="55.7" y2="9.26" />
    <polygon class="cls-6" points="105.56 29.78 105.56 38.02 98.44 33.91 102.83 31.36 105.56 29.78" />
    <polygon class="cls-6" points="102.83 28.87 96.21 32.67 95.7 32.37 95.72 32.34 95.72 24.74 96.79 25.36 99.52 26.94 102.83 28.87" />
    <polygon class="hover_color_change" fill="none" stroke="#000000" stroke-width="0.5644" points="111.59 32.67 111.59 41.51 105.56 38.02 105.56 29.78 102.83 31.36 98.44 33.91 98.44 476.91 96.21 478.15 96.21 32.67 102.83 28.87 99.52 26.94 96.79 25.36 95.72 24.74 96.79 24.16 99.52 25.73 99.77 25.88 100.7 26.42 111.59 32.67" />
    <polygon class="cls-6" points="268.19 83.6 261.57 87.41 261.06 87.1 261.08 87.08 261.08 79.47 262.15 80.09 268.19 83.6" />
    <polygon class="cls-7" points="273.96 356.27 273.73 356.87 273.28 356.96 272.56 356.85 271.86 355.92 271.77 354.99 272.37 354.67 272.38 354.67 273.14 355.29 273.56 355.29 273.96 356.27" />
    <polygon class="cls-7" points="273.96 244.91 273.73 245.51 273.28 245.6 272.56 245.49 271.86 244.56 271.77 243.63 272.37 243.31 272.38 243.31 272.78 243.29 273.56 243.92 273.96 244.91" />
    <polygon class="cls-7" points="273.56 355.28 273.14 355.28 272.38 354.67 272.78 354.65 273.56 355.28" />
    <path class="hover_color_change" fill="none" stroke="#000000" stroke-width="0.5644" d="M466.6,105.39l-1.07.58,1.07.62,6,3.51V555.82L481.4,561v-447Zm10.22,53h0l.4,0,.78.63.4,1-.23.6-.45.09-.72-.11-.7-.93-.09-.93Zm0,111.42h0l.4,0,.78.63.4,1-.23.6-.45.09L477,272l-.7-.93-.09-.93Zm0,111.36h0l.4,0,.78.63h-.42l-.76-.61.76.62H478l.4,1-.23.6-.45.09-.72-.11-.7-.93-.09-.93Zm0,111.37h0l.4,0,.78.64.4,1-.23.6-.45.09-.72-.11-.7-.93-.09-.93Z" transform="translate(-204.45 -26.5)" />
    <polygon class="cls-7" points="273.96 133.49 273.73 134.09 273.28 134.18 272.56 134.07 271.86 133.14 271.77 132.21 272.37 131.89 272.38 131.89 272.78 131.87 273.56 132.5 273.96 133.49" />
    <polygon class="cls-7" points="273.96 467.64 273.73 468.24 273.28 468.33 272.56 468.22 271.86 467.29 271.77 466.36 272.37 466.04 272.38 466.04 272.78 466.02 273.56 466.66 273.96 467.64" />
    <path class="cls-5" d="M411.5,530.81l6-.25m-18.19.66,6-.25m-18.19.58,6.12-.17M375,532l6.12-.17m-18.19.58,6-.17" transform="translate(-204.45 -26.5)" />
    <polygon class="cls-8" points="158.1 115.66 157.84 116.35 157.84 116.36 157.12 116.24 156.42 115.32 156.33 114.39 156.93 114.07 156.94 114.07 157.7 114.68 158.1 115.66" />
    <polygon class="cls-9" points="158.52 115.66 158.1 115.66 157.7 114.68 158.12 114.68 158.52 115.66" />
    <polygon class="cls-4" points="158.12 114.68 157.7 114.68 156.94 114.07 157.34 114.05 158.12 114.68" />
    <polygon class="cls-10" points="158.52 115.66 158.29 116.27 157.84 116.35 158.1 115.66 158.52 115.66" />
    <polygon class="cls-8" points="158.1 227.08 158.1 227.09 157.84 227.77 157.84 227.78 157.12 227.67 156.42 226.74 156.33 225.81 156.93 225.49 156.94 225.49 157.7 226.1 158.1 227.08" />
    <polygon class="cls-9" points="158.52 227.08 158.52 227.09 158.1 227.09 158.1 227.08 157.7 226.1 158.12 226.1 158.52 227.08" />
    <polygon class="cls-4" points="158.12 226.1 157.7 226.1 156.94 225.49 157.34 225.47 158.12 226.1" />
    <polygon class="cls-10" points="158.52 227.08 158.52 227.09 158.29 227.69 157.84 227.77 158.1 227.09 158.1 227.08 158.52 227.08" />
    <polygon class="cls-8" points="158.1 338.45 157.84 339.13 157.84 339.14 157.12 339.03 156.42 338.1 156.33 337.17 156.93 336.85 156.94 336.85 157.7 337.46 158.1 338.45" />
    <polygon class="cls-9" points="158.52 338.45 158.1 338.45 157.7 337.46 158.12 337.46 158.52 338.45" />
    <polygon class="cls-4" points="158.12 337.46 157.7 337.46 156.94 336.85 157.34 336.83 158.12 337.46" />
    <polygon class="cls-10" points="158.52 338.45 158.29 339.05 157.84 339.13 158.1 338.45 158.52 338.45" />
    <polygon class="cls-8" points="158.1 449.82 157.84 450.5 157.84 450.51 157.12 450.4 156.42 449.47 156.33 448.54 156.93 448.22 156.94 448.22 157.7 448.83 158.1 449.82" />
    <polygon class="cls-9" points="158.52 449.82 158.1 449.82 157.7 448.83 158.12 448.83 158.52 449.82" />
    <polygon class="cls-4" points="158.12 448.83 157.7 448.83 156.94 448.22 157.34 448.2 158.12 448.83" />
    <polygon class="cls-10" points="158.52 449.82 158.29 450.42 157.84 450.5 158.1 449.82 158.52 449.82" />
    <polygon class="cls-8" points="273.55 133.49 273.28 134.18 272.56 134.07 271.86 133.14 271.77 132.21 272.37 131.89 272.38 131.89 273.14 132.5 273.55 133.49" />
    <polygon class="cls-9" points="273.96 133.49 273.55 133.49 273.14 132.5 273.56 132.5 273.96 133.49" />
    <polygon class="cls-4" points="273.56 132.5 273.14 132.5 272.38 131.89 272.78 131.87 273.56 132.5" />
    <polygon class="cls-10" points="273.96 133.49 273.73 134.09 273.28 134.18 273.55 133.49 273.96 133.49" />
    <polygon class="cls-8" points="273.55 244.91 273.28 245.6 272.56 245.49 271.86 244.56 271.77 243.63 272.37 243.31 272.38 243.31 273.14 243.93 273.55 244.91" />
    <polygon class="cls-9" points="273.96 244.91 273.55 244.91 273.14 243.93 273.14 243.92 273.56 243.92 273.96 244.91" />
    <polygon class="cls-4" points="273.56 243.92 273.14 243.92 272.38 243.31 272.78 243.29 273.56 243.92" />
    <polygon class="cls-10" points="273.96 244.91 273.73 245.51 273.28 245.6 273.55 244.91 273.96 244.91" />
    <polygon class="cls-8" points="273.55 356.27 273.28 356.96 272.56 356.85 271.86 355.92 271.77 354.99 272.37 354.67 272.38 354.67 273.14 355.29 273.55 356.27" />
    <polygon class="cls-9" points="273.96 356.27 273.55 356.27 273.14 355.29 273.56 355.29 273.96 356.27" />
    <polygon class="cls-4" points="273.56 355.28 273.14 355.28 272.38 354.67 272.78 354.65 273.56 355.28" />
    <polygon class="cls-10" points="273.96 356.27 273.73 356.87 273.28 356.96 273.55 356.27 273.96 356.27" />
    <polygon class="cls-8" points="273.55 467.64 273.28 468.33 272.56 468.22 271.86 467.29 271.77 466.36 272.37 466.04 272.38 466.04 273.14 466.66 273.55 467.64" />
    <polygon class="cls-9" points="273.96 467.64 273.55 467.64 273.14 466.66 273.56 466.66 273.96 467.64" />
    <polygon class="cls-4" points="273.56 466.66 273.14 466.66 272.38 466.04 272.78 466.02 273.56 466.66" />
    <polygon class="cls-10" points="273.96 467.64 273.73 468.24 273.28 468.33 273.55 467.64 273.96 467.64" />
</svg>