<svg id="Layer_1" data-name="Layer 1" xmlns="http://www.w3.org/2000/svg" viewBox="0 0 521.28 527.57"><defs><style>.cls-1,.cls-6,.cls-7,.cls-9{fill:none;}.cls-1,.cls-6,.cls-7,.cls-8,.cls-9{stroke:#000;stroke-miterlimit:10;}.cls-1,.cls-8{stroke-width:0.5px;}.cls-2{fill:#4e2011;}.cls-3{fill:#7c4431;}.cls-4{fill:#ae7e5e;}.cls-5{fill:#c69f85;}.cls-6{stroke-width:0.08px;}.cls-7{stroke-width:0.24px;}.cls-8{fill:#fff;}.cls-9{stroke-width:0.18px;}</style></defs><title>Locktight Coping_2</title><polygon class="cls-1" points="491.78 104.66 491.78 116.75 441.28 145.91 441.28 133.82 491.78 104.66"/><polygon class="cls-1" points="515.49 90.91 515.49 133.11 441.28 176.02 441.28 145.91 491.78 116.75 491.78 104.66 515.49 90.91"/><polygon class="cls-1" points="395.76 21.68 340.6 53.65 333.17 48.94 323.69 54.63 307.53 44.24 307.57 44.2 383.44 0.34 395.76 21.68"/><polygon class="cls-1" points="432.75 111.77 428.8 114.06 422.08 117.94 323.69 54.63 333.17 48.94 340.6 53.65 432.75 111.77"/><polygon class="cls-1" points="515.49 90.91 491.78 104.66 490.75 104.14 491.55 103.71 491.55 100.86 474.24 94.46 427.57 121.45 426.23 120.62 422.08 117.94 428.8 114.06 432.27 116.04 432.75 111.77 340.6 53.65 395.76 21.68 515.49 90.91"/><polygon class="cls-1" points="414.73 145.91 287.42 219.41 7.18 210.16 274.61 55.82 277.65 57.8 414.45 145.75 414.73 145.91"/><polygon class="cls-2" points="510.99 148.36 510.99 150.18 479.22 168.43 479.22 192.85 477.79 193.8 477.79 170.81 476.61 170.09 420.85 202.14 420.1 200.84 510.99 148.36"/><polygon class="cls-3" points="345.26 247.11 345.26 253.23 339.97 250.15 345.26 247.11"/><polygon class="cls-1" points="421.37 203.05 414.02 207.32 412.83 208.03 411.65 208.7 347.87 245.6 346.69 246.28 345.26 247.11 339.97 250.15 326.57 242.29 414.73 191.43 418.96 198.82 420.1 200.84 420.85 202.14 421.37 203.05"/><polygon class="cls-4" points="19.54 291.38 19.54 315.86 7.35 308.77 7.35 284.29 19.54 291.38"/><polygon class="cls-3" points="20.81 290.65 20.81 315.03 20.7 315.11 19.55 315.86 19.55 291.36 20.73 290.69 20.81 290.65"/><polygon class="cls-5" points="20.81 290.65 20.73 290.69 19.55 291.36 7.34 284.29 8.6 283.58 20.81 290.65"/><polygon class="cls-4" points="379.99 485.54 379.92 485.66 321.71 452.03 320.37 451.28 319.1 450.53 319.1 461.91 255.64 425.24 255.64 422.99 267.97 430.18 273.46 426.98 300.33 442.47 301.6 440.29 301.61 440.29 342.03 463.62 347.38 466.7 379.99 485.54"/><polygon class="cls-1" points="515.26 408.52 515.26 408.51 504.76 402.32 504.76 372.15 510.45 368.87 515.26 366.09 515.51 365.95 515.85 408.86 515.26 408.52"/><polygon class="cls-2" points="510.75 400.06 510.75 403.11 420.28 455.28 419.02 456.01 416.37 454.52 417.63 453.79 420.28 452.26 510.75 400.06"/><polygon class="cls-3" points="512.11 369.96 512.11 399.27 510.75 400.06 420.28 452.26 417.63 453.79 416.37 454.52 415.55 455 386.44 471.77 385.18 472.51 385.18 443.19 397 436.36 512.11 369.96"/><polygon class="cls-3" points="512.11 402.32 512.11 454.23 419.02 508.02 419.02 456.01 420.28 455.28 510.75 403.11 512.11 402.32"/><polygon class="cls-3" points="416.92 484.8 416.92 509.18 385.18 527.57 385.18 503.08 386.44 502.35 415.55 485.59 416.92 484.8"/><polygon class="cls-3" points="416.92 457.27 416.92 481.75 415.55 482.54 386.44 499.3 386.44 499.32 385.18 500.04 385.18 475.56 386.44 474.82 415.55 458.06 416.92 457.27"/><polygon class="cls-2" points="415.55 482.54 415.55 485.59 386.44 502.35 386.44 499.3 415.55 482.54"/><polygon class="cls-4" points="419.02 456.01 419.02 508.02 416.92 506.76 416.92 484.8 415.55 483.96 415.55 482.54 416.92 481.75 416.92 457.27 415.55 456.54 415.55 455 416.37 454.52 419.02 456.01"/><polygon class="cls-2" points="415.55 455 415.55 458.06 386.44 474.82 386.44 471.77 415.55 455"/><polygon class="cls-1" points="326.86 379.32 321.63 382.37 316.39 385.41 316.39 385.4 317.32 376.21 317.55 373.95 319.51 375.08 319.52 375.09 326.86 379.32"/><polygon class="cls-1" points="432.78 331.04 333.41 383.09 326.72 379.24 319.52 375.08 319.51 375.08 317.55 373.95 410.87 325.24 410.85 325.2 410.73 325.15 410.97 325.02 413.18 323.86 413.26 323.82 416.91 321.9 420.03 323.7 432.78 331.04"/><polygon class="cls-1" points="410.87 325.24 317.55 373.95 410.73 325.15 410.85 325.2 410.87 325.24"/><polygon class="cls-1" points="491.75 349.08 488.61 350.88 474.3 359.06 489.12 347.5 489.14 347.5 491.43 348.88 491.75 349.08"/><polygon class="cls-1" points="515.51 365.95 515.26 366.09 510.45 368.87 504.76 372.15 484.62 383.78 484.42 383.88 484.27 383.97 483.76 384.27 481.66 385.49 478.94 387.07 396.14 434.88 383.78 428 383.61 427.89 304.64 382.69 307.5 381.23 307.51 381.23 307.51 381.22 307.52 381.22 316.39 385.4 321.63 382.37 326.86 379.33 333.41 383.09 333.06 387.89 380.14 362.83 383.62 360.98 432.43 334.99 474.3 359.07 488.61 350.89 515.26 365.81 515.51 365.95"/><polygon class="cls-1" points="491.75 349.08 491.75 352.63 488.61 350.88 491.75 349.08"/><polygon class="cls-1" points="491.43 345.71 491.43 348.88 489.14 347.5 489.42 347.27 491.43 345.71"/><path class="cls-1" d="M521.78,354a6.9,6.9,0,0,0,.64-.3.19.19,0,0,1,0,.33C522.42,353.9,522,354,521.78,354Z" transform="translate(-98.64 -42.8)"/><path class="cls-1" d="M523.23,353.26h0l.06,0Z" transform="translate(-98.64 -42.8)"/><path class="cls-1" d="M525.52,355.11a3.46,3.46,0,0,0,.38-.25s0,0,0-.06a.63.63,0,0,1,0,.24C525.69,355.21,525.58,355.17,525.52,355.11Z" transform="translate(-98.64 -42.8)"/><polygon class="cls-1" points="491.43 345.72 489.41 347.28 489.13 347.5 489.12 347.5 474.3 359.06 432.43 334.98 432.78 331.04 420.03 323.7 437.7 314.66 491.43 345.72"/><path class="cls-1" d="M452.19,388.64a.75.75,0,0,1-.37.24Z" transform="translate(-98.64 -42.8)"/><path class="cls-1" d="M462,383.46a30.82,30.82,0,0,1-5.81,2.63l39-24.71,5.91,2.74-.08.13-.55-.32-.4.34c.19-.07.45,0,.47.12-.62.54-1.82.57-1.92.37l-1.51,1.18c0-.12.08-.24.2-.37-.44.39-.21-.48-.79.22.15,0,0,.27.06.37a4,4,0,0,0-2.06.86v-.35c-1.25.55-2.53,1.44-3.91,2.13.55-.12.63.43.25.68l-.34-.35c-.15.4.49-.05.09.55-.54.21-.55-.32-.31-.61l-.56.47c-.09-.11,0-.26,0-.44-.15.4-1.26.11-1.44.76l-.08-.11c-1.38.69-1.94,1.16-3.06,1.75.13.38-.34.52-.55,1a16.34,16.34,0,0,0-2.89,1c-.62.53-.07.42-.3.8-.18-.32-1.16.21-.75-.29a21.15,21.15,0,0,0-2.89,1.87c.22.06.43,0,.38.19-.25.2-.68.17-.7,0l.05-.07c-1.48,1.36-4.3,1-5.36,2.37l.06-.08L471,379.35c-.66.26.29-.45-.27-.42-1.28,1.32-2.42,1.12-3.5,2.12-1.37-.52-3.38,1.79-4.94,1.81l.17.19c-.24.4-.46.07-.73.14C461.82,383.36,462.16,383.22,462,383.46Z" transform="translate(-98.64 -42.8)"/><path class="cls-1" d="M509.51,368l-93.32,48.71L416,419,415,428.2,406.16,424h0l-5.61-2.65,24.8-15.71h0l1.73-1.1.6-.38,2.68-1.69a.67.67,0,0,1,.14-.09,4,4,0,0,0,.84-.44c.07.28.36.25.6.32-.1-.18.94-.45.84-1l.71.06c1.08-.38.86-1.34,1.88-1.75-.18.44.34.4-.23.93.33-.16.64-.26.57-.44.26.06.77-.82,1.17-.72.1-.18,0-.48.41-.65a.11.11,0,0,1,0,.11c0-.14.48-.45.06-.57,1.35.31,2.81-1.49,4-1.23.68-.45,1.51-1,2.16-1.32,0,.1,0,.13-.09.17,1-.21.25-1,1.38-1.28.69.16-.45.51-.06.5.49.79,1.19-.74,2.08-.58l-.15.13c.64,0,1.15-1,2-1.34,0,0,0,.1,0,.13a7.75,7.75,0,0,1,2.24-2c-.12.47-.3.37,0,.63.35-.23-.33-.49.37-1,.32.06.91,0,1.13.28l-.69.37c.55.3.9-.47,1.3-.57l0,.23c1-.61.84-1.14,2-1.68l-.19-.09c.42-.84.65,0,1.12-.68l.4.43a16.72,16.72,0,0,1,2-1.71,9.1,9.1,0,0,1-1.5,1.74c.41-.21,1.38-.74,1.49-1.11-.15.13-.3.37-.5.37a3.71,3.71,0,0,1,1.74-1.61c.26,1.09,2.23-.82,3.15-.33,1.29-1.1,2.93-1.29,4.59-2.2-.92-.49.48-.27,0-1,.37-.25.53-.31.58-.27l1.39-.12c.38.09-.3.37-.19.53.88-.37.5.16,1.15.09-.23-.23.13-.57.67-.7l-.84,0c1-1,1.31.16,2.35-.88l-.28.45c.56-.47,2.29-1.15,2.64-2.11.15,0,.38.18.13.38,1.52-.65,3-2.36,4.34-2.54l0,.25c.25-.19.33-.61.76-.59,0,.09,0,.26.1.2s.59-.72,1-.79l-.23.39c1.56-.47,2-1.67,3.17-2.42.23.59,1.44.2,2.05,0l0,.09c1.71-.78,2.66-1.93,4.13-3,1.23.15,3.37-1.38,5.07-1.82-.25,0-.12-.47.13-.67.42-.07.85-.92,1-.35l-.14.05c.49.39,1.18-.13,1.78-.41l-.19-.75c1.95.25,3.87-2.4,5.08-1.91.29-.37.75-.6,1.05-1l.13.39.55-.22,4.54,2.11.12,0Z" transform="translate(-98.64 -42.8)"/><polygon class="cls-1" points="316.39 385.4 316.39 385.41 307.51 381.23 307.5 381.23 307.51 381.22 307.52 381.22 316.39 385.4"/><polygon class="cls-1" points="432.78 331.04 432.43 334.98 333.06 387.89 333.41 383.09 432.78 331.04"/><path class="cls-1" d="M372.24,407.35l-21.9-12.8-3.14-1.81-7-4-12.29-7v.06l13.18,7.64.63.37,5.28,3.06-.19.1,7.81,4.5,1.08.63,17.69,10.21.32.18,10,5.76,11.45,6.62,8.11,4.67Zm110,63.34-79-45.2v51l48,27.7L461.37,510l21,12.16V470.8Z" transform="translate(-98.64 -42.8)"/><path class="cls-1" d="M346.86,445.35V392.92l.19-.1-5.28-3.06-.63-.37L328,381.75,105.82,253v53.28L327.12,434.4l19.53,11.31.2-.35,13.52,7.8Zm-13-28.77,1.06-.74v0l1-.61,1.47.11,1.57,1,1.37,1.89.73,2L341,422l-.84,1.16-1.05.52h0l-1.24.32-1.58-.63-1.36-1.47-1.06-1.9-.31-1.89Z" transform="translate(-98.64 -42.8)"/><polygon class="cls-1" points="248.01 402.91 247.98 402.95 228.46 391.69 228.44 391.69 228.44 391.67 228.48 391.6 248.01 402.91"/><polygon class="cls-1" points="272.4 416.51 274.64 417.81 272.38 416.51 262.17 410.61 272.4 416.51"/><path class="cls-1" d="M393,472h0v0l-19.72-11.38Z" transform="translate(-98.64 -42.8)"/><path class="cls-1" d="M393,472l.58.34h0L393,472A0,0,0,0,0,393,472Z" transform="translate(-98.64 -42.8)"/><polygon class="cls-1" points="295 429.55 304.64 435.12 294.98 429.55 295 429.55"/><polygon class="cls-1" points="383.78 479.38 380.1 485.58 380 485.52 347.38 466.7 342.03 463.62 301.61 440.29 301.6 440.29 304.64 435.12 304.64 433.67 352.61 461.37 362.73 467.22 383.78 479.38"/><path class="cls-1" d="M522.42,353.7a.19.19,0,0,1,0,.33c0-.13-.33,0-.59,0A6.9,6.9,0,0,0,522.42,353.7Z" transform="translate(-98.64 -42.8)"/><path class="cls-1" d="M523.23,353.25l.06,0-.06,0Z" transform="translate(-98.64 -42.8)"/><path class="cls-1" d="M525.52,355.11a3.46,3.46,0,0,0,.38-.25s0,0,0-.06a.63.63,0,0,1,0,.24C525.69,355.21,525.58,355.17,525.52,355.11Z" transform="translate(-98.64 -42.8)"/><path class="cls-1" d="M406.15,424h0Zm21.51-19.84-.22-.59c-.78,0-1,1-1.78.84.31.17.32.07,0,.53.26-.07.64-.5,1-.7l-.69.9,1.27-.91-.24.31Zm79.9-40.06c-.11.4-.22.8-.6,1l.15-.4a15,15,0,0,1-2.28,1.14l4.54,2.11.24-.13,2.21-1.16.08,0Zm-22.6-13h0l-111.31,57-1-.56-.42-.23-.29-.16-17.19-9.92-7.69-4.46h0l-.19.1,7.81,4.5,1.08.63,17.69,10.21.32.18,10,5.76,11.45,6.61,8.11,4.68,2.86-1.46-5.61-2.65,24.8-15.71h0c-.09-.11-.08-.33-.36-.32-.54.57-1.39.19-1.79.63.06-.06.1-.13.06-.19-.42.31-.76.44-.8.74l.43-.11c-.35.15-.28.5-1,.65-.3.36-.36.86.06.66-.15.13-.6.11-.56-.19-1,.5-.15,1.08-1.28,1.2.06-.06.11-.14,0-.16a1.47,1.47,0,0,0-.42.16c.39-.37-.61-.39.36-.73-.28-.36-.81.31-1.2.31-.39.54.19.63,0,1,0-.13-.26,0-.52,0l.36.2a2.35,2.35,0,0,0-.63.4l.37-.34c-.48.18-1.37,0-2,.72.16-.23.47-.7-.12-.59-.79.63-.26,0-.85,0-.83.51.08.64-1.27,1.09-.13.06.07.18.24.2-.86.27-1.25.68-2,.89.28,0,.43,0,.08.31.11-.36-.79.11-1.18.11l0,.2c-.33,0-.08-.24.11-.41,0,.06.11.07.26,0,.37-.34,0-.86-.71-.59-.64.5-.36.87-.17,1-1,.31-.59,1.17-1.59,1.38-.2.1-1.14-.19-1.82.08-.19.53.92-.14.67.36-1.45-.35-2,1.68-3.65,1.86v-.53a5.18,5.18,0,0,0-1,.51H404c-.29.27-1.11.57-1,.11-.6.74-.84.61-1.58.84.75-.33,0,.06.48-.44a2.33,2.33,0,0,0-1.36.72c0-.2-.35-.3-.56-.2a7.39,7.39,0,0,1-2,1.28c-1.52.44-1.62-1-.28-1.7.09,0,.1.27,0,.4.53-.67,1.75,0,1.64-.81l-.26.07c1.36-.55,2.6-1.79,3.92-2.56.48.26-.76.44-.29.8,1-.31,1.82-1.15,2.9-1.52-.15.13-.09.16-.16.23,1.13-.24-.28-.36.6-.73,0,.23.1.26.43.22l.12-.46a.48.48,0,0,1,.1.38c.29-.58,1.45-.86,1.57-1.39.12.06.06.56.25.66a1.67,1.67,0,0,0,1-.74c.44.13,1.2-.31,1.05-.17.88-.28,0-.3.56-.87l-.73.14,1.11-.68-.37.44c.59-.11,1-.74,1.61-1l-.38-.09.64-.51c.27.46.95-.34.79.43,1.37-.4,2-1.42,3.07-2.06-.06.07,0,.12,0,.2a2.4,2.4,0,0,0,1.36-1.17c0,.2-.16.33-.11.47.82-.41.38-.54,1.23-1.14-.17.33,0,.4.22.33-.11-.17,0-.4.19-.54-.28,1.33,1.17-.1,1.06.88,0-.24,1.08-1.26.7-1.52,1.15-1,2.61-1.36,4-2.33-.09.17-.6.64-.19.53,1.49-.58,2.11-1.51,3.45-2.49.32.6-1.52.88-1.33,1.51,1.46-.91,2.94-1.92,4.5-3.1,1,.63,1.49-1.2,2.83-1-.22-.25.26-.63.82-.92-.09.35.51,0,.42.31.38-.53,1.78-1.37,2-.74-.1-.65,1.08-.52,1.33-1.13.72-.1,1.3-.81,2.16-1-.38-.2.47-.49.83-.77-.05.06-.08.11,0,.13.36.2.79-.73,1.31-.77.26,0,.09.36.43.23-.1-.27,1-1.18,1.55-1.08-.21.1-.16.23-.24.4,1.92-1.51,4.38-2.1,6.32-3.71l-.2.63a1.74,1.74,0,0,0,.46-.08h0a.75.75,0,0,0,.37-.24,0,0,0,0,0,0,0l4-2.54a30.82,30.82,0,0,0,5.81-2.63c.15-.24-.19-.1-.3-.27.27-.07.49.26.73-.14l-.17-.19c1.56,0,3.57-2.33,4.94-1.81,1.08-1,2.22-.8,3.5-2.12.56,0-.39.68.27.42l1.25-1.08-.06.08c1.06-1.39,3.88-1,5.36-2.37l-.05.07c0,.18.45.21.7,0,0-.16-.16-.13-.38-.19a21.15,21.15,0,0,1,2.89-1.87c-.41.5.57,0,.75.29.23-.38-.32-.27.3-.8a16.34,16.34,0,0,1,2.89-1c.21-.47.68-.61.55-1,1.12-.59,1.68-1.06,3.06-1.75l.08.11c.18-.65,1.29-.36,1.44-.76,0,.18-.09.33,0,.44l.56-.47c-.24.29-.23.82.31.61.4-.6-.24-.15-.09-.55l.34.35c.38-.25.3-.8-.25-.68,1.38-.69,2.66-1.58,3.91-2.13V367a4,4,0,0,1,2.06-.86c0-.1.09-.33-.06-.37.58-.7.35.17.79-.22-.12.13-.22.25-.2.37l1.51-1.18c.1.2,1.3.17,1.92-.37,0-.13-.28-.19-.47-.12l.4-.34.55.32.08-.13.39-.63.18.41c.44-.33.42-.95.82-1.11a6,6,0,0,1,2.25-.29Zm-57.3,53.06-.22-.59c-.78,0-1,1-1.78.84.31.17.32.07,0,.53.26-.07.64-.5,1-.7l-.69.9,1.27-.91-.24.31Z" transform="translate(-98.64 -42.8)"/><path class="cls-1" d="M539.77,355.72l-3.34,1.7-.09,0-17.67,9-3.12-1.8-3.65,1.92-4.34-2.5a1.39,1.39,0,0,1,.52-.92l.42.46c1.25-.64,2.71-.78,3.74-1.91a.37.37,0,0,1-.16.4c.58-.28,2.3-.74,2-1.36.29.3,1.29-.71,1.85-1.24l0,.43c.38-.76.34-.9,1.09-1.43.18,0,.26.15.07.22.6-.14.3-.59,1.11-.76l-.19.38c.66-.3.56-.4.8-.86s1.26-.52,1.49-.24a1,1,0,0,1,.67-.79c.1.1,0,.25-.06.32,1.18-.29,1.43-1.24,2.32-1.25a.27.27,0,0,0,.22.16c-.78.38-1.42.68-1.5.7.15.32.84,0,.48.79.46-.54,1.18-1.57,1.92-1.76a.5.5,0,0,1,.14.08l-.06.07a.82.82,0,0,0,.41-.27,2.45,2.45,0,0,0,.6-.18c.19.24.85-.25,1.2-.41-.18-.35.29-.53-.23-.61a1,1,0,0,1-.29.2,1.5,1.5,0,0,0-.13.11s0,0,0,0l-.85.46c.2-.33.42-.63.88-.62.08-.33.18-.67.24-.85.69.29,1.71.11,2,.36,0,0,.34-.24.72-.57,1.06-.93,2.5-2.61-1.65-2.17a3.76,3.76,0,0,1-.52.27l-.3-.4c-.24.14-.47.29-.71.46-.83.56-1.67,1.25-2.59,1.79,0-.17.16-.42-.17-.41a17.3,17.3,0,0,1-4.85,2l-.4.68c-.13.06-.31-.06-.2-.2-.63.14.07.26-.15.55s-.52,0-.36-.23c-.87.84-2.58,2.16-3.82,2.28l.17-.22c-.9.26-.62,1.27-1.53,1.3l.12-.14c-1.87.73-3.71,2.09-5.32,2.2,0,.69-1.88.64-1.67,1.48l-.25,0L485,351.12l21.4-11h0l3.36-1.74h0l3.34,1.93.16.09Z" transform="translate(-98.64 -42.8)"/><polygon class="cls-1" points="333.41 383.09 326.86 379.33 321.63 382.37 316.39 385.4 317.32 376.21 317.55 373.95 319.51 375.08 319.52 375.08 326.72 379.24 333.41 383.09"/><path class="cls-1" d="M527.3,351a3.76,3.76,0,0,1-.52.27l-.3-.4c-.24.14-.47.29-.71.46-.83.56-1.67,1.25-2.59,1.79,0-.17.16-.42-.17-.41a17.3,17.3,0,0,1-4.85,2l-.4.68c-.13.06-.31-.06-.2-.2-.63.14.07.26-.15.55s-.52,0-.36-.23c-.87.84-2.58,2.16-3.82,2.28l.17-.22c-.9.26-.62,1.27-1.53,1.3l.12-.14c-1.87.73-3.71,2.09-5.32,2.2,0,.69-1.88.64-1.67,1.48l-.25,0a6,6,0,0,0-2.25.29c-.4.16-.38.78-.82,1.11l-.18-.41-.39.63-.08.13-.55-.32-.4.34c.19-.07.45,0,.47.12-.62.54-1.82.57-1.92.37l-1.51,1.18c0-.12.08-.24.2-.37-.44.39-.21-.48-.79.22.15,0,0,.27.06.37a4,4,0,0,0-2.06.86v-.35c-1.25.55-2.53,1.44-3.91,2.13.55-.12.63.43.25.68l-.34-.35c-.15.4.49-.05.09.55-.54.21-.55-.32-.31-.61l-.56.47c-.09-.11,0-.26,0-.44-.15.4-1.26.11-1.44.76l-.08-.11c-1.38.69-1.94,1.16-3.06,1.75.13.38-.34.52-.55,1a16.34,16.34,0,0,0-2.89,1c-.62.53-.07.42-.3.8-.18-.32-1.16.21-.75-.29a21.15,21.15,0,0,0-2.89,1.87c.22.06.43,0,.38.19-.25.2-.68.17-.7,0l.05-.07c-1.48,1.36-4.3,1-5.36,2.37l.06-.08L471,379.35c-.66.26.29-.45-.27-.42-1.28,1.32-2.42,1.12-3.5,2.12-1.37-.52-3.38,1.79-4.94,1.81l.17.19c-.24.4-.46.07-.73.14.11.17.45,0,.3.27a30.82,30.82,0,0,1-5.81,2.63l-4,2.54a0,0,0,0,1,0,0,.75.75,0,0,1-.37.24h0a1.74,1.74,0,0,1-.46.08l.2-.63c-1.94,1.61-4.4,2.2-6.32,3.71.08-.17,0-.3.24-.4-.57-.1-1.65.81-1.55,1.08-.34.13-.17-.2-.43-.23-.52,0-.95,1-1.31.77,0,0,0-.07,0-.13-.36.28-1.21.57-.83.77-.86.22-1.44.93-2.16,1-.25.61-1.43.48-1.33,1.13-.18-.63-1.58.21-2,.74.09-.26-.51,0-.42-.31-.56.29-1,.67-.82.92-1.34-.18-1.87,1.65-2.83,1-1.56,1.18-3,2.19-4.5,3.1-.19-.63,1.65-.91,1.33-1.51-1.34,1-2,1.91-3.45,2.49-.41.11.1-.36.19-.53-1.35,1-2.81,1.35-4,2.33.38.26-.7,1.28-.7,1.52.11-1-1.34.45-1.06-.88-.15.14-.3.37-.19.54-.27.07-.39,0-.22-.33-.85.6-.41.73-1.23,1.14,0-.14.09-.27.11-.47a2.4,2.4,0,0,1-1.36,1.17c0-.08-.06-.13,0-.2-1.11.64-1.7,1.66-3.07,2.06.16-.77-.52,0-.79-.43l-.64.51.38.09c-.62.31-1,.94-1.61,1l.37-.44-1.11.68.73-.14c-.52.57.32.59-.56.87.15-.14-.61.3-1.05.17a1.67,1.67,0,0,1-1,.74c-.19-.1-.13-.6-.25-.66-.12.53-1.28.81-1.57,1.39a.48.48,0,0,0-.1-.38l-.12.46c-.33,0-.39,0-.43-.22-.88.37.53.49-.6.73.07-.07,0-.1.16-.23-1.08.37-1.89,1.21-2.9,1.52-.47-.36.77-.54.29-.8-1.32.77-2.56,2-3.92,2.56l.26-.07c.11.79-1.11.14-1.64.81.14-.13.13-.44,0-.4-1.34.7-1.24,2.14.28,1.7a7.39,7.39,0,0,0,2-1.28c.21-.1.59,0,.56.2a2.33,2.33,0,0,1,1.36-.72c-.45.5.27.11-.48.44.74-.23,1-.1,1.58-.84-.12.46.7.16,1-.11h-.59a5.18,5.18,0,0,1,1-.51v.53c1.65-.18,2.2-2.21,3.65-1.86.25-.5-.86.17-.67-.36.68-.27,1.62,0,1.82-.08,1-.21.58-1.07,1.59-1.38-.19-.09-.47-.46.17-1,.68-.27,1.08.25.71.59-.15.09-.25.08-.26,0-.19.17-.44.38-.11.41l0-.2c.39,0,1.29-.47,1.18-.11.35-.32.2-.36-.08-.31.78-.21,1.17-.62,2-.89-.17,0-.37-.14-.24-.2,1.35-.45.44-.58,1.27-1.09.59,0,.06.66.85,0,.59-.11.28.36.12.59.66-.7,1.55-.54,2-.72l-.37.34a2.35,2.35,0,0,1,.63-.4l-.36-.2c.26-.07.47-.17.52,0,.17-.33-.41-.42,0-1,.39,0,.92-.67,1.2-.31-1,.34,0,.36-.36.73a1.47,1.47,0,0,1,.42-.16c.06,0,0,.1,0,.16,1.13-.12.26-.7,1.28-1.2,0,.3.41.32.56.19-.42.2-.36-.3-.06-.66.73-.15.66-.5,1-.65l-.43.11c0-.3.38-.43.8-.74,0,.06,0,.13-.06.19.4-.44,1.25-.06,1.79-.63.28,0,.27.21.36.32l1.73-1.1.24-.31-1.27.91.69-.9c-.41.2-.79.63-1,.7.31-.46.3-.36,0-.53.76.19,1-.84,1.78-.84l.22.59,2.68-1.69a.67.67,0,0,1,.14-.09,4,4,0,0,0,.84-.44c.07.28.36.25.6.32-.1-.18.94-.45.84-1l.71.06c1.08-.38.86-1.34,1.88-1.75-.18.44.34.4-.23.93.33-.16.64-.26.57-.44.26.06.77-.82,1.17-.72.1-.18,0-.48.41-.65a.11.11,0,0,1,0,.11c0-.14.48-.45.06-.57,1.35.31,2.81-1.49,4-1.23.68-.45,1.51-1,2.16-1.32,0,.1,0,.13-.09.17,1-.21.25-1,1.38-1.28.69.16-.45.51-.06.5.49.79,1.19-.74,2.08-.58l-.15.13c.64,0,1.15-1,2-1.34,0,0,0,.1,0,.13a7.75,7.75,0,0,1,2.24-2c-.12.47-.3.37,0,.63.35-.23-.33-.49.37-1,.32.06.91,0,1.13.28l-.69.37c.55.3.9-.47,1.3-.57l0,.23c1-.61.84-1.14,2-1.68l-.19-.09c.42-.84.65,0,1.12-.68l.4.43a16.72,16.72,0,0,1,2-1.71,9.1,9.1,0,0,1-1.5,1.74c.41-.21,1.38-.74,1.49-1.11-.15.13-.3.37-.5.37a3.71,3.71,0,0,1,1.74-1.61c.26,1.09,2.23-.82,3.15-.33,1.29-1.1,2.93-1.29,4.59-2.2-.92-.49.48-.27,0-1,.37-.25.53-.31.58-.27l1.39-.12c.38.09-.3.37-.19.53.88-.37.5.16,1.15.09-.23-.23.13-.57.67-.7l-.84,0c1-1,1.31.16,2.35-.88l-.28.45c.56-.47,2.29-1.15,2.64-2.11.15,0,.38.18.13.38,1.52-.65,3-2.36,4.34-2.54l0,.25c.25-.19.33-.61.76-.59,0,.09,0,.26.1.2s.59-.72,1-.79l-.23.39c1.56-.47,2-1.67,3.17-2.42.23.59,1.44.2,2.05,0l0,.09c1.71-.78,2.66-1.93,4.13-3,1.23.15,3.37-1.38,5.07-1.82-.25,0-.12-.47.13-.67.42-.07.85-.92,1-.35l-.14.05c.49.39,1.18-.13,1.78-.41l-.19-.75c1.95.25,3.87-2.4,5.08-1.91.29-.37.75-.6,1.05-1l.13.39.55-.22a15,15,0,0,0,2.28-1.14l-.15.4c.38-.18.49-.58.6-1a1.39,1.39,0,0,1,.52-.92l.42.46c1.25-.64,2.71-.78,3.74-1.91a.37.37,0,0,1-.16.4c.58-.28,2.3-.74,2-1.36.29.3,1.29-.71,1.85-1.24l0,.43c.38-.76.34-.9,1.09-1.43.18,0,.26.15.07.22.6-.14.3-.59,1.11-.76l-.19.38c.66-.3.56-.4.8-.86s1.26-.52,1.49-.24a1,1,0,0,1,.67-.79c.1.1,0,.25-.06.32,1.18-.29,1.43-1.24,2.32-1.25a.27.27,0,0,0,.22.16c-.78.38-1.42.68-1.5.7.15.32.84,0,.48.79.46-.54,1.18-1.57,1.92-1.76a.5.5,0,0,1,.14.08l-.06.07a.82.82,0,0,0,.41-.27,2.45,2.45,0,0,0,.6-.18c.19.24.85-.25,1.2-.41-.18-.35.29-.53-.23-.61a1,1,0,0,1-.29.2,1.5,1.5,0,0,0-.13.11s0,0,0,0l-.85.46c.2-.33.42-.63.88-.62.08-.33.18-.67.24-.85.69.29,1.71.11,2,.36,0,0,.34-.24.72-.57C530,352.26,531.45,350.58,527.3,351Zm-4.93,3c0-.13-.33,0-.59,0a6.9,6.9,0,0,0,.64-.3A.19.19,0,0,1,522.37,354Zm.86-.77h0l.06,0Zm2.67,1.6s0,0,0-.06a.63.63,0,0,1,0,.24c-.21.17-.32.13-.38.07A3.46,3.46,0,0,0,525.9,354.86Z" transform="translate(-98.64 -42.8)"/><path class="cls-1" d="M403.28,477.92l-3,5.17L399,485.27,372.1,469.78l-2.76-1.62,1.21-2.2h0l2.69-4.79,0,0-8-4.63L361,454l-14.42-8.3,0,0,.2-.35,13.52,7.8.44.25,10.21,5.9,2.26,1.3h0L393,472l0,0a0,0,0,0,1,0,0l.55.32h0Z" transform="translate(-98.64 -42.8)"/><polygon class="cls-1" points="274.64 417.81 272.38 416.51 262.17 410.61 272.4 416.51 274.64 417.81"/><path class="cls-1" d="M393,472v0l-19.72-11.38L393,472Z" transform="translate(-98.64 -42.8)"/><polygon class="cls-1" points="304.64 435.12 294.98 429.55 295 429.55 304.64 435.12"/><path class="cls-1" d="M403.28,425.49v52.43l-9.64-5.57h0L393,472l0,0v0h0l-19.68-11.34h0l-2.24-1.3-10.23-5.9-.44-.25-13.51-7.81V392.92l7.81,4.5,1.08.63,17.69,10.21.32.18,10,5.76,11.45,6.62Z" transform="translate(-98.64 -42.8)"/><polygon class="cls-1" points="272.4 416.51 274.64 417.81 272.38 416.51 262.17 410.61 272.4 416.51"/><path class="cls-1" d="M393,472h0v0l-19.72-11.38Z" transform="translate(-98.64 -42.8)"/><polygon class="cls-1" points="304.64 435.12 294.98 429.55 295 429.55 304.64 435.12"/><path class="cls-1" d="M393.59,424.82c-.06,2.14-.46,4.23-.38,6.13-.46-.17,0-2.08-.5-2.11a25.39,25.39,0,0,1,.41,4.67c-.07.44-.19-.3-.27-.48.17,1.82-.08,3.42.14,5.06,0,0-.09-.2-.12-.36,0,.31-.08.71.13.72l-.05-.32c.31-.43.61,1.38.77,1.47-.59-.66-.17,1.53-.91.51,0,.21.13.49.27.48,0,.3-.13.37-.28,0,.1,1.14.32.79.31,1.8-.1,0-.14-.24-.25-.37a4.05,4.05,0,0,1,.28,1.95c-.06-.06-.14,0-.13-.24,0,1.47.49,2.62.28,4.18-.43-.57-.15.52-.53.51l.1.89.19-.3a13.7,13.7,0,0,1,.12,2.11l-.15-.6.05,1.44.15-.77c.19.81.48,0,.36,1,0-.21,0,.76-.24,1.1h0a2.74,2.74,0,0,1,.14,1.36c-.12.12-.42-.21-.5-.14.31.44.07,1.79.4,2.34-.08-.17-.27-.23-.32-.19l.25.37c-.09.33-.13.37-.28.28-.06,1,.48-.22.26,1,0-.1-.06-.06-.1-.28-.12,1.23.13,2.47,0,3.6-.38.25-.08-1-.41-.72,0,1.68.41,3.56.3,5.15l0-.29c.53.35-.34,4.35-.1,5.23,0-.21-.24-.37-.24-.26,0,1.66.93,2.37,1.16.68a56.39,56.39,0,0,0-.09-5.79c0-.26.19-.56.31-.42a3.93,3.93,0,0,1,0-1.69c.17.7.16-.19.12.71a3.7,3.7,0,0,0,0-2c.25.37.33-.57.26-1l-.19.56a9,9,0,0,1,0-1.26l.33.3c.43-1.66-.66-3.32,0-4.5-.23-.52-.18.91-.45.44a9.92,9.92,0,0,1,.55-1.78c.2-1.06-.48-1.14-.34-2.27-.12.12-.44.19-.55-.7.05-.8.52-.88.61-.34,0,.2,0,.28-.07.26,0,.27.09.62.22.33l-.12-.13c.13-.37.13-1.49.32-1.18-.11-.64-.19-.31-.26.13.19-1,0-1.62.15-2.66-.07.15-.21.28-.21.11.17-1.53-.22-.74-.26-1.81.19-.56.43.32.29-.79.13-.62.32-.06.41.22a5.74,5.74,0,0,1,.22-2.33l.09.53a4.2,4.2,0,0,1,0-.82l-.24.24c0-.29.05-.54.15-.52-.15-.35-.4.15-.61-.52.13-.37-.12-1.25.2-1.32-.12,1.23.32-.07.36,1a2.41,2.41,0,0,1,0-.76s.07.06.08.14c.3-1.14-.35-.64-.33-1.88.18.2.34-.21.31-.42,0,.5-.3.17-.43-.32.15-.77-.09-.89-.07-1.31l-.07.46c-.18-.2-.15-.6-.2-1.17.14,0,.09.53.15.34-.31-.69.34-1.33.14-2.24.13-.37.34,0,.42-.29-.22-1,.26-1,.08-2.06-.24.24-.19.3-.41-.47l.15,1.71-.34-1.15c0,.5.14,1.1.09,1.39-.19-.56-.13-.49-.33-.29.37-.61-.19-1.42.06-2.16l.6.16c.28-1.14-.28-2.2-.11-3.73l-.11.48c-.23-.26,0-1-.11-1.5.2.09.28-.21.4-.39-.15,0,0-1.14-.37-1.37l.27-.64C394.41,418,393.67,421.67,393.59,424.82Z" transform="translate(-98.64 -42.8)"/><path class="cls-1" d="M392,473.87c-.38.87-.31,1.3-.67,2.09-.23.07-.06-.51-.06-.51a1.84,1.84,0,0,0-.66.93c0-.15-.08-.14-.21-.14-.17.29.06.51-.26.72a2.7,2.7,0,0,1,0-.63c-.17.39-.29.87-.47,1.27-.14-.07,0-.43,0-.65a3.41,3.41,0,0,0-.52,1.44l.21-.14c-.09.14-.16-.15-.12-.29.11-.51.36-.36.42-.29l-.13.29c.45.29.59-1,.93-1.44l.08.58.15-.79c.12,0,.29.15.16.43.33-.14.13-.43.44-.5,0,0,0,0,0,.08l.16-.44c0,.14.19.22,0,.36.52-.36.49-1.23.8-1.15l0,.07c.49-.94-.1-.36.14-1.3l.66.29-.1-.36c.06-.07.19-.22.23-.07.11-.5-.22-.13-.08-.43C394.06,471.42,392,473.87,392,473.87Z" transform="translate(-98.64 -42.8)"/><polygon class="cls-1" points="273.47 426.98 267.97 430.18 268.88 428.6 270.7 425.36 273.47 426.98"/><polygon class="cls-1" points="414.61 293.78 414.49 293.82 411.1 295.58 411.09 295.59 407.73 297.33 407.72 297.33 386.32 308.32 386.28 308.32 274.97 365.34 274.02 364.78 273.6 364.55 273.31 364.39 256.12 354.47 248.43 350.01 248.41 350 243.13 346.96 242.5 346.59 241.46 345.97 229.33 338.94 229.32 338.93 7.18 210.16 287.41 219.41 326.53 242.29 326.57 242.29 339.97 250.15 345.26 253.23 346.68 254.06 347.87 254.78 361.34 262.64 414.61 293.78"/><polygon class="cls-1" points="274.64 418.33 274.61 418.36 271.92 423.15 271.91 423.16 270.7 425.36 268.88 428.6 267.97 430.18 255.64 422.99 254.26 422.2 253.18 421.61 252.89 421.45 252.88 421.45 189.43 384.81 189.43 384.83 189.42 384.82 188.15 384.07 186.81 383.28 123.35 346.69 122.09 345.93 120.7 345.14 57.24 308.51 55.86 307.72 54.64 306.97 50.45 304.6 34.76 295.36 7.18 279.16 7.18 279.12 0.34 275.13 7.18 263.47 225.26 389.83 228.42 391.69 228.46 391.69 247.98 402.95 262.4 411.25 266.64 413.7 274.64 418.33"/><polygon class="cls-1" points="189.43 384.81 252.88 421.45 189.43 384.83 189.43 384.81"/><polygon class="cls-1" points="252.89 421.45 253.18 421.61 252.89 421.46 252.89 421.45"/><polygon class="cls-1" points="274.65 418.32 274.64 418.33 266.64 413.7 274.64 418.31 274.65 418.32"/><polygon class="cls-1" points="242.45 377.45 242.35 379.24 241.51 380.4 240.46 380.92 240.44 380.92 239.2 381.24 237.62 380.61 236.26 379.14 235.2 377.24 234.89 375.35 235.2 373.78 236.26 373.04 236.26 373.02 237.31 372.41 238.78 372.52 240.35 373.57 241.72 375.46 242.45 377.45"/><polygon class="cls-1" points="275.12 365.5 275.12 365.64 274.66 416.34 274.64 417.81 274.64 418.33 266.64 413.7 262.4 411.25 248.01 402.91 248.21 402.56 261.73 410.36 248.22 402.55 248.22 350.12 248.41 350.02 275.12 365.5"/><polygon class="cls-4" points="54.64 306.97 54.64 309.22 51.71 307.48 23.74 291.01 8.64 282.12 8.6 282.12 7.18 281.25 7.18 279.11 34.76 295.35 50.45 304.6 54.64 306.97"/><polygon class="cls-4" points="86.37 330.56 86.37 355.02 21.88 317.24 21.88 292.75 21.92 292.75 43.22 305.27 47.21 307.6 49.9 309.18 51 309.82 53.26 311.16 86.37 330.56"/><line class="cls-6" x1="321.72" y1="452.04" x2="321.72" y2="452.02"/><polygon class="cls-3" points="87.61 329.82 87.61 354.19 86.35 355.04 86.35 330.55 87.61 329.82"/><polygon class="cls-5" points="87.59 329.81 86.37 330.56 53.26 311.16 51 309.82 49.9 309.18 47.21 307.6 43.22 305.27 21.88 292.79 21.92 292.75 23.11 292.07 23.14 292.03 45.35 305.07 49.62 307.56 52.39 309.18 52.9 309.5 54.09 310.17 55.35 310.92 87.59 329.81"/><polygon class="cls-3" points="55.88 307.72 55.88 308.38 54.62 309.22 54.62 306.98 55.88 307.72"/><polygon class="cls-2" points="386.44 499.33 386.44 502.37 354.71 483.96 353.44 484.79 353.44 507.71 352.1 506.88 352.1 482.5 288.6 445.83 287.37 446.58 287.37 469.46 285.99 468.74 285.99 444.36 285.98 444.35 222.53 407.7 221.75 408.1 221.15 408.41 221.15 431.32 219.9 430.58 219.88 430.57 219.88 406.11 181.69 384.09 156.42 369.52 155.59 369.99 155.08 370.28 155.08 393.19 155.07 393.18 153.82 392.44 153.82 367.94 90.36 331.28 88.97 332.14 88.97 355.02 87.59 354.19 87.59 329.81 55.35 310.93 54.08 310.17 52.9 309.5 52.38 309.19 49.62 307.57 45.35 305.08 23.14 292.04 23.1 292.08 21.92 292.75 21.88 292.75 21.88 315.9 20.69 315.11 20.81 315.03 20.81 290.65 8.6 283.58 8.6 282.12 8.64 282.12 23.74 291.01 51.71 307.49 54.64 309.23 55.86 308.4 55.86 307.72 57.24 308.51 57.24 310.69 120.7 347.36 122.09 346.65 122.09 345.93 123.35 346.69 123.35 348.86 186.81 385.53 188.15 384.78 188.15 384.07 189.42 384.82 189.42 387.07 189.43 387.08 219.54 404.44 252.88 423.66 252.89 423.65 253.32 423.42 254.26 422.91 254.26 422.2 255.64 422.99 255.64 425.24 319.1 461.91 320.37 461.04 320.37 451.28 321.71 452.03 321.71 463.37 385.17 500.04 386.44 499.33"/><polygon class="cls-2" points="8.6 283.58 20.81 290.65 20.81 290.73 20.73 290.69 8.6 283.58"/><polygon class="cls-2" points="23.14 292.03 45.35 305.07 23.11 292.07 23.14 292.03"/><polygon class="cls-3" points="352.08 482.49 352.08 506.87 350.82 507.71 350.82 483.23 352.08 482.49"/><polygon class="cls-5" points="352.08 482.49 350.82 483.23 287.36 446.56 288.62 445.82 352.08 482.49"/><polygon class="cls-4" points="350.82 483.23 350.82 507.71 287.36 471.04 287.36 446.56 350.82 483.23"/><polygon class="cls-4" points="284.63 445.08 284.63 469.46 221.16 432.89 221.16 408.41 284.63 445.08"/><polygon class="cls-5" points="285.99 444.35 284.63 445.08 221.16 408.41 222.53 407.68 285.99 444.35"/><polygon class="cls-3" points="285.99 444.35 285.99 468.73 284.63 469.46 284.63 445.08 285.99 444.35"/><line class="cls-6" x1="319.09" y1="450.53" x2="319.09" y2="450.44"/><polygon class="cls-4" points="218.53 406.94 218.53 431.32 155.07 394.65 155.07 370.27 218.53 406.94"/><polygon class="cls-5" points="219.9 406.1 218.53 406.94 155.07 370.27 156.44 369.54 219.9 406.1"/><polygon class="cls-3" points="219.9 406.1 219.9 430.58 218.53 431.32 218.53 406.94 219.9 406.1"/><polygon class="cls-3" points="254.26 422.22 254.26 422.92 253.32 423.42 252.89 423.65 252.89 421.45 253.18 421.61 254.26 422.22"/><polygon class="cls-4" points="252.89 421.45 252.89 423.65 219.54 404.44 189.43 387.09 189.43 384.81 252.88 421.45 252.89 421.45"/><polygon class="cls-4" points="152.44 368.69 152.44 393.18 88.98 356.51 88.98 332.13 152.44 368.69"/><polygon class="cls-5" points="153.81 367.96 152.44 368.69 88.98 332.13 90.34 331.29 153.81 367.96"/><polygon class="cls-3" points="153.81 367.96 153.81 392.44 152.44 393.18 152.44 368.69 153.81 367.96"/><polygon class="cls-3" points="188.17 384.07 188.17 384.77 186.8 385.51 186.8 383.28 188.17 384.07"/><polygon class="cls-4" points="186.8 383.28 186.8 385.51 123.34 348.84 123.34 346.66 186.8 383.28"/><polygon class="cls-3" points="122.08 345.93 122.08 346.63 120.71 347.37 120.71 345.14 122.08 345.93"/><polygon class="cls-4" points="120.71 345.14 120.71 347.37 57.25 310.69 57.25 308.5 120.71 345.14"/><polygon class="cls-5" points="386.44 502.35 385.18 503.08 353.45 484.8 354.71 483.96 386.44 502.35"/><polygon class="cls-4" points="385.18 503.08 385.18 527.57 353.45 509.18 353.45 484.8 385.18 503.08"/><polygon class="cls-5" points="416.92 484.8 415.55 485.59 415.55 483.96 416.92 484.8"/><line class="cls-1" x1="229.15" y1="390.24" x2="229.15" y2="382.14"/><line class="cls-1" x1="229.15" y1="373.95" x2="229.15" y2="365.86"/><line class="cls-1" x1="229.15" y1="357.66" x2="229.15" y2="349.57"/><polygon class="cls-1" points="414.61 293.88 414.61 297.59 414.45 297.51 411.1 295.58 414.5 293.83 414.61 293.88"/><polygon class="cls-5" points="416.92 457.27 415.55 458.06 415.55 456.54 416.92 457.27"/><polygon class="cls-2" points="512.11 369.96 397 436.36 385.18 443.19 383.78 442.44 383.78 427.99 396.15 434.87 478.94 387.06 481.66 385.49 483.76 384.26 484.27 383.97 484.43 383.88 510.45 368.87 510.54 369.01 512.11 369.96"/><polygon class="cls-2" points="512.11 402.32 510.75 403.11 510.75 401.58 512.11 402.32"/><line class="cls-7" x1="515.27" y1="408.52" x2="515.27" y2="366.28"/><polygon class="cls-1" points="441.19 312.92 441.19 316.6 437.79 314.62 441.13 312.92 441.19 312.92"/><line class="cls-7" x1="520.73" y1="411.57" x2="515.27" y2="408.52"/><polygon class="cls-3" points="320.37 451.27 320.35 451.28 320.35 461.06 319.09 461.9 319.09 450.53 320.37 451.27"/><polygon class="cls-4" points="385.18 443.19 385.18 472.51 383.78 471.75 383.78 442.44 385.18 443.19"/><polygon class="cls-2" points="386.44 471.77 386.44 474.82 383.78 473.24 383.78 471.75 385.18 472.51 386.44 471.77"/><polygon class="cls-5" points="386.44 474.82 385.18 475.56 383.78 474.8 383.78 473.24 386.44 474.82"/><polygon class="cls-4" points="385.18 475.56 385.18 500.04 321.72 463.37 321.72 452.04 379.93 485.64 380 485.52 380.11 485.57 383.78 479.37 383.78 474.8 385.18 475.56"/><path class="cls-1" d="M523.58,353.05l-.23.14M421.19,404.47l.21-.19.07,0c0-.06.09-.19.2-.3C421.43,404.15,421,404.22,421.19,404.47Zm1.88,1.65.07-.11C423,406.07,423,406.12,423.07,406.12Zm7.13-3.39a.33.33,0,0,1,.14-.24l-2.68,1.69.08.2c1.12-.14,1.57-1.28,2.92-1.72Zm-3.14,1.83-1.73,1.1h0a.2.2,0,0,0,.18.06c.67-.71,1-.11,1.71-.78C426.93,404.8,426.86,404.82,427.06,404.56Zm26-17.24c-.74.33-.52.93-.81,1.31l4-2.54C455.12,386.49,454,386.89,453,387.32Z" transform="translate(-98.64 -42.8)"/><path class="cls-1" d="M567.69,411.66v1.49c0,1.42-2,2.56-4.41,2.56s-4.41-1.14-4.41-2.56v-1.49c0,1.42,2,2.56,4.41,2.56S567.69,413.08,567.69,411.66Z" transform="translate(-98.64 -42.8)"/><ellipse class="cls-1" cx="464.64" cy="368.86" rx="4.41" ry="2.56"/><path class="cls-1" d="M457.42,486.6l1.3-.72c1.24-.69,3.2.49,4.38,2.62s1.15,4.41-.09,5.1l-1.3.72c1.24-.69,1.27-3,.09-5.1S458.66,485.91,457.42,486.6Z" transform="translate(-98.64 -42.8)"/><ellipse class="cls-1" cx="459.57" cy="490.46" rx="2.56" ry="4.41" transform="translate(-279.01 242.16) rotate(-29.06)"/><path class="cls-8" d="M504.1,448.41v1.49c0,1.42-2,2.56-4.41,2.56s-4.41-1.14-4.41-2.56v-1.49c0,1.42,2,2.56,4.41,2.56S504.1,449.83,504.1,448.41Z" transform="translate(-98.64 -42.8)"/><ellipse class="cls-8" cx="401.05" cy="405.6" rx="4.41" ry="2.56"/><polygon class="cls-4" points="477.79 170.81 414.25 207.55 414.02 207.32 421.37 203.05 420.85 202.14 476.61 170.09 477.79 170.81"/><line class="cls-9" x1="510.99" y1="148.36" x2="510.99" y2="148.28"/><line class="cls-1" x1="7.18" y1="210.16" x2="16.9" y2="207.32"/><line class="cls-1" x1="26.62" y1="204.71" x2="36.34" y2="201.86"/><line class="cls-1" x1="287.42" y1="219.41" x2="277.69" y2="215.85"/><line class="cls-1" x1="267.97" y1="212.53" x2="258.25" y2="209.21"/><line class="cls-1" x1="36.34" y1="201.86" x2="56.5" y2="202.57"/><line class="cls-1" x1="76.65" y1="203.29" x2="96.8" y2="204"/><line class="cls-1" x1="116.95" y1="204.71" x2="137.1" y2="205.18"/><line class="cls-1" x1="157.26" y1="205.89" x2="177.65" y2="206.6"/><line class="cls-1" x1="197.8" y1="207.32" x2="217.95" y2="207.79"/><line class="cls-1" x1="238.1" y1="208.5" x2="258.25" y2="209.21"/><polygon class="cls-2" points="346.69 246.28 346.69 254.06 345.26 253.23 345.26 247.11 346.69 246.28"/><polygon class="cls-3" points="411.65 208.7 411.65 233.63 361.35 262.64 347.87 254.77 347.87 245.6 411.65 208.7"/><polygon class="cls-5" points="347.87 245.6 347.87 254.77 346.69 254.06 346.69 246.28 347.87 245.6"/><polygon class="cls-1" points="432.75 111.77 432.27 116.04 428.8 114.06 432.75 111.77"/><polygon class="cls-3" points="512.41 150.89 512.41 175.31 480.64 193.8 480.64 169.15 512.41 150.89"/><polygon class="cls-1" points="491.78 104.66 441.28 133.82 441.28 132.63 490.75 104.14 491.78 104.66"/><polygon class="cls-1" points="520.94 142.59 510.99 148.36 420.1 200.84 418.96 198.82 419 198.78 437.57 187.99 437.96 187.88 438 187.76 445.55 183.37 441.28 176.02 515.49 133.11 520.94 142.59"/><line class="cls-1" x1="414.57" y1="145.63" x2="414.49" y2="145.67"/><polygon class="cls-1" points="491.55 100.86 491.55 103.71 490.75 104.14 441.28 132.63 441.28 130.26 441.01 130.11 441.05 130.03 491.55 100.86"/><polygon class="cls-1" points="491.55 100.86 441.05 130.03 441.01 130.11 427.57 121.45 474.24 94.46 491.55 100.86"/><polygon class="cls-3" points="477.79 170.81 477.79 195.22 414.25 231.97 414.25 207.55 477.79 170.81"/><polygon class="cls-4" points="512.41 150.89 480.64 169.15 479.22 168.43 510.99 150.18 512.41 150.89"/><polygon class="cls-5" points="480.64 169.15 480.64 193.8 479.22 192.85 479.22 168.43 480.64 169.15"/><polygon class="cls-1" points="445.55 183.37 438 187.76 437.57 187.99 419 198.78 418.96 198.82 414.73 191.43 431.8 181.51 432.47 181.16 434.21 180.13 441.28 176.02 445.55 183.37"/><polygon class="cls-2" points="412.83 208.03 412.83 231.26 411.65 231.97 411.65 208.71 412.83 208.03"/><polygon class="cls-5" points="414.25 207.55 414.25 231.97 412.83 231.26 412.83 208.03 414.02 207.32 414.25 207.55"/><polygon class="cls-1" points="414.73 145.91 414.73 191.43 326.54 242.28 287.42 219.41 414.73 145.91"/><path class="cls-1" d="M566.86,126.8v1.49c0,1.42-2,2.56-4.41,2.56s-4.41-1.14-4.41-2.56V126.8c0,1.42,2,2.56,4.41,2.56S566.86,128.22,566.86,126.8Z" transform="translate(-98.64 -42.8)"/><ellipse class="cls-8" cx="463.81" cy="84" rx="4.41" ry="2.56"/><path class="cls-1" d="M503.08,90v1.49c0,1.42-2,2.56-4.41,2.56s-4.41-1.14-4.41-2.56V90c0,1.42,2,2.56,4.41,2.56S503.08,91.45,503.08,90Z" transform="translate(-98.64 -42.8)"/><ellipse class="cls-1" cx="400.03" cy="47.23" rx="4.41" ry="2.56"/><polygon class="cls-1" points="441.28 130.26 433.93 134.49 432.43 135.36 431.4 135.95 414.57 145.63 414.73 145.91 414.45 145.75 277.65 57.8 277.69 57.72 304.49 42.3 307.53 44.24 323.69 54.63 422.08 117.94 426.23 120.62 427.53 121.49 427.57 121.45 441.01 130.11 441.28 130.26"/><polygon class="cls-1" points="441.28 130.26 441.28 176.02 434.21 180.13 432.47 181.16 431.8 181.51 414.73 191.43 414.73 145.91 414.57 145.63 431.4 135.95 432.43 135.36 433.93 134.49 441.28 130.26"/><path class="cls-1" d="M527,175.11c-.26-.1-.29-.22-.27-.31l.43.22.06,0a.61.61,0,0,1-.22.11m-1.26-4.37c.17.13.38.27.61.42a.2.2,0,0,1-.32.14c.14,0-.15-.32-.29-.56m1.44.93h0l.37.21-.37-.2m4.1,2.37c.2.27.12.16-.41-.19l.2-.49c-1.13-.64-2.55-1.11-3.8-1.81.16-.08.46-.08.28-.39a18.16,18.16,0,0,1-4.46-3.34h-.82c-.13-.09-.12-.32.07-.3-.47-.51-.2.21-.58.17s-.27-.49,0-.46c-1.23-.35-3.34-1.2-4.11-2.27l.29,0c-.71-.68-1.48.13-2-.7l.19,0c-1.67-1.32-3.89-2.27-4.84-3.7-.65.35-1.59-1.38-2.25-.73-.75-1-.36-1-1.62-2.13-.36-.28-.91.08-1.44-.15l.27-.39-.94,0v-.67l-.52-.19c.16.14.25.41.14.51-.82-.28-1.49-1.36-1.37-1.57l-1.88-.75c.15-.13.46,0,.75,0-1.16-.18.14-.5-.93-.67,0,.16-.23.19-.3.25a4.38,4.38,0,0,0-1.89-1.43l.32-.18c-1.17-.86-2.66-1.54-4-2.44.4.44-.05.82-.48.6l.14-.5c-.44.08.31.42-.45.38-.48-.38,0-.68.39-.62l-.72-.26c.05-.14.24-.11.4-.24-.44.08-.77-1.1-1.46-.9l.05-.14c-1.36-.89-2.09-1.16-3.21-1.86-.28.33-.66,0-1.2,0a17.52,17.52,0,0,0-2.45-2.11c-.82-.28-.42.16-.88.16.18-.35-.82-1-.14-.85a20.75,20.75,0,0,0-3.24-1.64c.07.23.21.41,0,.45-.31-.12-.52-.53-.37-.66h.1c-2-.62-3.19-3.43-5-3.65l.1,0-1.64-.56c-.6-.47.56,0,.23-.49-1.89-.45-2.31-1.61-3.8-2.06-.26-1.55-3.43-2.13-4.28-3.56l-.09.27c-.49,0-.31-.39-.52-.6-.09.19.21.43-.08.42-3-1.57-5.58-4.1-8.32-6.17-1-.75-1.44.74-2.39-.65l.68-.16c-2.5-.9-4.35-2.85-6.74-3.8.19,0,.29-.13.49,0-.22-.58-1.62-1.07-1.81-.84-.31-.24.09-.27,0-.52-.31-.46-1.39-.35-1.41-.79,0-.07.2,0,.29,0-.39,0-1.32-.91-1.29-.39-.66-.67-1.61-.82-2.09-1.43-.69.11-1.2-1.05-1.73-.6.47-.52-1-1.34-1.73-1.4.29-.06-.3-.45.07-.56-.57-.36-1.17-.59-1.28-.24-.55-1.34-2.49-.83-2.44-2.06-1.9-.79-3.61-1.6-5.21-2.45.47-.52,1.71,1,2.08.41-1.6-.7-2.78-.77-4.11-1.82-.31-.31.39-.1.58-.12-1.6-.7-2.73-1.85-4.23-2.38,0,0,.22,0,.38,0-.27-.14-.52-.46-.68-.19l.3.09c.13.63-1.57.11-1.75.28,1-.44-1.12-1,.23-1.47-.2-.06-.5-.08-.58.12-.21-.21-.21-.36.18-.39-1-.45-.88,0-1.69-.51.09-.12.29-.06.48-.15a2.55,2.55,0,0,1-1.79-.61c.1,0,.09-.19.29-.06-1.21-.73-2.49-.68-3.61-1.75.78-.28-.31-.46,0-1l-.8-.32.11.4c-.61-.4-1.39-.42-1.81-.91l.59.11-1.21-.66.52.59c-.79-.17-.37.62-1.08,0,.2.06-.61-.4-.72-.88h0a1.7,1.7,0,0,1-1.2-.51c0-.22.47-.45.47-.59-.58.19-1.51-.82-2.19-.66a.49.49,0,0,0,.38-.33l-.48.15c-.21-.28-.21-.36,0-.52-.81-.61-.16.76-1-.15.1,0,.09,0,.3,0-.92-.79-2.11-1.08-2.93-1.84.07-.64.9.42.87-.18-1.41-.79-3.2-1.26-4.42-2.21l.2.21c-.67.53-.73-1-1.62-1.07.2.06.47-.12.38-.18-1.35-.85-2.6,0-1.39,1.19A7.76,7.76,0,0,0,403.35,93c.21.13.32.54.13.62a2.44,2.44,0,0,1,1.38.86c-.69-.14,0,.31-.66-.2.61.55.62.85,1.61,1-.48.15.23.73.63.85l-.32-.54a5.53,5.53,0,0,1,1,.67l-.48.29c1,1.42,3.18.81,3.64,2.34.59,0-.62-.7,0-.82.61.48.85,1.5,1.05,1.64.72.81,1.28-.06,2.09.71,0-.22.17-.68,1-.37.61.48.34,1.13-.15,1-.16-.09-.21-.18-.16-.23-.25-.08-.57-.2-.43.12l.19-.09c.21.36,1.12.93.73,1,.6.18.39-.1.08-.41.68.75,1.3.85,2.05,1.55-.08-.17-.07-.42.06-.33,1.13,1,.76.09,1.66.58.32.54-.57.42.43.79.41.49-.18.46-.47.44,1,.23,1.33,1.14,1.74,1.48l-.5-.15a2.55,2.55,0,0,1,.7.36l0-.44c.2.21.41.34.31.46.39,0,.17-.61.86-.55.21.36,1.1.48.93.94-.92-.79-.18.46-1.08,0a1.49,1.49,0,0,1,.61.4c0,.07-.09.06-.18,0,.71,1,.77-.15,1.77.52-.29.13-.07.56.12.62-.4-.27.08-.49.57-.41.52.59.8.33,1.12.57l-.33-.33c.29-.13.6.11,1.1.33-.09.19-.5-.15-.39,0,.79-.06.83,1.13,1.72,1.33.21.36-.27.43-.06.71,1,.23.62.85,1.62,1.15,0-.45-.11-.4.68-.31l-1.5-.67,1.18.14c-.4-.27-1-.37-1.2-.58.59,0,.49.08.48-.29.23.8,1.3.46,1.72,1.18l-.56.71c.73,1,2,.75,3.12,1.75l-.31-.39c.38-.18.81.46,1.3.61-.22.22,0,.47,0,.74.11-.19.91.61,1.38.21l.32.68c.92.79,1.67.06,2.59.78-.49.07-.18.53-1,.3.32.21.58.45.71.28.08.28,1.15.26,1.28.69.22,0,.45-.24.8,0,0,.08-.09.12-.09.12s.69.21.58-.27c.44,1.41,2.85,1.77,3.24,3,.77.38,1.69.86,2.35,1.26-.09,0-.09.12-.2,0,.72.8,1.07-.34,1.89.57.23.73-.7-.14-.48.22-.45.89,1.31.69,1.64,1.6l-.2-.06c.32.61,1.5.53,2.31,1.14,0,0-.09,0-.09.12a7.94,7.94,0,0,1,3,1c-.49.15-.5-.08-.58.34.4.19.27-.58,1.07-.19.11.33.53.82.35,1.2l-.71-.43c0,.67.91.57,1.21.88l-.19.16c1.11.63,1.48.16,2.6.93v-.22c1-.07.32.61,1.21.66l-.17.61a18.94,18.94,0,0,1,2.59.86,9,9,0,0,1-2.38-.42c.4.27,1.41.86,1.8.76-.2-.06-.49-.08-.6-.26a3.79,3.79,0,0,1,2.39.72c-.84.84,1.94,1.61,2,2.72,1.7.59,2.74,2,4.45,3,0-1.12.5.3,1-.52.42.21.56.32.56.39l.85,1.22c.12.4-.49-.08-.58.12.81.61.12.55.54,1.12.08-.34.58-.19,1,.23l-.43-.79c1.49.38.56,1.3,2.06,1.69h-.56c.72.26,2.27,1.48,3.33,1.27,0,.16,0,.46-.28.33,1.41,1,3.76,1.49,4.63,2.61l-.25.11c.31.13.74,0,.94.38-.07.06-.25.11-.13.2a2.4,2.4,0,0,1,1.25.5h-.47c1.26,1.18,2.58.93,3.88,1.59-.41.54.59,1.45,1.09,1.9l-.08.06c1.62,1.16,3.18,1.4,4.89,2.2.52,1.21,3.08,2.37,4.38,3.7-.16-.25.35-.4.67-.27.28.35,1.28.28.86.74L498,156c-.09.66.75,1,1.33,1.41l.58-.59c.82,1.93,4.25,2.25,4.45,3.63.49.08.94.37,1.43.45l-.28.33a16.7,16.7,0,0,0,2.75,1.86l-.44.08c.69.48,1.64-.42,2.31,0l-.19.65c1.25.8,2.16,2.07,3.74,2.39a.38.38,0,0,1-.44.08c.57.39,2,1.82,2.31,1-.33.47,1.24.88,2.07,1.11l-.36.27a2.67,2.67,0,0,1,1.88.22c.15.17,0,.38-.22.13.49.58.73,0,1.35.66l-.44,0c.62.44.66.29,1.2.27s1.15.88,1,1.25a1,1,0,0,1,1.08.18c0,.15-.23.13-.32.12.9.93,1.89.64,2.38,1.45a.29.29,0,0,0,0,.28,13.08,13.08,0,0,1-1.43-1c-.23.32.41.82-.46.9.73.12,2.06.22,2.62.8a.44.44,0,0,1,0,.17h-.1a.84.84,0,0,0,.46.22,2.64,2.64,0,0,0,.48.46c-.12.31.68.65,1,.89.23-.36.64,0,.43-.57,0,.06-.1,0-.33-.14a.67.67,0,0,0-.17-.06h0l-.87-.53a1,1,0,0,1,1,.48c.34-.11.71-.21.89-.25.11.79.82,1.63.73,2C529.44,176.57,535.12,179.15,531.32,174.05Zm1.3,1" transform="translate(-98.64 -42.8)"/><path class="cls-1" d="M531.71,182.67l.27.55c-.4.2-.22,1.18-.37,1.18.13.16.2.42.4.34-.09.46.12,1.07-.11,1.29l-.11-.41c.17,1.32-.39,2.24-.11,3.22l.6-.14c.25.64-.31,1.34.06,1.87-.2-.17-.14-.23-.33.25,0-.25.1-.77.09-1.2l-.34,1,.15-1.48c-.23.67-.17.61-.41.4-.18.92.3.89.08,1.78.09.29.3-.07.42.25-.2.79.45,1.34.14,1.93.06.16,0-.31.15-.3,0,.49,0,.84-.2,1l-.07-.4c0,.36-.22.47-.07,1.13-.13.43-.42.71-.43.28,0,.18.13.54.31.37,0,1.08-.63.64-.33,1.63,0-.07,0-.16.08-.12a1.8,1.8,0,0,1,0,.65c0-.93.48.19.36-.87.32.06.08.81.2,1.14-.21.57-.46.15-.61.45.1,0,.1.19.15.45l-.24-.2a3.14,3.14,0,0,1,0,.71l.09-.46a4.32,4.32,0,0,1,.22,2c.09-.24.28-.72.41-.19-.14,1,.1.2.29.68,0,.92-.43.24-.26,1.56,0,.15-.14,0-.21-.09.13.9,0,1.43.15,2.29-.07-.38-.15-.66-.26-.11.19-.26.19.7.32,1l-.12.11c.13.25.18-.06.22-.29,0,0-.08-.06-.07-.23.09-.46.55-.39.61.3-.1.77-.42.71-.55.61.14,1-.54,1-.34,2a7.76,7.76,0,0,1,.55,1.54c-.27.41-.22-.82-.45-.38.7,1-.39,2.45,0,3.89l.33-.26a6.7,6.7,0,0,1,0,1.09l-.19-.48c-.07.37,0,1.18.26.86a2.77,2.77,0,0,0,0,1.71c0-.78,0,0,.12-.61a2.94,2.94,0,0,1,0,1.46c.12-.12.3.15.31.37a42.08,42.08,0,0,0-.09,5c.23,1.45,1.16.84,1.16-.59,0-.1-.2,0-.24.23.24-.75-.63-4.22-.1-4.52l0,.25a43.58,43.58,0,0,1,.3-4.45c-.32-.27,0,.84-.41.62-.14-1,.12-2,0-3.11,0,.18-.08.15-.1.24-.22-1,.32.06.26-.85-.16.08-.2,0-.28-.24l.25-.32s-.24,0-.32.16c.33-.47.08-1.64.4-2-.08-.07-.37.22-.5.12a2.06,2.06,0,0,1,.14-1.17h0c-.23-.3-.2-1.14-.24-1-.12-.85.18-.17.36-.87l.15.67.05-1.24-.15.52a10.24,10.24,0,0,1,.12-1.82l.19.26.1-.77c-.38,0-.1-.94-.53-.44-.21-1.35.27-2.34.28-3.61,0,.22-.08.15-.13.21a3.07,3.07,0,0,1,.28-1.68c-.12.11-.15.3-.25.32,0-.87.21-.57.31-1.56-.15.3-.24.23-.28,0,.14,0,.23-.23.27-.41-.74.87-.32-1-.91-.44.16-.08.46-1.64.77-1.27l-.05.27c.21,0,.12-.35.13-.62,0,.15-.08.3-.12.32.23-1.41,0-2.8.14-4.37-.08.15-.2.79-.27.41a19,19,0,0,1,.41-4c-.48,0,0,1.67-.5,1.82.08-1.64-.32-3.44-.38-5.29C533.14,179.77,532.4,176.63,531.71,182.67Z" transform="translate(-98.64 -42.8)"/><path class="cls-1" d="M533.6,224.36c.14.26-.19-.06-.08.37,0-.12.17,0,.23.06l-.1.31.66-.25c.24.81-.35.31.14,1.12l0-.06c.31-.06.28.69.8,1-.17-.12,0-.19,0-.31l.16.38s0-.07,0-.07c.31.06.11.31.44.43-.13-.25,0-.37.16-.37l.15.68.08-.5c.34.37.48,1.49.93,1.24l-.13-.25c.06-.06.31-.19.42.25,0,.12,0,.37-.12.25l.21.12c.06-.31-.3-.87-.52-1.24,0,.19.17.5,0,.56-.18-.35-.3-.76-.47-1.1a2,2,0,0,1,0,.54c-.31-.19-.09-.37-.26-.62-.12,0-.21,0-.21.12a1.62,1.62,0,0,0-.66-.81s.17.5-.06.44c-.36-.68-.28-1.06-.67-1.81C534.77,224.85,532.75,222.74,533.6,224.36Z" transform="translate(-98.64 -42.8)"/></svg>