<svg id="Layer_1" data-name="Layer 1" xmlns="http://www.w3.org/2000/svg" viewBox="0 0 491.93 517"><defs><style>.cls-1{fill:none;stroke:#231f20;stroke-miterlimit:10;stroke-width:0.5px;}</style></defs><title>Mortartight Flashing_1svg</title><polygon class="cls-1" points="219.48 232.8 219.48 282.68 41.5 179.93 14.01 164.05 8.15 160.66 8.15 110.78 219.48 232.8"/><line class="cls-1" x1="14.01" y1="164.05" x2="14.01" y2="163.98"/><line class="cls-1" x1="28.94" y1="186.24" x2="28.89" y2="186.22"/><line class="cls-1" x1="102.84" y1="215.62" x2="102.82" y2="215.6"/><polygon class="cls-1" points="103.06 215.46 95.5 219.8 40.64 179.42 103.06 215.46"/><line class="cls-1" x1="167.46" y1="253.01" x2="167.36" y2="252.91"/><line class="cls-1" x1="95.51" y1="219.82" x2="95.5" y2="219.8"/><line class="cls-1" x1="157.99" y1="255.93" x2="157.97" y2="255.92"/><polygon class="cls-1" points="219.48 282.68 219.48 292.49 219.45 292.51 165.57 251.56 219.48 282.68"/><line class="cls-1" x1="167.37" y1="252.89" x2="167.36" y2="252.89"/><polygon class="cls-1" points="181.61 474.49 29.14 386.44 0.63 256.71 153.2 344.76 173.02 435.25 181.61 474.49"/><polygon class="cls-1" points="414.63 187.65 402.75 186.73 398.02 183.99 398.02 180.71 400.43 179.34 414.63 187.65"/><line class="cls-1" x1="400.43" y1="179.34" x2="400.36" y2="179.31"/><line class="cls-1" x1="414.71" y1="187.7" x2="414.65" y2="187.65"/><polygon class="cls-1" points="404.76 116.54 404.76 176.87 400.43 179.34 398.02 180.71 219.48 282.68 219.48 232.8 404.76 116.54"/><polygon class="cls-1" points="404.76 116.54 219.48 232.8 8.15 110.78 195.95 0.29 404.76 116.54"/><polygon class="cls-1" points="161.78 329.86 160.56 331.99 153.2 344.76 0.63 256.71 8.83 242.56 8.87 242.51 63.68 272.33 62.81 273.89 126.15 308.45 125.29 310.01 161.78 329.86"/><polygon class="cls-1" points="398.02 180.71 398.02 189.43 219.48 292.49 219.48 282.68 398.02 180.71"/><line class="cls-1" x1="398.02" y1="180.71" x2="398.02" y2="180.67"/><line class="cls-1" x1="398.02" y1="189.46" x2="398.02" y2="189.43"/><polygon class="cls-1" points="288.2 335.78 280.22 350.23 260.58 385.76 187.76 346.03 188.62 344.47 216.36 294.3 288.2 335.78"/><polygon class="cls-1" points="282.07 351.25 271.58 370.13 262.34 386.74 260.58 385.76 280.22 350.23 282.07 351.25"/><polygon class="cls-1" points="490.85 229.48 474.55 228.21 402.75 186.73 414.63 187.65 414.65 187.65 418.91 188 490.85 229.48"/><polygon class="cls-1" points="402.75 186.73 402.71 186.73 398.02 189.43 398.02 183.99 402.75 186.73"/><polygon class="cls-1" points="474.55 228.21 469.85 230.93 299.72 329.14 288.2 335.78 216.36 294.3 219.45 292.51 219.48 292.54 219.48 292.49 398.02 189.43 402.71 186.73 402.75 186.73 474.55 228.21"/><polygon class="cls-1" points="313.78 420.51 313.78 516.56 173.02 435.25 153.2 344.76 160.56 331.99 313.78 420.51"/><polygon class="cls-1" points="483.92 322.21 483.92 418.36 313.78 516.56 313.78 420.51 483.92 322.21"/><polygon class="cls-1" points="483.92 239.05 483.92 322.21 313.78 420.51 313.78 337.25 483.92 239.05"/><line class="cls-1" x1="160.56" y1="331.99" x2="160.53" y2="331.98"/><line class="cls-1" x1="162.09" y1="329.34" x2="161.78" y2="329.86"/><polygon class="cls-1" points="180.63 480.84 172.92 499.38 171.59 498.62 179.3 480.07 180.63 480.84"/><line class="cls-1" x1="179.3" y1="480.07" x2="179.27" y2="480.06"/><polygon class="cls-1" points="181.61 474.49 179.3 480.07 171.59 498.62 171.36 499.19 18.79 411.04 29.14 386.44 181.61 474.49"/><polygon class="cls-1" points="172.92 499.38 171.36 499.19 171.59 498.62 172.92 499.38"/><line class="cls-1" x1="171.59" y1="498.62" x2="171.56" y2="498.6"/><line class="cls-1" x1="267.32" y1="389.57" x2="264.78" y2="388.2"/><line class="cls-1" x1="280.22" y1="350.23" x2="280.2" y2="350.23"/><polygon class="cls-1" points="483.92 239.05 313.78 337.25 299.72 329.14 469.85 230.93 469.87 230.94 483.92 239.05"/><polygon class="cls-1" points="287.03 353.94 267.32 389.57 265.56 388.59 274.83 371.9 271.61 370.14 271.58 370.13 282.07 351.25 287.03 353.94"/><polygon class="cls-1" points="274.83 371.9 265.56 388.59 262.34 386.83 262.34 386.74 271.58 370.13 271.61 370.14 274.83 371.9"/><polygon class="cls-1" points="313.78 337.25 313.78 420.51 160.56 331.99 161.78 329.86 188.62 344.47 187.76 346.03 260.58 385.76 262.34 386.74 262.34 386.83 265.56 388.59 267.32 389.57 287.03 353.94 282.15 351.11 282.07 351.25 280.22 350.23 288.2 335.78 299.72 329.14 313.78 337.25"/><line class="cls-1" x1="188.64" y1="344.47" x2="188.62" y2="344.47"/><polygon class="cls-1" points="216.36 294.3 188.62 344.47 161.78 329.86 125.29 310.01 126.15 308.45 139.9 283.59 140.06 283.3 140.11 283.2 153.89 258.28 153.92 258.26 216.36 294.3"/><line class="cls-1" x1="126.17" y1="308.45" x2="126.15" y2="308.45"/><polygon class="cls-1" points="153.92 258.26 153.89 258.28 140.11 283.2 140.06 283.3 126.15 308.45 62.81 273.89 63.68 272.33 77.44 247.44 77.59 247.16 91.4 222.19 153.92 258.26"/><polygon class="cls-1" points="40.64 179.42 28.94 186.14 28.89 186.21 14.01 177.55 14.01 164.05 40.64 179.42"/><polygon class="cls-1" points="91.4 222.19 77.59 247.16 77.44 247.44 63.68 272.33 8.87 242.51 0.34 237.88 10.17 220.11 28.89 186.22 28.89 186.21 28.94 186.14 91.4 222.19"/><line class="cls-1" x1="63.69" y1="272.33" x2="63.68" y2="272.33"/><line class="cls-1" x1="176.53" y1="304.25" x2="169.9" y2="300.45"/><line class="cls-1" x1="163.26" y1="296.64" x2="156.62" y2="292.83"/><line class="cls-1" x1="149.98" y1="289.03" x2="143.35" y2="285.12"/><line class="cls-1" x1="136.71" y1="281.31" x2="130.17" y2="277.51"/><line class="cls-1" x1="123.53" y1="273.7" x2="116.89" y2="269.89"/><line class="cls-1" x1="110.25" y1="265.99" x2="103.62" y2="262.18"/><line class="cls-1" x1="96.98" y1="258.37" x2="90.34" y2="254.57"/><line class="cls-1" x1="83.7" y1="250.66" x2="77.07" y2="246.86"/><line class="cls-1" x1="70.43" y1="243.05" x2="63.79" y2="239.24"/><line class="cls-1" x1="57.15" y1="235.44" x2="50.51" y2="231.53"/><line class="cls-1" x1="43.88" y1="227.72" x2="37.24" y2="223.92"/><polyline class="cls-1" points="30.6 220.11 24.06 216.21 18.98 224.99"/><line class="cls-1" x1="13.91" y1="233.78" x2="8.83" y2="242.56"/><line class="cls-1" x1="176.53" y1="304.25" x2="171.75" y2="312.65"/><line class="cls-1" x1="166.87" y1="321.04" x2="162.09" y2="329.34"/><polygon class="cls-1" points="165.57 251.56 157.97 255.92 103.06 215.46 165.57 251.56"/><polygon class="cls-1" points="219.45 292.51 216.36 294.3 153.92 258.26 157.97 255.92 165.57 251.56 219.45 292.51"/><polygon class="cls-1" points="157.97 255.92 153.92 258.26 91.4 222.19 91.42 222.16 95.5 219.8 103.06 215.46 157.97 255.92"/><polygon class="cls-1" points="95.5 219.8 91.42 222.16 91.4 222.19 28.94 186.14 40.64 179.42 95.5 219.8"/><line class="cls-1" x1="483.92" y1="322.21" x2="313.78" y2="420.51"/><line class="cls-1" x1="313.78" y1="420.51" x2="160.56" y2="331.99"/></svg>