<?xml version="1.0" encoding="UTF-8" standalone="no"?>
<svg width="964px" height="742px" viewBox="0 0 964 742" version="1.1" xmlns="http://www.w3.org/2000/svg" xmlns:xlink="http://www.w3.org/1999/xlink">
    <!-- Generator: Sketch 42 (36781) - http://www.bohemiancoding.com/sketch -->
    <title>Group 2</title>
    <desc>Created with Sketch.</desc>
    <defs></defs>
    <g id="Page-1" stroke="none" stroke-width="1" fill="none" fill-rule="evenodd">
        <g id="Group-2" transform="translate(2.000000, 0.000000)" stroke="#000000">
            <polygon id="Shape" stroke-width="1.5" points="960.3 260.1 895.5 297.6 815.4 343.8 800.4 335.1 870.6 294.6 875.4 297.9 923.1 270.3 923.1 264.9 960.3 243.3 960.3 243.3"></polygon>
            <polygon id="Shape" stroke-width="1.5" points="307.5 620.1 284.4 633.3 25.2 483.6 25.2 483.6 6.3 472.8 5.7 472.5 28.5 459 32.7 461.4 34.5 462.3 37.8 464.4 39.9 465.6 39.9 465.6 41.1 466.2 42.9 467.1 44.4 468.3 46.5 469.5 46.5 469.5 49.5 471"></polygon>
            <path d="M502.8,516.3 L374.4,442.2 C374.4,442.2 343.5,461.4 299.7,464.4 C256.8,467.4 212.4,456.3 210.6,456 L210.6,456 L206.1,454.8 L205.2,454.5 C201.6,453.6 196.8,452.4 191.7,451.5 L189,450.9 C187.5,450.6 186,450.3 184.5,450 L184.2,450 C183.9,450 183.6,450 183.3,449.7 C182.4,449.4 181.2,449.4 180.3,449.1 C178.5,448.8 176.7,448.5 174.9,448.5 C174.3,448.5 174,448.5 173.4,448.2 L173.1,448.2 L172.8,448.2 C169.2,447.9 154.8,446.7 138.6,447.3 L138.6,447.3 C135.9,447.3 133.2,447.6 130.5,447.6 L128.4,447.6 L127.8,447.6 C127.2,447.6 126.6,447.6 126,447.9 L125.7,447.9 L124.5,447.9 C123.6,447.9 122.4,448.2 121.5,448.2 L120.9,448.2 C119.1,448.5 117.3,448.8 115.5,449.1 L115.2,449.1 C107.7,450.3 100.8,452.1 94.8,453 L94.8,453 C94.8,453 94.8,453 94.5,453 L94.2,453 L93.9,453 C93.3,453 92.7,453.3 92.1,453.3 L91.8,453.3 C91.5,453.3 90.9,453.6 90.3,453.9 L90.3,453.9 L90.3,453.9 C83.1,456.6 59.7,465.9 52.2,468.9 C50.7,469.5 49.8,469.8 49.8,469.8 L49.8,469.2 L49.8,466.8 L49.8,466.5 L49.8,464.1 L49.8,465 L49.8,462.6 L49.8,462.3 L50.1,462.3 C50.4,462 50.7,461.7 51.6,461.4 C51.9,461.1 52.2,461.1 52.5,460.8 L52.5,460.8 C52.8,460.8 52.8,460.5 53.1,460.5 L53.1,460.5 C53.7,460.2 54,459.9 54.6,459.6 C54.9,459.3 55.2,459.3 55.8,459 L55.8,459 C56.1,459 56.1,458.7 56.4,458.7 L56.7,458.7 L57.9,458.1 C57.9,458.1 58.2,458.1 58.2,457.8 L58.2,457.8 L58.2,457.8 C58.8,457.5 59.4,457.2 59.7,456.9 C60.3,456.6 60.6,456.3 61.2,456.3 L61.2,456.3 C61.2,456.3 61.5,456.3 61.5,456 C61.8,455.7 62.1,455.7 62.4,455.4 L62.7,455.4 C62.7,455.4 63,455.4 63,455.1 C63.6,454.8 64.2,454.5 64.8,454.2 C65.1,454.2 65.1,453.9 65.4,453.9 C65.7,453.6 66.3,453.6 66.6,453.3 C67.2,453 67.8,452.7 68.4,452.4 C68.7,452.1 69.3,452.1 69.9,451.8 L69.9,451.8 L70.2,451.5 C70.8,451.2 71.4,450.9 72,450.6 L72.3,450.6 C72.9,450.3 73.5,450.3 73.8,450 L73.8,450 C74.4,449.7 75,449.7 75.6,449.4 C76.2,449.1 76.8,448.8 77.7,448.8 L78,448.8 C78.6,448.5 79.2,448.5 79.8,448.2 C80.4,447.9 81,447.9 81.9,447.6 L81.9,447.6 C82.2,447.6 82.5,447.3 82.8,447.3 L82.8,447.3 C83.1,447.3 83.4,447 83.7,447 C84,447 84.3,446.7 84.6,446.7 L84.6,446.7 C85.5,446.4 86.4,446.1 87.3,445.8 C87.9,445.8 88.2,445.5 88.8,445.5 C89.1,445.5 89.1,445.5 89.4,445.2 C90,444.9 90.9,444.9 91.5,444.6 C91.8,444.6 92.1,444.6 92.1,444.3 C92.4,444.3 92.7,444.3 93,444 L93.6,444 C94.2,444 94.8,443.7 95.4,443.7 L95.7,443.7 C96.3,443.4 97.2,443.4 97.8,443.4 L98.7,443.4 C99.3,443.4 99.6,443.1 100.2,443.1 L100.2,443.1 C100.8,443.1 101.4,442.8 102,442.8 L102.3,442.8 C103.2,442.8 103.8,442.5 104.7,442.5 L105.3,442.5 L105.3,442.5 C105.9,442.5 106.5,442.2 107.1,442.2 C107.7,442.2 108,441.9 108.6,441.9 L108.6,441.9 L109.5,441.9 C110.4,441.9 111,441.6 111.9,441.6 C112.8,441.6 113.4,441.3 114.3,441.3 L115.2,441.3 C115.8,441.3 116.1,441.3 116.7,441 C117.3,441 117.9,440.7 118.5,440.7 L119.1,440.7 C120,440.7 120.6,440.4 121.5,440.4 L121.5,440.4 C122.1,440.4 123,440.1 123.6,440.1 L124.5,440.1 C125.1,440.1 125.4,439.8 126,439.8 L126,439.8 C126.6,439.8 127.2,439.5 127.5,439.5 L127.8,439.5 C128.7,439.5 129.3,439.2 129.3,439.2 C133.5,438.9 137.7,438.6 141.3,438.6 C154.5,438.3 163.8,438.9 171.9,439.8 C172.5,439.8 173.4,440.1 174,440.1 L174.3,440.1 C175.2,440.1 175.8,440.4 176.7,440.4 L177,440.4 C177.6,440.4 178.2,440.7 179.1,440.7 C179.4,440.7 179.7,440.7 180.3,441 C180.6,441 181.2,441 181.5,441.3 C181.8,441.3 182.4,441.3 182.7,441.6 L183.3,441.6 L183.9,441.6 L184.5,441.6 L184.8,441.6 C185.4,441.6 186,441.9 186.6,441.9 C187.2,441.9 187.8,442.2 188.4,442.2 C189.9,442.5 191.7,442.8 193.2,443.1 C194.4,443.4 195.6,443.7 196.5,444 C196.8,444 196.8,444 197.1,444.3 L197.4,444.3 L197.7,444.3 C198.3,444.3 198.6,444.6 199.2,444.6 C199.5,444.6 199.8,444.6 199.8,444.9 C200.1,444.9 200.7,445.2 201,445.2 C201.9,445.5 202.5,445.5 203.4,445.8 C204.3,446.1 204.9,446.1 205.5,446.4 C206.1,446.7 206.7,446.7 207.3,447 L207.6,447 L207.9,447 L208.8,447.3 C209.4,447.3 209.7,447.6 210,447.6 C210.3,447.6 210.6,447.9 211.2,447.9 C212.4,448.2 213.6,448.5 214.8,449.1 C215.1,449.1 215.7,449.4 216,449.4 C216.9,449.7 217.5,449.7 218.4,450 L220.2,450.6 C220.8,450.6 221.1,450.9 221.7,450.9 L221.7,450.9 C224.1,451.5 226.2,452.1 228.6,452.4 L234,453.3 C237,453.9 240,454.2 243,454.8 L247.2,455.4 C251.1,456 255,456.3 258.6,456.6 L263.4,456.9 C265.2,456.9 266.7,457.2 268.5,457.2 L269.4,457.2 L274.8,457.2 L278.7,457.2 L282.9,457.2 L284.1,457.2 L285.9,457.2 L286.8,457.2 L288.6,457.2 L289.2,457.2 C290.1,457.2 290.7,457.2 291.6,456.9 L291.9,456.9 C292.8,456.9 293.7,456.9 294.6,456.6 L294.6,456.6 C295.5,456.6 296.1,456.6 297,456.3 L297.6,456.3 C298.5,456.3 299.7,456 300.6,456 L301.8,456 C302.4,456 303,456 303.6,455.7 L304.2,455.7 C305.1,455.7 305.7,455.4 306.3,455.4 L306.3,455.4 C307.2,455.4 307.8,455.1 308.7,455.1 L308.7,455.1 C309.6,455.1 310.2,454.8 311.1,454.8 C312.6,454.5 314.1,454.2 315.6,453.9 C316.2,453.9 317.1,453.6 317.7,453.6 C318.6,453.3 319.2,453.3 320.1,453 C320.7,453 321.6,452.7 322.2,452.7 L322.2,452.7 C322.8,452.7 323.1,452.4 323.7,452.4 L324,452.4 L324.6,452.4 C324.9,452.4 325.2,452.4 325.5,452.1 L325.8,452.1 C326.1,452.1 326.7,451.8 327,451.8 C327.6,451.5 328.5,451.5 329.1,451.2 C330.3,450.9 331.8,450.6 332.7,450.3 L333.3,450.3 C334.8,450 336,449.4 337.2,449.1 C337.8,448.8 338.7,448.8 339.3,448.5 C339.9,448.2 340.8,448.2 341.4,447.9 C342,447.6 342.9,447.6 343.5,447.3 C345.3,446.7 347.1,446.1 348.6,445.5 L348.9,445.5 C349.2,445.5 349.5,445.2 349.5,445.2 C350.7,444.9 351.6,444.3 352.5,444 C352.8,444 352.8,444 352.8,443.7 L353.1,443.4 C353.7,443.1 354.3,442.8 355.2,442.5 C355.8,442.2 356.7,441.9 357.3,441.6 L357.6,441.6 C357.9,441.3 358.2,441.3 358.8,441 C359.1,441 359.1,440.7 359.4,440.7 C362.1,439.5 364.8,438.3 367.2,437.1 C368.1,436.5 369,436.2 369.9,435.9 L369.9,435.9 C370.2,435.6 370.8,435.6 371.1,435.3 L372.6,434.4 L372.9,434.4 C373.2,434.4 373.2,434.1 373.5,434.1 C373.8,434.1 373.8,433.8 374.1,433.8 L377.1,435.6 L378.6,436.5 L378.9,436.5 L380.4,437.4 L384.9,440.1 L385.5,440.4 L387,441.3 L388.8,442.2 L391.2,443.7 L392.4,444.3 L394.2,445.2 L395.7,446.1 L397.5,447 L397.8,447 L397.8,447 L401.1,448.8 L402.6,449.7 L404.4,450.6 L408,452.7 L411.3,454.5 L413.1,455.4 L414.9,456.3 L418.2,458.1 L420,459 L421.8,459.9 L423.6,460.8 L423.6,460.8 L426.9,462.6 L428.7,463.5 L429.9,464.4 L433.5,466.5 L435.3,467.4 L436.8,468.3 L441.9,471.3 L443.4,472.2 L445.2,473.1 L448.2,474.9 L448.5,475.2 L450.3,476.1 L451.8,477 L453.6,477.9 L454.5,478.5 L455.4,479.1 L456.9,480 L458.4,480.9 L460.2,481.8 L460.8,482.1 L463.8,483.9 L467.1,485.7 L467.4,486 L468.6,486.9 L473.1,489.6 L473.1,489.6 L473.4,489.9 L475.2,490.8 L477,491.7 L482.1,494.7 L483.9,495.6 L485.4,496.5 L486,496.8 L489,498.6 L490.8,499.5 L492.3,500.4 L497.4,503.4 L498.6,504 L498.6,504 L500.7,505.2 L503.4,506.7 L502.8,516.3 Z" id="Shape" stroke-width="1.5"></path>
            <path d="M575.4,482.4 L495.6,528.6 L415.8,574.8 L210.9,456 L210.9,456 C212.7,456.3 257.1,467.4 300,464.4 C343.8,461.4 374.7,442.2 374.7,442.2 L503.1,516.3 L502.8,507 L506.7,504.9 L508.5,504 L510.6,502.8 L561,473.7 L561,473.7 L561.3,474 L564.9,476.1 L565.2,476.4 L566.4,477.3 L568.2,478.2 L570.9,479.7 L570.9,479.7 L575.4,482.4 L575.4,482.4 Z" id="Shape" stroke-width="1.5"></path>
            <path d="M415.8,574.5 L322.2,628.5 L307.5,620.1 L49.5,471 L50.1,470.7 L52.2,469.8 L54,468.9 L54.3,468.9 L55.8,468 L59.4,466.2 L60.9,465.6 L72.3,460.8 L72.6,460.8 L84,456.9 L85.2,456.6 L86.1,456.3 L90.6,455.1 L90.6,455.1 L90.6,455.1 L94.5,454.2 L94.8,454.2 L95.1,454.2 L99,453.3 L112.8,450.6 L115.5,450.3 L115.8,450.3 L124.8,449.1 L126,448.8 L126.3,448.8 L127.2,448.8 L128.1,448.8 L128.7,448.8 L130.8,448.8 L138.9,448.5 L138.9,448.5 L141.6,448.2 L156.3,448.2 L171,449.1 L172.8,449.4 L173.1,449.4 L173.4,449.4 L184.2,450.9 L184.5,450.9 L185.4,450.9 L189,451.5 L191.7,452.1 L197.7,453.3 L199.5,453.6 L200.1,453.6 L205.5,455.1 L206.4,455.4 L210.9,456.6 L210.9,456.6 L210.9,456.6 L415.8,574.5 Z" id="Shape" stroke-width="1.5"></path>
            <polygon id="Shape" stroke-width="1.5" points="582.6 497.1 503.4 544.8 502.5 542.7 495.6 528.6 495.6 528.3 575.4 482.4"></polygon>
            <polygon id="Shape" stroke-width="1.5" points="742.2 404.4 663 452.4 662.1 450.6 655.5 436.2 735.6 390"></polygon>
            <polygon id="Shape" stroke-width="1.5" points="662.1 450.6 583.2 498.9 582.6 497.1 575.4 482.4 655.5 436.2"></polygon>
            <polygon id="Shape" stroke-width="1.5" points="422.4 589.2 330 645 322.2 628.5 415.8 574.5"></polygon>
            <polygon id="Shape" stroke-width="1.5" points="502.5 542.7 423.3 591 422.4 589.2 415.8 574.5 495.6 528.3 495.6 528.6"></polygon>
            <polygon id="Shape" stroke-width="1.5" points="960.3 260.1 960.3 279 903 314.1 902.1 312 895.5 297.6"></polygon>
            <polygon id="Shape" stroke-width="1.5" points="50.1 356.4 50.1 462.6 21.6 445.8 21.6 337.2"></polygon>
            <polyline id="Shape" stroke-width="1.5" points="331.8 368.7 338.4 367.5 344.1 366.3"></polyline>
            <path d="M374.4,397.2 L374.4,397.2 L374.4,433.2 C374.1,433.2 374.1,433.5 373.8,433.5 C373.5,433.5 373.5,433.8 373.2,433.8 C373.2,433.8 373.2,433.8 372.9,433.8 C369.6,435.3 363.6,438.3 360,440.1 C359.7,440.1 359.4,440.4 359.4,440.4 C358.8,440.7 358.5,440.7 358.2,441 L357.9,441 C357,441.3 356.4,441.6 355.8,441.9 C355.2,442.2 354.3,442.5 353.7,442.8 L353.4,443.1 C353.4,443.1 353.1,443.1 353.1,443.4 C352.2,443.7 351.3,444 350.1,444.6 C349.8,444.6 349.5,444.9 349.5,444.9 L349.2,444.9 C347.7,445.5 346.2,446.1 344.1,446.7 C343.5,447 342.9,447 342,447.3 C341.4,447.6 340.8,447.6 339.9,447.9 C339.3,448.2 338.4,448.2 337.8,448.5 C336.6,448.8 335.1,449.1 333.9,449.7 L333.3,449.7 C332.1,450 330.9,450.3 329.7,450.6 C329.1,450.9 328.2,450.9 327.6,451.2 C327.3,451.2 326.7,451.5 326.4,451.5 L326.1,451.5 C325.8,451.5 325.5,451.5 325.2,451.8 L324.6,451.8 L324.3,451.8 C323.7,451.8 323.4,452.1 322.8,452.1 L322.8,452.1 C322.2,452.4 321.3,452.4 320.7,452.4 C319.8,452.7 319.2,452.7 318.3,453 C317.7,453 316.8,453.3 316.2,453.3 C314.7,453.6 313.2,453.9 311.7,454.2 C310.8,454.2 310.2,454.5 309.3,454.5 L309.3,454.5 C308.4,454.5 307.8,454.8 306.9,454.8 L306.9,454.8 C306.3,454.8 305.4,455.1 304.8,455.1 L304.2,455.1 C303.6,455.1 303,455.1 302.4,455.4 L301.2,455.4 C300.3,455.4 299.1,455.7 298.2,455.7 L297.6,455.7 C296.7,455.7 296.1,455.7 295.2,456 L295.2,456 C294.3,456 293.4,456 292.5,456.3 L292.2,456.3 C291.6,456.3 290.7,456.3 289.8,456.6 L289.2,456.6 L287.4,456.6 L286.5,456.6 L284.7,456.6 L283.5,456.6 L279.3,456.6 L275.4,456.6 L270,456.6 L269.1,456.6 C267.6,456.6 265.8,456.6 264,456.3 L259.2,456 C255.6,455.7 251.7,455.4 247.8,454.8 L243.6,454.2 C240.6,453.9 237.6,453.3 234.6,452.7 L229.2,451.8 C226.8,451.2 224.7,450.9 222.3,450.3 L222.3,450.3 C221.7,450.3 221.4,450 220.8,450 L219,449.4 C218.1,449.1 217.5,449.1 216.6,448.8 C216.3,448.8 215.7,448.5 215.4,448.5 C214.2,448.2 213,447.9 211.8,447.3 C211.5,447.3 211.2,447 210.6,447 C210.3,447 210,446.7 209.4,446.7 L208.5,446.4 L208.2,446.4 L207.9,446.4 C207.3,446.1 206.7,446.1 206.1,445.8 C205.5,445.5 204.9,445.5 204,445.2 C203.1,444.9 202.5,444.9 201.6,444.6 C201.3,444.6 200.7,444.3 200.4,444.3 C200.1,444.3 199.8,444.3 199.8,444 C199.2,444 198.9,443.7 198.3,443.7 L198,443.7 L197.7,443.7 C197.4,443.7 197.4,443.7 197.1,443.4 C195.9,443.1 194.7,442.8 193.8,442.5 C192.3,442.2 190.8,441.9 189,441.6 C188.4,441.6 187.8,441.3 187.2,441.3 C186.6,441.3 186,441 185.4,441 L185.1,441 L184.5,441 L183.9,441 L183.3,441 C183,441 182.4,441 182.1,440.7 C181.8,440.7 181.2,440.7 180.9,440.4 C180.6,440.4 180.3,440.4 179.7,440.1 C179.1,440.1 178.5,439.8 177.6,439.8 L177.3,439.8 C176.4,439.8 175.8,439.5 174.9,439.5 L174.6,439.5 C174,439.5 173.1,439.2 172.5,439.2 C164.4,438.3 155.1,437.7 141.9,438 C138.3,438 134.1,438.3 129.9,438.6 C129.6,438.6 129,438.6 128.4,438.9 L128.1,438.9 C127.8,438.9 127.2,438.9 126.6,439.2 L126.6,439.2 C126,439.2 125.7,439.2 125.1,439.5 L124.2,439.5 C123.6,439.5 122.7,439.8 122.1,439.8 L122.1,439.8 C121.2,439.8 120.6,440.1 119.7,440.1 L119.1,440.1 C118.5,440.1 117.9,440.4 117.3,440.4 C116.7,440.4 116.4,440.7 115.8,440.7 L114.9,440.7 C114,440.7 113.4,441 112.5,441 C111.6,441 111,441.3 110.1,441.3 L109.2,441.3 L109.2,441.3 C108.9,441.3 108.3,441.6 107.7,441.6 C107.1,441.6 106.5,441.9 105.9,441.9 L105.9,441.9 L105.3,441.9 C104.4,441.9 103.8,442.2 102.9,442.2 L102.6,442.2 C102,442.2 101.4,442.5 100.8,442.5 L100.8,442.5 C100.2,442.5 99.9,442.8 99.3,442.8 L98.4,442.8 C97.5,442.8 96.9,443.1 96.3,443.1 L96,443.1 C95.4,443.1 94.8,443.4 94.2,443.4 L93.6,443.4 C93.3,443.4 93,443.4 92.7,443.7 C92.4,443.7 92.1,443.7 92.1,444 C91.2,444.3 90.6,444.3 90,444.6 C89.7,444.6 89.7,444.6 89.4,444.9 C88.8,444.9 88.5,445.2 87.9,445.2 C87,445.5 86.1,445.8 85.2,446.1 L85.2,446.1 C84.9,446.1 84.6,446.4 84.3,446.4 C84,446.4 83.7,446.7 83.4,446.7 L83.4,446.7 C83.1,446.7 82.8,447 82.5,447 L82.5,447 C81.9,447.3 81,447.3 80.4,447.6 C79.8,447.9 79.2,447.9 78.6,448.2 L78.3,448.2 C77.7,448.5 77.1,448.8 76.2,448.8 C75.6,449.1 75,449.1 74.4,449.4 L74.4,449.4 C73.8,449.7 73.2,449.7 72.9,450 L72.6,450 C72,450.3 71.4,450.6 70.8,450.9 L70.5,451.2 L70.5,451.2 C69.9,451.5 69.6,451.5 69,451.8 C68.4,452.1 67.8,452.4 67.2,452.7 C66.9,453 66.3,453 66,453.3 C65.7,453.3 65.7,453.6 65.4,453.6 C64.8,453.9 64.2,454.2 63.6,454.5 L63.3,454.8 L63,454.8 C62.7,455.1 62.4,455.1 62.1,455.4 C62.1,455.4 61.8,455.4 61.8,455.7 L61.8,455.7 C61.2,456 60.9,456.3 60.3,456.3 C59.7,456.6 59.1,456.9 58.8,457.2 L58.8,457.2 L58.8,457.2 C58.8,457.2 58.5,457.2 58.5,457.5 L57.3,458.1 C57.3,458.1 57.3,458.1 57,458.1 C56.7,458.1 56.7,458.4 56.4,458.4 L56.4,458.4 C56.1,458.7 55.5,458.7 55.2,459 C54.6,459.3 54,459.6 53.7,459.9 L53.7,459.9 C53.4,459.9 53.4,460.2 53.1,460.2 L53.1,460.2 C52.8,460.5 52.5,460.5 52.2,460.8 C51.6,461.1 51,461.4 50.7,461.7 L50.4,461.7 L50.4,355.5 L61.5,350.4 L73.5,345.9 L86.4,342.6 L99.9,340.2 L114,338.4 L128.4,337.8 L143.1,338.1 L157.8,339.6 L172.2,342 L186.3,345.3 L200.1,349.5 L213.3,354.6 L227.1,360 L241.5,364.5 L256.5,367.8 L271.8,370.2 L287.4,371.4 L302.7,371.7 L317.7,370.8 L332.1,368.7 L363.9,390 L374.4,397.2 Z" id="Shape" stroke-width="1.5"></path>
            <polygon id="Shape" stroke-width="1.5" points="331.8 368.7 317.4 370.8 302.4 371.7 287.1 371.7 271.5 370.5 256.5 368.1 241.5 364.8 226.8 360.3 213 355.2 200.1 350.1 186.3 345.9 172.2 342.6 157.5 340.2 142.8 338.7 128.1 338.4 113.7 339 99.6 340.8 86.1 343.2 73.2 346.5 61.2 351.3 50.1 356.4 21.6 337.2 173.1 262.5"></polygon>
            <polygon id="Shape" stroke-width="1.5" points="435.3 432 435.3 438 374.4 397.2 363.6 390 173.1 262.5 178.2 259.8 178.5 259.8"></polygon>
            <polygon id="Shape" stroke-width="0.6" points="461.4 417 435.3 432 178.2 259.8 174.3 257.4 201.9 243.6"></polygon>
            <polygon id="Shape" stroke-width="0.6" points="493.2 398.7 466.8 413.7 208.2 240.6 236.1 226.8"></polygon>
            <path d="M466.8,413.7 C462.6,413.1 461.4,417 461.4,417 L201.9,243.6 C201.9,243.6 202.5,241.8 204,240.9 L204.3,240.9 C206.1,240 208.2,240.3 208.2,240.3 L466.8,413.7 Z" id="Shape" stroke-width="0.6"></path>
            <path d="M493.2,398.7 L493.2,404.4 L467.4,419.4 L465.9,420.3 L465.9,439.2 C465.9,439.2 466.8,439.5 465.9,441.6 C465,443.7 464.4,444.9 464.1,444.9 C463.8,444.9 463.5,444.9 463.2,444.6 C462.6,444 462,443.1 462,440.7 L462.6,440.7 L462.6,422.1 L447.3,430.8 L444.9,432.3 L435.3,437.7 L435.6,431.7 L461.4,417 C461.4,417 462.6,413.4 466.8,413.7 L493.2,398.7 Z" id="Shape" stroke-width="1.5"></path>
            <path d="M236.1,226.8 L208.2,240.6 C208.2,240.6 206.4,240.3 204.3,241.2 L228.6,229.2 L236.1,226.8 Z" id="Shape" stroke-width="1.5"></path>
            <path d="M204,241.2 C202.5,242.1 201.9,243.9 201.9,243.9 L174.3,257.4 L167.1,259.5 L204,241.2 Z" id="Shape" stroke-width="1.5"></path>
            <path d="M204.3,241.2 L204,241.2" id="Shape" stroke-width="1.5"></path>
            <polygon id="Shape" stroke-width="1.5" points="166.8 265.5 166.8 259.5 174.3 257.4 178.2 259.8"></polygon>
            <polygon id="Shape" stroke-width="1.5" points="462.3 422.1 462.3 440.7 462 440.7 447.3 430.8"></polygon>
            <path d="M463.2,444.6 L444.9,432.3 L447.3,430.8 L462,440.7 C462,443.1 462.6,444 463.2,444.6 Z" id="Shape" stroke-width="1.5"></path>
            <path d="M502.5,443.4 L502.5,507.3 L499.8,505.8 L497.7,504.6 L497.7,504.6 L496.5,504 L491.4,501 L489.9,500.1 L488.1,499.2 L485.1,497.4 L484.5,497.1 L483,496.2 L481.2,495.3 L476.1,492.3 L474.3,491.4 L472.5,490.5 L472.2,490.2 L472.2,490.2 L467.7,487.5 L466.5,486.6 L466.2,486.3 L462.9,484.5 L459.9,482.7 L459.3,482.4 L457.5,481.5 L456,480.6 L454.5,479.7 L453.6,479.1 L452.7,478.5 L450.9,477.6 L449.4,476.7 L447.6,475.8 L447.3,475.5 L444.3,473.7 L442.5,472.8 L441,471.9 L435.9,468.9 L434.4,468 L432.6,467.1 L429,465 L427.8,464.1 L426,463.2 L422.7,461.4 L422.7,461.4 L420.9,460.5 L419.1,459.6 L417.3,458.7 L414,456.9 L412.2,456 L410.4,455.1 L407.1,453.3 L403.5,451.2 L401.7,450.3 L400.2,449.4 L396.9,447.6 L396.9,447.6 L396.6,447.6 L394.8,446.7 L393.3,445.8 L391.5,444.9 L390.3,444.3 L387.9,442.8 L386.1,441.9 L384.6,441 L384,440.7 L379.5,438 L378,437.1 L377.7,437.1 L376.2,436.2 L373.2,434.4 L373.2,398.4 L434.1,439.2 L443.7,433.8 L462,446.1 C462.3,446.4 462.9,446.4 462.9,446.4 C463.2,446.4 463.8,445.2 464.7,443.1 C465.6,441 464.7,440.7 464.7,440.7 L464.7,420 L466.2,419.1 L502.5,443.4 Z" id="Shape" stroke-width="1.5"></path>
            <polygon id="Shape" stroke-width="1.5" points="502.5 443.4 870.3 231 870.3 294.9 502.5 507.3"></polygon>
            <polygon id="Shape" stroke-width="1.5" points="870.3 231 601.5 51.3 240.3 229.5 493.2 398.7 493.2 404.4 467.4 419.4 502.5 443.4"></polygon>
            <polygon id="Shape" stroke-width="1.6932" points="870.3 231 873 229.2 875.4 233.7 875.4 297.9 870.3 294.9"></polygon>
            <polygon id="Shape" stroke-width="1.6932" points="601.5 51.3 606.9 48.9 870.6 225.3 875.4 233.7 875.4 234.6 870.3 231"></polygon>
            <polygon id="Shape" stroke-width="1.6932" points="875.4 233.7 896.4 221.4 896.4 285.6 875.4 297.9"></polygon>
            <polygon id="Shape" stroke-width="1.6932" points="902.4 218.1 902.4 282.3 923.1 270.3 923.1 206.1"></polygon>
            <polygon id="Shape" stroke-width="1.6932" points="896.4 221.4 902.4 218.1 902.4 282.3 896.4 285.6"></polygon>
            <polygon id="Shape" stroke-width="1.5" points="875.4 233.7 896.4 221.4 891.9 213 870.6 225.3"></polygon>
            <path d="M902.4,218.1 L896.7,221.4 L891.9,213 C891.9,213 892.5,211.5 894.3,210.3 C896.4,209.1 897.6,209.4 897.6,209.4 L897.6,209.4 L902.4,218.1 Z" id="Shape" stroke-width="1.5"></path>
            <polygon id="Shape" stroke-width="1.5" points="902.4 218.1 923.1 206.1 918.9 197.4 897.6 209.7"></polygon>
            <polygon id="Shape" stroke-width="1.5" points="918.9 197.4 897.6 209.7 897.6 209.7 631.8 31.8 654.3 20.7"></polygon>
            <polygon id="Shape" stroke-width="1.5" points="891.9 213 870.6 225.3 602.7 46.2 625.5 34.8 625.5 34.8"></polygon>
            <path d="M897.6,209.7 C897.3,209.7 896.1,209.4 894.3,210.6 C892.5,211.8 891.9,213.3 891.9,213.3 L625.5,35.1 L625.5,35.1 C625.5,35.1 626.7,33 628.2,32.7 C629.4,32.4 631.2,32.1 631.5,32.1 L631.5,32.1 L631.5,32.1 L897.6,209.7 Z" id="Shape" stroke-width="1.5"></path>
            <path d="M654.3,20.7 L631.8,31.8 L631.8,31.8 L631.8,31.8 C631.2,31.8 629.7,31.8 628.5,32.4 C627,33 625.8,34.8 625.8,34.8 L603.3,45.9 L596.1,48 L647.7,22.5 L654.3,20.7 Z" id="Shape" stroke-width="1.5"></path>
            <polygon id="Shape" stroke-width="1.5" points="625.5 34.8 602.7 46.2"></polygon>
            <polygon id="Shape" stroke-width="1.5" points="595.8 54.3 595.8 48.3 602.7 46.2 606.9 48.9"></polygon>
            <polygon id="Shape" stroke-width="1.5" points="960.3 243.3 960.3 179.1 921 201.9 923.1 206.1 923.1 264.9"></polygon>
            <polygon id="Shape" stroke-width="1.5" points="702.3 1.5 960.3 179.1 921 201.9 918.9 197.4 658.2 23.4"></polygon>
            <polygon id="Shape" stroke-width="1.5" points="960.3 279 960.3 349.5 284.4 739.8 284.4 633.3 307.5 620.1 322.2 628.5 330 645 422.4 589.2 423.3 591 502.5 542.7 503.4 544.8 582.6 497.1 583.2 498.9 662.1 450.6 663 452.4 742.2 404.4 743.1 406.5 822 358.2 823.2 360.3 902.1 312 903 314.1"></polygon>
            <polygon id="Shape" stroke-width="1.5" points="902.1 312 823.2 360.3 822 358.2 815.4 343.8 895.5 297.6"></polygon>
            <polygon id="Shape" stroke-width="1.5" points="822 358.2 743.1 406.5 742.2 404.4 735.6 390 815.4 343.8"></polygon>
            <polygon id="Shape" stroke-width="1.5" points="815.4 343.8 735.6 390 728.4 385.8 726.6 384.9 725.1 384 723.6 383.1 721.8 381.9 720.6 381.3 721.5 381 724.8 378.9 724.8 378.9 726.3 378 728.1 377.1 729.9 375.9 731.1 375.3 731.4 375 733.2 374.1 735 373.2 736.5 372 737.4 371.7 738 371.1 741.6 369.3 743.4 368.1 744.9 367.2 746.4 366.3 748.2 365.4 750 364.2 751.5 363.3 753.3 362.4 756.3 360.9 756.6 360.3 756.6 360.3 758.4 359.4 759.9 358.5 761.7 357.6 762.6 357 765 355.5 766.8 354.6 768.3 353.7 768.9 353.4 771.9 351.6 771.9 351.6 773.4 350.7 775.2 349.8 775.2 349.8 780.3 346.8 781.5 346.2 781.8 345.9 783.6 345 788.7 342 788.7 342 790.2 341.1 793.5 339 794.1 339 794.1 339 797.1 337.2 800.4 335.1"></polygon>
            <polygon id="Shape" stroke-width="1.5" points="655.5 436.2 575.4 482.4 560.7 473.7 560.7 473.7 560.7 473.7 561.6 473.1 561.6 473.1 561.9 473.1 562.8 472.5 565.2 471 566.4 470.4 566.7 470.1 567.9 469.5 568.2 469.2 568.5 469.2 569.7 468.3 571.8 467.1 572.7 466.8 573.6 466.2 574.2 465.9 575.1 465.3 576.9 464.4 577.8 463.8 578.4 463.5 580.2 462.3 580.5 462.3 580.5 462.3 580.5 462 582 461.4 582 461.4 583.8 460.5 585.3 459.6 586.8 458.4 586.8 458.4 590.4 456.6 591.9 455.7 593.1 454.8 593.4 454.8 593.7 454.5 597 452.7 598.8 451.8 599.4 451.2 599.4 451.2 599.7 451.2 600.3 450.6 602.1 449.7 605.4 447.9 605.7 447.6 605.7 447.6 607.2 446.7 607.2 446.7 608.7 445.8 612 444 612 444 613.8 443.1 613.8 442.8 613.8 442.8 615.6 441.9 616.8 441.3 617.1 441 618 440.4 618.3 440.4 618.3 440.4 620.7 438.9 621.6 438.3 622.2 438 624 437.1 624.6 436.8 624.6 436.8 627.3 435.3 629.1 434.1 629.7 433.8 630.6 433.2 630.9 433.2 630.9 432.9 630.9 432.9 632.4 432.3 633 432 633.9 431.4 633.9 431.4 633.9 431.4 636.3 429.9 637.2 429.6 637.2 429.3 637.5 429.3 638.1 429 639 428.4 640.2 427.5 640.5 427.5 640.5 427.5 640.8 427.5 640.8 427.5 641.1 427.5 641.4 427.8 642.9 428.7 644.7 429.9 646.5 430.8 647.1 431.1 647.1 431.1"></polygon>
            <polygon id="Shape" stroke-width="1.5" points="735.6 390 655.5 436.2 647.1 431.1 647.1 431.1 646.5 430.8 644.7 429.9 642.9 428.7 641.7 428.1 641.4 427.8 641.1 427.5 640.8 427.5 642.3 426.6 643.5 425.7 645.9 424.5 645.9 424.5 647.4 423.6 649.2 422.7 651.3 421.2 652.5 420.6 653.4 420.3 654.3 419.7 655.8 418.8 655.8 418.8 656.4 418.2 657.6 417.6 660 416.4 660.9 415.8 662.4 414.9 662.4 414.9 662.4 414.9 662.7 414.9 664.2 413.7 668.7 411.3 668.7 411.3 669 411 669.3 411 670.8 410.1 671.1 409.8 672.6 408.9 675 407.7 675.9 407.1 677.7 406.2 679.5 405 681 404.1 682.8 403.2 684.6 402.3 686.1 401.1 687 400.8 687.9 400.2 689.4 399.3 691.2 398.4 693 397.2 693.3 397.2 694.5 396.3 696 395.4 697.8 394.5 699.9 393.3 699.9 393.3 701.4 392.4 702.9 391.5 704.7 390.6 706.2 389.7 706.2 389.7 709.8 387.6 711.3 386.7 712.5 386.1 713.1 385.8 714.6 384.9 716.4 383.7 717.9 382.8 718.8 382.5 719.7 381.9 720.6 381.3 721.8 381.9 723.6 383.1 725.1 384 726.3 384.6 726.6 384.9 727.5 385.2 728.4 385.8"></polygon>
            <path d="M720.6,381.3 L649.8,432.6" id="Shape" stroke-width="1.5"></path>
            <polyline id="Shape" stroke-width="1.5" points="730.2 386.7 800.4 335.1 870.6 294.6 809.4 340.5"></polyline>
            <polygon id="Shape" stroke-width="1.5" points="28.8 450 28.8 452.1 22.5 455.4 1.8 457.2 21.6 445.8 21.6 445.8"></polygon>
            <polygon id="Shape" stroke-width="1.5" points="28.8 452.1 28.8 459 28.5 459 22.5 455.4"></polygon>
            <polygon id="Shape" stroke-width="1.5" points="28.8 450 50.4 462.3 50.4 472.5 28.5 459"></polygon>
            <polygon id="Shape" stroke-width="1.5" points="5.7 472.5 28.5 459 307.5 620.1 284.4 633.3"></polygon>
            <path d="M284.4,739.8 L6,579.3" id="Shape" stroke-width="1.5"></path>
            <g id="Group" transform="translate(207.000000, 228.000000)" stroke-width="0.6">
                <path d="M255,187.8 L250.2,184.5" id="Shape"></path>
                <path d="M240.3,177.9 L11.4,23.4" id="Shape" stroke-dasharray="11.7495002746582,11.7495002746582"></path>
                <polyline id="Shape" points="6.6 20.1 1.5 16.8 6.9 14.1"></polyline>
                <path d="M13.8,10.8 L24.3,5.7" id="Shape" stroke-dasharray="7.713299989700317,7.713299989700317"></path>
                <path d="M27.9,4.2 L33.3,1.5" id="Shape"></path>
            </g>
            <path d="M367.5,386.7 L367.8,357.9" id="Shape" stroke-width="0.6" stroke-dasharray="12"></path>
            <path d="M374.4,391.2 L374.7,359.1" id="Shape" stroke-width="0.6" stroke-dasharray="12"></path>
            <polygon id="Shape" stroke-width="1.5" points="560.7 473.7 502.8 516.3 502.5 507.3 506.4 505.2 510.3 502.8"></polygon>
            <path d="M570.3,479.4 L641.1,427.5" id="Shape" stroke-width="1.5"></path>
            <g id="Group" transform="translate(3.000000, 480.000000)" stroke-width="0.6" stroke-dasharray="12">
                <path d="M19.8,2.7 L2.7,13.5" id="Shape"></path>
                <path d="M39.9,14.1 L2.7,36.6" id="Shape"></path>
                <path d="M58.5,24.9 L2.7,58.5" id="Shape"></path>
                <path d="M77.4,36 L2.7,79.8" id="Shape"></path>
                <path d="M96.6,46.8 L4.5,99.9" id="Shape"></path>
                <path d="M114.9,57.3 L22.8,110.7" id="Shape"></path>
                <path d="M133.8,68.4 L41.7,122.1" id="Shape"></path>
                <path d="M152.4,78.9 L60,132.3" id="Shape"></path>
                <path d="M167.7,87.6 L75.6,141" id="Shape"></path>
                <path d="M185.7,98.4 L93.9,151.5" id="Shape"></path>
                <path d="M204.9,109.2 L113.1,162.6" id="Shape"></path>
                <path d="M223.5,119.7 L131.4,173.1" id="Shape"></path>
                <path d="M239.4,129.3 L147.3,182.4" id="Shape"></path>
                <path d="M258.9,140.7 L167.1,193.8" id="Shape"></path>
                <path d="M279.3,163.5 L197.1,210.9" id="Shape"></path>
                <path d="M280.5,182.1 L213.3,220.8" id="Shape"></path>
                <path d="M281.7,201.3 L232.2,229.8" id="Shape"></path>
                <path d="M281.7,224.7 L251.1,242.4" id="Shape"></path>
                <path d="M281.1,247.5 L270.6,253.5" id="Shape"></path>
                <path d="M275.1,149.7 L183,203.1" id="Shape"></path>
            </g>
            <path d="M28.5,342 L49.8,363.9" id="Shape" stroke-width="0.6" stroke-dasharray="12"></path>
            <path d="M21.6,346.2 L49.8,374.7" id="Shape" stroke-width="0.6" stroke-dasharray="12"></path>
            <path d="M49.8,384.9 L21.6,356.4" id="Shape" stroke-width="0.6" stroke-dasharray="12"></path>
            <path d="M21.6,367.5 L49.8,396" id="Shape" stroke-width="0.6" stroke-dasharray="12"></path>
            <path d="M49.8,406.5 L21.6,378" id="Shape" stroke-width="0.6" stroke-dasharray="12"></path>
            <path d="M21.6,388.8 L49.8,417.3" id="Shape" stroke-width="0.6" stroke-dasharray="12"></path>
            <path d="M49.8,427.8 L21.6,399.3" id="Shape" stroke-width="0.6" stroke-dasharray="12"></path>
            <path d="M21.6,410.1 L49.8,438.3" id="Shape" stroke-width="0.6" stroke-dasharray="12"></path>
            <path d="M49.8,448.8 L21.6,420.3" id="Shape" stroke-width="0.6" stroke-dasharray="12"></path>
            <path d="M21.6,430.8 L49.8,459.3" id="Shape" stroke-width="0.6" stroke-dasharray="12"></path>
            <path d="M21.6,441.9 L31.2,451.5" id="Shape" stroke-width="0.6" stroke-dasharray="12"></path>
            <path d="M895.5,297.6 L891.6,288.6" id="Shape" stroke-width="1.5"></path>
            <polyline id="Shape" stroke-width="1.5" points="894 294.6 960.3 243.3 960.3 260.1"></polyline>
            <path d="M466.8,420 L501.9,455.7" id="Shape" stroke-width="0.6" stroke-dasharray="12"></path>
            <path d="M502.5,466.8 L465.9,430.5" id="Shape" stroke-width="0.6" stroke-dasharray="12"></path>
            <path d="M465.9,441.6 L502.5,477.3" id="Shape" stroke-width="0.6" stroke-dasharray="12"></path>
            <path d="M452.4,437.1 L502.5,487.8" id="Shape" stroke-width="0.6" stroke-dasharray="12"></path>
            <path d="M502.5,498.6 L439.5,435.6" id="Shape" stroke-width="0.6" stroke-dasharray="12"></path>
            <path d="M423.3,429.3 L497.7,504.3" id="Shape" stroke-width="0.6" stroke-dasharray="12"></path>
            <path d="M472.8,489.9 L390.9,408.3" id="Shape" stroke-width="0.6" stroke-dasharray="12"></path>
            <path d="M447.6,475.5 L374.1,402.3" id="Shape" stroke-width="0.6" stroke-dasharray="12"></path>
            <path d="M422.7,461.1 L374.7,413.1" id="Shape" stroke-width="0.6" stroke-dasharray="12"></path>
            <path d="M397.5,446.7 L374.4,423.6" id="Shape" stroke-width="0.6" stroke-dasharray="12"></path>
            <path d="M495.6,528.3 L361.5,448.8" id="Shape" stroke-width="1.5"></path>
            <g id="Group" transform="translate(177.000000, 246.000000)" stroke-width="0.6">
                <path d="M1.2,13.8 L6.6,11.4" id="Shape"></path>
                <polyline id="Shape" points="21.3 3.9 26.7 1.2 31.8 4.8"></polyline>
                <path d="M42,11.7 L180.6,105" id="Shape" stroke-dasharray="12.3870005607605,12.3870005607605"></path>
                <path d="M185.7,108.6 L190.8,111.9 C190.8,111.9 188.7,112.8 185.1,114.3" id="Shape"></path>
                <path d="M179.4,116.4 C176.7,117.3 173.4,118.5 170.4,119.4" id="Shape" stroke-dasharray="6.357599973678589,6.357599973678589"></path>
                <path d="M167.1,120.3 C165,120.9 163.2,121.2 161.1,121.5" id="Shape"></path>
            </g>
            <path d="M6.9,472.5 L6.9,577.5" id="Line" stroke-width="1.8" stroke-linecap="square"></path>
        </g>
    </g>
</svg>