<svg id="Layer_1" data-name="Layer 1" xmlns="http://www.w3.org/2000/svg" viewBox="0 0 688.37 441.61"><defs><style>.cls-1,.cls-2,.cls-3{fill:none;stroke:#000;stroke-miterlimit:10;}.cls-2,.cls-3{stroke-width:0.2px;}.cls-3{stroke-dasharray:6;}</style></defs><title>Flashdown Fascia_1</title><polygon class="cls-1" points="667.39 197.42 676.43 197.77 676.43 323.19 521.94 374.68 521.94 69.3 522.1 69.24 565.28 54.06 564.95 53.8 676.43 13.63 676.43 191 683.61 191 667.39 196.77 669.04 196.83 667.39 197.42"/><polygon class="cls-1" points="565.28 54.06 522.1 69.24 564.95 53.8 565.28 54.06"/><polygon class="cls-1" points="676.43 197.12 676.43 197.77 667.39 197.42 669.04 196.83 669.05 196.83 676.43 197.12"/><polygon class="cls-1" points="685.47 190.34 683.61 191 676.43 191 676.43 190.34 685.47 190.34"/><polygon class="cls-1" points="521.94 361.66 521.94 375.33 517.31 363.2 521.94 361.66"/><line class="cls-2" x1="676.43" y1="13.63" x2="676.43"/><polyline class="cls-2" points="683.61 191 685.47 191 669.05 196.83 669.04 196.83"/><polyline class="cls-2" points="676.43 323.19 676.43 323.84 676.43 341.32"/><polygon class="cls-2" points="447.97 121.66 447.73 121.74 447.73 107.98 447.97 121.66"/><polygon class="cls-1" points="447.73 107.98 447.73 121.74 312.51 166.73 308.83 154.25 447.73 107.98"/><polygon class="cls-1" points="447.97 121.66 447.73 121.74 447.73 107.98 447.97 121.66"/><polygon class="cls-1" points="447.73 121.74 447.73 136.9 305.26 184.1 308.83 154.25 312.51 166.73 447.73 121.74"/><polygon class="cls-1" points="447.97 121.66 447.97 136.82 447.73 136.9 447.73 121.74 447.97 121.66"/><polygon class="cls-1" points="447.73 136.9 447.73 169.77 313.11 214.78 273.86 175.54 271.48 173.37 261.73 169.23 261.26 166.26 305.26 184.1 447.73 136.9"/><polygon class="cls-1" points="273.86 175.54 313.11 214.78 273.19 175.76 271.13 173.75 261.73 169.23 271.48 173.37 273.86 175.54"/><polygon class="cls-1" points="447.97 136.82 447.73 169.77 447.73 136.9 447.97 136.82"/><polygon class="cls-1" points="313.11 214.78 313.11 219.77 220.47 250.7 219.04 249.27 208.57 238.8 192.76 222.99 182.05 212.28 177.65 207.88 273.19 175.76 313.11 214.78"/><polygon class="cls-1" points="313.11 214.78 273.19 175.76 273.86 175.54 313.11 214.78"/><polygon class="cls-1" points="182.05 212.28 177.65 213.71 177.65 207.88 182.05 212.28"/><polygon class="cls-1" points="192.76 222.99 188.36 224.41 177.65 213.71 182.05 212.28 192.76 222.99"/><polygon class="cls-1" points="219.04 249.27 171.35 265.09 161 254.74 208.57 238.8 219.04 249.27"/><polygon class="cls-1" points="564.95 53.8 522.1 69.24 521.94 69.3 500.52 76.83 503.01 79.44 444.76 98.11 438.46 105.01 447.73 101.32 447.73 104.06 261.26 166.26 261.73 169.23 271.13 173.75 273.19 175.76 177.65 207.88 177.65 213.71 188.36 224.41 192.76 222.99 208.57 238.8 161 254.74 171.35 265.09 219.04 249.27 220.47 250.7 220.47 255.69 158.5 276.38 96.9 214.72 49.92 167.69 46.71 164.47 510.17 9.99 564.95 53.8"/><polygon class="cls-1" points="273.86 175.54 273.19 175.76 271.13 173.75 261.73 169.23 271.48 173.37 273.86 175.54"/><polygon class="cls-1" points="565.28 54.06 522.1 69.24 564.95 53.8 565.28 54.06"/><polygon class="cls-1" points="447.73 104.06 447.73 107.98 308.83 154.25 305.26 184.1 261.26 166.26 447.73 104.06"/><polygon class="cls-1" points="220.63 367.45 220.47 392.34 110.22 429.09 110.22 293.27 158.5 276.38 158.36 345.07 158.28 387.81 220.47 367.5 220.63 367.45"/><polyline class="cls-2" points="158.72 344.95 110.22 361.18 47.78 298.74"/><polygon class="cls-1" points="110.22 293.27 110.22 429.09 47.78 366.42 47.78 358.21 47.78 230.84 47.79 230.84 110.22 293.27"/><polygon class="cls-1" points="47.78 230.84 47.78 358.21 47.78 366.42 42.55 361.49 37.32 356.26 32.14 351.09 26.97 345.93 26.97 345.92 21.74 340.7 16.51 335.47 11.39 330.36 6.25 325.23 6.25 325.22 0.93 319.91 0.93 183.98 11.39 194.44 16.51 199.56 21.74 204.79 42.55 225.6 47.78 230.84"/><line class="cls-2" x1="47.78" y1="366.42" x2="47.78" y2="358.21"/><polyline class="cls-2" points="42.55 225.6 42.55 234.05 42.55 242.61 42.55 251.05 42.55 259.61 42.55 268.06 42.55 276.51 42.55 285.07 42.55 293.51 42.55 302.02 42.55 310.04 42.55 319.08 42.55 327.53 42.55 335.98 42.55 344.53 42.55 361.49"/><line class="cls-2" x1="37.31" y1="220.43" x2="37.31" y2="356.26"/><line class="cls-2" x1="32.13" y1="351.09" x2="32.13" y2="215.26"/><line class="cls-2" x1="26.97" y1="210.02" x2="26.97" y2="345.93"/><line class="cls-2" x1="21.74" y1="340.7" x2="21.74" y2="204.79"/><line class="cls-2" x1="16.5" y1="199.56" x2="16.5" y2="335.47"/><line class="cls-2" x1="11.39" y1="330.37" x2="11.39" y2="194.44"/><line class="cls-2" x1="6.24" y1="189.93" x2="6.24" y2="325.23"/><polyline class="cls-2" points="47.78 358.21 37.32 347.85 32.14 342.72 26.97 337.6 21.74 332.43 16.51 327.25 11.39 322.18 6.25 317.09 0.93 311.82"/><line class="cls-2" x1="47.78" y1="349.76" x2="0.92" y2="302.91"/><line class="cls-2" x1="0.92" y1="294.46" x2="47.78" y2="341.2"/><line class="cls-2" x1="47.78" y1="332.76" x2="0.92" y2="285.9"/><line class="cls-2" x1="0.92" y1="277.46" x2="47.78" y2="324.31"/><line class="cls-2" x1="47.78" y1="315.21" x2="0.92" y2="268.89"/><line class="cls-2" x1="0.92" y1="259.91" x2="47.78" y2="307.31"/><line class="cls-2" x1="47.78" y1="298.74" x2="0.95" y2="251.92"/><line class="cls-2" x1="0.95" y1="243.47" x2="47.78" y2="290.3"/><line class="cls-2" x1="47.78" y1="281.74" x2="0.98" y2="234.94"/><line class="cls-2" x1="0.98" y1="226.5" x2="47.78" y2="273.29"/><line class="cls-2" x1="47.19" y1="264.25" x2="1.1" y2="218.17"/><line class="cls-2" x1="0.98" y1="209.49" x2="47.48" y2="255.99"/><line class="cls-2" x1="47.78" y1="247.84" x2="1.1" y2="201.16"/><line class="cls-2" x1="0.98" y1="192.48" x2="47.78" y2="239.28"/><line class="cls-2" x1="110.22" y1="361.18" x2="47.78" y2="230.84"/><line class="cls-2" x1="110.22" y1="429.09" x2="47.78" y2="298.74"/><line class="cls-2" x1="110.22" y1="361.18" x2="47.78" y2="366.42"/><line class="cls-2" x1="110.22" y1="293.27" x2="47.78" y2="298.74"/><polygon class="cls-1" points="158.5 276.38 110.22 293.27 47.79 230.84 47.78 230.84 42.55 225.6 21.74 204.79 16.51 199.56 11.39 194.44 0.93 183.98 49.92 167.69 96.9 214.72 158.5 276.38"/><line class="cls-2" x1="96.9" y1="214.72" x2="47.79" y2="230.84"/><polygon class="cls-1" points="521.94 69.3 521.94 76.59 447.73 101.32 438.46 105.01 444.76 98.11 503.01 79.44 500.52 76.83 521.94 69.3"/><polygon class="cls-1" points="521.94 76.59 521.94 361.66 517.31 363.2 447.73 386.39 447.73 169.77 447.97 136.82 447.97 121.66 447.73 107.98 447.73 101.32 521.94 76.59"/><polygon class="cls-1" points="447.97 121.66 447.97 136.82 447.73 169.77 447.73 107.98 447.97 121.66"/><polyline class="cls-3" points="521.94 361.65 591.99 338.35 591.99 53.28 521.94 76.59"/><polygon class="cls-1" points="447.73 169.77 447.73 342.92 313.11 388.41 313.11 379.97 313.81 219.54 313.11 219.77 313.11 214.78 447.73 169.77"/><polygon class="cls-1" points="313.81 219.54 313.11 379.97 313.11 219.77 313.81 219.54"/><polygon class="cls-1" points="313.11 219.77 313.11 379.97 220.47 410.89 220.47 392.34 220.63 367.45 220.47 255.69 220.47 250.7 313.11 219.77"/><polygon class="cls-1" points="220.63 367.45 220.47 392.34 220.47 255.69 220.63 367.45"/><polygon class="cls-1" points="313.81 219.54 313.11 379.97 313.11 219.77 313.81 219.54"/><polygon class="cls-1" points="220.63 367.45 220.47 367.5 158.28 387.81 158.36 345.07 158.5 276.38 220.47 255.69 220.63 367.45"/><polygon class="cls-1" points="447.73 342.92 447.73 368.49 321.43 410.18 313.11 388.41 447.73 342.92"/><polygon class="cls-1" points="447.73 368.49 447.73 382.31 321.43 425.04 321.43 410.18 447.73 368.49"/><polygon class="cls-1" points="321.43 411.13 321.43 425.04 316.69 412.71 321.43 411.13"/><polygon class="cls-1" points="321.43 411.13 316.69 412.71 316.68 412.67 321.43 411.13"/><polygon class="cls-1" points="321.43 411.13 316.68 412.67 316.69 412.71 231.88 440.98 220.47 410.89 313.11 379.97 313.11 388.41 321.43 410.18 321.43 411.13"/><polygon class="cls-1" points="321.43 411.13 316.69 412.71 316.68 412.67 321.43 411.13"/></svg>