<svg id="Layer_1" data-name="Layer 1" xmlns="http://www.w3.org/2000/svg" viewBox="0 0 704.89 396.38">
    <defs>
        <style>
        .cls-1,
        .cls-2,
        .cls-3 {
            fill: none;
            stroke: #231f20;
            stroke-width: 0.5px;
        }
        
        .cls-1,
        .cls-3 {
            stroke-miterlimit: 10;
        }
        
        .cls-2 {
            stroke-linecap: round;
            stroke-linejoin: round;
        }
        
        .cls-3 {
            stroke-dasharray: 4.96 4.96;
        }
        </style>
    </defs>
    <title>Standing Seam</title>
    <polyline class="hover_color_change" fill="none" stroke="#000000" stroke-width="0.5644" points="137.71 205.83 68.89 166.09 92.72 152.33 297.96 33.83 696.14 263.68 466.98 395.94 395.81 354.85" />
    <line class="cls-1" x1="362.61" y1="335.68" x2="170.91" y2="224.99" />
    <polygon class="cls-1" points="297.96 33.83 309.69 35.66 106.34 153.06 98.84 148.8 297.96 33.83" />
    <polygon class="cls-1" points="247.66 71.63 240.52 75.98 252.44 72.42 247.66 71.63" />
    <polygon class="cls-1" style="fill: #FFF;" points="252.44 72.42 286.23 53.21 264.5 50 231.31 69.11 252.44 72.42" />
    <polygon class="cls-1" points="97.13 107.87 63.94 127.08 97.13 146.19 130.33 127.08 97.13 107.87" />
    <polygon class="cls-1" points="231.31 30.83 198.11 50.04 231.31 69.16 264.5 50.04 231.31 30.83" />
    <line class="cls-1" x1="97.13" y1="107.87" x2="91.4" y2="104.57" />
    <line class="cls-1" x1="57.85" y1="123.6" x2="63.94" y2="127.08" />
    <polygon class="cls-1" points="113.48 148.72 106.34 153.06 118.27 149.5 113.48 148.72" />
    <polygon class="cls-1" style="fill: #FFF;" points="118.27 149.5 152.06 130.29 130.33 127.08 97.13 146.19 118.27 149.5" />
    <polygon class="cls-1" points="33.7 71.03 0.5 90.23 33.7 109.35 66.89 90.23 33.7 71.03" />
    <polygon class="cls-1" points="50.05 111.87 42.91 116.21 54.83 112.65 50.05 111.87" />
    <polygon class="cls-1" points="54.83 112.65 88.62 93.45 66.89 90.23 33.7 109.35 54.83 112.65" />
    <polygon class="hover_color_change" fill="none" stroke="#000000" stroke-width="0.5644" points="144.41 174.96 138.15 178.61 137.72 178.36 68.89 138.55 75.06 134.98 144.41 174.96" />
    <polygon class="hover_color_change" fill="none" stroke="#000000" stroke-width="0.5644" points="137.71 178.36 137.71 205.89 68.89 166.09 68.89 138.54 92.72 152.33 137.71 178.36" />
    <polygon class="cls-1" style="fill: #FFF;" points="178.91 193.38 145.71 174.18 137.72 178.87 170.91 197.99 178.91 193.38" />
    <polygon class="cls-1" points="170.91 226.4 137.71 245.52 104.52 226.4 137.71 207.19 170.91 226.4" />
    <polygon class="cls-2" style="fill: #FFF;" points="170.91 197.98 170.91 226.4 137.71 207.19 137.71 178.87 170.91 197.98" />
    <line class="cls-1" x1="137.72" y1="245.52" x2="131.55" y2="249.08" />
    <line class="cls-1" x1="125.46" y1="252.65" x2="119.29" y2="256.21" />
    <line class="cls-1" x1="113.12" y1="259.69" x2="107.04" y2="263.25" />
    <line class="cls-1" x1="100.87" y1="266.81" x2="94.7" y2="270.38" />
    <line class="cls-1" x1="88.53" y1="273.94" x2="82.45" y2="277.41" />
    <line class="cls-1" x1="104.52" y1="226.4" x2="96.44" y2="231.01" />
    <line class="cls-1" x1="88.44" y1="235.7" x2="80.36" y2="240.31" />
    <polygon class="cls-1" points="49.25 230.75 56.46 226.58 89.66 245.7 82.45 249.95 49.25 230.75" />
    <polygon class="cls-2" points="49.25 230.75 49.25 258.3 82.45 277.41 82.45 249.95 49.25 230.75" />
    <polyline class="cls-2" points="89.66 245.7 87.92 252.39 83.06 249.59" />
    <polygon class="cls-1" points="49.25 258.3 16.05 277.41 49.25 296.62 82.45 277.41 49.25 258.3" />
    <polygon class="hover_color_change" fill="none" stroke="#000000" stroke-width="0.5644" points="363.05 308.43 362.61 308.69 362.61 335.72 170.91 225.01 170.91 197.98 171.34 197.72 363.05 308.43" />
    <polygon class="hover_color_change" fill="none" stroke="#000000" stroke-width="0.5644" points="171.35 197.73 177.78 194.03 369.31 304.79 363.05 308.44 171.35 197.73" />
    <polygon class="cls-1" style="fill: #FFF;" points="403.8 323.21 395.81 327.81 362.61 308.69 363.05 308.43 370.61 304 403.8 323.21" />
    <polygon class="cls-2" style="fill: #FFF;" points="395.81 327.81 395.81 356.23 362.61 337.02 362.61 308.69 395.81 327.81" />
    <polygon class="cls-1" points="395.81 356.23 362.61 375.35 329.42 356.23 362.61 337.02 395.81 356.23" />
    <polygon class="hover_color_change" fill="none" stroke="#000000" stroke-width="0.5644" points="395.81 354.84 466.98 395.95 466.98 368.4 396.26 327.56 395.81 327.82 395.81 354.84" />
    <polygon class="hover_color_change" fill="none" stroke="#000000" stroke-width="0.5644" points="402.42 323.99 473.24 364.84 466.98 368.4 396.26 327.56 402.42 323.99" />
    <polyline class="cls-1" points="466.98 395.95 455.34 394.12 465.33 388.39" />
    <line class="cls-1" x1="463.07" y1="371.35" x2="466.55" y2="375.68" />
    <polyline class="cls-1" points="459.25 366.49 455.47 361.75 457.42 360.49" />
    <line class="cls-1" x1="459.42" y1="359.27" x2="461.8" y2="357.9" />
    <line class="cls-1" x1="471.07" y1="385" x2="473.23" y2="383.75" />
    <polyline class="cls-3" points="477.53 381.27 684.5 261.86 691.22 262.91" />
    <line class="cls-1" x1="693.67" y1="263.3" x2="696.14" y2="263.68" />
    <polygon class="hover_color_change" fill="none" stroke="#000000" stroke-width="0.5644" points="305.43 38.09 696.14 263.68 696.14 234.92 297.96 5.07 297.96 33.83 309.69 35.66 305.43 38.09" />
    <polygon class="hover_color_change" fill="none" stroke="#000000" stroke-width="0.5644" points="696.14 234.92 704.39 230.14 306.3 0.29 297.96 5.07 696.14 234.92" />
    <polygon class="cls-2" points="704.39 230.14 702.31 238.13 696.49 234.72 704.39 230.14" />
    <path class="cls-1" d="M278.6,172.73v.09a2.89,2.89,0,0,1-.07.38c-.39,1.35-2.48,2.38-5,2.38s-4.58-1-5-2.38a2.89,2.89,0,0,1-.07-.38v-.09c0-1.56,2.26-2.84,5-2.84S278.6,171.16,278.6,172.73Z" transform="translate(-43.12 -123.59)" />
    <path class="cls-1" d="M278.6,172.81V174h0a.05.05,0,0,1,0,0c-.29,1.4-2.42,2.51-5,2.51s-4.71-1.1-5-2.51a1.24,1.24,0,0,1,0-.33v-.93a2.89,2.89,0,0,0,.07.38c.39,1.35,2.48,2.38,5,2.38s4.58-1,5-2.38A2.89,2.89,0,0,0,278.6,172.81Z" transform="translate(-43.12 -123.59)" />
    <path class="cls-1" d="M145.34,249.72v.09a2.89,2.89,0,0,1-.07.38c-.39,1.35-2.48,2.38-5,2.38s-4.58-1-5-2.38a2.89,2.89,0,0,1-.07-.38v-.09c0-1.56,2.26-2.84,5-2.84S145.34,248.16,145.34,249.72Z" transform="translate(-43.12 -123.59)" />
    <path class="cls-1" d="M145.34,249.81V251h0a.05.05,0,0,1,0,0c-.29,1.4-2.42,2.51-5,2.51s-4.71-1.1-5-2.51a1.24,1.24,0,0,1,0-.33v-.93a2.89,2.89,0,0,0,.07.38c.39,1.35,2.48,2.38,5,2.38s4.58-1,5-2.38A2.89,2.89,0,0,0,145.34,249.81Z" transform="translate(-43.12 -123.59)" />
    <path class="cls-1" d="M185.87,349.66v.09a2.89,2.89,0,0,1-.07.38c-.39,1.35-2.48,2.38-5,2.38s-4.58-1-5-2.38a2.89,2.89,0,0,1-.07-.38v-.09c0-1.56,2.26-2.84,5-2.84S185.87,348.09,185.87,349.66Z" transform="translate(-43.12 -123.59)" />
    <path class="cls-1" d="M185.87,349.74v1.2h0a.05.05,0,0,1,0,0c-.29,1.4-2.42,2.51-5,2.51s-4.71-1.1-5-2.51a1.24,1.24,0,0,1,0-.33v-.93a2.89,2.89,0,0,0,.07.38c.39,1.35,2.48,2.38,5,2.38s4.58-1,5-2.38A2.89,2.89,0,0,0,185.87,349.74Z" transform="translate(-43.12 -123.59)" />
    <path class="cls-1" d="M409.9,479.49v.09a2.89,2.89,0,0,1-.07.38c-.39,1.35-2.48,2.38-5,2.38s-4.58-1-5-2.38a2.89,2.89,0,0,1-.07-.38v-.09c0-1.56,2.26-2.84,5-2.84S409.9,477.92,409.9,479.49Z" transform="translate(-43.12 -123.59)" />
    <path class="cls-1" d="M409.9,479.57v1.2h0a.05.05,0,0,1,0,0c-.29,1.4-2.42,2.51-5,2.51s-4.71-1.1-5-2.51a1.24,1.24,0,0,1,0-.33v-.93a2.89,2.89,0,0,0,.07.38c.39,1.35,2.48,2.38,5,2.38s4.58-1,5-2.38A2.89,2.89,0,0,0,409.9,479.57Z" transform="translate(-43.12 -123.59)" />
    <line class="cls-1" x1="39.61" y1="113" x2="33.7" y2="109.35" />
    <line class="cls-1" x1="45.69" y1="116.56" x2="51.77" y2="120.04" />
    <line class="cls-1" x1="85.66" y1="101.27" x2="80.3" y2="98.18" />
    <line class="cls-1" x1="309.69" y1="12.19" x2="312.47" y2="10.48" />
    <line class="cls-1" x1="318.04" y1="7.07" x2="315.25" y2="8.63" />
    <line class="cls-1" x1="473.24" y1="364.84" x2="473.24" y2="392.33" />
</svg>