<?xml version="1.0" encoding="utf-8"?>
<!-- Generator: Adobe Illustrator 21.1.0, SVG Export Plug-In . SVG Version: 6.00 Build 0)  -->
<svg version="1.1" id="Layer_1" xmlns="http://www.w3.org/2000/svg" xmlns:xlink="http://www.w3.org/1999/xlink" x="0px" y="0px"
	 viewBox="0 0 504 360" style="enable-background:new 0 0 504 360;" xml:space="preserve">
<style type="text/css">
	.st0{fill:none;stroke:#000000;stroke-width:0.5;stroke-miterlimit:10;}
	.st1{fill:none;stroke:#000000;stroke-width:0.2;stroke-miterlimit:10;}
	.st2{fill:none;stroke:#000000;stroke-width:0.2;stroke-miterlimit:10;stroke-dasharray:3.9165,3.9165;}
	.st3{fill:none;stroke:#000000;stroke-width:0.2;stroke-miterlimit:10;stroke-dasharray:2.5711,2.5711;}
	.st4{fill:none;stroke:#000000;stroke-width:0.2;stroke-miterlimit:10;stroke-dasharray:4;}
	.st5{fill:none;stroke:#000000;stroke-width:0.2;stroke-miterlimit:10;stroke-dasharray:4.129,4.129;}
	.st6{fill:none;stroke:#000000;stroke-width:0.2;stroke-miterlimit:10;stroke-dasharray:2.1192,2.1192;}
</style>
<polygon class="st0" points="409.1,94.7 387.5,107.2 360.8,122.6 355.8,119.7 379.2,106.2 380.8,107.3 396.7,98.1 396.7,96.3 
	409.1,89.1 409.1,89.1 "/>
<polygon class="st0" points="183.8,219.1 183.8,276.2 183.6,295.7 183.3,336.9 90.9,276.2 90.9,165.5 91.1,165.6 97.4,169.2 
	97.4,169.2 "/>
<polygon class="st0" points="191.5,214.7 183.8,219.1 97.4,169.2 97.4,169.2 91.1,165.6 90.9,165.5 98.5,161 99.9,161.8 
	100.5,162.1 101.6,162.8 102.3,163.2 102.3,163.2 102.7,163.4 103.3,163.7 103.8,164.1 104.5,164.5 104.5,164.5 105.5,165 "/>
<g>
	<path class="st0" d="M256.6,180.1l-42.8-24.7c0,0-10.3,6.4-24.9,7.4c-14.3,1-29.1-2.7-29.7-2.8c0,0,0,0,0,0l-1.5-0.4l-0.3-0.1
		c-1.2-0.3-2.8-0.7-4.5-1l-0.9-0.2c-0.5-0.1-1-0.2-1.5-0.3l-0.1,0c-0.1,0-0.2,0-0.3-0.1c-0.3-0.1-0.7-0.1-1-0.2
		c-0.6-0.1-1.2-0.2-1.8-0.2c-0.2,0-0.3,0-0.5-0.1l-0.1,0l-0.1,0c-1.2-0.1-6-0.5-11.4-0.3h0c-0.9,0-1.8,0.1-2.7,0.1
		c-0.2,0-0.5,0-0.7,0c-0.1,0-0.1,0-0.2,0c-0.2,0-0.4,0-0.6,0.1l-0.1,0c-0.1,0-0.2,0-0.4,0c-0.3,0-0.7,0.1-1,0.1c-0.1,0-0.1,0-0.2,0
		c-0.6,0.1-1.2,0.2-1.8,0.3l-0.1,0c-2.5,0.4-4.8,1-6.8,1.3l0,0c0,0,0,0-0.1,0l-0.1,0l-0.1,0c-0.2,0-0.4,0.1-0.6,0.1c0,0-0.1,0-0.1,0
		c-0.1,0-0.3,0.1-0.5,0.2l0,0l0,0c-2.4,0.9-10.2,4-12.7,5c-0.5,0.2-0.8,0.3-0.8,0.3v-0.2l0-0.8v-0.1l0-0.8V163l0-0.8v-0.1
		c0,0,0,0,0.1,0c0.1-0.1,0.2-0.2,0.5-0.3c0.1-0.1,0.2-0.1,0.3-0.2l0,0c0.1,0,0.1-0.1,0.2-0.1c0,0,0,0,0,0c0.2-0.1,0.3-0.2,0.5-0.3
		c0.1-0.1,0.2-0.1,0.4-0.2h0c0.1,0,0.1-0.1,0.2-0.1c0,0,0.1,0,0.1,0l0.4-0.2c0,0,0.1,0,0.1-0.1v0l0,0c0.2-0.1,0.4-0.2,0.5-0.3
		c0.2-0.1,0.3-0.2,0.5-0.2l0,0c0,0,0.1,0,0.1-0.1c0.1-0.1,0.2-0.1,0.3-0.2l0.1,0c0,0,0.1,0,0.1-0.1c0.2-0.1,0.4-0.2,0.6-0.3
		c0.1,0,0.1-0.1,0.2-0.1c0.1-0.1,0.3-0.1,0.4-0.2c0.2-0.1,0.4-0.2,0.6-0.3c0.1-0.1,0.3-0.1,0.5-0.2l0,0l0.1-0.1
		c0.2-0.1,0.4-0.2,0.6-0.3l0.1,0c0.2-0.1,0.4-0.1,0.5-0.2c0,0,0,0,0,0c0.2-0.1,0.4-0.1,0.6-0.2c0.2-0.1,0.4-0.2,0.7-0.2
		c0,0,0.1,0,0.1,0c0.2-0.1,0.4-0.1,0.6-0.2c0.2-0.1,0.4-0.1,0.7-0.2c0,0,0,0,0,0c0.1,0,0.2-0.1,0.3-0.1h0c0.1,0,0.2-0.1,0.3-0.1
		c0.1,0,0.2-0.1,0.3-0.1l0,0c0.3-0.1,0.6-0.2,0.9-0.3c0.2,0,0.3-0.1,0.5-0.1c0.1,0,0.1,0,0.2-0.1c0.2-0.1,0.5-0.1,0.7-0.2
		c0.1,0,0.2,0,0.2-0.1c0.1,0,0.2,0,0.3-0.1l0.2,0c0.2,0,0.4-0.1,0.6-0.1c0,0,0.1,0,0.1,0c0.2-0.1,0.5-0.1,0.7-0.1c0.1,0,0.2,0,0.3,0
		c0.2,0,0.3-0.1,0.5-0.1h0c0.2,0,0.4-0.1,0.6-0.1c0.1,0,0.1,0,0.1,0c0.3,0,0.5-0.1,0.8-0.1l0.2,0h0c0.2,0,0.4-0.1,0.6-0.1
		c0.2,0,0.3-0.1,0.5-0.1h0c0.1,0,0.2,0,0.3,0c0.3,0,0.5-0.1,0.8-0.1c0.3,0,0.5-0.1,0.8-0.1c0.1,0,0.2,0,0.3,0c0.2,0,0.3,0,0.5-0.1
		c0.2,0,0.4-0.1,0.6-0.1c0.1,0,0.1,0,0.2,0c0.3,0,0.5-0.1,0.8-0.1h0c0.2,0,0.5-0.1,0.7-0.1c0.1,0,0.2,0,0.3,0c0.2,0,0.3-0.1,0.5-0.1
		h0c0.2,0,0.4-0.1,0.5-0.1l0.1,0c0.3,0,0.5-0.1,0.5-0.1c1.4-0.1,2.8-0.2,4-0.2c4.4-0.1,7.5,0.1,10.2,0.4c0.2,0,0.5,0.1,0.7,0.1
		c0,0,0.1,0,0.1,0c0.3,0,0.5,0.1,0.8,0.1c0,0,0.1,0,0.1,0c0.2,0,0.4,0.1,0.7,0.1c0.1,0,0.2,0,0.4,0.1c0.1,0,0.3,0,0.4,0.1
		c0.1,0,0.3,0,0.4,0.1l0.2,0c0.1,0,0.1,0,0.2,0c0.1,0,0.1,0,0.2,0l0.1,0c0.2,0,0.4,0.1,0.6,0.1c0.2,0,0.4,0.1,0.6,0.1
		c0.5,0.1,1.1,0.2,1.6,0.3c0.4,0.1,0.8,0.2,1.1,0.3c0.1,0,0.1,0,0.2,0.1c0,0,0.1,0,0.1,0l0.1,0c0.2,0,0.3,0.1,0.5,0.1
		c0.1,0,0.2,0,0.2,0.1c0.1,0,0.3,0.1,0.4,0.1c0.3,0.1,0.5,0.1,0.8,0.2s0.5,0.1,0.7,0.2c0.2,0.1,0.4,0.1,0.6,0.2c0,0,0.1,0,0.1,0
		l0.1,0l0.3,0.1c0.2,0,0.3,0.1,0.4,0.1c0.1,0,0.2,0.1,0.4,0.1c0.4,0.1,0.8,0.2,1.2,0.4c0.1,0,0.3,0.1,0.4,0.1
		c0.3,0.1,0.5,0.1,0.8,0.2l0.6,0.2c0.2,0,0.3,0.1,0.5,0.1h0c0.8,0.2,1.5,0.4,2.3,0.5l1.8,0.3c1,0.2,2,0.3,3,0.5l1.4,0.2
		c1.3,0.2,2.6,0.3,3.8,0.4l1.6,0.1c0.6,0,1.1,0.1,1.7,0.1c0.1,0,0.2,0,0.3,0c0.6,0,1.2,0,1.8,0h1.3c0.5,0,0.9,0,1.4,0
		c0.1,0,0.2,0,0.4,0c0.2,0,0.4,0,0.6,0c0.1,0,0.2,0,0.3,0c0.2,0,0.4,0,0.6,0c0.1,0,0.1,0,0.2,0c0.3,0,0.5,0,0.8-0.1h0.1
		c0.3,0,0.6,0,0.9-0.1c0,0,0,0,0,0c0.3,0,0.5,0,0.8-0.1c0.1,0,0.1,0,0.2,0c0.3,0,0.7-0.1,1-0.1c0.1,0,0.3,0,0.4,0
		c0.2,0,0.4,0,0.6-0.1c0.1,0,0.1,0,0.2,0c0.3,0,0.5-0.1,0.7-0.1c0,0,0,0,0,0c0.3,0,0.5-0.1,0.8-0.1h0c0.3,0,0.5-0.1,0.8-0.1
		c0.5-0.1,1-0.2,1.5-0.3c0.2,0,0.5-0.1,0.7-0.1c0.3-0.1,0.5-0.1,0.8-0.2c0.2,0,0.5-0.1,0.7-0.1c0,0,0,0,0,0c0.2,0,0.3-0.1,0.5-0.1
		l0.1,0c0.1,0,0.1,0,0.2,0c0.1,0,0.2,0,0.3-0.1l0.1,0c0.1,0,0.3-0.1,0.4-0.1c0.2-0.1,0.5-0.1,0.7-0.2c0.4-0.1,0.9-0.2,1.2-0.3
		c0.1,0,0.1,0,0.2,0c0.5-0.1,0.9-0.3,1.3-0.4c0.2-0.1,0.5-0.1,0.7-0.2c0.2-0.1,0.5-0.1,0.7-0.2c0.2-0.1,0.5-0.1,0.7-0.2
		c0.6-0.2,1.2-0.4,1.7-0.6l0.1,0c0.1,0,0.2-0.1,0.2-0.1c0.4-0.1,0.7-0.3,1-0.4c0.1,0,0.1,0,0.1-0.1l0.1-0.1c0.2-0.1,0.4-0.2,0.7-0.3
		c0.2-0.1,0.5-0.2,0.7-0.3l0.1,0c0.1-0.1,0.2-0.1,0.4-0.2c0.1,0,0.1-0.1,0.2-0.1c0.9-0.4,1.8-0.8,2.6-1.2c0.3-0.2,0.6-0.3,0.9-0.4v0
		c0.1-0.1,0.3-0.1,0.4-0.2l0.5-0.3c0,0,0,0,0.1,0c0.1,0,0.1-0.1,0.2-0.1c0.1,0,0.1-0.1,0.2-0.1l1,0.6l0.5,0.3l0.1,0l0.5,0.3l1.5,0.9
		l0.2,0.1l0.5,0.3l0.6,0.3l0.8,0.5l0.4,0.2l0.6,0.3l0.5,0.3l0.6,0.3l0.1,0l0,0l1.1,0.6l0.5,0.3l0.6,0.3l1.2,0.7l1.1,0.6l0.6,0.3
		l0.6,0.3l1.1,0.6l0.6,0.3l0.6,0.3l0.6,0.3l0,0l1.1,0.6l0.6,0.3l0.4,0.3l1.2,0.7l0.6,0.3l0.5,0.3l1.7,1l0.5,0.3l0.6,0.3l1,0.6
		l0.1,0.1l0.6,0.3l0.5,0.3l0.6,0.3l0.3,0.2l0.3,0.2l0.5,0.3l0.5,0.3l0.6,0.3l0.2,0.1l1,0.6l1.1,0.6l0.1,0.1l0.4,0.3l1.5,0.9l0,0
		l0.1,0.1l0.6,0.3l0.6,0.3l1.7,1l0.6,0.3l0.5,0.3l0.2,0.1l1,0.6l0.6,0.3l0.5,0.3l1.7,1l0.4,0.2l0,0l0.7,0.4l0.9,0.5L256.6,180.1z"/>
</g>
<path class="st0" d="M280.8,168.8l-26.6,15.4l-26.6,15.4L159.3,160c0,0,0,0,0,0c0.6,0.1,15.4,3.8,29.7,2.8c14.6-1,24.9-7.4,24.9-7.4
	l42.8,24.7l-0.1-3.1l1.3-0.7l0.6-0.3l0.7-0.4l16.8-9.7l0,0l0.1,0.1l1.2,0.7l0.1,0.1l0.4,0.3l0.6,0.3l0.9,0.5h0L280.8,168.8
	L280.8,168.8z"/>
<path class="st0" d="M227.6,199.5l-31.2,18l-4.9-2.8L105.5,165l0.2-0.1l0.7-0.3l0.6-0.3l0.1,0l0.5-0.3l1.2-0.6l0.5-0.2l3.8-1.6
	l0.1,0l3.8-1.3l0.4-0.1l0.3-0.1l1.5-0.4l0,0l0,0l1.3-0.3l0.1,0l0.1,0l1.3-0.3l4.6-0.9l0.9-0.1l0.1,0l3-0.4l0.4-0.1l0.1,0l0.3,0
	l0.3,0l0.2,0l0.7,0l2.7-0.1h0l0.9-0.1h4.9l4.9,0.3l0.6,0.1l0.1,0l0.1,0l3.6,0.5l0.1,0l0.3,0l1.2,0.2l0.9,0.2l2,0.4l0.6,0.1l0.2,0
	l1.8,0.5l0.3,0.1l1.5,0.4l0,0c0,0,0,0,0,0L227.6,199.5z"/>
<polygon class="st0" points="283.2,173.7 256.8,189.6 256.5,188.9 254.2,184.2 254.2,184.1 280.8,168.8 "/>
<polygon class="st0" points="409.1,124.5 409.1,165.5 183.6,295.7 183.8,276.2 183.8,254.6 "/>
<polygon class="st0" points="409.1,165.5 409.1,206.5 183.3,336.9 183.6,295.7 "/>
<polygon class="st0" points="336.4,142.8 310,158.8 309.7,158.2 307.5,153.4 334.2,138 "/>
<polygon class="st0" points="309.7,158.2 283.4,174.3 283.2,173.7 280.8,168.8 307.5,153.4 "/>
<polygon class="st0" points="229.8,204.4 199,223 196.4,217.5 227.6,199.5 "/>
<polygon class="st0" points="256.5,188.9 230.1,205 229.8,204.4 227.6,199.5 254.2,184.1 254.2,184.2 "/>
<polygon class="st0" points="409.1,94.7 409.1,101 390,112.7 389.7,112 387.5,107.2 "/>
<polygon class="st0" points="105.7,126.8 105.7,162.2 96.2,156.6 96.2,120.4 "/>
<polyline class="st0" points="199.6,130.9 201.8,130.5 203.7,130.1 "/>
<path class="st0" d="M213.8,140.4L213.8,140.4l0,12c-0.1,0-0.1,0.1-0.2,0.1c-0.1,0-0.1,0.1-0.2,0.1c0,0,0,0-0.1,0
	c-1.1,0.5-3.1,1.5-4.3,2.1c-0.1,0-0.2,0.1-0.2,0.1c-0.2,0.1-0.3,0.1-0.4,0.2l-0.1,0c-0.3,0.1-0.5,0.2-0.7,0.3
	c-0.2,0.1-0.5,0.2-0.7,0.3l-0.1,0.1c0,0-0.1,0-0.1,0.1c-0.3,0.1-0.6,0.2-1,0.4c-0.1,0-0.2,0.1-0.2,0.1l-0.1,0
	c-0.5,0.2-1,0.4-1.7,0.6c-0.2,0.1-0.4,0.1-0.7,0.2c-0.2,0.1-0.4,0.1-0.7,0.2c-0.2,0.1-0.5,0.1-0.7,0.2c-0.4,0.1-0.9,0.2-1.3,0.4
	c-0.1,0-0.1,0-0.2,0c-0.4,0.1-0.8,0.2-1.2,0.3c-0.2,0.1-0.5,0.1-0.7,0.2c-0.1,0-0.3,0.1-0.4,0.1l-0.1,0c-0.1,0-0.2,0-0.3,0.1
	c-0.1,0-0.1,0-0.2,0l-0.1,0c-0.2,0-0.3,0.1-0.5,0.1c0,0,0,0,0,0c-0.2,0.1-0.5,0.1-0.7,0.1c-0.3,0.1-0.5,0.1-0.8,0.2
	c-0.2,0-0.5,0.1-0.7,0.1c-0.5,0.1-1,0.2-1.5,0.3c-0.3,0-0.5,0.1-0.8,0.1h0c-0.3,0-0.5,0.1-0.8,0.1c0,0,0,0,0,0
	c-0.2,0-0.5,0.1-0.7,0.1c-0.1,0-0.1,0-0.2,0c-0.2,0-0.4,0-0.6,0.1c-0.1,0-0.3,0-0.4,0c-0.3,0-0.7,0.1-1,0.1c-0.1,0-0.1,0-0.2,0
	c-0.3,0-0.5,0-0.8,0.1c0,0,0,0,0,0c-0.3,0-0.6,0-0.9,0.1h-0.1c-0.2,0-0.5,0-0.8,0.1c-0.1,0-0.1,0-0.2,0c-0.2,0-0.4,0-0.6,0
	c-0.1,0-0.2,0-0.3,0c-0.2,0-0.4,0-0.6,0c-0.1,0-0.2,0-0.4,0c-0.4,0-0.9,0-1.4,0h-1.3c-0.6,0-1.2,0-1.8,0c-0.1,0-0.2,0-0.3,0
	c-0.5,0-1.1,0-1.7-0.1l-1.6-0.1c-1.2-0.1-2.5-0.2-3.8-0.4l-1.4-0.2c-1-0.1-2-0.3-3-0.5l-1.8-0.3c-0.8-0.2-1.5-0.3-2.3-0.5h0
	c-0.2,0-0.3-0.1-0.5-0.1l-0.6-0.2c-0.3-0.1-0.5-0.1-0.8-0.2c-0.1,0-0.3-0.1-0.4-0.1c-0.4-0.1-0.8-0.2-1.2-0.4
	c-0.1,0-0.2-0.1-0.4-0.1c-0.1,0-0.2-0.1-0.4-0.1l-0.3-0.1l-0.1,0c0,0-0.1,0-0.1,0c-0.2-0.1-0.4-0.1-0.6-0.2
	c-0.2-0.1-0.4-0.1-0.7-0.2s-0.5-0.1-0.8-0.2c-0.1,0-0.3-0.1-0.4-0.1c-0.1,0-0.2,0-0.2-0.1c-0.2,0-0.3-0.1-0.5-0.1l-0.1,0
	c0,0-0.1,0-0.1,0c-0.1,0-0.1,0-0.2-0.1c-0.4-0.1-0.8-0.2-1.1-0.3c-0.5-0.1-1-0.2-1.6-0.3c-0.2,0-0.4-0.1-0.6-0.1
	c-0.2,0-0.4-0.1-0.6-0.1l-0.1,0c-0.1,0-0.1,0-0.2,0c-0.1,0-0.1,0-0.2,0l-0.2,0c-0.1,0-0.3,0-0.4-0.1c-0.1,0-0.3,0-0.4-0.1
	c-0.1,0-0.2,0-0.4-0.1c-0.2,0-0.4-0.1-0.7-0.1c0,0-0.1,0-0.1,0c-0.3,0-0.5-0.1-0.8-0.1c0,0-0.1,0-0.1,0c-0.2,0-0.5-0.1-0.7-0.1
	c-2.7-0.3-5.8-0.5-10.2-0.4c-1.2,0-2.6,0.1-4,0.2c-0.1,0-0.3,0-0.5,0.1l-0.1,0c-0.1,0-0.3,0-0.5,0.1h0c-0.2,0-0.3,0-0.5,0.1
	c-0.1,0-0.2,0-0.3,0c-0.2,0-0.5,0.1-0.7,0.1h0c-0.3,0-0.5,0.1-0.8,0.1c-0.1,0-0.1,0-0.2,0c-0.2,0-0.4,0.1-0.6,0.1
	c-0.2,0-0.3,0.1-0.5,0.1c-0.1,0-0.2,0-0.3,0c-0.3,0-0.5,0.1-0.8,0.1c-0.3,0-0.5,0.1-0.8,0.1c-0.1,0-0.2,0-0.3,0h0
	c-0.1,0-0.3,0.1-0.5,0.1c-0.2,0-0.4,0.1-0.6,0.1h0l-0.2,0c-0.3,0-0.5,0.1-0.8,0.1c-0.1,0-0.1,0-0.1,0c-0.2,0-0.4,0.1-0.6,0.1h0
	c-0.2,0-0.3,0.1-0.5,0.1c-0.1,0-0.2,0-0.3,0c-0.3,0-0.5,0.1-0.7,0.1c0,0-0.1,0-0.1,0c-0.2,0-0.4,0.1-0.6,0.1l-0.2,0
	c-0.1,0-0.2,0-0.3,0.1c-0.1,0-0.2,0-0.2,0.1c-0.3,0.1-0.5,0.1-0.7,0.2c-0.1,0-0.1,0-0.2,0.1c-0.2,0-0.3,0.1-0.5,0.1
	c-0.3,0.1-0.6,0.2-0.9,0.3l0,0c-0.1,0-0.2,0.1-0.3,0.1c-0.1,0-0.2,0.1-0.3,0.1h0c-0.1,0-0.2,0.1-0.3,0.1c0,0,0,0,0,0
	c-0.2,0.1-0.5,0.1-0.7,0.2c-0.2,0.1-0.4,0.1-0.6,0.2c0,0-0.1,0-0.1,0c-0.2,0.1-0.4,0.2-0.7,0.2c-0.2,0.1-0.4,0.1-0.6,0.2
	c0,0,0,0,0,0c-0.2,0.1-0.4,0.1-0.5,0.2l-0.1,0c-0.2,0.1-0.4,0.2-0.6,0.3l-0.1,0.1l0,0c-0.2,0.1-0.3,0.1-0.5,0.2
	c-0.2,0.1-0.4,0.2-0.6,0.3c-0.1,0.1-0.3,0.1-0.4,0.2c-0.1,0-0.1,0.1-0.2,0.1c-0.2,0.1-0.4,0.2-0.6,0.3c0,0-0.1,0.1-0.1,0.1l-0.1,0
	c-0.1,0.1-0.2,0.1-0.3,0.2c0,0-0.1,0-0.1,0.1l0,0c-0.2,0.1-0.3,0.2-0.5,0.2c-0.2,0.1-0.4,0.2-0.5,0.3l0,0v0c0,0-0.1,0-0.1,0.1
	l-0.4,0.2c0,0,0,0-0.1,0c-0.1,0-0.1,0.1-0.2,0.1h0c-0.1,0.1-0.3,0.1-0.4,0.2c-0.2,0.1-0.4,0.2-0.5,0.3c0,0,0,0,0,0
	c-0.1,0-0.1,0.1-0.2,0.1l0,0c-0.1,0.1-0.2,0.1-0.3,0.2c-0.2,0.1-0.4,0.2-0.5,0.3c-0.1,0-0.1,0-0.1,0v-35.4l3.7-1.7l4-1.5l4.3-1.1
	l4.5-0.8l4.7-0.6l4.8-0.2l4.9,0.1l4.9,0.5l4.8,0.8l4.7,1.1l4.6,1.4l4.4,1.7l4.6,1.8l4.8,1.5l5,1.1l5.1,0.8l5.2,0.4l5.1,0.1l5-0.3
	l4.8-0.7l10.6,7.1L213.8,140.4z"/>
<polygon class="st0" points="199.6,130.9 194.8,131.6 189.8,131.9 184.7,131.9 179.5,131.5 174.5,130.7 169.5,129.6 164.6,128.1 
	160,126.4 155.7,124.7 151.1,123.3 146.4,122.2 141.5,121.4 136.6,120.9 131.7,120.8 126.9,121 122.2,121.6 117.7,122.4 
	113.4,123.5 109.4,125.1 105.7,126.8 96.2,120.4 146.7,95.5 "/>
<polygon class="st0" points="234.1,152 234.1,154 213.8,140.4 210.2,138 146.7,95.5 148.4,94.6 148.5,94.6 "/>
<polygon class="st1" points="242.8,147 234.1,152 148.4,94.6 147.1,93.8 156.3,89.2 "/>
<polygon class="st1" points="253.4,140.9 244.6,145.9 158.4,88.2 167.7,83.6 "/>
<path class="st1" d="M244.6,145.9c-1.4-0.2-1.8,1.1-1.8,1.1l-86.5-57.8c0,0,0.2-0.6,0.7-0.9l0.1,0c0.6-0.3,1.3-0.2,1.3-0.2
	L244.6,145.9z"/>
<path class="st0" d="M253.4,140.9v1.9l-8.6,5l-0.5,0.3v6.3c0,0,0.3,0.1,0,0.8c-0.3,0.7-0.5,1.1-0.6,1.1c-0.1,0-0.2,0-0.3-0.1
	c-0.2-0.2-0.4-0.5-0.4-1.3l0.2,0v-6.2l-5.1,2.9l-0.8,0.5l-3.2,1.8l0.1-2l8.6-4.9c0,0,0.4-1.2,1.8-1.1L253.4,140.9z"/>
<path class="st0" d="M167.7,83.6l-9.3,4.6c0,0-0.6-0.1-1.3,0.2l8.1-4L167.7,83.6z"/>
<path class="st0" d="M157,88.4c-0.5,0.3-0.7,0.9-0.7,0.9l-9.2,4.5l-2.4,0.7L157,88.4z"/>
<line class="st0" x1="157.1" y1="88.4" x2="157" y2="88.4"/>
<polygon class="st0" points="144.6,96.5 144.6,94.5 147.1,93.8 148.4,94.6 "/>
<polygon class="st0" points="243.1,148.7 243.1,154.9 243,154.9 238.1,151.6 "/>
<path class="st0" d="M243.4,156.2l-6.1-4.1l0.8-0.5l4.9,3.3C243,155.7,243.2,156,243.4,156.2z"/>
<path class="st0" d="M256.5,155.8v21.3l-0.9-0.5l-0.7-0.4l0,0l-0.4-0.2l-1.7-1l-0.5-0.3l-0.6-0.3l-1-0.6l-0.2-0.1l-0.5-0.3l-0.6-0.3
	l-1.7-1l-0.6-0.3l-0.6-0.3l-0.1-0.1l0,0l-1.5-0.9l-0.4-0.3l-0.1-0.1l-1.1-0.6l-1-0.6l-0.2-0.1l-0.6-0.3l-0.5-0.3l-0.5-0.3l-0.3-0.2
	l-0.3-0.2l-0.6-0.3l-0.5-0.3l-0.6-0.3l-0.1-0.1l-1-0.6l-0.6-0.3l-0.5-0.3l-1.7-1l-0.5-0.3l-0.6-0.3l-1.2-0.7l-0.4-0.3l-0.6-0.3
	l-1.1-0.6l0,0l-0.6-0.3l-0.6-0.3l-0.6-0.3l-1.1-0.6l-0.6-0.3l-0.6-0.3l-1.1-0.6l-1.2-0.7l-0.6-0.3l-0.5-0.3l-1.1-0.6l0,0l-0.1,0
	l-0.6-0.3l-0.5-0.3l-0.6-0.3l-0.4-0.2l-0.8-0.5l-0.6-0.3l-0.5-0.3l-0.2-0.1l-1.5-0.9l-0.5-0.3l-0.1,0l-0.5-0.3l-1-0.6l0-12
	l20.3,13.6l3.2-1.8l6.1,4.1c0.1,0.1,0.3,0.1,0.3,0.1c0.1,0,0.3-0.4,0.6-1.1c0.3-0.7,0-0.8,0-0.8V148l0.5-0.3L256.5,155.8z"/>
<polygon class="st0" points="256.5,155.8 379.1,85 379.1,106.3 256.5,177.1 "/>
<polygon class="st0" points="379.1,85 289.5,25.1 169.1,84.5 253.4,140.9 253.4,142.8 244.8,147.8 256.5,155.8 "/>
<polygon class="st0" points="379.1,85 380,84.4 380.8,85.9 380.8,107.3 379.1,106.3 "/>
<polygon class="st0" points="289.5,25.1 291.3,24.3 379.2,83.1 380.8,85.9 380.8,86.2 379.1,85 "/>
<polygon class="st0" points="380.8,85.9 387.8,81.8 387.8,103.2 380.8,107.3 "/>
<polygon class="st0" points="389.8,80.7 389.8,102.1 396.7,98.1 396.7,76.7 "/>
<polygon class="st0" points="387.8,81.8 389.8,80.7 389.8,102.1 387.8,103.2 "/>
<polygon class="st0" points="380.8,85.9 387.8,81.8 386.3,79 379.2,83.1 "/>
<path class="st0" d="M389.8,80.7l-1.9,1.1l-1.6-2.8c0,0,0.2-0.5,0.8-0.9c0.7-0.4,1.1-0.3,1.1-0.3l0,0L389.8,80.7z"/>
<polygon class="st0" points="389.8,80.7 396.7,76.7 395.3,73.8 388.2,77.9 "/>
<polygon class="st0" points="395.3,73.8 388.2,77.9 388.2,77.9 299.6,18.6 307.1,14.9 "/>
<polygon class="st0" points="386.3,79 379.2,83.1 289.9,23.4 297.5,19.6 297.5,19.6 "/>
<path class="st0" d="M388.2,77.9c-0.1,0-0.5-0.1-1.1,0.3c-0.6,0.4-0.8,0.9-0.8,0.9l-88.8-59.4l0,0c0,0,0.4-0.7,0.9-0.8
	c0.4-0.1,1-0.2,1.1-0.2h0c0,0,0,0,0,0L388.2,77.9z"/>
<path class="st0" d="M307.1,14.9l-7.5,3.7c0,0,0,0,0,0h0c-0.2,0-0.7,0-1.1,0.2c-0.5,0.2-0.9,0.8-0.9,0.8l-7.5,3.7l-2.4,0.7l17.2-8.5
	L307.1,14.9z"/>
<polygon class="st0" points="297.5,19.6 289.9,23.4 297.5,19.6 "/>
<polygon class="st0" points="287.6,26.1 287.6,24.1 289.9,23.4 291.3,24.3 "/>
<polygon class="st0" points="409.1,89.1 409.1,67.7 396,75.3 396.7,76.7 396.7,96.3 "/>
<polygon class="st0" points="323.1,8.5 409.1,67.7 396,75.3 395.3,73.8 308.4,15.8 "/>
<polygon class="st0" points="409.1,101 409.1,124.5 183.8,254.6 183.8,219.1 191.5,214.7 196.4,217.5 199,223 229.8,204.4 
	230.1,205 256.5,188.9 256.8,189.6 283.2,173.7 283.4,174.3 309.7,158.2 310,158.8 336.4,142.8 336.7,143.5 363,127.4 363.4,128.1 
	389.7,112 390,112.7 "/>
<polygon class="st0" points="389.7,112 363.4,128.1 363,127.4 360.8,122.6 387.5,107.2 "/>
<polygon class="st0" points="363,127.4 336.7,143.5 336.4,142.8 334.2,138 360.8,122.6 "/>
<polygon class="st0" points="360.8,122.6 334.2,138 331.8,136.6 331.2,136.3 330.7,136 330.2,135.7 329.6,135.3 329.2,135.1 
	329.5,135 330.6,134.3 330.6,134.3 331.1,134 331.7,133.7 332.3,133.3 332.7,133.1 332.8,133 333.4,132.7 334,132.4 334.5,132 
	334.8,131.9 335,131.7 336.2,131.1 336.8,130.7 337.3,130.4 337.8,130.1 338.4,129.8 339,129.4 339.5,129.1 340.1,128.8 
	341.1,128.3 341.2,128.1 341.2,128.1 341.8,127.8 342.3,127.5 342.9,127.2 343.2,127 344,126.5 344.6,126.2 345.1,125.9 
	345.3,125.8 346.3,125.2 346.3,125.2 346.8,124.9 347.4,124.6 347.4,124.6 349.1,123.6 349.5,123.4 349.6,123.3 350.2,123 
	351.9,122 351.9,122 352.4,121.7 353.5,121 353.7,121 353.7,121 354.7,120.4 355.8,119.7 "/>
<polygon class="st0" points="307.5,153.4 280.8,168.8 275.9,165.9 275.9,165.9 275.9,165.9 276.2,165.7 276.2,165.7 276.3,165.7 
	276.6,165.5 277.4,165 277.8,164.8 277.9,164.7 278.3,164.5 278.4,164.4 278.5,164.4 278.9,164.1 279.6,163.7 279.9,163.6 
	280.2,163.4 280.4,163.3 280.7,163.1 281.3,162.8 281.6,162.6 281.8,162.5 282.4,162.1 282.5,162.1 282.5,162.1 282.5,162 
	283,161.8 283,161.8 283.6,161.5 284.1,161.2 284.6,160.8 284.6,160.8 285.8,160.2 286.3,159.9 286.7,159.6 286.8,159.6 
	286.9,159.5 288,158.9 288.6,158.6 288.8,158.4 288.8,158.4 288.9,158.4 289.1,158.2 289.7,157.9 290.8,157.3 290.9,157.2 
	290.9,157.2 291.4,156.9 291.4,156.9 291.9,156.6 293,156 293,156 293.6,155.7 293.6,155.6 293.6,155.6 294.2,155.3 294.6,155.1 
	294.7,155 295,154.8 295.1,154.8 295.1,154.8 295.9,154.3 296.2,154.1 296.4,154 297,153.7 297.2,153.6 297.2,153.6 298.1,153.1 
	298.7,152.7 298.9,152.6 299.2,152.4 299.3,152.4 299.3,152.3 299.3,152.3 299.8,152.1 300,152 300.3,151.8 300.3,151.8 
	300.3,151.8 301.1,151.3 301.4,151.2 301.4,151.1 301.5,151.1 301.7,151 302,150.8 302.4,150.5 302.5,150.5 302.5,150.5 
	302.6,150.5 302.6,150.5 302.7,150.5 302.8,150.6 303.3,150.9 303.9,151.3 304.5,151.6 304.7,151.7 304.7,151.7 "/>
<polygon class="st0" points="334.2,138 307.5,153.4 304.7,151.7 304.7,151.7 304.5,151.6 303.9,151.3 303.3,150.9 302.9,150.7 
	302.8,150.6 302.7,150.5 302.6,150.5 303.1,150.2 303.5,149.9 304.3,149.5 304.3,149.5 304.8,149.2 305.4,148.9 306.1,148.4 
	306.5,148.2 306.8,148.1 307.1,147.9 307.6,147.6 307.6,147.6 307.8,147.4 308.2,147.2 309,146.8 309.3,146.6 309.8,146.3 
	309.8,146.3 309.8,146.3 309.9,146.3 310.4,145.9 311.9,145.1 311.9,145.1 312,145 312.1,145 312.6,144.7 312.7,144.6 313.2,144.3 
	314,143.9 314.3,143.7 314.9,143.4 315.5,143 316,142.7 316.6,142.4 317.2,142.1 317.7,141.7 318,141.6 318.3,141.4 318.8,141.1 
	319.4,140.8 320,140.4 320.1,140.4 320.5,140.1 321,139.8 321.6,139.5 322.3,139.1 322.3,139.1 322.8,138.8 323.3,138.5 
	323.9,138.2 324.4,137.9 324.4,137.9 325.6,137.2 326.1,136.9 326.5,136.7 326.7,136.6 327.2,136.3 327.8,135.9 328.3,135.6 
	328.6,135.5 328.9,135.3 329.2,135.1 329.6,135.3 330.2,135.7 330.7,136 331.1,136.2 331.2,136.3 331.5,136.4 331.8,136.6 "/>
<line class="st0" x1="329.2" y1="135.1" x2="305.6" y2="152.2"/>
<polyline class="st0" points="332.4,136.9 355.8,119.7 379.2,106.2 358.8,121.5 "/>
<polygon class="st0" points="98.6,158 98.6,158.7 96.5,159.8 89.6,160.4 96.2,156.6 96.2,156.6 "/>
<polygon class="st0" points="98.6,158.7 98.6,161 98.5,161 96.5,159.8 "/>
<g>
	<polygon class="st0" points="98.6,158 105.8,162.1 105.8,165.5 98.5,161 	"/>
</g>
<polygon class="st0" points="90.9,165.5 98.5,161 191.5,214.7 183.8,219.1 "/>
<line class="st0" x1="183.8" y1="254.6" x2="91" y2="201.1"/>
<g>
	<g>
		<line class="st1" x1="243" y1="146.6" x2="241.4" y2="145.5"/>
		<line class="st2" x1="238.1" y1="143.3" x2="161.8" y2="91.8"/>
		<polyline class="st1" points="160.2,90.7 158.5,89.6 160.3,88.7 		"/>
		<line class="st3" x1="162.6" y1="87.6" x2="166.1" y2="85.9"/>
		<line class="st1" x1="167.3" y1="85.4" x2="169.1" y2="84.5"/>
	</g>
</g>
<line class="st4" x1="211.5" y1="136.9" x2="211.6" y2="127.3"/>
<line class="st4" x1="213.8" y1="138.4" x2="213.9" y2="127.7"/>
<polygon class="st0" points="275.9,165.9 256.6,180.1 256.5,177.1 257.8,176.4 259.1,175.6 "/>
<line class="st0" x1="279.1" y1="167.8" x2="302.7" y2="150.5"/>
<g>
	<line class="st1" x1="183.9" y1="295.6" x2="91.2" y2="242"/>
	<line class="st4" x1="153.5" y1="236.9" x2="183.8" y2="289.7"/>
	<line class="st4" x1="165.3" y1="244.3" x2="183.8" y2="276.2"/>
	<line class="st4" x1="175" y1="249.4" x2="183.8" y2="264.7"/>
	<line class="st4" x1="142.8" y1="230.7" x2="178.4" y2="292.8"/>
	<line class="st4" x1="132.5" y1="225" x2="167.6" y2="286.1"/>
	<line class="st4" x1="122.5" y1="219.6" x2="157.2" y2="280.2"/>
	<line class="st4" x1="110.7" y1="212.8" x2="145.8" y2="273.9"/>
	<line class="st4" x1="100.2" y1="206.9" x2="134.7" y2="267.1"/>
	<line class="st4" x1="91.1" y1="203.3" x2="124" y2="260.6"/>
	<line class="st4" x1="91.1" y1="215.4" x2="113.9" y2="255.1"/>
	<line class="st4" x1="90.9" y1="228.2" x2="103" y2="249.3"/>
</g>
<line class="st4" x1="99.1" y1="247" x2="90.9" y2="251.8"/>
<line class="st4" x1="106.1" y1="250.6" x2="90.7" y2="259.5"/>
<line class="st4" x1="112.3" y1="254.2" x2="90.9" y2="266.8"/>
<line class="st4" x1="118.6" y1="258" x2="90.7" y2="274"/>
<line class="st4" x1="125" y1="261.6" x2="95" y2="278.9"/>
<line class="st4" x1="131.2" y1="265.1" x2="100.7" y2="282.7"/>
<line class="st4" x1="137.5" y1="268.8" x2="106.7" y2="286.6"/>
<line class="st4" x1="143.6" y1="272.3" x2="112.4" y2="290.3"/>
<line class="st4" x1="148.4" y1="275.4" x2="117.1" y2="293.5"/>
<line class="st4" x1="154.6" y1="278.9" x2="122.9" y2="297.2"/>
<line class="st4" x1="160.9" y1="282.5" x2="128.9" y2="301.2"/>
<line class="st4" x1="167" y1="286.1" x2="134.5" y2="304.9"/>
<line class="st4" x1="172.8" y1="288.9" x2="139.8" y2="308"/>
<line class="st4" x1="179.4" y1="292.7" x2="145.7" y2="312.2"/>
<line class="st4" x1="183.5" y1="302.4" x2="155.5" y2="318.6"/>
<line class="st4" x1="183.5" y1="308.3" x2="160.2" y2="321.8"/>
<line class="st4" x1="183.5" y1="315.4" x2="166.3" y2="325.4"/>
<line class="st4" x1="183.5" y1="322.7" x2="171.9" y2="329.4"/>
<line class="st4" x1="183.4" y1="330.4" x2="178" y2="333.6"/>
<line class="st4" x1="183.5" y1="296.5" x2="150.6" y2="315.5"/>
<g>
	<line class="st4" x1="96.6" y1="168.9" x2="90.9" y2="172.5"/>
	<line class="st4" x1="103.3" y1="172.7" x2="90.9" y2="180.2"/>
	<line class="st4" x1="109.5" y1="176.3" x2="90.9" y2="187.5"/>
	<line class="st4" x1="115.8" y1="180" x2="90.9" y2="194.6"/>
	<line class="st4" x1="122.2" y1="183.6" x2="91.5" y2="201.3"/>
	<line class="st4" x1="128.3" y1="187.1" x2="97.6" y2="204.9"/>
	<line class="st4" x1="134.6" y1="190.8" x2="103.9" y2="208.7"/>
	<line class="st4" x1="140.8" y1="194.3" x2="110" y2="212.1"/>
	<line class="st4" x1="145.9" y1="197.2" x2="115.2" y2="215"/>
	<line class="st4" x1="151.9" y1="200.8" x2="121.3" y2="218.5"/>
	<line class="st4" x1="158.3" y1="204.4" x2="127.7" y2="222.2"/>
	<line class="st4" x1="164.5" y1="207.9" x2="133.8" y2="225.7"/>
	<line class="st4" x1="169.8" y1="211.1" x2="139.1" y2="228.8"/>
	<line class="st4" x1="176.3" y1="214.9" x2="145.7" y2="232.6"/>
	<line class="st4" x1="183.1" y1="222.5" x2="155.7" y2="238.3"/>
	<line class="st4" x1="183.5" y1="228.7" x2="161.1" y2="241.6"/>
	<line class="st4" x1="183.9" y1="235.1" x2="167.4" y2="244.6"/>
	<line class="st4" x1="183.9" y1="242.9" x2="173.7" y2="248.8"/>
	<line class="st4" x1="183.7" y1="250.5" x2="180.2" y2="252.5"/>
	<line class="st4" x1="181.7" y1="217.9" x2="151" y2="235.7"/>
</g>
<line class="st4" x1="98.5" y1="122" x2="105.6" y2="129.3"/>
<line class="st4" x1="96.2" y1="123.4" x2="105.6" y2="132.9"/>
<line class="st4" x1="105.6" y1="136.3" x2="96.2" y2="126.8"/>
<line class="st4" x1="96.2" y1="130.5" x2="105.6" y2="140"/>
<line class="st4" x1="105.6" y1="143.5" x2="96.2" y2="134"/>
<line class="st4" x1="96.2" y1="137.6" x2="105.6" y2="147.1"/>
<line class="st4" x1="105.6" y1="150.6" x2="96.2" y2="141.1"/>
<line class="st4" x1="96.2" y1="144.7" x2="105.6" y2="154.1"/>
<line class="st4" x1="105.6" y1="157.6" x2="96.2" y2="148.1"/>
<line class="st4" x1="96.2" y1="151.6" x2="105.6" y2="161.1"/>
<line class="st4" x1="96.2" y1="155.3" x2="99.4" y2="158.5"/>
<line class="st0" x1="387.5" y1="107.2" x2="386.2" y2="104.2"/>
<polyline class="st0" points="387,106.2 409.1,89.1 409.1,94.7 "/>
<line class="st4" x1="244.6" y1="148" x2="256.3" y2="159.9"/>
<line class="st4" x1="256.5" y1="163.6" x2="244.3" y2="151.5"/>
<line class="st4" x1="244.3" y1="155.2" x2="256.5" y2="167.1"/>
<line class="st4" x1="239.8" y1="153.7" x2="256.5" y2="170.6"/>
<line class="st4" x1="256.5" y1="174.2" x2="235.5" y2="153.2"/>
<line class="st4" x1="230.1" y1="151.1" x2="254.9" y2="176.1"/>
<line class="st4" x1="246.6" y1="171.3" x2="219.3" y2="144.1"/>
<line class="st4" x1="238.2" y1="166.5" x2="213.7" y2="142.1"/>
<line class="st4" x1="229.9" y1="161.7" x2="213.9" y2="145.7"/>
<line class="st4" x1="221.5" y1="156.9" x2="213.8" y2="149.2"/>
<line class="st0" x1="254.2" y1="184.1" x2="209.5" y2="157.6"/>
<g>
	<g>
		<line class="st1" x1="148.4" y1="94.6" x2="150.2" y2="93.8"/>
		<polyline class="st1" points="155.1,91.3 156.9,90.4 158.6,91.6 		"/>
		<line class="st5" x1="162" y1="93.9" x2="208.2" y2="125"/>
		<path class="st1" d="M209.9,126.2l1.7,1.1c0,0-0.7,0.3-1.9,0.8"/>
		<path class="st6" d="M207.8,128.8c-0.9,0.3-2,0.7-3,1"/>
		<path class="st1" d="M203.7,130.1c-0.7,0.2-1.3,0.3-2,0.4"/>
	</g>
</g>
</svg>
